<svg viewBox="0 0 24 24" fill="none" xmlns="http://www.w3.org/2000/svg">
  <path
    d="M2.66669 4.26428C2.66669 4.14682 2.6976 4.10278 2.79036 4.07341C3.48988 4.04405 5.4377 4 6.96427 4C11.602 4 12.429 6.5694 12.429 8.12572C12.4533 8.74649 12.3264 9.36422 12.0583 9.93082C11.7902 10.4974 11.388 10.9976 10.8831 11.3925C11.8184 11.822 13.2019 12.9158 13.2019 15.1805C13.2019 18.1794 10.6628 20.0147 6.80195 19.9853C5.15171 19.9853 3.65606 19.9559 2.86379 19.9413C2.81419 19.9366 2.76853 19.9136 2.7367 19.8772C2.70487 19.8407 2.68943 19.7939 2.69374 19.7467L2.66669 4.26428ZM5.31403 10.5373H6.83673C7.49626 10.5049 8.15734 10.5147 8.81548 10.5666C9.1327 10.3108 9.38351 9.98899 9.54841 9.62611C9.7133 9.26323 9.78783 8.86912 9.7662 8.47442C9.7662 7.00619 8.66089 6.27208 6.88311 6.27208C6.27635 6.27208 5.7005 6.30145 5.31403 6.31613V10.5373ZM5.31403 17.7206C5.76234 17.7536 6.18359 17.7206 6.74398 17.7206C8.72272 17.7206 10.373 17.0122 10.373 15.1952C10.373 14.0684 9.7662 13.2865 8.53335 12.9305C8.05314 12.8012 7.55614 12.737 7.05702 12.7396H5.31403V17.7206ZM15.5865 10.596C15.5865 10.4308 15.5865 10.0014 15.5092 9.19018C15.5092 9.07272 15.5556 9.04336 15.6522 8.99931C17.4097 8.34896 19.2772 8.00815 21.1633 7.99358C21.287 7.99358 21.3333 8.02294 21.3333 8.1404V10.24C21.3333 10.3574 21.3333 10.3868 21.2097 10.3868C20.255 10.3351 19.298 10.4331 18.3768 10.6768V19.8532C18.3768 19.9706 18.3305 20.0147 18.2029 20.0147H15.7604C15.6367 20.0147 15.5865 19.9706 15.5865 19.8532V10.596Z"
    fill="currentColor" />
</svg>