<svg viewBox="0 0 24 24" fill="none" xmlns="http://www.w3.org/2000/svg">
  <path
    d="M21.9936 15.5999C21.9936 15.4477 21.8451 13.6963 18.8051 13.7708C15.7652 13.8452 15.032 14.0427 15.032 14.0427C15.032 14.0427 12.76 11.686 11.932 9.8569C11.932 9.8569 12.9369 6.85269 12.88 4.96212C12.8232 3.07154 12.3934 1.98704 10.984 1.99999C9.57462 2.01294 9.35973 3.29491 9.54618 5.17578C9.73101 6.44462 10.0773 7.68318 10.5764 8.85982C10.5764 8.85982 9.92222 10.9446 9.05637 13.0359C8.19051 15.1272 7.60274 16.1988 7.60274 16.1988C7.60274 16.1988 4.67653 17.2023 3.40935 18.4098C2.14216 19.6173 1.62391 20.5335 2.29385 21.4529C2.86898 22.2525 4.88193 22.4241 6.68317 20.0155C7.63768 18.7676 8.50969 17.4558 9.29337 16.0887C9.29337 16.0887 12.0395 15.3182 12.8927 15.1175C13.7459 14.9168 14.7887 14.7387 14.7887 14.7387C14.7887 14.7387 17.2978 17.3286 19.7152 17.2315C22.1327 17.1343 22.0063 15.752 21.9936 15.5999ZM2.9227 21.0547C1.41851 20.1321 6.08275 17.293 6.92017 17.2023C6.92017 17.2023 4.49641 22.0194 2.9227 21.0547ZM10.0739 4.47976C10.0739 2.98413 10.5479 2.57623 10.9145 2.57623C11.281 2.57623 11.6982 2.75752 11.7108 4.05567C11.7235 5.35383 10.9145 7.8951 10.9145 7.8951C10.6364 7.5908 10.0739 5.97539 10.0739 4.47976ZM12.0173 14.7226C11.2383 14.8991 10.479 15.1573 9.75158 15.493L10.3836 14.0751C11.0156 12.6539 11.6476 10.718 11.6476 10.718C12.3824 11.9881 13.2377 13.1809 14.2009 14.279C13.4659 14.3871 12.737 14.5351 12.0173 14.7226ZM15.6451 14.5931C15.6451 14.5931 20.5527 13.6834 20.5527 15.3991C20.5527 17.1149 17.5127 16.4157 15.6451 14.5931Z"
    fill="currentColor" />
</svg>