<svg viewBox="0 0 24 24" fill="none" xmlns="http://www.w3.org/2000/svg">
<path fill-rule="evenodd" clip-rule="evenodd" d="M14.8496 11.4858L16.4187 11.5321L16.4361 19.7996C16.4361 19.9331 16.4952 20 16.6142 20H19.1495C19.2388 20 19.2944 19.9777 19.3167 19.9331C19.338 19.8918 19.3494 19.8461 19.3499 19.7996L19.3325 11.5321H21.5086C21.6422 11.5322 21.709 11.4803 21.709 11.3762V9.41602C21.7123 9.36906 21.7006 9.32228 21.6755 9.28243C21.6532 9.25273 21.5974 9.23789 21.5086 9.23789H19.3325V8.34735C19.3201 8.01093 19.3692 7.67506 19.4774 7.35629C19.5556 7.13252 19.7143 6.9459 19.9227 6.83284C20.2046 6.72528 20.5044 6.67238 20.8062 6.67694H21.1401C21.2588 6.67694 21.5019 6.68459 21.6059 6.69928C21.7248 6.72906 21.7843 6.69193 21.7843 6.58789V4.38299C21.7855 4.33408 21.771 4.28608 21.7429 4.24601C21.7148 4.20595 21.6746 4.17593 21.6282 4.16035C21.4183 4.09769 21.2025 4.05663 20.9843 4.03779C20.7698 4.01445 20.5541 4.00331 20.3383 4.00444C19.5684 3.96683 18.8057 4.16913 18.1557 4.58343C17.6114 4.96355 17.1743 5.47745 16.8863 6.0756C16.7177 6.43289 16.5978 6.8112 16.5298 7.20039C16.4526 7.86216 16.4155 8.528 16.4187 9.19426V9.2379L14.8496 9.22071C14.8284 9.21769 14.8068 9.21964 14.7866 9.2264C14.7662 9.23317 14.7478 9.24456 14.7327 9.25968C14.7175 9.27481 14.7061 9.29324 14.6993 9.31354C14.6925 9.33383 14.6906 9.35542 14.6936 9.37661V11.3299C14.6936 11.419 14.7456 11.4711 14.8496 11.4858ZM2.60217 5.50766V19.739C2.60217 19.8577 2.6542 19.9171 2.75825 19.9171H5.36466C5.39188 19.921 5.41963 19.9185 5.44572 19.9097C5.4718 19.901 5.4955 19.8864 5.51494 19.8669C5.53439 19.8475 5.54904 19.8238 5.55774 19.7977C5.56645 19.7716 5.56897 19.7439 5.5651 19.7167V15.3292C5.83225 15.3293 6.03269 15.333 6.16642 15.3404C6.29966 15.3478 6.52969 15.3515 6.85651 15.3515C7.91885 15.3654 8.97501 15.1881 9.97459 14.8281C10.8714 14.5086 11.6487 13.9217 12.2015 13.1466C12.7793 12.2781 13.0677 11.2492 13.0256 10.2068C13.0277 9.59559 12.9222 8.98874 12.7141 8.414C12.4938 7.82353 12.1481 7.28787 11.7007 6.84395C11.1729 6.33183 10.5375 5.94381 9.84086 5.70812C8.92227 5.40327 7.95777 5.26008 6.99024 5.2849C6.57466 5.285 6.15525 5.28872 5.73202 5.29606C5.30882 5.30361 4.90794 5.31106 4.52938 5.3184C4.15053 5.32584 3.79785 5.33324 3.47132 5.34059C3.14449 5.34823 2.97306 5.35176 2.7359 5.35176C2.64685 5.35176 2.60217 5.4039 2.60217 5.50766ZM5.5651 12.6343V8.02424C5.66857 8.00964 5.85785 7.99852 6.13296 7.99088C6.40766 7.98343 6.72312 7.97971 7.07934 7.97971C7.63453 7.96216 8.18754 8.05688 8.70524 8.25819C9.10167 8.41599 9.43989 8.69204 9.67393 9.0488C9.89661 9.41776 10.0087 9.84287 9.99694 10.2737C10.0278 10.7854 9.87371 11.2913 9.56283 11.699C9.26236 12.0478 8.86796 12.303 8.42659 12.434C7.91036 12.5895 7.37327 12.6646 6.83419 12.6567H6.09942C5.93601 12.6568 5.7579 12.6493 5.5651 12.6343Z" fill="currentColor"/>
</svg>
