<svg viewBox="0 0 24 24" fill="none" xmlns="http://www.w3.org/2000/svg">
  <path
    d="M5.29133 15.4711L4.04994 19.8212C4.04808 19.8462 4.04058 19.8705 4.02792 19.8926C4.01526 19.9146 3.99774 19.934 3.97647 19.9495C3.9552 19.9649 3.93066 19.9761 3.90444 19.9822C3.87822 19.9883 3.8509 19.9893 3.82424 19.9851H1.52283C1.36161 19.9851 1.34549 19.9404 1.36161 19.7765L5.80723 5.34078C5.91876 4.95203 5.97299 4.55114 5.96845 4.14898C5.96845 4.05959 6.01682 4 6.09743 4H9.3863C9.48303 4 9.54752 4.0298 9.56364 4.14898L14.5776 19.7914C14.6098 19.9106 14.5776 19.9851 14.4486 19.9851H11.853C11.724 19.9851 11.6434 19.9404 11.6272 19.8361L10.3375 15.4711H5.29133ZM9.67649 13.1024C9.2412 11.5084 8.19328 8.02235 7.80635 6.30912H7.77411C7.43555 8.02235 6.61333 10.8678 5.95636 13.1173L9.67649 13.1024Z"
    fill="currentColor" />
  <path
    d="M16.6895 10.5996C16.6895 10.4358 16.6895 10.0037 16.6089 9.18436C16.601 9.14309 16.6098 9.10059 16.6336 9.06491C16.6573 9.02922 16.6944 9.00282 16.7379 8.9907C18.5721 8.34069 20.5169 7.99766 22.4813 7.97766C22.6103 7.97766 22.6586 8.00746 22.6586 8.12664V10.257C22.6586 10.3762 22.6103 10.406 22.4813 10.406C21.4771 10.3524 20.4702 10.448 19.4987 10.689V19.851C19.4987 19.9702 19.4504 20.0149 19.3214 20.0149H16.8668C16.7379 20.0149 16.6895 19.9702 16.6895 19.851V10.5996Z"
    fill="currentColor" />
</svg>