<svg viewBox="0 0 24 24" fill="none" xmlns="http://www.w3.org/2000/svg">
<path d="M4.8992 15.3111L3.77398 19.6393C3.77398 19.7547 3.71772 19.8124 3.54894 19.8124H1.4673C1.35477 19.8124 1.29851 19.7547 1.35477 19.5816L5.34928 5.26961C5.43761 4.89189 5.47547 4.5036 5.4618 4.11542C5.4618 4 5.51806 4 5.57432 4H8.49988C8.6124 4 8.6124 4 8.66866 4.11542L13.1695 19.6249C13.1695 19.7403 13.1695 19.798 13.057 19.798H10.7503C10.7067 19.7977 10.6637 19.7872 10.6247 19.7672C10.5857 19.7472 10.5516 19.7182 10.5253 19.6826L9.40005 15.3111H4.8992ZM8.83744 13.0027C8.44362 11.3868 7.48718 7.92426 7.14962 6.19297C6.86832 7.86655 6.09473 10.752 5.51806 13.0027H8.83744ZM16.3764 14.4454C16.3764 16.4076 17.3328 17.7349 19.4144 17.7349C20.2028 17.7596 20.9864 17.6018 21.7071 17.2732C21.8196 17.2155 21.8758 17.2732 21.8758 17.3886V19.1921C21.8732 19.2989 21.8333 19.4013 21.7633 19.4806C21.0319 19.8846 20.0755 20 18.9503 20C15.2371 20 13.8306 17.1722 13.8306 14.0559C13.8306 10.651 15.5887 7.88097 18.5565 7.88097C21.5945 7.88097 22.6635 10.5356 22.6635 12.6709C22.6735 13.1736 22.6359 13.6761 22.551 14.1713C22.5501 14.2093 22.535 14.2455 22.5088 14.2723C22.4826 14.2992 22.4473 14.3147 22.4103 14.3156C21.6264 14.4117 20.8367 14.4503 20.0474 14.431L16.3764 14.4454ZM19.2457 12.4833H20.3005V12.2525C20.3005 11.4301 19.9208 9.98738 18.458 9.98738C17.1078 9.98738 16.5451 11.1993 16.3764 12.4689L19.2457 12.4833Z" fill="currentColor"/>
</svg>
