<svg viewBox="0 0 24 24" fill="none" xmlns="http://www.w3.org/2000/svg">
<path fill-rule="evenodd" clip-rule="evenodd" d="M5.70711 2.29289C6.09763 2.68342 6.09763 3.31658 5.70711 3.70711L2.70711 6.70711C2.31658 7.09763 1.68342 7.09763 1.29289 6.70711C0.902369 6.31658 0.902369 5.68342 1.29289 5.29289L4.29289 2.29289C4.68342 1.90237 5.31658 1.90237 5.70711 2.29289ZM18.2929 2.29289C18.6834 1.90237 19.3166 1.90237 19.7071 2.29289L22.7071 5.29289C23.0976 5.68342 23.0976 6.31658 22.7071 6.70711C22.3166 7.09763 21.6834 7.09763 21.2929 6.70711L18.2929 3.70711C17.9024 3.31658 17.9024 2.68342 18.2929 2.29289ZM12 6C8.13401 6 5 9.13401 5 13C5 16.866 8.13401 20 12 20C15.866 20 19 16.866 19 13C19 9.13401 15.866 6 12 6ZM3 13C3 8.02944 7.02944 4 12 4C16.9706 4 21 8.02944 21 13C21 15.125 20.2635 17.078 19.0319 18.6177L20.7071 20.2929C21.0976 20.6834 21.0976 21.3166 20.7071 21.7071C20.3166 22.0976 19.6834 22.0976 19.2929 21.7071L17.6177 20.0319C16.078 21.2635 14.125 22 12 22C9.87499 22 7.92199 21.2635 6.38231 20.0319L4.70711 21.7071C4.31658 22.0976 3.68342 22.0976 3.29289 21.7071C2.90237 21.3166 2.90237 20.6834 3.29289 20.2929L4.9681 18.6177C3.73647 17.078 3 15.125 3 13ZM12 8C12.5523 8 13 8.44772 13 9V12.5858L14.7071 14.2929C15.0976 14.6834 15.0976 15.3166 14.7071 15.7071C14.3166 16.0976 13.6834 16.0976 13.2929 15.7071L11.2929 13.7071C11.1054 13.5196 11 13.2652 11 13V9C11 8.44772 11.4477 8 12 8Z" fill="currentColor"/>
</svg>
