<svg viewBox="0 0 24 24" fill="none" xmlns="http://www.w3.org/2000/svg">
<path fill-rule="evenodd" clip-rule="evenodd" d="M1.29289 1.29289C1.68342 0.902369 2.31658 0.902369 2.70711 1.29289L7.56776 6.15354C7.57348 6.15914 7.57916 6.16481 7.58477 6.17056L18.8295 17.4153C18.8352 17.4209 18.8408 17.4265 18.8464 17.4322L22.7071 21.2929C23.0976 21.6834 23.0976 22.3166 22.7071 22.7071C22.3166 23.0976 21.6834 23.0976 21.2929 22.7071L18.1549 19.5691C17.5142 20.1791 16.7857 20.6926 15.9918 21.0917C14.8698 21.6557 13.6422 21.9787 12.3879 22.0399C11.1337 22.101 9.88047 21.8991 8.70894 21.4469C7.84977 21.1153 7.04847 20.6546 6.33201 20.0822L4.70711 21.7071C4.31658 22.0976 3.68342 22.0976 3.29289 21.7071C2.90237 21.3166 2.90237 20.6834 3.29289 20.2929L4.91779 18.668C4.34543 17.9515 3.88467 17.1502 3.55308 16.2911C3.10094 15.1195 2.89896 13.8663 2.96014 12.6121C3.02132 11.3578 3.3443 10.1302 3.90832 9.00825C4.30742 8.21434 4.82095 7.48576 5.43086 6.84507L4 5.41421L2.70711 6.70711C2.31658 7.09763 1.68342 7.09763 1.29289 6.70711C0.902369 6.31658 0.902369 5.68342 1.29289 5.29289L2.58579 4L1.29289 2.70711C0.902369 2.31658 0.902369 1.68342 1.29289 1.29289ZM6.84562 8.25984C6.38606 8.74944 5.99825 9.30378 5.69524 9.90653C5.25656 10.7792 5.00535 11.734 4.95777 12.7095C4.91018 13.6851 5.06728 14.6598 5.41894 15.5709C5.77061 16.4821 6.30907 17.3097 6.99971 18.0003C7.69034 18.6909 8.51786 19.2294 9.42905 19.5811C10.3402 19.9327 11.3149 20.0898 12.2905 20.0422C13.266 19.9946 14.2208 19.7434 15.0935 19.3048C15.6962 19.0018 16.2506 18.6139 16.7402 18.1544L6.84562 8.25984ZM18.2929 2.29289C18.6834 1.90237 19.3166 1.90237 19.7071 2.29289L22.7071 5.29289C23.0976 5.68342 23.0976 6.31658 22.7071 6.70711C22.3166 7.09763 21.6834 7.09763 21.2929 6.70711L18.2929 3.70711C17.9024 3.31658 17.9024 2.68342 18.2929 2.29289ZM10.5865 4.11345C11.0544 4.03592 11.528 3.99797 12.0023 4C14.3884 4.0006 16.6767 4.94875 18.364 6.63604C20.0512 8.32329 20.9993 10.6115 21 12.9975C21.002 13.4719 20.9641 13.9455 20.8865 14.4135C20.7963 14.9583 20.2814 15.3268 19.7365 15.2365C19.1917 15.1463 18.8232 14.6314 18.9135 14.0865C18.9727 13.7289 19.0017 13.367 19 13.0045L19 13C19 11.1435 18.2625 9.36301 16.9497 8.05025C15.637 6.7375 13.8565 6 12 6H11.9955C11.633 5.99835 11.2711 6.0273 10.9135 6.08655C10.3686 6.17683 9.85373 5.80832 9.76345 5.26347C9.67317 4.71861 10.0417 4.20373 10.5865 4.11345Z" fill="currentColor"/>
</svg>
