<svg viewBox="0 0 24 24" fill="none" xmlns="http://www.w3.org/2000/svg">
<path fill-rule="evenodd" clip-rule="evenodd" d="M3 12C3 11.4477 3.44772 11 4 11H20C20.5523 11 21 11.4477 21 12C21 12.5523 20.5523 13 20 13H4C3.44772 13 3 12.5523 3 12Z" fill="currentColor"/>
<path d="M16.7097 18.3063C17.0968 18.6937 17.0968 19.3219 16.7097 19.7094C16.3226 20.0969 15.695 20.0969 15.3079 19.7094L13 17.3972V22C13 22.5523 12.5523 23 12 23C11.4477 23 11 22.5523 11 22V17.3972L8.69208 19.7094C8.30499 20.0969 7.6774 20.0969 7.29031 19.7094C6.90323 19.3219 6.90323 18.6937 7.29031 18.3063L11.2414 14.3484C11.4248 14.1351 11.6966 14 12 14C12.3034 14 12.5752 14.1351 12.7586 14.3484L16.7097 18.3063Z" fill="currentColor"/>
<path d="M16.7097 5.69373C17.0968 5.30627 17.0968 4.67806 16.7097 4.2906C16.3226 3.90313 15.695 3.90313 15.3079 4.2906L13 6.60283V2C13 1.44772 12.5523 1 12 1C11.4477 1 11 1.44771 11 2V6.60283L8.69208 4.2906C8.30499 3.90313 7.6774 3.90313 7.29031 4.2906C6.90323 4.67806 6.90323 5.30627 7.29031 5.69373L11.2414 9.65158C11.4248 9.8649 11.6966 10 12 10C12.3034 10 12.5752 9.8649 12.7586 9.65158L16.7097 5.69373Z" fill="currentColor"/>
</svg>
