<svg viewBox="0 0 24 24" fill="none" xmlns="http://www.w3.org/2000/svg">
<path d="M19.7097 13.3063C20.0968 13.6937 20.0968 14.3219 19.7097 14.7094C19.3226 15.0969 18.695 15.0969 18.3079 14.7094L13 9.39628L13 21C13 21.5523 12.5523 22 12 22C11.4477 22 11 21.5523 11 21L11 9.39628L5.69208 14.7094C5.30499 15.0969 4.6774 15.0969 4.29031 14.7094C3.90323 14.3219 3.90323 13.6937 4.29031 13.3063L11.2417 6.34811C11.4251 6.13497 11.6968 6 12 6C12.3032 6 12.575 6.13497 12.7583 6.34812L19.7097 13.3063Z" fill="currentColor"/>
<path fill-rule="evenodd" clip-rule="evenodd" d="M3 3C3 2.44772 3.44772 2 4 2H20C20.5523 2 21 2.44772 21 3C21 3.55228 20.5523 4 20 4H4C3.44772 4 3 3.55228 3 3Z" fill="currentColor"/>
</svg>
