<svg viewBox="0 0 24 24" fill="none" xmlns="http://www.w3.org/2000/svg">
<path d="M19.7097 9.2906C20.0968 9.67806 20.0968 10.3063 19.7097 10.6937L12.7583 17.6519C12.575 17.865 12.3032 18 12 18C11.6968 18 11.4251 17.865 11.2417 17.6519L4.29031 10.6937C3.90323 10.3063 3.90323 9.67806 4.29031 9.2906C4.6774 8.90313 5.30499 8.90313 5.69208 9.2906L11 14.6037L11 3C11 2.44772 11.4477 2 12 2C12.5523 2 13 2.44772 13 3L13 14.6037L18.3079 9.2906C18.695 8.90313 19.3226 8.90313 19.7097 9.2906Z" fill="currentColor"/>
<path d="M4 20C3.44772 20 3 20.4477 3 21C3 21.5523 3.44772 22 4 22H20C20.5523 22 21 21.5523 21 21C21 20.4477 20.5523 20 20 20H4Z" fill="currentColor"/>
</svg>
