<svg viewBox="0 0 24 24" fill="none" xmlns="http://www.w3.org/2000/svg">
<path fill-rule="evenodd" clip-rule="evenodd" d="M14.7114 3.34749L14.489 3.6744C16.1757 4.43992 17.3175 5.88984 17.3175 7.54907H6.18246C6.18246 5.88984 7.32424 4.43992 9.01214 3.6744L8.78862 3.34749L8.5663 3.02529L8.07093 2.30092C8.01052 2.21155 8.03589 2.0916 8.12651 2.03281C8.21833 1.97401 8.34157 1.99753 8.40319 2.0869L8.93481 2.86301L9.15833 3.18874L9.38427 3.52035C10.1032 3.24872 10.9054 3.09702 11.75 3.09702C12.5957 3.09702 13.3968 3.24872 14.1157 3.52035L14.3428 3.18874L15.0992 2.0869C15.1584 1.99753 15.2828 1.97284 15.3735 2.03281C15.4653 2.0916 15.4907 2.21155 15.429 2.30092L14.9337 3.02529L14.7114 3.34749ZM6.18246 8.32282H6.26825H17.3175V16.8389C17.3175 17.515 16.7545 18.0653 16.0585 18.0653H15.1487C15.1801 18.1677 15.1983 18.2747 15.1983 18.3876V20.8394C15.1983 21.4802 14.663 22 14.0033 22C13.3448 22 12.8108 21.4802 12.8108 20.8394V18.3876C12.8108 18.2747 12.8277 18.1677 12.8579 18.0653H10.642C10.6722 18.1677 10.6904 18.2747 10.6904 18.3876V20.8394C10.6904 21.4802 10.1551 22 9.49664 22C8.83815 22 8.30291 21.4802 8.30291 20.8394V18.3876C8.30291 18.2747 8.31982 18.1677 8.35124 18.0653H7.44265C6.74671 18.0653 6.18246 17.515 6.18246 16.8389V8.32282ZM4.19373 8.32282C3.53404 8.32282 3 8.84258 3 9.48346V14.4517C3 15.0926 3.53404 15.6124 4.19373 15.6124C4.85222 15.6124 5.38625 15.0926 5.38625 14.4517V9.48346C5.38625 8.84258 4.85222 8.32282 4.19373 8.32282ZM18.1137 9.48346C18.1137 8.84258 18.6477 8.32282 19.3074 8.32282C19.9659 8.32282 20.5 8.84258 20.5 9.48346V14.4517C20.5 15.0926 19.9659 15.6124 19.3074 15.6124C18.6477 15.6124 18.1137 15.0926 18.1137 14.4517V9.48346ZM9.36373 6.00036C9.03389 6.00036 8.76687 5.74048 8.76687 5.41946C8.76687 5.09843 9.03389 4.83973 9.36373 4.83973C9.69358 4.83973 9.9606 5.09843 9.9606 5.41946C9.9606 5.74048 9.69358 6.00036 9.36373 6.00036ZM13.5394 5.41946C13.5394 5.74048 13.8064 6.00036 14.1362 6.00036C14.4661 6.00036 14.7331 5.74048 14.7331 5.41946C14.7331 5.09843 14.4661 4.83973 14.1362 4.83973C13.8064 4.83973 13.5394 5.09843 13.5394 5.41946Z" fill="currentColor"/>
</svg>
