<svg viewBox="0 0 24 24" fill="none" xmlns="http://www.w3.org/2000/svg">
<path fill-rule="evenodd" clip-rule="evenodd" d="M12 3C7.02944 3 3 7.02944 3 12C3 16.9706 7.02944 21 12 21C16.9706 21 21 16.9706 21 12C21 7.02944 16.9706 3 12 3ZM1 12C1 5.92487 5.92487 1 12 1C18.0751 1 23 5.92487 23 12C23 18.0751 18.0751 23 12 23C5.92487 23 1 18.0751 1 12Z" fill="currentColor"/>
<path fill-rule="evenodd" clip-rule="evenodd" d="M6.57152 8.62861C6.77664 8.11583 7.35861 7.86641 7.87139 8.07152L10.3714 9.07152C10.8842 9.27664 11.1336 9.85861 10.9285 10.3714C10.7234 10.8842 10.1414 11.1336 9.62861 10.9285L7.12861 9.92848C6.61583 9.72336 6.36641 9.14139 6.57152 8.62861Z" fill="currentColor"/>
<path fill-rule="evenodd" clip-rule="evenodd" d="M17.4285 8.62861C17.6336 9.14139 17.3842 9.72336 16.8714 9.92848L14.3714 10.9285C13.8586 11.1336 13.2766 10.8842 13.0715 10.3714C12.8664 9.85861 13.1158 9.27664 13.6286 9.07152L16.1286 8.07152C16.6414 7.86641 17.2234 8.11583 17.4285 8.62861Z" fill="currentColor"/>
<path fill-rule="evenodd" clip-rule="evenodd" d="M8.47439 14.1913C9.27233 13.6109 10.4745 13 12.0001 13C12.5523 13 13.0001 13.4477 13.0001 14C13.0001 14.5523 12.5523 15 12.0001 15C11.0256 15 10.2278 15.3891 9.65073 15.8087C9.36413 16.0172 9.14278 16.2257 8.99548 16.3794C8.92225 16.4558 8.86852 16.5174 8.83537 16.5569C8.81883 16.5766 8.80751 16.5907 8.80156 16.5982L8.79692 16.6042C8.46474 17.0424 7.84049 17.1303 7.40006 16.8C6.95823 16.4686 6.86869 15.8418 7.20006 15.4L8.00006 16C7.20006 15.4 7.20006 15.4 7.20006 15.4L7.20107 15.3987L7.20222 15.3971L7.20496 15.3935L7.21217 15.3841L7.23347 15.3568C7.25071 15.3351 7.27407 15.3062 7.30342 15.2712C7.36207 15.2013 7.44506 15.1067 7.55151 14.9956C7.76358 14.7743 8.07349 14.4828 8.47439 14.1913Z" fill="currentColor"/>
<path fill-rule="evenodd" clip-rule="evenodd" d="M15.5256 14.1913C14.7277 13.6109 13.5256 13 12.0001 13C11.4478 13 10.9999 13.4477 10.9999 14C10.9999 14.5523 11.4478 15 12.0001 15C12.9745 15 13.7722 15.3891 14.3493 15.8087C14.6359 16.0172 14.8572 16.2257 15.0045 16.3794C15.0778 16.4558 15.1315 16.5174 15.1646 16.5569C15.1812 16.5766 15.1925 16.5907 15.1984 16.5982L15.2031 16.6042C15.5353 17.0424 16.1595 17.1303 16.5999 16.8C17.0418 16.4686 17.1313 15.8418 16.7999 15.4L15.9999 16C16.7999 15.4 16.7999 15.4 16.7999 15.4L16.7989 15.3987L16.7978 15.3971L16.795 15.3935L16.7878 15.3841L16.7665 15.3568C16.7493 15.3351 16.7259 15.3062 16.6966 15.2712C16.6379 15.2013 16.5549 15.1067 16.4485 14.9956C16.2364 14.7743 15.9265 14.4828 15.5256 14.1913Z" fill="currentColor"/>
</svg>
