<svg xmlns="http://www.w3.org/2000/svg" fill="none" viewBox="0 0 24 24">
  <path fill="currentColor"
    d="m3.913 15.476-1.24 4.347c0 .115-.062.115-.248.115H.147c-.124 0-.186-.057-.124-.231L4.408 5.275a3.78 3.78 0 0 0 .124-1.16C4.532 4 4.594 4 4.656 4h3.286c.124 0 .124 0 .186.116l4.958 15.576c0 .116 0 .174-.124.174h-2.541c-.124 0-.186 0-.248-.116l-1.302-4.347-4.958.058v.015Zm4.339-2.377c-.434-1.622-1.488-5.1-1.86-6.78-.31 1.68-1.162 4.578-1.798 6.78h3.658Zm6.322-2.535c0-.116 0-.638-.062-1.507 0-.116.062-.116.124-.174 1.513-.6 3.13-.939 4.773-1 2.17 0 4.587.812 4.587 4.29v7.534a.143.143 0 0 1-.03.113.16.16 0 0 1-.106.06.122.122 0 0 1-.05 0h-2.355a.174.174 0 0 1-.122-.027.156.156 0 0 1-.064-.1.099.099 0 0 1 0-.046v-7.303c0-1.391-.496-2.145-2.046-2.145a4.87 4.87 0 0 0-1.736.29v9.274c0 .115-.062.173-.124.173h-2.541a.173.173 0 0 1-.121-.027.158.158 0 0 1-.043-.044.146.146 0 0 1-.022-.055.096.096 0 0 1 0-.047l-.062-9.274v.015Z" />
</svg>