<svg viewBox="0 0 24 24" fill="none" xmlns="http://www.w3.org/2000/svg">
<path fill-rule="evenodd" clip-rule="evenodd" d="M15.9502 2C16.1386 3.21479 15.6176 4.40487 14.9304 5.24687C14.1951 6.15003 12.9277 6.84856 11.6997 6.8121C11.4756 5.64906 12.0495 4.45074 12.7479 3.64519C13.514 2.75615 14.8269 2.07409 15.9502 2ZM20.3903 8.71013C16.853 10.5611 17.4257 15.3838 21 16.6738C20.5086 17.7134 20.2721 18.1779 19.639 19.0987C18.7559 20.3841 17.5107 21.9846 15.9662 21.9963C15.3313 22.0029 14.9146 21.8205 14.4653 21.6238C13.9446 21.3958 13.3799 21.1486 12.3808 21.1543C11.3876 21.1593 10.8139 21.4035 10.2861 21.6282C9.82499 21.8245 9.39887 22.0059 8.75851 21.9999C7.21524 21.9869 6.03531 20.5428 5.15221 19.2575C2.6815 15.666 2.42162 11.4502 3.94518 9.20757C5.02904 7.61529 6.73859 6.68392 8.34468 6.68392C9.20037 6.68392 9.88996 6.91858 10.5471 7.14219C11.1451 7.34569 11.7162 7.54003 12.3611 7.54003C12.9579 7.54003 13.4486 7.36266 13.9839 7.16917C14.6262 6.93698 15.3328 6.68157 16.364 6.68157C17.7952 6.68157 19.3114 7.42596 20.3903 8.71013Z" fill="currentColor"/>
</svg>
