<svg viewBox="0 0 24 24" fill="none" xmlns="http://www.w3.org/2000/svg">
<path d="M13.8414 13.9697C13.4432 13.5657 12.7963 13.3132 12 13.3132C11.2037 13.3132 10.5568 13.5657 10.1586 13.9697C9.95958 14.2223 9.86005 14.4243 9.81028 14.7273C9.76052 15.3334 9.81028 15.8384 9.86005 16.697C10.0043 18.1716 10.2202 19.638 10.507 21.0909C10.6563 21.5455 11.2037 22 12 22C12.846 22 13.3437 21.5455 13.493 21.0909C13.8738 18.9892 14.1067 16.8626 14.1897 14.7273C14.14 14.4243 14.0404 14.2223 13.8414 13.9697ZM9.90982 10.3334C9.90982 10.896 10.13 11.4355 10.522 11.8333C10.914 12.2311 11.4456 12.4546 12 12.4546C12.5544 12.4546 13.086 12.2311 13.478 11.8333C13.87 11.4355 14.0902 10.896 14.0902 10.3334C14.0902 9.77081 13.87 9.23128 13.478 8.83348C13.086 8.43567 12.5544 8.21219 12 8.21219C11.4456 8.21219 10.914 8.43567 10.522 8.83348C10.13 9.23128 9.90982 9.77081 9.90982 10.3334ZM12 2.0001C9.87944 1.99 7.82411 2.74367 6.1997 4.12704C4.57528 5.5104 3.48712 7.43373 3.12881 9.55484C2.77051 11.6759 3.16531 13.8573 4.24296 15.7107C5.32061 17.5642 7.01123 18.9695 9.01402 19.6768C9.11355 19.6768 9.21309 19.6263 9.21309 19.5253L9.06379 18.6162C9.06379 18.4647 8.96426 18.4142 8.86472 18.3637C7.2214 17.633 5.8759 16.3508 5.05425 14.7322C4.23259 13.1136 3.98484 11.2574 4.35261 9.47537C4.72039 7.69331 5.68128 6.09399 7.07387 4.94606C8.46646 3.79813 10.2059 3.17154 12 3.17154C13.7941 3.17154 15.5335 3.79813 16.9261 4.94606C18.3187 6.09399 19.2796 7.69331 19.6474 9.47537C20.0152 11.2574 19.7674 13.1136 18.9458 14.7322C18.1241 16.3508 16.7786 17.633 15.1353 18.3637C15.0357 18.4142 14.9362 18.4647 14.9362 18.6162L14.7869 19.5253C14.7869 19.6263 14.8864 19.6768 14.986 19.6768C16.9888 18.9695 18.6794 17.5642 19.757 15.7107C20.8347 13.8573 21.2295 11.6759 20.8712 9.55484C20.5129 7.43373 19.4247 5.5104 17.8003 4.12704C16.1759 2.74367 14.1206 1.99 12 2.0001ZM11.8009 6.14149C12.7905 6.10543 13.7675 6.37594 14.602 6.91705C15.4364 7.45815 16.0888 8.24422 16.4723 9.17072C16.8559 10.0972 16.9524 11.1203 16.7492 12.1038C16.5459 13.0873 16.0524 13.9848 15.3343 14.6768C15.2348 14.7273 15.185 14.8788 15.2348 14.9798L15.185 15.9899C15.185 16.0909 15.2846 16.1919 15.3841 16.0909C16.444 15.3485 17.2414 14.2807 17.6593 13.0444C18.0772 11.8082 18.0935 10.4685 17.7058 9.22212C17.3181 7.97574 16.5469 6.88833 15.5054 6.11954C14.4639 5.35076 13.2069 4.94109 11.9191 4.9507C10.6313 4.96031 9.38037 5.38869 8.3501 6.17294C7.31984 6.95719 6.56447 8.05599 6.19491 9.30801C5.82534 10.56 5.86105 11.8993 6.29679 13.1292C6.73253 14.3591 7.54534 15.4149 8.61589 16.1414C8.71542 16.1919 8.81496 16.0909 8.81496 15.9899V14.9798C8.81496 14.8788 8.76519 14.7273 8.66566 14.6768C7.94732 14.0191 7.44029 13.1575 7.21035 12.2038C6.9804 11.2501 7.03815 10.2482 7.37609 9.32823C7.71404 8.40823 8.31659 7.6125 9.10559 7.04427C9.8946 6.47604 10.8336 6.16151 11.8009 6.14149Z" fill="currentColor"/>
</svg>
