<svg viewBox="0 0 24 24" fill="none" xmlns="http://www.w3.org/2000/svg">
<path fill-rule="evenodd" clip-rule="evenodd" d="M20 16.2484C19.9997 16.8098 19.9495 17.37 19.85 17.9225C19.8015 18.2042 19.6968 18.4731 19.5422 18.7135C19.3876 18.9539 19.1863 19.1608 18.9501 19.3218H18.9251C18.4268 19.6999 17.8253 19.9177 17.2004 19.9465L16.7254 19.9965C16.3527 20.0194 15.9799 19.9544 15.6369 19.8068C15.2939 19.6592 14.9903 19.4332 14.7507 19.1469C14.5014 18.845 14.3374 18.4818 14.2759 18.0952C14.2144 17.7085 14.2575 17.3124 14.4007 16.948V16.923C14.5316 16.5666 14.7484 16.2479 15.0317 15.9952C15.3151 15.7424 15.6564 15.5633 16.0255 15.4737L17.9003 14.974C18.1361 14.9178 18.346 14.7835 18.4957 14.593C18.6455 14.4024 18.7264 14.1668 18.7252 13.9245V7.27776C18.7269 7.21572 18.7142 7.15413 18.6882 7.09778C18.6622 7.04144 18.6235 6.99186 18.5752 6.95292C18.5255 6.91626 18.4687 6.89061 18.4083 6.87768C18.348 6.86475 18.2855 6.86485 18.2252 6.87795L10.2263 8.50216C10.0845 8.52481 9.95576 8.59805 9.86385 8.70831C9.77193 8.81856 9.72309 8.95838 9.72637 9.10186V18.2724C9.72607 18.8338 9.67588 19.394 9.57638 19.9465C9.52784 20.2282 9.42316 20.4972 9.26858 20.7375C9.11399 20.9779 8.91264 21.1848 8.6765 21.3459H8.65151C8.15315 21.7239 7.55168 21.9417 6.92674 21.9705L6.4768 21.9955C6.10408 22.0184 5.73121 21.9534 5.38822 21.8058C5.04522 21.6583 4.74169 21.4322 4.50206 21.146C4.25273 20.844 4.08879 20.4808 4.02726 20.0942C3.96572 19.7075 4.00883 19.3114 4.15211 18.947V18.922C4.283 18.5656 4.49972 18.247 4.7831 17.9942C5.06649 17.7414 5.40781 17.5623 5.77689 17.4728L7.65164 16.973C7.88746 16.9168 8.09732 16.7825 8.24709 16.592C8.39686 16.4014 8.47773 16.1658 8.47653 15.9235V4.72901C8.47931 4.51582 8.55535 4.31007 8.69189 4.14628C8.82843 3.98249 9.01716 3.87063 9.22643 3.82945L19.2501 2.00535C19.4343 1.98375 19.6203 2.02801 19.775 2.13028C19.8453 2.18792 19.9018 2.26038 19.9407 2.34246C19.9796 2.42455 19.9999 2.51422 20 2.60505V16.2484Z" fill="currentColor"/>
<path fill-rule="evenodd" clip-rule="evenodd" d="M20 16.2484C19.9997 16.8098 19.9495 17.37 19.85 17.9225C19.8015 18.2042 19.6968 18.4731 19.5422 18.7135C19.3876 18.9539 19.1863 19.1608 18.9501 19.3218H18.9251C18.4268 19.6999 17.8253 19.9177 17.2004 19.9465L16.7254 19.9965C16.3527 20.0194 15.9799 19.9544 15.6369 19.8068C15.2939 19.6592 14.9903 19.4332 14.7507 19.1469C14.5014 18.845 14.3374 18.4818 14.2759 18.0952C14.2144 17.7085 14.2575 17.3124 14.4007 16.948V16.923C14.5316 16.5666 14.7484 16.2479 15.0317 15.9952C15.3151 15.7424 15.6564 15.5633 16.0255 15.4737L17.9003 14.974C18.1361 14.9178 18.346 14.7835 18.4957 14.593C18.6455 14.4024 18.7264 14.1668 18.7252 13.9245V7.27776C18.7269 7.21572 18.7142 7.15413 18.6882 7.09778C18.6622 7.04144 18.6235 6.99186 18.5752 6.95292C18.5255 6.91626 18.4687 6.89061 18.4083 6.87768C18.348 6.86475 18.2855 6.86485 18.2252 6.87795L10.2263 8.50216C10.0845 8.52481 9.95576 8.59805 9.86385 8.70831C9.77193 8.81856 9.72309 8.95838 9.72637 9.10186V18.2724C9.72607 18.8338 9.67588 19.394 9.57638 19.9465C9.52784 20.2282 9.42316 20.4972 9.26858 20.7375C9.11399 20.9779 8.91264 21.1848 8.6765 21.3459H8.65151C8.15315 21.7239 7.55168 21.9417 6.92674 21.9705L6.4768 21.9955C6.10408 22.0184 5.73121 21.9534 5.38822 21.8058C5.04522 21.6583 4.74169 21.4322 4.50206 21.146C4.25273 20.844 4.08879 20.4808 4.02726 20.0942C3.96572 19.7075 4.00883 19.3114 4.15211 18.947V18.922C4.283 18.5656 4.49972 18.247 4.7831 17.9942C5.06649 17.7414 5.40781 17.5623 5.77689 17.4728L7.65164 16.973C7.88746 16.9168 8.09732 16.7825 8.24709 16.592C8.39686 16.4014 8.47773 16.1658 8.47653 15.9235V4.72901C8.47931 4.51582 8.55535 4.31007 8.69189 4.14628C8.82843 3.98249 9.01716 3.87063 9.22643 3.82945L19.2501 2.00535C19.4343 1.98375 19.6203 2.02801 19.775 2.13028C19.8453 2.18792 19.9018 2.26038 19.9407 2.34246C19.9796 2.42455 19.9999 2.51422 20 2.60505V16.2484Z" fill="currentColor"/>
<path fill-rule="evenodd" clip-rule="evenodd" d="M20 16.2484C19.9997 16.8098 19.9495 17.37 19.85 17.9225C19.8015 18.2042 19.6968 18.4731 19.5422 18.7135C19.3876 18.9539 19.1863 19.1608 18.9501 19.3218H18.9251C18.4268 19.6999 17.8253 19.9177 17.2004 19.9465L16.7254 19.9965C16.3527 20.0194 15.9799 19.9544 15.6369 19.8068C15.2939 19.6592 14.9903 19.4332 14.7507 19.1469C14.5014 18.845 14.3374 18.4818 14.2759 18.0952C14.2144 17.7085 14.2575 17.3124 14.4007 16.948V16.923C14.5316 16.5666 14.7484 16.2479 15.0317 15.9952C15.3151 15.7424 15.6564 15.5633 16.0255 15.4737L17.9003 14.974C18.1361 14.9178 18.346 14.7835 18.4957 14.593C18.6455 14.4024 18.7264 14.1668 18.7252 13.9245V7.27776C18.7269 7.21572 18.7142 7.15413 18.6882 7.09778C18.6622 7.04144 18.6235 6.99186 18.5752 6.95292C18.5255 6.91626 18.4687 6.89061 18.4083 6.87768C18.348 6.86475 18.2855 6.86485 18.2252 6.87795L10.2263 8.50216C10.0845 8.52481 9.95576 8.59805 9.86385 8.70831C9.77193 8.81856 9.72309 8.95838 9.72637 9.10186V18.2724C9.72607 18.8338 9.67588 19.394 9.57638 19.9465C9.52784 20.2282 9.42316 20.4972 9.26858 20.7375C9.11399 20.9779 8.91264 21.1848 8.6765 21.3459H8.65151C8.15315 21.7239 7.55168 21.9417 6.92674 21.9705L6.4768 21.9955C6.10408 22.0184 5.73121 21.9534 5.38822 21.8058C5.04522 21.6583 4.74169 21.4322 4.50206 21.146C4.25273 20.844 4.08879 20.4808 4.02726 20.0942C3.96572 19.7075 4.00883 19.3114 4.15211 18.947V18.922C4.283 18.5656 4.49972 18.247 4.7831 17.9942C5.06649 17.7414 5.40781 17.5623 5.77689 17.4728L7.65164 16.973C7.88746 16.9168 8.09732 16.7825 8.24709 16.592C8.39686 16.4014 8.47773 16.1658 8.47653 15.9235V4.72901C8.47931 4.51582 8.55535 4.31007 8.69189 4.14628C8.82843 3.98249 9.01716 3.87063 9.22643 3.82945L19.2501 2.00535C19.4343 1.98375 19.6203 2.02801 19.775 2.13028C19.8453 2.18792 19.9018 2.26038 19.9407 2.34246C19.9796 2.42455 19.9999 2.51422 20 2.60505V16.2484Z" fill="currentColor"/>
<path fill-rule="evenodd" clip-rule="evenodd" d="M20 16.2484C19.9997 16.8098 19.9495 17.37 19.85 17.9225C19.8015 18.2042 19.6968 18.4731 19.5422 18.7135C19.3876 18.9539 19.1863 19.1608 18.9501 19.3218H18.9251C18.4268 19.6999 17.8253 19.9177 17.2004 19.9465L16.7254 19.9965C16.3527 20.0194 15.9799 19.9544 15.6369 19.8068C15.2939 19.6592 14.9903 19.4332 14.7507 19.1469C14.5014 18.845 14.3374 18.4818 14.2759 18.0952C14.2144 17.7085 14.2575 17.3124 14.4007 16.948V16.923C14.5316 16.5666 14.7484 16.2479 15.0317 15.9952C15.3151 15.7424 15.6564 15.5633 16.0255 15.4737L17.9003 14.974C18.1361 14.9178 18.346 14.7835 18.4957 14.593C18.6455 14.4024 18.7264 14.1668 18.7252 13.9245V7.27776C18.7269 7.21572 18.7142 7.15413 18.6882 7.09778C18.6622 7.04144 18.6235 6.99186 18.5752 6.95292C18.5255 6.91626 18.4687 6.89061 18.4083 6.87768C18.348 6.86475 18.2855 6.86485 18.2252 6.87795L10.2263 8.50216C10.0845 8.52481 9.95576 8.59805 9.86385 8.70831C9.77193 8.81856 9.72309 8.95838 9.72637 9.10186V18.2724C9.72607 18.8338 9.67588 19.394 9.57638 19.9465C9.52784 20.2282 9.42316 20.4972 9.26858 20.7375C9.11399 20.9779 8.91264 21.1848 8.6765 21.3459H8.65151C8.15315 21.7239 7.55168 21.9417 6.92674 21.9705L6.4768 21.9955C6.10408 22.0184 5.73121 21.9534 5.38822 21.8058C5.04522 21.6583 4.74169 21.4322 4.50206 21.146C4.25273 20.844 4.08879 20.4808 4.02726 20.0942C3.96572 19.7075 4.00883 19.3114 4.15211 18.947V18.922C4.283 18.5656 4.49972 18.247 4.7831 17.9942C5.06649 17.7414 5.40781 17.5623 5.77689 17.4728L7.65164 16.973C7.88746 16.9168 8.09732 16.7825 8.24709 16.592C8.39686 16.4014 8.47773 16.1658 8.47653 15.9235V4.72901C8.47931 4.51582 8.55535 4.31007 8.69189 4.14628C8.82843 3.98249 9.01716 3.87063 9.22643 3.82945L19.2501 2.00535C19.4343 1.98375 19.6203 2.02801 19.775 2.13028C19.8453 2.18792 19.9018 2.26038 19.9407 2.34246C19.9796 2.42455 19.9999 2.51422 20 2.60505V16.2484Z" fill="currentColor"/>
<path fill-rule="evenodd" clip-rule="evenodd" d="M20 16.2484C19.9997 16.8098 19.9495 17.37 19.85 17.9225C19.8015 18.2042 19.6968 18.4731 19.5422 18.7135C19.3876 18.9539 19.1863 19.1608 18.9501 19.3218H18.9251C18.4268 19.6999 17.8253 19.9177 17.2004 19.9465L16.7254 19.9965C16.3527 20.0194 15.9799 19.9544 15.6369 19.8068C15.2939 19.6592 14.9903 19.4332 14.7507 19.1469C14.5014 18.845 14.3374 18.4818 14.2759 18.0952C14.2144 17.7085 14.2575 17.3124 14.4007 16.948V16.923C14.5316 16.5666 14.7484 16.2479 15.0317 15.9952C15.3151 15.7424 15.6564 15.5633 16.0255 15.4737L17.9003 14.974C18.1361 14.9178 18.346 14.7835 18.4957 14.593C18.6455 14.4024 18.7264 14.1668 18.7252 13.9245V7.27776C18.7269 7.21572 18.7142 7.15413 18.6882 7.09778C18.6622 7.04144 18.6235 6.99186 18.5752 6.95292C18.5255 6.91626 18.4687 6.89061 18.4083 6.87768C18.348 6.86475 18.2855 6.86485 18.2252 6.87795L10.2263 8.50216C10.0845 8.52481 9.95576 8.59805 9.86385 8.70831C9.77193 8.81856 9.72309 8.95838 9.72637 9.10186V18.2724C9.72607 18.8338 9.67588 19.394 9.57638 19.9465C9.52784 20.2282 9.42316 20.4972 9.26858 20.7375C9.11399 20.9779 8.91264 21.1848 8.6765 21.3459H8.65151C8.15315 21.7239 7.55168 21.9417 6.92674 21.9705L6.4768 21.9955C6.10408 22.0184 5.73121 21.9534 5.38822 21.8058C5.04522 21.6583 4.74169 21.4322 4.50206 21.146C4.25273 20.844 4.08879 20.4808 4.02726 20.0942C3.96572 19.7075 4.00883 19.3114 4.15211 18.947V18.922C4.283 18.5656 4.49972 18.247 4.7831 17.9942C5.06649 17.7414 5.40781 17.5623 5.77689 17.4728L7.65164 16.973C7.88746 16.9168 8.09732 16.7825 8.24709 16.592C8.39686 16.4014 8.47773 16.1658 8.47653 15.9235V4.72901C8.47931 4.51582 8.55535 4.31007 8.69189 4.14628C8.82843 3.98249 9.01716 3.87063 9.22643 3.82945L19.2501 2.00535C19.4343 1.98375 19.6203 2.02801 19.775 2.13028C19.8453 2.18792 19.9018 2.26038 19.9407 2.34246C19.9796 2.42455 19.9999 2.51422 20 2.60505V16.2484Z" fill="currentColor"/>
</svg>
