<svg viewBox="0 0 24 24" fill="none" xmlns="http://www.w3.org/2000/svg">
<path d="M21.9461 8.56945C22.0731 7.96976 21.9739 7.34383 21.6679 6.81406C21.4965 6.52223 21.2658 6.27033 20.9911 6.07493C20.7163 5.87953 20.4037 5.74506 20.0737 5.68037C19.9188 5.64832 19.761 5.63215 19.6028 5.63209H19.5912C19.0363 5.63695 18.5003 5.83561 18.0741 6.19429C17.648 6.55297 17.358 7.04954 17.2536 7.5996C17.111 8.27685 16.8515 8.92352 16.487 9.51005C16.4661 9.54312 16.4369 9.56995 16.4023 9.58776C16.3677 9.60557 16.329 9.6137 16.2903 9.61131C16.2515 9.60893 16.2141 9.5961 16.1819 9.57418C16.1497 9.55225 16.124 9.52203 16.1073 9.48664L13.7306 4.43989C13.585 4.12094 13.3746 3.83652 13.1129 3.60514C12.8512 3.37377 12.5442 3.20063 12.2118 3.09702C11.6661 2.93609 11.0814 2.97633 10.5624 3.21056C10.0433 3.44478 9.62372 3.85771 9.37859 4.37553L6.91494 9.59635C6.90103 9.62684 6.87876 9.65266 6.85077 9.67076C6.82277 9.68886 6.79022 9.69847 6.75697 9.69847C6.72373 9.69847 6.69118 9.68886 6.66318 9.67076C6.63519 9.65266 6.61291 9.62684 6.59901 9.59635C6.47974 9.30057 6.30354 9.0316 6.08061 8.80501C5.85768 8.57842 5.59244 8.3987 5.30025 8.27626C5.00806 8.15382 4.69471 8.09109 4.37834 8.0917C4.06197 8.09231 3.74886 8.15625 3.45713 8.27981C2.87038 8.53918 2.40863 9.02163 2.17205 9.62247C1.93547 10.2233 1.94315 10.8941 2.19342 11.4893C2.70941 12.661 3.4708 13.7061 4.4252 14.5524C4.4597 14.584 4.48325 14.6259 4.49238 14.672C4.50151 14.7181 4.49574 14.7659 4.47592 14.8084L3.68175 16.4965C3.40581 17.0694 3.36179 17.7283 3.55901 18.3335C3.75624 18.9386 4.1792 19.4425 4.73823 19.7381C5.07283 19.9092 5.4428 19.9979 5.81789 19.997C6.27001 19.9958 6.71261 19.8659 7.09484 19.6221C7.47707 19.3784 7.78341 19.0307 7.97866 18.6191L8.66413 17.165C8.6861 17.1186 8.72354 17.0814 8.7699 17.06C8.81626 17.0387 8.86859 17.0344 8.91774 17.048C9.73292 17.2764 10.5745 17.3944 11.4205 17.3991C12.3453 17.3962 13.265 17.2613 14.1523 16.9983C14.2019 16.984 14.2549 16.9877 14.302 17.0089C14.3491 17.03 14.3874 17.0671 14.4102 17.1138L15.0885 18.5547C15.281 18.9764 15.5867 19.3354 15.9708 19.5908C16.355 19.8462 16.8024 19.988 17.2623 20C17.6418 20.0018 18.0163 19.9125 18.355 19.7396C19.523 19.1442 19.9709 17.6829 19.4086 16.4892L18.555 14.6782C18.5353 14.636 18.5295 14.5886 18.5384 14.5428C18.5472 14.497 18.5703 14.4553 18.6043 14.4237C20.2949 12.8711 21.4632 10.8245 21.9461 8.56945ZM7.18739 18.2431C7.1004 18.4272 6.97803 18.592 6.82739 18.7279C6.67675 18.8638 6.50085 18.9682 6.30991 19.0349C6.11897 19.1016 5.9168 19.1293 5.71516 19.1164C5.51351 19.1035 5.31641 19.0503 5.13531 18.9599C4.77575 18.7691 4.50414 18.4442 4.37828 18.0544C4.25243 17.6645 4.28226 17.2405 4.46143 16.8725L5.12082 15.4725C5.13481 15.4444 5.15461 15.4196 5.17887 15.3998C5.20313 15.38 5.2313 15.3657 5.26149 15.3578C5.29168 15.3499 5.3232 15.3486 5.35392 15.354C5.38465 15.3594 5.41387 15.3714 5.43964 15.3891C5.58456 15.4901 5.72948 15.5881 5.87441 15.6817C6.44981 16.055 7.05817 16.3738 7.69171 16.634C7.71865 16.6452 7.74309 16.6617 7.76359 16.6825C7.78409 16.7034 7.80022 16.7282 7.81103 16.7555C7.82185 16.7828 7.82712 16.812 7.82654 16.8414C7.82596 16.8708 7.81953 16.8997 7.80765 16.9266L7.18739 18.2431ZM11.4147 16.5214C7.91054 16.5214 4.20637 14.1238 2.98034 11.0636C2.89945 10.8754 2.85668 10.6728 2.85457 10.4677C2.85245 10.2625 2.89101 10.0591 2.968 9.86922C3.04498 9.67938 3.15882 9.50701 3.30281 9.36226C3.44681 9.21751 3.61804 9.10331 3.80643 9.02638C3.99482 8.94946 4.19656 8.91137 4.39976 8.91435C4.60296 8.91734 4.80351 8.96134 4.9896 9.04376C5.1757 9.12618 5.34357 9.24536 5.48333 9.39428C5.62309 9.5432 5.73191 9.71884 5.80339 9.91086C6.57147 11.8286 9.13657 13.448 11.4147 13.448C11.7643 13.4468 12.113 13.414 12.4567 13.35C12.5039 13.3401 12.553 13.3466 12.5962 13.3683C12.6393 13.3901 12.6739 13.4259 12.6944 13.4699L13.8451 15.9085C13.8589 15.9378 13.8661 15.9699 13.866 16.0024C13.866 16.0348 13.8588 16.0669 13.8449 16.0962C13.831 16.1255 13.8108 16.1513 13.7857 16.1717C13.7607 16.1922 13.7314 16.2067 13.7001 16.2142C12.9548 16.4163 12.1865 16.5196 11.4147 16.5214ZM10.9119 12.3801L11.4408 11.2581C11.4504 11.238 11.4654 11.221 11.4841 11.2092C11.5028 11.1973 11.5245 11.191 11.5466 11.191C11.5687 11.191 11.5904 11.1973 11.6091 11.2092C11.6278 11.221 11.6428 11.238 11.6524 11.2581L12.1683 12.3523C12.1765 12.3691 12.1807 12.3876 12.1804 12.4063C12.1802 12.425 12.1756 12.4433 12.1669 12.4599C12.1583 12.4764 12.1459 12.4907 12.1308 12.5015C12.1157 12.5123 12.0982 12.5193 12.0799 12.522C11.8595 12.5532 11.6373 12.5694 11.4147 12.5703C11.28 12.5703 11.1423 12.5703 11.0061 12.5498C10.9874 12.5476 10.9694 12.541 10.9538 12.5305C10.9381 12.52 10.9252 12.5058 10.916 12.4893C10.9068 12.4727 10.9016 12.4542 10.9009 12.4352C10.9002 12.4162 10.9039 12.3973 10.9119 12.3801ZM17.9565 18.9628C17.7756 19.0538 17.5785 19.1075 17.3768 19.1207C17.1751 19.1338 16.9729 19.1062 16.7819 19.0395C16.5909 18.9727 16.4151 18.8681 16.2646 18.7319C16.1142 18.5957 15.9922 18.4305 15.9058 18.246L11.7538 9.43106C11.7354 9.39134 11.706 9.35776 11.6693 9.33424C11.6327 9.31071 11.5901 9.29822 11.5466 9.29822C11.5031 9.29822 11.4606 9.31071 11.4239 9.33424C11.3872 9.35776 11.3579 9.39134 11.3394 9.43106L10.0525 12.1636C10.03 12.2119 9.99071 12.2503 9.94209 12.2713C9.89347 12.2923 9.83889 12.2946 9.78872 12.2777C8.91947 11.9749 8.12755 11.4813 7.46998 10.8324C7.43885 10.8005 7.41824 10.7595 7.41098 10.7153C7.40372 10.6711 7.41015 10.6256 7.42941 10.5852L10.2119 4.67833C10.3069 4.46786 10.4573 4.28773 10.6466 4.15757C10.8297 4.02685 11.0387 3.93796 11.2592 3.89708C11.4798 3.8562 11.7065 3.8643 11.9236 3.92082C12.1407 3.97735 12.343 4.08094 12.5164 4.22439C12.6898 4.36784 12.8301 4.54771 12.9277 4.75147L18.6274 16.8725C18.8072 17.24 18.8377 17.6639 18.7123 18.0539C18.587 18.4438 18.3158 18.7689 17.9565 18.9599V18.9628ZM16.7565 10.8544C16.7394 10.8174 16.7328 10.7764 16.7374 10.7358C16.742 10.6953 16.7577 10.6568 16.7826 10.6247C17.4425 9.78336 17.8998 8.79889 18.1188 7.74881C18.1875 7.40052 18.3736 7.08702 18.6455 6.86166C18.9173 6.63629 19.2582 6.51299 19.61 6.51272C19.8423 6.51276 20.0715 6.56627 20.2802 6.66918C20.4889 6.77209 20.6716 6.92169 20.8144 7.1066C20.9572 7.29151 21.0564 7.50686 21.1043 7.73627C21.1522 7.96568 21.1477 8.2031 21.0911 8.43048C20.6765 10.3505 19.7202 12.1084 18.3376 13.4919C18.313 13.5169 18.2828 13.5357 18.2496 13.5466C18.2164 13.5574 18.181 13.5601 18.1465 13.5544C18.1121 13.5487 18.0795 13.5347 18.0514 13.5136C18.0234 13.4926 18.0008 13.465 17.9854 13.4333L16.7565 10.8544Z" fill="currentColor"/>
</svg>
