<svg viewBox="0 0 24 24" fill="none" xmlns="http://www.w3.org/2000/svg">
<path fill-rule="evenodd" clip-rule="evenodd" d="M11.2929 2.29289C11.6834 1.90237 12.3166 1.90237 12.7071 2.29289L19.7071 9.29289C19.9931 9.57889 20.0787 10.009 19.9239 10.3827C19.7691 10.7564 19.4045 11 19 11H16V21C16 21.5523 15.5523 22 15 22H9.00003C8.44774 22 8.00003 21.5523 8.00003 21V11H5.00003C4.59557 11 4.23093 10.7564 4.07615 10.3827C3.92137 10.009 4.00692 9.57889 4.29292 9.29289L11.2929 2.29289ZM7.41424 9H9.00003C9.55231 9 10 9.44772 10 10V20H14V10C14 9.44772 14.4477 9 15 9H16.5858L12 4.41421L7.41424 9Z" fill="currentColor"/>
</svg>
