<svg viewBox="0 0 24 24" fill="none" xmlns="http://www.w3.org/2000/svg">
<path fill-rule="evenodd" clip-rule="evenodd" d="M21 1C21.5523 1 22 1.44772 22 2V8C22 8.55228 21.5523 9 21 9H15C14.4478 9 14 8.55228 14 8C14 7.44772 14.4478 7 15 7H18.3941L17.3351 6.04694C15.9904 4.86359 14.2875 4.16572 12.499 4.0652C10.7088 3.96459 8.93669 4.46828 7.46706 5.49545C5.99742 6.52262 4.91546 8.01372 4.39478 9.72947C3.87411 11.4452 3.94491 13.2861 4.59583 14.9568C5.24675 16.6275 6.44004 18.0311 7.98423 18.9424C9.52842 19.8536 11.334 20.2197 13.1111 19.9819C14.8883 19.7441 16.5341 18.9162 17.7843 17.6309C19.0346 16.3457 19.8169 14.6778 20.0056 12.8947C20.0637 12.3455 20.5561 11.9474 21.1053 12.0056C21.6545 12.0637 22.0526 12.5561 21.9945 13.1053C21.7586 15.3341 20.7807 17.419 19.2179 19.0255C17.6551 20.632 15.5979 21.667 13.3764 21.9642C11.1549 22.2615 8.89801 21.8039 6.96778 20.6648C5.03754 19.5258 3.54592 17.7713 2.73228 15.6829C1.91863 13.5945 1.83012 11.2934 2.48097 9.14869C3.13181 7.004 4.48427 5.14013 6.32131 3.85616C8.15835 2.5722 10.3735 1.94258 12.6112 2.06835C14.8489 2.19412 16.9796 3.06799 18.6612 4.54971L18.669 4.55666L18.669 4.55671L20 5.75464V2C20 1.44772 20.4478 1 21 1Z" fill="currentColor"/>
</svg>
