<svg viewBox="0 0 24 24" fill="none" xmlns="http://www.w3.org/2000/svg">
<path fill-rule="evenodd" clip-rule="evenodd" d="M10.3827 4.07612C10.7564 4.2309 11 4.59554 11 5V8H21C21.5523 8 22 8.44771 22 9V15C22 15.5523 21.5523 16 21 16H11V19C11 19.4045 10.7564 19.7691 10.3827 19.9239C10.009 20.0787 9.57889 19.9931 9.29289 19.7071L2.29289 12.7071C1.90237 12.3166 1.90237 11.6834 2.29289 11.2929L9.29289 4.29289C9.57889 4.00689 10.009 3.92134 10.3827 4.07612ZM4.41421 12L9 16.5858V15C9 14.4477 9.44772 14 10 14H20V10H10C9.44772 10 9 9.55228 9 9V7.41421L4.41421 12Z" fill="currentColor"/>
</svg>
