<svg viewBox="0 0 24 24" fill="none" xmlns="http://www.w3.org/2000/svg">
<path fill-rule="evenodd" clip-rule="evenodd" d="M13.6173 4.07612C13.991 3.92134 14.4211 4.00689 14.7071 4.29289L21.7071 11.2929C22.0976 11.6834 22.0976 12.3166 21.7071 12.7071L14.7071 19.7071C14.4211 19.9931 13.991 20.0787 13.6173 19.9239C13.2436 19.7691 13 19.4045 13 19V16H3C2.44772 16 2 15.5523 2 15V9C2 8.44771 2.44772 8 3 8H13V5C13 4.59554 13.2436 4.2309 13.6173 4.07612ZM15 7.41421V9C15 9.55228 14.5523 10 14 10H4V14H14C14.5523 14 15 14.4477 15 15V16.5858L19.5858 12L15 7.41421Z" fill="currentColor"/>
</svg>
