<svg viewBox="0 0 24 24" fill="none" xmlns="http://www.w3.org/2000/svg">
<path fill-rule="evenodd" clip-rule="evenodd" d="M16.2929 2.29289C16.6834 1.90237 17.3166 1.90237 17.7071 2.29289L21.7071 6.29289C22.0976 6.68342 22.0976 7.31658 21.7071 7.70711C21.3166 8.09763 20.6834 8.09763 20.2929 7.70711L18 5.41421V15C18 15.5523 17.5523 16 17 16C16.4477 16 16 15.5523 16 15V5.41421L13.7071 7.70711C13.3166 8.09763 12.6834 8.09763 12.2929 7.70711C11.9024 7.31658 11.9024 6.68342 12.2929 6.29289L16.2929 2.29289ZM7 8C7.55228 8 8 8.44772 8 9V18.5858L10.2929 16.2929C10.6834 15.9024 11.3166 15.9024 11.7071 16.2929C12.0976 16.6834 12.0976 17.3166 11.7071 17.7071L7.70711 21.7071C7.31658 22.0976 6.68342 22.0976 6.29289 21.7071L2.29289 17.7071C1.90237 17.3166 1.90237 16.6834 2.29289 16.2929C2.68342 15.9024 3.31658 15.9024 3.70711 16.2929L6 18.5858V9C6 8.44772 6.44772 8 7 8Z" fill="currentColor"/>
</svg>
