<svg viewBox="0 0 24 24" fill="none" xmlns="http://www.w3.org/2000/svg">
<path fill-rule="evenodd" clip-rule="evenodd" d="M2.99996 1C3.55224 1 3.99996 1.44772 3.99996 2V5.75464L5.33881 4.54967C7.02041 3.06794 9.15106 2.19412 11.3888 2.06835C13.6265 1.94258 15.8417 2.5722 17.6787 3.85616C19.5157 5.14013 20.8682 7.004 21.519 9.14869C22.1699 11.2934 22.0814 13.5945 21.2677 15.6829C20.4541 17.7713 18.9625 19.5258 17.0322 20.6648C15.102 21.8039 12.8451 22.2615 10.6236 21.9642C8.40213 21.667 6.34493 20.632 4.78211 19.0255C3.21928 17.419 2.24145 15.3341 2.00552 13.1053C1.94738 12.5561 2.34548 12.0637 2.89469 12.0056C3.44391 11.9474 3.93627 12.3455 3.9944 12.8947C4.18315 14.6778 4.96542 16.3457 6.21568 17.6309C7.46593 18.9162 9.1117 19.7441 10.8889 19.9819C12.666 20.2197 14.4716 19.8536 16.0158 18.9424C17.56 18.0311 18.7533 16.6275 19.4042 14.9568C20.0551 13.2861 20.1259 11.4452 19.6052 9.72947C19.0845 8.01372 18.0026 6.52262 16.5329 5.49545C15.0633 4.46828 13.2912 3.96459 11.501 4.0652C9.71254 4.16572 8.00958 4.86358 6.6649 6.04692L5.60592 7H8.99996C9.55224 7 9.99996 7.44772 9.99996 8C9.99996 8.55228 9.55224 9 8.99996 9H2.99996C2.44767 9 1.99996 8.55228 1.99996 8V2C1.99996 1.44772 2.44767 1 2.99996 1Z" fill="currentColor"/>
</svg>
