<svg viewBox="0 0 24 24" fill="none" xmlns="http://www.w3.org/2000/svg">
<path fill-rule="evenodd" clip-rule="evenodd" d="M8.00003 3C8.00003 2.44772 8.44774 2 9.00003 2H15C15.5523 2 16 2.44772 16 3V13H19C19.4045 13 19.7691 13.2436 19.9239 13.6173C20.0787 13.991 19.9931 14.4211 19.7071 14.7071L12.7071 21.7071C12.3166 22.0976 11.6834 22.0976 11.2929 21.7071L4.29292 14.7071C4.00692 14.4211 3.92137 13.991 4.07615 13.6173C4.23093 13.2436 4.59557 13 5.00003 13H8.00003V3ZM10 4V14C10 14.5523 9.55231 15 9.00003 15H7.41424L12 19.5858L16.5858 15H15C14.4477 15 14 14.5523 14 14V4H10Z" fill="currentColor"/>
</svg>
