<svg viewBox="0 0 24 24" fill="none" xmlns="http://www.w3.org/2000/svg">
  <path
    d="M8.85375 4.11429C8.79524 4 8.79524 4 8.67821 4H5.577C5.51848 4 5.45997 4 5.45997 4.11429C5.47782 4.49876 5.4384 4.88373 5.34294 5.25714L1.18848 19.4857C1.12997 19.6571 1.18848 19.7143 1.30551 19.7143H3.47051C3.64605 19.7143 3.70456 19.7143 3.70456 19.6L4.87483 15.3143L9.55591 15.2571L10.7847 19.5429C10.8432 19.6571 10.9017 19.6571 11.0188 19.6571H13.4178C13.5348 19.6571 13.5348 19.6 13.5348 19.4857L8.85375 4.11429ZM5.51848 12.9714C6.10362 10.8 6.92281 7.94286 7.21537 6.28571C7.58108 7.94286 8.56118 11.3714 8.97078 12.9714H5.51848Z"
    fill="currentColor" />
  <path
    d="M23.7748 17.3715C23.7748 17.4857 23.7748 18 23.8333 18.8572C23.8333 18.9715 23.7748 18.9715 23.7163 19.0286C22.2875 19.6175 20.7606 19.9467 19.2108 20C17.1628 20 14.8808 19.2 14.8808 15.7715V8.34288C14.8776 8.32342 14.8785 8.30355 14.8832 8.2844C14.888 8.26525 14.8965 8.2472 14.9084 8.23128C14.9203 8.21536 14.9353 8.20188 14.9525 8.19162C14.9697 8.18135 14.9888 8.1745 15.0088 8.17145H17.2798C17.2997 8.1684 17.3201 8.16922 17.3397 8.17385C17.3593 8.17848 17.3778 8.18684 17.3941 8.19844C17.4104 8.21005 17.4242 8.22468 17.4347 8.2415C17.4452 8.25832 17.4522 8.27699 17.4554 8.29646C17.459 8.31173 17.459 8.32761 17.4554 8.34288V15.5429C17.4554 16.9143 17.9235 17.6572 19.3863 17.6572C19.9462 17.6663 20.5026 17.5693 21.0247 17.3715V8.2286C21.0247 8.11431 21.0832 8.05717 21.1417 8.05717H23.5408C23.5607 8.05412 23.581 8.05493 23.6006 8.05956C23.6203 8.06419 23.6387 8.07255 23.655 8.08416C23.6713 8.09577 23.6851 8.1104 23.6957 8.12721C23.7062 8.14403 23.7132 8.1627 23.7163 8.18217C23.7199 8.19745 23.7199 8.21332 23.7163 8.2286L23.7748 17.3715Z"
    fill="currentColor" />
</svg>