<svg viewBox="0 0 24 24" fill="none" xmlns="http://www.w3.org/2000/svg">
<path fill-rule="evenodd" clip-rule="evenodd" d="M18 21L6 21C5.44772 21 5 20.5523 5 20C5 19.4477 5.44772 19 6 19L18 19C18.5523 19 19 19.4477 19 20C19 20.5523 18.5523 21 18 21Z" fill="currentColor"/>
<path d="M6.5422 17C6.96278 17 7.34119 16.7445 7.49837 16.3544L8.64263 13.5145H15.3135L16.4749 16.3528C16.6352 16.7442 17.0162 17 17.4392 17C18.1821 17 18.6863 16.2446 18.4013 15.5586L13.6434 4.10364C13.3658 3.43547 12.7134 3 11.9899 3C11.2655 3 10.6125 3.4365 10.3355 4.10585L5.58966 15.575C5.30882 16.2537 5.80768 17 6.5422 17ZM9.5 11.5C9.60972 11.2095 11.9781 5.20747 11.9781 5.20747C11.9781 5.20747 14.3903 11.2289 14.5 11.5H9.5Z" fill="currentColor"/>
</svg>
