<svg viewBox="0 0 24 24" fill="none" xmlns="http://www.w3.org/2000/svg">
<path fill-rule="evenodd" clip-rule="evenodd" d="M11.5145 6.14254C11.9881 6.42668 12.1416 7.04094 11.8575 7.51452L9.76619 11H12C12.3603 11 12.6927 11.1938 12.8702 11.5073C13.0477 11.8208 13.0429 12.2056 12.8575 12.5145L9.85749 17.5145C9.57334 17.9881 8.95908 18.1417 8.4855 17.8575C8.01192 17.5734 7.85836 16.9591 8.14251 16.4855L10.2338 13H8C7.63973 13 7.30731 12.8062 7.1298 12.4927C6.95229 12.1792 6.95715 11.7945 7.14251 11.4855L10.1425 6.48553C10.4267 6.01195 11.0409 5.85839 11.5145 6.14254ZM1.87868 6.87871C2.44129 6.3161 3.20435 6.00003 4 6.00003H6C6.55228 6.00003 7 6.44774 7 7.00003C7 7.55231 6.55228 8.00003 6 8.00003H4C3.73478 8.00003 3.48043 8.10539 3.29289 8.29292C3.10536 8.48046 3 8.73481 3 9.00003V15C3 15.2652 3.10536 15.5196 3.29289 15.7071C3.48043 15.8947 3.73478 16 4 16H5C5.55228 16 6 16.4477 6 17C6 17.5523 5.55228 18 5 18H4C3.20435 18 2.44129 17.684 1.87868 17.1213C1.31607 16.5587 1 15.7957 1 15V9.00003C1 8.20438 1.31607 7.44132 1.87868 6.87871ZM14 7.00003C14 6.44774 14.4477 6.00003 15 6.00003H16C16.7956 6.00003 17.5587 6.3161 18.1213 6.87871C18.6839 7.44132 19 8.20438 19 9.00003V15C19 15.7957 18.6839 16.5587 18.1213 17.1213C17.5587 17.684 16.7957 18 16 18H14C13.4477 18 13 17.5523 13 17C13 16.4477 13.4477 16 14 16H16C16.2652 16 16.5196 15.8947 16.7071 15.7071C16.8946 15.5196 17 15.2652 17 15V9.00003C17 8.73481 16.8946 8.48046 16.7071 8.29292C16.5196 8.10539 16.2652 8.00003 16 8.00003H15C14.4477 8.00003 14 7.55231 14 7.00003ZM22 10C22.5523 10 23 10.4477 23 11V13C23 13.5523 22.5523 14 22 14C21.4477 14 21 13.5523 21 13V11C21 10.4477 21.4477 10 22 10Z" fill="currentColor"/>
</svg>
