<svg viewBox="0 0 24 24" fill="none" xmlns="http://www.w3.org/2000/svg">
<path d="M6.98058 4C7.67331 4 8.31275 4.05654 8.89891 4.22615C9.48507 4.33922 9.96465 4.56537 10.3909 4.84806C10.8172 5.13074 11.137 5.5265 11.3501 6.03534C11.5633 6.54417 11.6698 7.16608 11.6698 7.84452C11.6698 8.63604 11.51 9.31449 11.137 9.82332C10.8172 10.3322 10.2844 10.7845 9.64493 11.1237C10.5508 11.4064 11.2435 11.9152 11.6698 12.5936C12.0961 13.2721 12.3626 14.1201 12.3626 15.0813C12.3626 15.8728 12.2027 16.5512 11.9363 17.1166C11.6698 17.682 11.2435 18.1908 10.764 18.53C10.2844 18.8693 9.69821 19.1519 9.05877 19.3216C8.41933 19.4912 7.77988 19.6042 7.14044 19.6042H0V4H6.98058ZM6.55429 10.3322C7.14044 10.3322 7.62002 10.1625 7.99303 9.87986C8.36604 9.59717 8.5259 9.08834 8.5259 8.46643C8.5259 8.12721 8.47261 7.78799 8.36604 7.56184C8.25947 7.33569 8.09961 7.16608 7.88646 6.99647C7.67331 6.88339 7.46016 6.77032 7.19373 6.71378C6.92729 6.65724 6.66086 6.65724 6.34114 6.65724H3.2505V10.3322H6.55429ZM6.71415 17.0035C7.03387 17.0035 7.35359 16.947 7.62002 16.8905C7.88646 16.8339 8.15289 16.7208 8.36604 16.5512C8.57919 16.3816 8.73905 16.212 8.89891 15.9293C9.00548 15.6466 9.11206 15.3074 9.11206 14.9117C9.11206 14.1201 8.89891 13.5548 8.47261 13.159C8.04632 12.8198 7.46016 12.6502 6.76743 12.6502H3.2505V17.0035H6.71415ZM16.9985 16.947C17.4248 17.3993 18.0643 17.6254 18.9168 17.6254C19.503 17.6254 20.0359 17.4558 20.4622 17.1731C20.8885 16.8339 21.1549 16.4947 21.2615 16.1555H23.8725C23.4462 17.5124 22.8068 18.4735 21.9542 19.0954C21.1016 19.6608 20.0892 20 18.8636 20C18.011 20 17.2649 19.8304 16.5722 19.5477C15.8795 19.265 15.3466 18.8693 14.867 18.3039C14.3875 17.7951 14.0144 17.1731 13.8013 16.4382C13.5349 15.7032 13.4283 14.9117 13.4283 14.0071C13.4283 13.159 13.5349 12.3675 13.8013 11.6325C14.0677 10.8975 14.4407 10.2756 14.9203 9.71025C15.3999 9.20141 15.9861 8.74912 16.6255 8.46643C17.3182 8.18375 18.011 8.01413 18.8636 8.01413C19.7694 8.01413 20.5687 8.18375 21.2615 8.57951C21.9542 8.97527 22.4871 9.42756 22.9134 10.106C23.3397 10.7279 23.6594 11.4629 23.8725 12.2544C23.9791 13.0459 24.0324 13.8375 23.9791 14.7421H16.2525C16.2525 15.6466 16.5722 16.4947 16.9985 16.947ZM20.3556 11.0106C19.9826 10.6148 19.3964 10.3887 18.7037 10.3887C18.2241 10.3887 17.8511 10.5018 17.5314 10.6714C17.2117 10.841 16.9985 11.0671 16.7854 11.2933C16.5722 11.5194 16.4656 11.8021 16.4124 12.0848C16.3591 12.3675 16.3058 12.5936 16.3058 12.8198H21.1016C20.995 11.9717 20.7286 11.4064 20.3556 11.0106ZM15.6663 5.0742H21.6345V6.60071H15.6663V5.0742Z" fill="currentColor"/>
</svg>
