<svg viewBox="0 0 24 24" fill="none" xmlns="http://www.w3.org/2000/svg">
<path fill-rule="evenodd" clip-rule="evenodd" d="M12.8333 3.07001C12.1163 2.94883 11.3816 2.98547 10.6802 3.17739C9.97889 3.36931 9.32785 3.71189 8.7725 4.18125C8.21714 4.6506 7.77084 5.23543 7.4647 5.89497C7.15857 6.55451 6.99997 7.27289 6.99996 8.00001C6.99996 11.6474 6.21702 14.0654 5.37785 15.6039C5.30175 15.7434 5.22537 15.8753 5.14928 16H18.8504C18.3141 15.1212 17.7676 13.8886 17.409 12.2088C17.2937 11.6687 17.6381 11.1373 18.1782 11.022C18.7183 10.9067 19.2496 11.2511 19.3649 11.7912C19.7425 13.56 20.3412 14.6831 20.8122 15.3446C21.0487 15.6769 21.2562 15.8971 21.3933 16.0268C21.4619 16.0918 21.513 16.1343 21.5416 16.1569C21.5546 16.1672 21.563 16.1734 21.5662 16.1757C21.9247 16.4219 22.0834 16.8724 21.9571 17.2897C21.8294 17.7115 21.4406 18 21 18H2.99996C2.55929 18 2.17056 17.7115 2.04286 17.2898C1.91652 16.8725 2.07516 16.4221 2.43364 16.1758C2.43749 16.1732 2.44136 16.1705 2.44526 16.1679L2.99996 17C2.44526 16.1679 2.44461 16.1684 2.44398 16.1688L2.44277 16.1696L2.44054 16.1711L2.4369 16.1736L2.43274 16.1765C2.43209 16.1769 2.43224 16.1768 2.43274 16.1765C2.43298 16.1763 2.43314 16.1762 2.43364 16.1758C2.43434 16.1753 2.43569 16.1745 2.4369 16.1736C2.4446 16.1679 2.46206 16.1544 2.48868 16.1322C2.54189 16.0878 2.63028 16.0091 2.74275 15.8904C2.96718 15.6535 3.29027 15.2544 3.62206 14.6461C4.28289 13.4346 4.99996 11.3527 4.99996 8C4.99997 6.98202 5.22201 5.97629 5.6506 5.05293C6.07919 4.12957 6.70401 3.31081 7.48151 2.65371C8.25901 1.99662 9.17046 1.517 10.1523 1.24832C11.1342 0.979626 12.1629 0.928324 13.1666 1.09799C13.7112 1.19003 14.078 1.70611 13.986 2.25067C13.8939 2.79523 13.3778 3.16206 12.8333 3.07001Z" fill="currentColor"/>
<path fill-rule="evenodd" clip-rule="evenodd" d="M18 1C18.5522 1 19 1.44772 19 2V8C19 8.55228 18.5522 9 18 9C17.4477 9 17 8.55228 17 8V2C17 1.44772 17.4477 1 18 1Z" fill="currentColor"/>
<path fill-rule="evenodd" clip-rule="evenodd" d="M14 5C14 4.44772 14.4477 4 15 4H21C21.5522 4 22 4.44772 22 5C22 5.55228 21.5522 6 21 6H15C14.4477 6 14 5.55228 14 5Z" fill="currentColor"/>
<path fill-rule="evenodd" clip-rule="evenodd" d="M9.99996 18C9.99996 19.1046 10.8954 20 12 20C13.1045 20 14 19.1046 14 18H16C16 20.2091 14.2091 22 12 22C9.79082 22 7.99996 20.2091 7.99996 18H9.99996Z" fill="currentColor"/>
</svg>
