<svg viewBox="0 0 24 24" fill="none" xmlns="http://www.w3.org/2000/svg">
<path fill-rule="evenodd" clip-rule="evenodd" d="M18.016 7.00012C18.5682 7.00895 19.0087 7.46377 18.9999 8.01599C18.9744 9.60966 19.1746 11.1989 19.5947 12.7365C19.7402 13.2692 19.4263 13.8191 18.8935 13.9646C18.3608 14.1102 17.8109 13.7963 17.6653 13.2635C17.1956 11.5439 16.9716 9.76641 17.0001 7.984C17.009 7.43178 17.4638 6.99129 18.016 7.00012Z" fill="currentColor"/>
<path fill-rule="evenodd" clip-rule="evenodd" d="M5 6C5.52778 6.16269 7.37832 6.02679 7.21563 6.55457C7.07154 7.022 6.99885 7.5085 7 7.99764L7 7.99999C7 11.6473 6.21707 14.0654 5.3779 15.6038C5.3018 15.7434 5.22541 15.8753 5.14932 16H17C17.5523 16 18 16.4477 18 17C18 17.5523 17.5523 18 17 18H3C2.55933 18 2.17061 17.7115 2.04291 17.2898C1.91657 16.8725 2.0752 16.4221 2.43369 16.1758L2.43655 16.1737C2.44425 16.168 2.4621 16.1543 2.48872 16.1322C2.54194 16.0878 2.63032 16.0091 2.7428 15.8904C2.96723 15.6535 3.29031 15.2544 3.6221 14.6461C4.28286 13.4348 4.99985 11.3531 5 8.00107" fill="currentColor"/>
<path fill-rule="evenodd" clip-rule="evenodd" d="M11.6627 0.999221C12.9293 0.938119 14.1888 1.22224 15.3065 1.82122C16.4242 2.42021 17.3582 3.31157 18.0087 4.40008C18.6593 5.4886 19.0019 6.73338 19 8.00148C18.9992 8.55376 18.5508 9.00081 17.9985 8.99999C17.4462 8.99917 16.9992 8.55079 17 7.99851C17.0013 7.09273 16.7566 6.2036 16.2919 5.42608C15.8273 4.64857 15.1601 4.01189 14.3618 3.58404C13.5634 3.15619 12.6638 2.95325 11.7591 2.9969C10.8544 3.04054 9.97847 3.32913 9.225 3.83184C8.76558 4.13836 8.14467 4.01441 7.83815 3.55499C7.53163 3.09558 7.65558 2.47466 8.115 2.16814C9.16986 1.46435 10.3961 1.06032 11.6627 0.999221Z" fill="currentColor"/>
<path fill-rule="evenodd" clip-rule="evenodd" d="M1.29289 1.29289C1.68342 0.902362 2.31658 0.902362 2.70711 1.29289L22.7071 21.2929C23.0976 21.6834 23.0976 22.3166 22.7071 22.7071C22.3166 23.0976 21.6834 23.0976 21.2929 22.7071L1.29289 2.7071C0.902369 2.31658 0.902369 1.68341 1.29289 1.29289Z" fill="currentColor"/>
<path fill-rule="evenodd" clip-rule="evenodd" d="M10 18C10 19.1046 10.8954 20 12 20C13.1046 20 14 19.1046 14 18H16C16 20.2091 14.2091 22 12 22C9.79086 22 8 20.2091 8 18H10Z" fill="currentColor"/>
</svg>
