<svg viewBox="0 0 24 24" fill="none" xmlns="http://www.w3.org/2000/svg">
<path fill-rule="evenodd" clip-rule="evenodd" d="M7.05025 3.05025C8.36301 1.7375 10.1435 0.999998 12 0.999998C13.8565 0.999998 15.637 1.7375 16.9497 3.05025C18.2625 4.36301 19 6.14348 19 8C19 11.3527 19.7171 13.4346 20.3779 14.6461C20.7097 15.2544 21.0328 15.6535 21.2572 15.8904C21.3697 16.0091 21.4581 16.0878 21.5113 16.1322C21.5379 16.1544 21.5558 16.168 21.5635 16.1737C21.5647 16.1746 21.5656 16.1753 21.5663 16.1758C21.9248 16.4221 22.0834 16.8725 21.9571 17.2898C21.8294 17.7115 21.4407 18 21 18H3C2.55933 18 2.17061 17.7115 2.04291 17.2898C1.91657 16.8725 2.0752 16.4221 2.43369 16.1758C2.43439 16.1753 2.43535 16.1746 2.43655 16.1737C2.44425 16.168 2.4621 16.1544 2.48872 16.1322C2.54194 16.0878 2.63032 16.0091 2.7428 15.8904C2.96723 15.6535 3.29031 15.2544 3.6221 14.6461C4.28293 13.4346 5 11.3527 5 8C5 6.14348 5.7375 4.363 7.05025 3.05025ZM5.14932 16H18.8507C18.7746 15.8753 18.6982 15.7434 18.6221 15.6039C17.7829 14.0654 17 11.6473 17 8C17 6.67392 16.4732 5.40215 15.5355 4.46446C14.5979 3.52678 13.3261 3 12 3C10.6739 3 9.40215 3.52678 8.46447 4.46446C7.52678 5.40215 7 6.67392 7 8C7 11.6473 6.21707 14.0654 5.3779 15.6039C5.3018 15.7434 5.22541 15.8753 5.14932 16Z" fill="currentColor"/>
<path fill-rule="evenodd" clip-rule="evenodd" d="M4.60745 1.20564C5.04616 1.54113 5.12984 2.16874 4.79436 2.60745C3.6317 4.12784 3 6.01294 3 8C3 8.55228 2.55228 9 2 9C1.44772 9 1 8.55228 1 8C1 5.58705 1.7683 3.27215 3.20564 1.39255C3.54113 0.953836 4.16874 0.870155 4.60745 1.20564Z" fill="currentColor"/>
<path fill-rule="evenodd" clip-rule="evenodd" d="M19.4 1.2C19.8418 0.868627 20.4686 0.95817 20.8 1.4C22.228 3.30406 23 5.61993 23 8C23 8.55228 22.5523 9 22 9C21.4477 9 21 8.55228 21 8C21 6.05267 20.3684 4.15786 19.2 2.6C18.8686 2.15817 18.9582 1.53137 19.4 1.2Z" fill="currentColor"/>
<path fill-rule="evenodd" clip-rule="evenodd" d="M10 18C10 19.1046 10.8954 20 12 20C13.1046 20 14 19.1046 14 18H16C16 20.2091 14.2091 22 12 22C9.79086 22 8 20.2091 8 18H10Z" fill="currentColor"/>
</svg>
