<svg viewBox="0 0 24 24" fill="none" xmlns="http://www.w3.org/2000/svg">
<path fill-rule="evenodd" clip-rule="evenodd" d="M19.07 10.0404C19.3844 7.93885 17.7843 6.80912 15.5964 6.05547L16.3061 3.2087L14.5733 2.77684L13.8823 5.5486C13.4267 5.43509 12.9589 5.32799 12.4939 5.22187L13.1898 2.43185L11.458 2L10.7478 4.84579C10.3707 4.75991 10.0005 4.67502 9.64124 4.58569L9.64322 4.57681L7.25346 3.98011L6.79249 5.83091C6.79249 5.83091 8.07818 6.12556 8.05103 6.14382C8.75286 6.31903 8.8797 6.78346 8.85848 7.15164L8.05005 10.3947C8.09841 10.4071 8.16109 10.4248 8.23019 10.4525L8.17146 10.4378L8.17131 10.4378C8.13117 10.4277 8.08957 10.4173 8.04708 10.4071L6.9139 14.9502C6.82802 15.1634 6.61037 15.4832 6.11978 15.3618C6.13706 15.387 4.86025 15.0474 4.86025 15.0474L4 17.031L6.25502 17.5931C6.50686 17.6562 6.75568 17.7211 7.00191 17.7853L7.00238 17.7855C7.16615 17.8282 7.32877 17.8706 7.49036 17.912L6.77324 20.7913L8.50411 21.2232L9.21432 18.3744C9.68714 18.5027 10.1461 18.6212 10.5953 18.7327L9.88752 21.5681L11.6204 22L12.3375 19.1261C15.2924 19.6853 17.5143 19.4597 18.4496 16.7872C19.2032 14.6353 18.4121 13.394 16.8574 12.5846C17.9896 12.3235 18.8424 11.5788 19.07 10.0404ZM15.5533 9.79984C15.1311 11.5092 12.7072 10.8555 11.5959 10.5558C11.4949 10.5285 11.4048 10.5042 11.328 10.4849L12.1412 7.18897C12.2345 7.21246 12.3486 7.238 12.4781 7.26696C13.6286 7.52436 15.9845 8.05141 15.5533 9.79984ZM10.0591 16.3376C11.4618 16.7014 14.5275 17.4966 15.0148 15.5732C15.5143 13.6066 12.5411 12.9514 11.0903 12.6317C10.9282 12.596 10.7851 12.5645 10.668 12.5358L9.72398 16.2522C9.82017 16.2756 9.93291 16.3049 10.0591 16.3376Z" fill="currentColor"/>
</svg>
