<svg viewBox="0 0 24 24" fill="none" xmlns="http://www.w3.org/2000/svg">
<path d="M6 20C6 20.5523 6.44772 21 7 21H12.98C16.412 21 18.5 19.1826 18.5 16.195C18.5 14.0539 17.516 12.61 15.596 11.9627C17.324 11.2158 18.188 9.82158 18.188 7.75519C18.188 4.79253 16.124 3 12.74 3H7C6.44771 3 6 3.44772 6 4V20ZM12.596 5.16598C14.636 5.16598 15.788 6.18672 15.788 7.97925C15.788 9.84647 14.684 10.9419 12.74 10.9419H8.4V5.16598H12.596ZM12.932 13.0581C14.924 13.0581 16.076 14.1037 16.076 15.8963C16.076 17.7635 14.948 18.834 12.932 18.834H8.4V13.0581H12.932Z" fill="currentColor"/>
</svg>
