<svg viewBox="0 0 24 24" fill="none" xmlns="http://www.w3.org/2000/svg">
<path fill-rule="evenodd" clip-rule="evenodd" d="M15.5946 1.99117C16.2336 1.35524 17.0985 0.99823 18 0.99823C18.9015 0.99823 19.7664 1.35524 20.4054 1.99117L20.4071 1.99288L20.4071 1.99288L20.5 2.08577L21.2929 1.29288C21.6834 0.902354 22.3166 0.902354 22.7071 1.29288C23.0976 1.6834 23.0976 2.31657 22.7071 2.70709L21.9142 3.49999L22.0059 3.59165C22.0063 3.59204 22.0066 3.59242 22.007 3.5928C22.0071 3.59283 22.0071 3.59285 22.0071 3.59288C22.3235 3.90849 22.5746 4.28339 22.746 4.69614C22.9176 5.10941 23.0059 5.5525 23.0059 5.99999C23.0059 6.44747 22.9176 6.89056 22.746 7.30384C22.5746 7.71658 22.3235 8.09148 22.0071 8.40709C22.0071 8.40713 22.007 8.40717 22.007 8.40721C22.0066 8.40758 22.0062 8.40795 22.0059 8.40832L20.5112 9.90301C20.8285 10.8781 21 11.919 21 13C21 18.5228 16.5228 23 11 23C5.47715 23 1 18.5228 1 13C1 7.47714 5.47715 2.99999 11 2.99999C12.081 2.99999 13.1219 3.1715 14.097 3.48879L15.5929 1.99288L15.5946 1.99117ZM16.0483 4.36592C17.5289 5.2335 18.7665 6.47107 19.6341 7.9517L20.5929 6.99288L20.5941 6.99165C20.7246 6.86159 20.8282 6.70704 20.8989 6.53686C20.9695 6.36669 21.0059 6.18425 21.0059 5.99999C21.0059 5.81572 20.9695 5.63328 20.8989 5.46311C20.8282 5.29293 20.7246 5.13838 20.5941 5.00832L20.5929 5.00709L19.7934 4.20755C19.7932 4.2074 19.793 4.20725 19.7929 4.20709C19.7927 4.20694 19.7926 4.20678 19.7924 4.20663L18.9946 3.4088C18.9944 3.40856 18.9941 3.40832 18.9939 3.40807C18.7297 3.14558 18.3724 2.99823 18 2.99823C17.6276 2.99823 17.2703 3.14557 17.0061 3.40806C17.0059 3.4083 17.0056 3.40855 17.0054 3.4088L16.0483 4.36592ZM11 4.99999C6.58172 4.99999 3 8.58171 3 13C3 17.4183 6.58172 21 11 21C15.4183 21 19 17.4183 19 13C19 8.58171 15.4183 4.99999 11 4.99999Z" fill="currentColor"/>
</svg>
