<svg viewBox="0 0 24 24" fill="none" xmlns="http://www.w3.org/2000/svg">
<path fill-rule="evenodd" clip-rule="evenodd" d="M5 11C4.53527 11 4 11.4454 4 12.2V18.8C4 19.5546 4.53527 20 5 20H19C19.4647 20 20 19.5546 20 18.8V12.2C20 11.4454 19.4647 11 19 11H5ZM2 12.2C2 10.5245 3.25559 9 5 9H19C20.7444 9 22 10.5245 22 12.2V18.8C22 20.4755 20.7444 22 19 22H5C3.25559 22 2 20.4755 2 18.8V12.2Z" fill="currentColor"/>
<path fill-rule="evenodd" clip-rule="evenodd" d="M12 4C11.4477 4 11 4.44772 11 5C11 5.55228 11.4477 6 12 6C12.5523 6 13 5.55228 13 5C13 4.44772 12.5523 4 12 4ZM9 5C9 3.34315 10.3431 2 12 2C13.6569 2 15 3.34315 15 5C15 6.65685 13.6569 8 12 8C10.3431 8 9 6.65685 9 5Z" fill="currentColor"/>
<path fill-rule="evenodd" clip-rule="evenodd" d="M12 6C12.5523 6 13 6.44772 13 7V10C13 10.5523 12.5523 11 12 11C11.4477 11 11 10.5523 11 10V7C11 6.44772 11.4477 6 12 6Z" fill="currentColor"/>
<path d="M11 13.5C11 14.3284 10.3284 15 9.5 15C8.67157 15 8 14.3284 8 13.5C8 12.6716 8.67157 12 9.5 12C10.3284 12 11 12.6716 11 13.5Z" fill="currentColor"/>
<path d="M16 13.5C16 14.3284 15.3284 15 14.5 15C13.6716 15 13 14.3284 13 13.5C13 12.6716 13.6716 12 14.5 12C15.3284 12 16 12.6716 16 13.5Z" fill="currentColor"/>
<path fill-rule="evenodd" clip-rule="evenodd" d="M8 17C8 16.4477 8.44772 16 9 16H15C15.5523 16 16 16.4477 16 17C16 17.5523 15.5523 18 15 18H9C8.44772 18 8 17.5523 8 17Z" fill="currentColor"/>
</svg>
