<svg viewBox="0 0 24 24" fill="none" xmlns="http://www.w3.org/2000/svg">
<path fill-rule="evenodd" clip-rule="evenodd" d="M6.28505 1.34464C6.70716 1.12137 7.17746 1.00464 7.65503 1.00464C8.13408 1.00464 8.60582 1.1221 9.02894 1.34673L9.03191 1.34831L21.3819 7.95832L20.91 8.83998L21.389 7.96214C21.8696 8.22436 22.2727 8.60842 22.5579 9.07574C22.8431 9.54306 23.0003 10.0772 23.0137 10.6245C23.0271 11.1718 22.8963 11.713 22.6343 12.1937C22.3724 12.6745 21.9886 13.0778 21.5214 13.3633L21.5088 13.3709L17.7188 15.6109C17.711 15.6155 17.703 15.6201 17.695 15.6245C17.2498 15.8714 16.7491 16.0009 16.24 16.0009C15.7309 16.0009 15.2302 15.8714 14.785 15.6245L14.7767 15.6199L2.54583 8.68365C2.06886 8.40521 1.67438 8.00507 1.40264 7.52425C1.13089 7.04343 0.991644 6.49909 0.999127 5.94685C1.00661 5.3946 1.16055 4.85423 1.44523 4.38095C1.7299 3.90767 2.13511 3.51844 2.61945 3.25302L2.63829 3.24296L6.28505 1.34464ZM20.434 9.71943L8.09111 3.11322C8.09071 3.11301 8.09031 3.11279 8.08991 3.11258C7.95592 3.0417 7.80662 3.00464 7.65503 3.00464C7.50297 3.00464 7.35324 3.04192 7.21894 3.11322L7.21178 3.11702L3.57273 5.01128C3.40234 5.10644 3.25973 5.2445 3.15908 5.41183C3.05689 5.58172 3.00163 5.7757 2.99894 5.97394C2.99626 6.17219 3.04624 6.36759 3.14379 6.54019C3.24048 6.71126 3.38045 6.85386 3.54963 6.95369L15.7585 13.8774C15.906 13.9584 16.0716 14.0009 16.24 14.0009C16.4059 14.0009 16.5692 13.9597 16.7151 13.8809L20.4839 11.6534C20.6492 11.5512 20.7851 11.4076 20.8781 11.2368C20.9721 11.0643 21.0191 10.87 21.0143 10.6735C21.0095 10.4771 20.953 10.2853 20.8507 10.1176C20.7489 9.95076 20.6052 9.81352 20.434 9.71943Z" fill="currentColor"/>
<path fill-rule="evenodd" clip-rule="evenodd" d="M15.9101 3.11258C15.9097 3.11279 15.9093 3.11301 15.9089 3.11322L3.56599 9.71944C3.39478 9.81353 3.25115 9.95077 3.14937 10.1176C3.047 10.2853 2.99057 10.4771 2.98575 10.6735C2.98093 10.87 3.02789 11.0643 3.12192 11.2368C3.21496 11.4076 3.35085 11.5512 3.51617 11.6534L7.28495 13.8809C7.43084 13.9597 7.59409 14.0009 7.76 14.0009C7.92863 14.0009 8.0945 13.9583 8.2422 13.877L20.4944 6.95704C20.66 6.85515 20.7962 6.71189 20.8897 6.54129C20.985 6.36732 21.0323 6.17117 21.027 5.97289C21.0216 5.77461 20.9636 5.58131 20.8591 5.41276C20.755 5.24508 20.6086 5.10787 20.4345 5.01502C20.4336 5.01454 20.4327 5.01406 20.4318 5.01359L16.7811 3.11325C16.6468 3.04195 16.4971 3.00464 16.345 3.00464C16.1934 3.00464 16.0441 3.0417 15.9101 3.11258ZM3.09 8.83998L2.61812 7.95832L14.9681 1.34832L14.9711 1.34673C15.3942 1.1221 15.8659 1.00464 16.345 1.00464C16.8226 1.00464 17.2929 1.12137 17.715 1.34463L21.3682 3.24634C21.8565 3.50506 22.2672 3.88883 22.5586 4.35836C22.8499 4.82788 23.0113 5.36635 23.0262 5.91871C23.0412 6.47106 22.9092 7.01749 22.6438 7.5021C22.3783 7.98672 21.9889 8.39215 21.5154 8.67693C21.5076 8.68163 21.4997 8.68622 21.4918 8.6907L9.21501 15.6245C8.76981 15.8714 8.26909 16.0009 7.76 16.0009C7.25092 16.0009 6.7502 15.8714 6.305 15.6245C6.297 15.6201 6.28907 15.6155 6.28119 15.6109L2.49119 13.3709L2.47858 13.3633C2.01143 13.0778 1.62761 12.6745 1.36568 12.1937C1.10375 11.713 0.972929 11.1718 0.986351 10.6245C0.999772 10.0772 1.15697 9.54306 1.44215 9.07574C1.72733 8.60842 2.13045 8.22436 2.61103 7.96214L3.09 8.83998Z" fill="currentColor"/>
<path fill-rule="evenodd" clip-rule="evenodd" d="M12 12C12.5523 12 13 12.4477 13 13V22C13 22.5523 12.5523 23 12 23C11.4477 23 11 22.5523 11 22V13C11 12.4477 11.4477 12 12 12Z" fill="currentColor"/>
<path d="M20 13.5V16.87C20.0004 17.2474 19.8971 17.6178 19.7013 17.9405C19.5056 18.2632 19.2249 18.5259 18.89 18.7L12.89 21.78C12.6151 21.9229 12.3098 21.9975 12 21.9975C11.6902 21.9975 11.3849 21.9229 11.11 21.78L5.11 18.7C4.77508 18.5259 4.49443 18.2632 4.29868 17.9405C4.10293 17.6178 3.99961 17.2474 4 16.87V13.5" stroke="currentColor" stroke-width="2" stroke-linecap="round" stroke-linejoin="round"/>
</svg>
