<svg viewBox="0 0 24 24" fill="none" xmlns="http://www.w3.org/2000/svg">
<path fill-rule="evenodd" clip-rule="evenodd" d="M19.8782 4.11099C19.6511 4.01797 19.4078 3.97107 19.1623 3.97302C18.9169 3.97497 18.6744 4.02573 18.4488 4.12234C18.2232 4.21895 18.019 4.35949 17.8483 4.53576L17.8367 4.54752L9.7667 12.6075C9.37593 12.9978 8.74277 12.9974 8.35249 12.6066C7.9622 12.2159 7.9626 11.5827 8.35336 11.1924L16.4179 3.13785C16.772 2.77398 17.1947 2.48373 17.6614 2.28383C18.1309 2.08277 18.6357 1.97714 19.1465 1.97308C19.6572 1.96903 20.1636 2.06663 20.6362 2.2602C21.1089 2.45378 21.5383 2.73945 21.8994 3.1006C22.2606 3.46175 22.5462 3.89114 22.7398 4.36377C22.9334 4.8364 23.031 5.34282 23.0269 5.85354C23.0229 6.36426 22.9172 6.86907 22.7162 7.33857C22.5163 7.80523 22.2262 8.22773 21.8624 8.58178L13.808 16.6562C13.418 17.0472 12.7848 17.048 12.3938 16.658C12.0028 16.2679 12.002 15.6348 12.392 15.2437L20.452 7.16375L20.4642 7.15173C20.6405 6.98097 20.7811 6.77684 20.8777 6.55124C20.9743 6.32564 21.025 6.08307 21.027 5.83766C21.0289 5.59225 20.982 5.3489 20.889 5.12179C20.796 4.89468 20.6587 4.68835 20.4852 4.51481C20.3117 4.34128 20.1053 4.204 19.8782 4.11099ZM3.07003 17.9591C3.07051 15.7437 4.85156 13.94 7.07003 13.94H7.07335C7.59995 13.9417 8.12105 14.0472 8.6069 14.2503C9.09275 14.4535 9.53382 14.7503 9.90495 15.1239C10.2761 15.4975 10.57 15.9405 10.7699 16.4277C10.9696 16.9144 11.0715 17.4355 11.07 17.9615C11.07 17.9621 11.07 17.9627 11.07 17.9633L10.07 17.96H11.07C11.07 17.9605 11.07 17.961 11.07 17.9615C11.0692 20.7466 8.82827 23 6.07003 23C4.16394 23 2.51068 21.8562 1.35647 20.6806C1.35863 20.6828 1.36078 20.6849 1.36292 20.6871L2.07003 19.98L1.35647 20.6806C1.25244 20.5751 1.1264 20.4134 1.05595 20.1888C0.977879 19.94 0.990661 19.6848 1.07411 19.4584C1.21324 19.0809 1.51404 18.8767 1.61854 18.8073C1.76256 18.7117 1.92433 18.6311 2.0484 18.5712C2.11936 18.537 2.17534 18.5106 2.22875 18.4855C2.29566 18.4541 2.35852 18.4245 2.44171 18.3836C2.709 18.2524 2.89138 18.1419 3.00284 18.0373C3.04861 17.9943 3.0654 17.9675 3.07003 17.9591ZM3.07003 17.9591C3.07003 17.9594 3.07003 17.9597 3.07003 17.96C3.07003 17.9609 3.0702 17.9606 3.07039 17.96C3.07069 17.959 3.07105 17.9571 3.07092 17.9574C3.07069 17.9579 3.0704 17.9584 3.07003 17.9591ZM7.06842 15.94C5.96792 15.9409 5.07003 16.8363 5.07003 17.96C5.07003 18.6486 4.73277 19.1565 4.37159 19.4955C4.13451 19.718 3.86386 19.891 3.62176 20.0244C4.41021 20.6266 5.25428 21 6.07003 21C7.71128 21 9.07003 19.6542 9.07003 17.96L9.07004 17.9566C9.07091 17.6927 9.01979 17.4311 8.91959 17.1869C8.81939 16.9427 8.67207 16.7207 8.48605 16.5334C8.30002 16.3461 8.07893 16.1973 7.8354 16.0955C7.59239 15.9939 7.3318 15.9411 7.06842 15.94ZM2.72464 20.4736C2.72663 20.4723 2.72894 20.4708 2.73161 20.4691C2.71168 20.485 2.70582 20.4861 2.72464 20.4736Z" fill="currentColor"/>
</svg>
