<svg viewBox="0 0 24 24" fill="none" xmlns="http://www.w3.org/2000/svg">
<path fill-rule="evenodd" clip-rule="evenodd" d="M12 6.99998C10.3431 6.99998 9 8.34312 9 9.99998V16C9 17.6568 10.3431 19 12 19C13.6569 19 15 17.6568 15 16V9.99998C15 8.34312 13.6569 6.99998 12 6.99998ZM7 9.99998C7 7.23855 9.23858 4.99997 12 4.99997C14.7614 4.99997 17 7.23855 17 9.99998V16C17 18.7614 14.7614 21 12 21C9.23858 21 7 18.7614 7 16V9.99998Z" fill="currentColor"/>
<path fill-rule="evenodd" clip-rule="evenodd" d="M19.8321 6.44527C20.1384 6.9048 20.0142 7.52567 19.5547 7.83203L16.5547 9.83203C16.0952 10.1384 15.4743 10.0142 15.1679 9.55468C14.8616 9.09515 14.9858 8.47428 15.4453 8.16792L18.4453 6.16792C18.9048 5.86157 19.5257 5.98575 19.8321 6.44527Z" fill="currentColor"/>
<path fill-rule="evenodd" clip-rule="evenodd" d="M4.16795 6.44527C4.4743 5.98575 5.09517 5.86157 5.5547 6.16792L8.5547 8.16792C9.01423 8.47428 9.1384 9.09515 8.83205 9.55468C8.5257 10.0142 7.90483 10.1384 7.4453 9.83203L4.4453 7.83203C3.98577 7.52567 3.8616 6.9048 4.16795 6.44527Z" fill="currentColor"/>
<path fill-rule="evenodd" clip-rule="evenodd" d="M15.1679 16.4453C15.4743 15.9857 16.0952 15.8616 16.5547 16.1679L19.5547 18.1679C20.0142 18.4743 20.1384 19.0951 19.8321 19.5547C19.5257 20.0142 18.9048 20.1384 18.4453 19.832L15.4453 17.832C14.9858 17.5257 14.8616 16.9048 15.1679 16.4453Z" fill="currentColor"/>
<path fill-rule="evenodd" clip-rule="evenodd" d="M8.83205 16.4453C9.1384 16.9048 9.01423 17.5257 8.5547 17.832L5.5547 19.832C5.09517 20.1384 4.4743 20.0142 4.16795 19.5547C3.8616 19.0951 3.98577 18.4743 4.4453 18.1679L7.4453 16.1679C7.90483 15.8616 8.5257 15.9857 8.83205 16.4453Z" fill="currentColor"/>
<path fill-rule="evenodd" clip-rule="evenodd" d="M15 13C15 12.4477 15.4477 12 16 12H20C20.5523 12 21 12.4477 21 13C21 13.5523 20.5523 14 20 14H16C15.4477 14 15 13.5523 15 13Z" fill="currentColor"/>
<path fill-rule="evenodd" clip-rule="evenodd" d="M3 13C3 12.4477 3.44772 12 4 12H8C8.55228 12 9 12.4477 9 13C9 13.5523 8.55228 14 8 14H4C3.44772 14 3 13.5523 3 13Z" fill="currentColor"/>
<path fill-rule="evenodd" clip-rule="evenodd" d="M9.55279 3.10555C10.0468 2.85856 10.6474 3.05878 10.8944 3.55276L11.8944 5.55276C12.1414 6.04674 11.9412 6.64741 11.4472 6.8944C10.9532 7.14139 10.3526 6.94117 10.1056 6.44719L9.10557 4.44719C8.85858 3.95321 9.05881 3.35254 9.55279 3.10555Z" fill="currentColor"/>
<path fill-rule="evenodd" clip-rule="evenodd" d="M14.4472 3.10555C14.9412 3.35254 15.1414 3.95321 14.8944 4.44719L13.8944 6.44719C13.6474 6.94117 13.0468 7.14139 12.5528 6.8944C12.0588 6.64741 11.8586 6.04674 12.1056 5.55276L13.1056 3.55276C13.3526 3.05878 13.9532 2.85856 14.4472 3.10555Z" fill="currentColor"/>
</svg>
