<svg viewBox="0 0 24 24" fill="none" xmlns="http://www.w3.org/2000/svg">
<path d="M13.6991 2.43653C14.1484 2.96069 14.0877 3.74982 13.5635 4.19909L12.8695 4.79393C17.1555 5.22943 20.5 8.84914 20.5 13.25C20.5 17.9444 16.6944 21.75 12 21.75C11.3096 21.75 10.75 21.1904 10.75 20.5C10.75 19.8096 11.3096 19.25 12 19.25C15.3137 19.25 18 16.5637 18 13.25C18 10.0534 15.5003 7.44072 12.349 7.25998L13.5635 8.30095C14.0876 8.75023 14.1483 9.53935 13.699 10.0635C13.2498 10.5877 12.4606 10.6484 11.9365 10.1991L8.45225 7.2126C8.42636 7.19109 8.40117 7.16839 8.37676 7.14451C8.25915 7.02992 8.16861 6.89694 8.10579 6.75405C8.04179 6.60893 8.00708 6.45477 8.00098 6.30011C7.9878 5.96593 8.10824 5.62941 8.35568 5.37662C8.38742 5.34406 8.42056 5.31357 8.45494 5.28517L11.9365 2.30095C12.4607 1.85167 13.2498 1.91238 13.6991 2.43653Z" fill="currentColor"/>
<path d="M2.76819 17.1313C2.4106 17.0029 2.41061 16.4971 2.76819 16.3687L4.86948 15.6138C4.98331 15.5729 5.07292 15.4833 5.11381 15.3695L5.86869 13.2682C5.99715 12.9106 6.50285 12.9106 6.63131 13.2682L7.38619 15.3695C7.42708 15.4833 7.51669 15.5729 7.63052 15.6138L9.73181 16.3687C10.0894 16.4971 10.0894 17.0029 9.73181 17.1313L7.63052 17.8862C7.51669 17.9271 7.42708 18.0167 7.38619 18.1305L6.63131 20.2318C6.50285 20.5894 5.99715 20.5894 5.86869 20.2318L5.11381 18.1305C5.07292 18.0167 4.98331 17.9271 4.86948 17.8862L2.76819 17.1313Z" fill="currentColor"/>
<path d="M2.26015 9.86988C1.91328 9.74527 1.91328 9.25473 2.26015 9.13012L3.09367 8.83068C3.20409 8.79101 3.29101 8.70409 3.33068 8.59367L3.63012 7.76015C3.75473 7.41328 4.24527 7.41328 4.36988 7.76015L4.66932 8.59367C4.70899 8.70409 4.79591 8.79101 4.90633 8.83068L5.73985 9.13012C6.08672 9.25473 6.08672 9.74527 5.73985 9.86988L4.90633 10.1693C4.79591 10.209 4.70899 10.2959 4.66932 10.4063L4.36988 11.2399C4.24527 11.5867 3.75473 11.5867 3.63012 11.2399L3.33068 10.4063C3.29101 10.2959 3.20409 10.209 3.09367 10.1693L2.26015 9.86988Z" fill="currentColor"/>
</svg>
