<svg viewBox="0 0 24 24" fill="none" xmlns="http://www.w3.org/2000/svg">
<path fill-rule="evenodd" clip-rule="evenodd" d="M1.29289 1.29289C1.68342 0.902369 2.31658 0.902369 2.70711 1.29289L22.7071 21.2929C23.0976 21.6834 23.0976 22.3166 22.7071 22.7071C22.3166 23.0976 21.6834 23.0976 21.2929 22.7071L19.5858 21H4C3.20435 21 2.44129 20.6839 1.87868 20.1213C1.31607 19.5587 1 18.7957 1 18V9C1 8.20435 1.31607 7.44129 1.87868 6.87868C2.44129 6.31607 3.20435 6 4 6H4.58579L1.29289 2.70711C0.902369 2.31658 0.902369 1.68342 1.29289 1.29289ZM6.58579 8H4C3.73478 8 3.48043 8.10536 3.29289 8.29289C3.10536 8.48043 3 8.73478 3 9V18C3 18.2652 3.10536 18.5196 3.29289 18.7071C3.48043 18.8946 3.73478 19 4 19H17.5858L14.6179 16.0322C14.3012 16.3173 13.9405 16.5505 13.549 16.7223C13.0594 16.9371 12.5317 17.0517 11.9971 17.0591C11.4625 17.0665 10.9319 16.9667 10.4365 16.7656C9.94114 16.5644 9.49114 16.266 9.11308 15.8879C8.73503 15.5099 8.4366 15.0599 8.23544 14.5645C8.03428 14.0691 7.93446 13.5385 7.9419 13.0039C7.94933 12.4693 8.06386 11.9416 8.27872 11.452C8.45053 11.0605 8.6837 10.6998 8.96885 10.3831L6.58579 8ZM10.387 11.8012C10.2751 11.9394 10.1819 12.0922 10.1101 12.2558C10.0027 12.5005 9.94542 12.7644 9.9417 13.0317C9.93799 13.299 9.98789 13.5643 10.0885 13.812C10.1891 14.0597 10.3383 14.2847 10.5273 14.4737C10.7163 14.6627 10.9413 14.8119 11.189 14.9125C11.4367 15.0131 11.702 15.063 11.9693 15.0593C12.2366 15.0556 12.5005 14.9983 12.7452 14.8909C12.9088 14.8191 13.0616 14.7259 13.1998 14.614L10.387 11.8012ZM8.5 4C8.5 3.44772 8.94772 3 9.5 3H14.5C14.7968 3 15.0782 3.13182 15.2682 3.35982L17.4684 6H20C20.7957 6 21.5587 6.31607 22.1213 6.87868C22.6839 7.44129 23 8.20435 23 9V16.5C23 17.0523 22.5523 17.5 22 17.5C21.4477 17.5 21 17.0523 21 16.5V9C21 8.73478 20.8946 8.48043 20.7071 8.29289C20.5196 8.10536 20.2652 8 20 8H17C16.7032 8 16.4218 7.86818 16.2318 7.64018L14.0316 5H9.5C8.94772 5 8.5 4.55228 8.5 4Z" fill="currentColor"/>
</svg>
