<svg viewBox="0 0 24 24" fill="none" xmlns="http://www.w3.org/2000/svg">
<path fill-rule="evenodd" clip-rule="evenodd" d="M4 5C3.73478 5 3.48042 5.10536 3.29289 5.29289C3.10535 5.48043 3 5.73478 3 6V8C3 8.55228 2.55228 9 2 9C1.44771 9 0.999995 8.55228 0.999995 8V6C0.999995 5.20435 1.31607 4.44129 1.87867 3.87868C2.44128 3.31607 3.20435 3 4 3H20C20.7956 3 21.5587 3.31607 22.1213 3.87868C22.6839 4.44129 23 5.20435 23 6V18C23 18.7957 22.6839 19.5587 22.1213 20.1213C21.5587 20.6839 20.7956 21 20 21H14C13.4477 21 13 20.5523 13 20C13 19.4477 13.4477 19 14 19H20C20.2652 19 20.5196 18.8946 20.7071 18.7071C20.8946 18.5196 21 18.2652 21 18V6C21 5.73478 20.8946 5.48043 20.7071 5.29289C20.5196 5.10536 20.2652 5 20 5H4ZM1.00558 11.8945C1.06386 11.3453 1.55632 10.9473 2.10552 11.0056C4.38039 11.247 6.50371 12.2611 8.12132 13.8787C9.73892 15.4963 10.753 17.6196 10.9944 19.8945C11.0527 20.4437 10.6547 20.9361 10.1055 20.9944C9.55632 21.0527 9.06386 20.6547 9.00558 20.1055C8.81245 18.2856 8.00119 16.587 6.7071 15.2929C5.41302 13.9988 3.71436 13.1875 1.89447 12.9944C1.34527 12.9361 0.947297 12.4437 1.00558 11.8945ZM1.0169 15.8169C1.11802 15.274 1.64014 14.9158 2.18309 15.0169C3.37428 15.2388 4.47038 15.8161 5.32716 16.6728C6.18394 17.5296 6.76124 18.6257 6.98309 19.8169C7.08421 20.3599 6.72604 20.882 6.18309 20.9831C5.64014 21.0842 5.11802 20.726 5.0169 20.1831C4.869 19.389 4.48413 18.6582 3.91295 18.087C3.34176 17.5159 2.61102 17.131 1.8169 16.9831C1.27395 16.882 0.915779 16.3599 1.0169 15.8169ZM0.999995 20C0.999995 19.4477 1.44771 19 2 19H2.01C2.56228 19 3.01 19.4477 3.01 20C3.01 20.5523 2.56228 21 2.01 21H2C1.44771 21 0.999995 20.5523 0.999995 20Z" fill="currentColor"/>
</svg>
