<svg viewBox="0 0 24 24" fill="none" xmlns="http://www.w3.org/2000/svg">
<path fill-rule="evenodd" clip-rule="evenodd" d="M4.02919 3.87343C3.99753 3.97824 3.96609 4.14909 3.95081 4.39935C3.91527 4.98157 3.97873 5.75959 4.09399 6.57803C4.20755 7.38433 4.36386 8.17937 4.49292 8.77656C4.55722 9.07411 4.61425 9.32018 4.65499 9.49105C4.65546 9.49302 4.65593 9.49499 4.6564 9.49694C4.81814 9.77545 4.84263 10.1269 4.69092 10.4381C4.25121 11.3402 4.00001 12.3498 4.00001 13.444C4.00001 17.2613 7.3753 20 12 20C16.6142 20 20 17.1598 20 13.444C20 12.4247 19.7207 11.4136 19.2165 10.4721C19.0306 10.125 19.0704 9.71735 19.285 9.41741C19.3238 9.2527 19.3738 9.0347 19.4291 8.77856C19.5582 8.18137 19.7145 7.38633 19.828 6.58003C19.9433 5.76159 20.0068 4.98357 19.9712 4.40135C19.9559 4.15109 19.9245 3.98024 19.8928 3.87542C19.4445 3.7489 18.6462 3.73691 17.6929 3.99877C16.6834 4.27609 15.6658 4.81818 14.9331 5.61587C14.7535 6.08328 14.2481 6.35213 13.7513 6.22456C13.1788 6.07754 12.5902 6.00211 11.9991 5.99999C11.4013 6.00104 10.8055 6.06875 10.2227 6.20188C9.81359 6.29533 9.40576 6.12333 9.17952 5.79911C9.12773 5.76004 9.079 5.71532 9.0342 5.66502C8.29894 4.83935 7.2599 4.27999 6.22897 3.99676C5.27585 3.73491 4.47752 3.7469 4.02919 3.87343ZM10.3464 4.1393C9.32275 3.07889 8.0009 2.40946 6.75881 2.06822C5.47692 1.71604 4.09921 1.6664 3.11493 2.07711C2.58496 2.29824 2.31454 2.75142 2.17741 3.11072C2.0378 3.4765 1.97826 3.88866 1.95453 4.2775C1.90663 5.06215 1.99255 5.99788 2.11354 6.85695C2.23623 7.72814 2.40305 8.57436 2.53805 9.19904C2.60578 9.51242 2.66602 9.77245 2.70953 9.95494C2.70996 9.95675 2.71039 9.95855 2.71082 9.96034C2.2559 11.0231 2.00001 12.1944 2.00001 13.444C2.00001 18.7387 6.68473 22 12 22C17.3258 22 22 18.6201 22 13.444C22 12.2286 21.7084 11.0559 21.2067 9.98129C21.2086 9.97334 21.2105 9.96522 21.2125 9.95694C21.256 9.77445 21.3163 9.51442 21.384 9.20104C21.519 8.57636 21.6858 7.73014 21.8085 6.85895C21.9295 5.99988 22.0154 5.06415 21.9675 4.2795C21.9438 3.89067 21.8842 3.4785 21.7446 3.11272C21.6075 2.75342 21.3371 2.30024 20.8071 2.07911C19.8228 1.6684 18.4451 1.71805 17.1631 2.07021C15.9209 2.41145 14.5989 3.08087 13.5748 4.14119C13.0564 4.04903 12.5306 4.00171 12.0033 3.99999V3.99998L11.9986 3.99999C11.4446 4.00079 10.892 4.04745 10.3464 4.1393ZM19.8589 3.78709C19.8589 3.78701 19.8597 3.78837 19.8613 3.79144C19.8596 3.78871 19.8588 3.78717 19.8589 3.78709ZM4.06071 3.78944C4.06228 3.78637 4.06314 3.785 4.06317 3.78509C4.0632 3.78518 4.06242 3.78671 4.06071 3.78944ZM8.00001 13C8.5523 13 9.00001 13.4477 9.00001 14V14.5C9.00001 15.0523 8.5523 15.5 8.00001 15.5C7.44773 15.5 7.00001 15.0523 7.00001 14.5V14C7.00001 13.4477 7.44773 13 8.00001 13ZM16 13C16.5523 13 17 13.4477 17 14V14.5C17 15.0523 16.5523 15.5 16 15.5C15.4477 15.5 15 15.0523 15 14.5V14C15 13.4477 15.4477 13 16 13ZM10.3261 15.8673C10.4809 15.4936 10.8456 15.25 11.25 15.25H12.75C13.1545 15.25 13.5191 15.4936 13.6739 15.8673C13.8287 16.241 13.7431 16.6711 13.4571 16.9571L12.7071 17.7071C12.3166 18.0976 11.6834 18.0976 11.2929 17.7071L10.5429 16.9571C10.2569 16.6711 10.1714 16.241 10.3261 15.8673Z" fill="currentColor"/>
</svg>
