<svg viewBox="0 0 24 24" fill="none" xmlns="http://www.w3.org/2000/svg">
<path d="M11.0259 19.3892C11.0331 19.4442 11.0197 19.4999 10.988 19.5464C10.9564 19.5928 10.9086 19.627 10.8531 19.643C9.98207 19.9131 9.06748 20.0316 8.15274 19.9928C4.35536 19.9928 1 17.6169 1 12.0308C1 7.23675 3.96557 4.0112 8.4943 4.0112C9.35231 3.9624 10.2121 4.07338 11.0259 4.33799C11.1464 4.38412 11.1705 4.45332 11.1705 4.59172V6.59471C11.1705 6.77925 11.0741 6.77925 11.0018 6.75618C10.2173 6.43864 9.36969 6.28906 8.51841 6.31791C5.66937 6.31791 3.77269 8.3901 3.77269 11.954C3.77269 16.3521 6.37661 17.6592 8.51841 17.6592C9.30475 17.6911 10.0908 17.5909 10.841 17.3632C10.9375 17.317 11.0138 17.317 11.0138 17.4785V19.4008L11.0259 19.3892Z" fill="currentColor"/>
<path d="M15.9163 19.6199C15.9163 19.7391 15.868 19.7852 15.7676 19.7852H13.4329C13.409 19.7889 13.3845 19.7873 13.3613 19.7804C13.3382 19.7736 13.317 19.7617 13.2995 19.7456C13.2819 19.7296 13.2685 19.7099 13.2603 19.6881C13.2521 19.6663 13.2493 19.6429 13.2521 19.6199V4.39565C13.2521 4.29954 13.2762 4.25341 13.4208 4.25341H15.7555C15.7758 4.25003 15.7967 4.25138 15.8164 4.25734C15.836 4.2633 15.8539 4.27368 15.8684 4.28763C15.883 4.30157 15.8939 4.31867 15.9001 4.33747C15.9063 4.35627 15.9077 4.37622 15.9042 4.39565V9.00906C16.7158 8.40351 17.7202 8.08319 18.7492 8.10176C20.3325 8.10176 22.2774 8.87066 22.2774 12.2692V19.5738C22.2774 19.716 22.2292 19.7622 22.1086 19.7622H19.8101C19.6895 19.7622 19.6373 19.6891 19.6373 19.5738V12.5422C19.6373 11.1466 19.0305 10.3777 17.8612 10.3777C17.1433 10.3649 16.4475 10.6152 15.9163 11.0774V19.6199Z" fill="currentColor"/>
<path d="M11.0259 19.3892C11.0331 19.4442 11.0197 19.4999 10.988 19.5464C10.9564 19.5928 10.9086 19.627 10.8531 19.643C9.98207 19.9131 9.06748 20.0316 8.15274 19.9928C4.35536 19.9928 1 17.6169 1 12.0308C1 7.23675 3.96557 4.0112 8.4943 4.0112C9.35231 3.9624 10.2121 4.07338 11.0259 4.33799C11.1464 4.38412 11.1705 4.45332 11.1705 4.59172V6.59471C11.1705 6.77925 11.0741 6.77925 11.0018 6.75618C10.2173 6.43864 9.36969 6.28906 8.51841 6.31791C5.66937 6.31791 3.77269 8.3901 3.77269 11.954C3.77269 16.3521 6.37661 17.6592 8.51841 17.6592C9.30475 17.6911 10.0908 17.5909 10.841 17.3632C10.9375 17.317 11.0138 17.317 11.0138 17.4785V19.4008L11.0259 19.3892Z" fill="currentColor"/>
<path d="M15.9163 19.6199C15.9163 19.7391 15.868 19.7852 15.7676 19.7852H13.4329C13.409 19.7889 13.3845 19.7873 13.3613 19.7804C13.3382 19.7736 13.317 19.7617 13.2995 19.7456C13.2819 19.7296 13.2685 19.7099 13.2603 19.6881C13.2521 19.6663 13.2493 19.6429 13.2521 19.6199V4.39565C13.2521 4.29954 13.2762 4.25341 13.4208 4.25341H15.7555C15.7758 4.25003 15.7967 4.25138 15.8164 4.25734C15.836 4.2633 15.8539 4.27368 15.8684 4.28763C15.883 4.30157 15.8939 4.31867 15.9001 4.33747C15.9063 4.35627 15.9077 4.37622 15.9042 4.39565V9.00906C16.7158 8.40351 17.7202 8.08319 18.7492 8.10176C20.3325 8.10176 22.2774 8.87066 22.2774 12.2692V19.5738C22.2774 19.716 22.2292 19.7622 22.1086 19.7622H19.8101C19.6895 19.7622 19.6373 19.6891 19.6373 19.5738V12.5422C19.6373 11.1466 19.0305 10.3777 17.8612 10.3777C17.1433 10.3649 16.4475 10.6152 15.9163 11.0774V19.6199Z" fill="currentColor"/>
<path d="M11.0259 19.3892C11.0331 19.4442 11.0197 19.4999 10.988 19.5464C10.9564 19.5928 10.9086 19.627 10.8531 19.643C9.98207 19.9131 9.06748 20.0316 8.15274 19.9928C4.35536 19.9928 1 17.6169 1 12.0308C1 7.23675 3.96557 4.0112 8.4943 4.0112C9.35231 3.9624 10.2121 4.07338 11.0259 4.33799C11.1464 4.38412 11.1705 4.45332 11.1705 4.59172V6.59471C11.1705 6.77925 11.0741 6.77925 11.0018 6.75618C10.2173 6.43864 9.36969 6.28906 8.51841 6.31791C5.66937 6.31791 3.77269 8.3901 3.77269 11.954C3.77269 16.3521 6.37661 17.6592 8.51841 17.6592C9.30475 17.6911 10.0908 17.5909 10.841 17.3632C10.9375 17.317 11.0138 17.317 11.0138 17.4785V19.4008L11.0259 19.3892Z" fill="currentColor"/>
<path d="M15.9163 19.6199C15.9163 19.7391 15.868 19.7852 15.7676 19.7852H13.4329C13.409 19.7889 13.3845 19.7873 13.3613 19.7804C13.3382 19.7736 13.317 19.7617 13.2995 19.7456C13.2819 19.7296 13.2685 19.7099 13.2603 19.6881C13.2521 19.6663 13.2493 19.6429 13.2521 19.6199V4.39565C13.2521 4.29954 13.2762 4.25341 13.4208 4.25341H15.7555C15.7758 4.25003 15.7967 4.25138 15.8164 4.25734C15.836 4.2633 15.8539 4.27368 15.8684 4.28763C15.883 4.30157 15.8939 4.31867 15.9001 4.33747C15.9063 4.35627 15.9077 4.37622 15.9042 4.39565V9.00906C16.7158 8.40351 17.7202 8.08319 18.7492 8.10176C20.3325 8.10176 22.2774 8.87066 22.2774 12.2692V19.5738C22.2774 19.716 22.2292 19.7622 22.1086 19.7622H19.8101C19.6895 19.7622 19.6373 19.6891 19.6373 19.5738V12.5422C19.6373 11.1466 19.0305 10.3777 17.8612 10.3777C17.1433 10.3649 16.4475 10.6152 15.9163 11.0774V19.6199Z" fill="currentColor"/>
</svg>
