<svg viewBox="0 0 24 24" fill="none" xmlns="http://www.w3.org/2000/svg">
<path d="M4.41417 5.48419C6.43917 3.12751 9.21667 2 11.9742 2C15.5475 2 19.0867 3.89418 20.905 7.46171C18.6367 7.46254 15.085 7.46171 13.1608 7.46171C11.7658 7.46254 10.865 7.43088 9.88917 7.94421C8.7425 8.54755 7.87667 9.66673 7.575 10.9809L4.41417 5.48419ZM8.6725 12.0001C8.6725 13.8334 10.1633 15.3251 11.9958 15.3251C13.8283 15.3251 15.3192 13.8334 15.3192 12.0001C15.3192 10.1667 13.8283 8.67422 11.9958 8.67422C10.1633 8.67422 8.6725 10.1667 8.6725 12.0001ZM13.2858 16.3526C11.4208 16.9076 9.2375 16.2918 8.04167 14.2284C7.12917 12.6526 4.7175 8.45088 3.62083 6.54087C2.5125 8.24088 2 10.1192 2 11.9634C2 16.5034 5.105 20.8385 10.0608 21.8118L13.2858 16.3526ZM15.0842 8.67422C16.6375 10.1192 16.9767 12.4592 15.9233 14.2734C15.1308 15.6409 12.6 19.9118 11.3733 21.9802C17.3642 22.3493 22 17.5135 22 12.0034C22 10.9092 21.8167 9.78673 21.425 8.67422H15.0842Z" fill="currentColor"/>
</svg>
