<svg viewBox="0 0 24 24" fill="none" xmlns="http://www.w3.org/2000/svg">
<path fill-rule="evenodd" clip-rule="evenodd" d="M12 3C7.02944 3 3 7.02944 3 12C3 16.9706 7.02944 21 12 21C16.9706 21 21 16.9706 21 12C21 7.02944 16.9706 3 12 3ZM1 12C1 5.92487 5.92487 1 12 1C18.0751 1 23 5.92487 23 12C23 18.0751 18.0751 23 12 23C5.92487 23 1 18.0751 1 12Z" fill="currentColor"/>
<path fill-rule="evenodd" clip-rule="evenodd" d="M15.5 12C15.5 11.1716 16.1716 10.5 17 10.5H17.01C17.8384 10.5 18.51 11.1716 18.51 12C18.51 12.8284 17.8384 13.5 17.01 13.5H17C16.1716 13.5 15.5 12.8284 15.5 12Z" fill="currentColor"/>
<path fill-rule="evenodd" clip-rule="evenodd" d="M10.5 12C10.5 11.1716 11.1716 10.5 12 10.5H12.01C12.8384 10.5 13.51 11.1716 13.51 12C13.51 12.8284 12.8384 13.5 12.01 13.5H12C11.1716 13.5 10.5 12.8284 10.5 12Z" fill="currentColor"/>
<path fill-rule="evenodd" clip-rule="evenodd" d="M5.5 12C5.5 11.1716 6.17157 10.5 7 10.5H7.01C7.83843 10.5 8.51 11.1716 8.51 12C8.51 12.8284 7.83843 13.5 7.01 13.5H7C6.17157 13.5 5.5 12.8284 5.5 12Z" fill="currentColor"/>
</svg>
