<svg viewBox="0 0 24 24" fill="none" xmlns="http://www.w3.org/2000/svg">
<path fill-rule="evenodd" clip-rule="evenodd" d="M16.9863 3.15684C16.7519 3.03308 16.478 3.00744 16.2247 3.08555L16.2216 3.08649L13.5604 3.89784L15.5845 6.41297L18.0538 5.65603L17.474 3.74324C17.3953 3.49105 17.22 3.28022 16.9863 3.15684ZM15.6937 8.47135L19.5931 7.27604C20.1199 7.11454 20.4169 6.55723 20.257 6.02985L19.387 3.15985L19.3853 3.15436C19.1503 2.39474 18.6233 1.7595 17.9201 1.38823C17.2175 1.01724 16.3964 0.940154 15.637 1.17383C15.6365 1.17401 15.6359 1.17418 15.6353 1.17436L4.15897 4.67324C3.78171 4.78808 3.4302 4.97636 3.1257 5.22695C2.82104 5.47768 2.56883 5.78603 2.38352 6.13437C2.19821 6.48271 2.08342 6.86418 2.04575 7.25693C2.00808 7.64965 2.04824 8.04593 2.16393 8.4231C2.16391 8.42306 2.16394 8.42315 2.16393 8.4231L2.99999 11.1498V19C2.99999 19.7956 3.31606 20.5587 3.87867 21.1213C4.44128 21.6839 5.20434 22 5.99999 22H18C18.7956 22 19.5587 21.6839 20.1213 21.1213C20.6839 20.5587 21 19.7956 21 19V11C21 10.4477 20.5523 9.99995 20 9.99995H10.707L15.3642 8.57235C15.4773 8.55831 15.5888 8.52483 15.6937 8.47135ZM13.5252 7.0442L11.4989 4.52633L8.29628 5.50275L10.326 8.02488L13.5252 7.0442ZM8.26677 8.65611L6.23485 6.13123L4.74162 6.58649C4.61579 6.62476 4.49815 6.68767 4.3966 6.77124C4.29504 6.85482 4.21097 6.9576 4.1492 7.07371C4.08743 7.18983 4.04917 7.31698 4.03661 7.4479C4.02405 7.57882 4.03745 7.71093 4.07602 7.83667L4.66574 9.75995L8.26677 8.65611ZM4.99999 12V19C4.99999 19.2652 5.10535 19.5195 5.29289 19.7071C5.48042 19.8946 5.73478 20 5.99999 20H18C18.2652 20 18.5196 19.8946 18.7071 19.7071C18.8946 19.5195 19 19.2652 19 19V12H4.99999Z" fill="currentColor"/>
</svg>
