<svg viewBox="0 0 24 24" fill="none" xmlns="http://www.w3.org/2000/svg">
<path fill-rule="evenodd" clip-rule="evenodd" d="M11.1972 2.00929C12.6621 1.94085 14.1071 2.36963 15.2976 3.22601C16.2787 3.9318 17.0395 4.89387 17.5011 6.00006H19C20.0609 6.00006 21.0783 6.42149 21.8285 7.17163C22.5786 7.92178 23 8.93919 23 10.0001C23 10.5523 22.5523 11.0001 22 11.0001C21.4478 11.0001 21 10.5523 21 10.0001C21 9.46963 20.7893 8.96092 20.4143 8.58585C20.0392 8.21077 19.5305 8.00006 19 8.00006H16.793C16.346 8.00006 15.9533 7.70341 15.8311 7.27344C15.5535 6.29672 14.9539 5.44252 14.1296 4.84957C13.3054 4.25661 12.3048 3.95972 11.2905 4.00711C10.2762 4.05449 9.30774 4.44338 8.54234 5.11061C8.20832 5.40178 7.92154 5.73849 7.68898 6.10852C8.58228 5.95991 9.49846 5.96337 10.3982 6.12287C11.859 6.38183 13.2191 7.0419 14.3263 8.02932C15.2447 8.84827 15.9591 9.86562 16.418 11.0001H17.5C18.2223 11.0001 18.9375 11.1423 19.6048 11.4187C20.2721 11.6951 20.8784 12.1003 21.3891 12.611C21.8998 13.1217 22.305 13.728 22.5814 14.3953C22.8578 15.0626 23 15.7778 23 16.5001C23 17.2223 22.8578 17.9375 22.5814 18.6048C22.305 19.2721 21.8998 19.8784 21.3891 20.3891C20.8784 20.8999 20.2721 21.305 19.6048 21.5814C18.9375 21.8578 18.2223 22.0001 17.5 22.0001H9.00004C7.51645 21.9997 6.06194 21.5868 4.79953 20.8075C3.53711 20.0281 2.51626 18.9131 1.85106 17.587C1.18586 16.261 0.902518 14.776 1.03269 13.2981C1.16286 11.8203 1.70141 10.4077 2.58818 9.21832C3.28229 8.28733 4.16833 7.52177 5.182 6.97091C5.49851 5.6665 6.21197 4.48882 7.22812 3.60301C8.33356 2.63937 9.7323 2.07773 11.1972 2.00929ZM10.0491 8.09217C8.95353 7.89795 7.8255 8.01221 6.7911 8.42219C5.75669 8.83217 4.85667 9.52171 4.19159 10.4138C3.52652 11.3058 3.1226 12.3652 3.02497 13.4736C2.92735 14.582 3.13986 15.6957 3.63876 16.6903C4.13766 17.6849 4.90329 18.5211 5.8501 19.1056C6.79684 19.69 7.88744 19.9997 9.00004 20.0001C9.00012 20.0001 8.99995 20.0001 9.00004 20.0001H17.5C17.9597 20.0001 18.4148 19.9095 18.8394 19.7336C19.2641 19.5577 19.6499 19.2999 19.9749 18.9749C20.2999 18.6499 20.5577 18.2641 20.7336 17.8395C20.9095 17.4148 21 16.9597 21 16.5001C21 16.0404 20.9095 15.5853 20.7336 15.1607C20.5577 14.736 20.2999 14.3502 19.9749 14.0252C19.6499 13.7002 19.2641 13.4424 18.8394 13.2665C18.4148 13.0906 17.9597 13.0001 17.5 13.0001H15.71C15.2678 13.0001 14.8781 12.7096 14.7517 12.2858C14.4338 11.2195 13.8257 10.2626 12.9952 9.52201C12.1648 8.78144 11.1447 8.28639 10.0491 8.09217Z" fill="currentColor"/>
</svg>
