<svg viewBox="0 0 24 24" fill="none" xmlns="http://www.w3.org/2000/svg">
<path fill-rule="evenodd" clip-rule="evenodd" d="M12 1C12.5523 1 13 1.44772 13 2V4C13 4.55228 12.5523 5 12 5C11.4477 5 11 4.55228 11 4V2C11 1.44772 11.4477 1 12 1Z" fill="currentColor"/>
<path fill-rule="evenodd" clip-rule="evenodd" d="M4.22291 4.22289C4.61344 3.83237 5.2466 3.83237 5.63713 4.22289L7.04713 5.63289C7.43765 6.02342 7.43765 6.65658 7.04713 7.04711C6.6566 7.43763 6.02344 7.43763 5.63291 7.04711L4.22291 5.63711C3.83239 5.24658 3.83239 4.61342 4.22291 4.22289Z" fill="currentColor"/>
<path fill-rule="evenodd" clip-rule="evenodd" d="M19 12C19 11.4477 19.4477 11 20 11H22C22.5523 11 23 11.4477 23 12C23 12.5523 22.5523 13 22 13H20C19.4477 13 19 12.5523 19 12Z" fill="currentColor"/>
<path fill-rule="evenodd" clip-rule="evenodd" d="M19.7771 4.22289C20.1677 4.61342 20.1677 5.24658 19.7771 5.63711L18.3671 7.04711C17.9766 7.43763 17.3434 7.43763 16.9529 7.04711C16.5624 6.65658 16.5624 6.02342 16.9529 5.63289L18.3629 4.22289C18.7534 3.83237 19.3866 3.83237 19.7771 4.22289Z" fill="currentColor"/>
<path fill-rule="evenodd" clip-rule="evenodd" d="M9.52742 7.65288C10.3483 7.18573 11.2847 6.96064 12.2282 7.00366C13.1717 7.04669 14.0837 7.35606 14.8587 7.89598C15.6336 8.4359 16.2398 9.18427 16.607 10.0544C16.9743 10.9246 17.0875 11.881 16.9337 12.8129C16.8437 13.3578 16.329 13.7266 15.7841 13.6366C15.2392 13.5467 14.8704 13.032 14.9604 12.4871C15.0527 11.928 14.9847 11.3542 14.7644 10.8321C14.5441 10.3099 14.1804 9.86093 13.7154 9.53698C13.2504 9.21303 12.7032 9.0274 12.1371 9.00159C11.571 8.97577 11.0091 9.11083 10.5166 9.39112C10.0366 9.66428 9.42607 9.49661 9.1529 9.01661C8.87974 8.5366 9.04742 7.92604 9.52742 7.65288Z" fill="currentColor"/>
<path fill-rule="evenodd" clip-rule="evenodd" d="M7.95858 13.1163C7.22376 12.9351 6.45262 12.9661 5.73472 13.2057C5.01682 13.4453 4.38163 13.8837 3.90291 14.4699C3.4242 15.056 3.1216 15.766 3.03027 16.5173C2.93894 17.2686 3.06263 18.0304 3.38697 18.7142C3.7113 19.398 4.22298 19.9758 4.86256 20.3804C5.50209 20.7849 6.24327 20.9998 7.00002 21H13C13.5305 21 14.0392 20.7893 14.4142 20.4142C14.7893 20.0391 15 19.5304 15 19C15 18.4696 14.7893 17.9609 14.4142 17.5858C14.0392 17.2107 13.5305 17 13 17H11.9C11.4248 17 11.0153 16.6656 10.9202 16.2C10.7689 15.4585 10.4102 14.7751 9.88599 14.2292C9.36174 13.6834 8.6934 13.2975 7.95858 13.1163ZM5.10156 11.3086C6.17841 10.9492 7.33512 10.9027 8.43735 11.1744C9.53958 11.4462 10.5421 12.0251 11.3285 12.8439C11.9222 13.4621 12.3743 14.1979 12.6579 15H13C14.0609 15 15.0783 15.4214 15.8284 16.1716C16.5786 16.9217 17 17.9391 17 19C17 20.0609 16.5786 21.0783 15.8284 21.8284C15.0783 22.5786 14.0609 23 13 23H7.00002C5.86478 22.9998 4.7527 22.6775 3.79332 22.0706C2.83394 21.4636 2.06643 20.597 1.57993 19.5713C1.09342 18.5456 0.907895 17.4029 1.04489 16.276C1.18188 15.149 1.63577 14.0841 2.35385 13.2048C3.07192 12.3255 4.02472 11.668 5.10156 11.3086Z" fill="currentColor"/>
</svg>
