<svg viewBox="0 0 24 24" fill="none" xmlns="http://www.w3.org/2000/svg">
<path fill-rule="evenodd" clip-rule="evenodd" d="M1.29293 1.29289C1.68346 0.902369 2.31662 0.902369 2.70715 1.29289L22.7071 21.2929C23.0977 21.6834 23.0977 22.3166 22.7071 22.7071C22.3166 23.0976 21.6835 23.0976 21.2929 22.7071L1.29293 2.70711C0.902407 2.31658 0.902407 1.68342 1.29293 1.29289Z" fill="currentColor"/>
<path fill-rule="evenodd" clip-rule="evenodd" d="M6.67032 5.32271C6.92398 5.8133 6.73192 6.41663 6.24133 6.67029C5.0467 7.28797 4.09423 8.2891 3.53678 9.51299C2.97933 10.7369 2.84923 12.1126 3.16736 13.4193C3.48548 14.726 4.23338 15.8879 5.29103 16.7186C6.34868 17.5493 7.65475 18.0006 8.99962 18H17.5C17.8444 18.0002 18.1877 17.9497 18.5173 17.8499C19.0459 17.6899 19.6041 17.9887 19.7641 18.5173C19.9242 19.0459 19.6254 19.6041 19.0968 19.7641C18.5788 19.9209 18.0405 20.0004 17.4993 20H9.00046C7.20745 20.0007 5.46577 19.399 4.05568 18.2915C2.64548 17.1839 1.64828 15.6346 1.22412 13.8924C0.79995 12.1501 0.97342 10.3159 1.71669 8.68399C2.45995 7.05213 3.72991 5.7173 5.32275 4.89371C5.81333 4.64005 6.41667 4.83212 6.67032 5.32271Z" fill="currentColor"/>
<path fill-rule="evenodd" clip-rule="evenodd" d="M9.01037 4.92661C9.08957 4.38003 9.59685 4.00114 10.1434 4.08033C11.655 4.29935 13.0724 4.94607 14.2285 5.94423C15.1931 6.77703 15.9421 7.82549 16.4177 9H17.4998C18.4359 8.99985 19.3568 9.23863 20.1748 9.69372C20.9929 10.1488 21.6813 10.8053 22.1747 11.6008C22.6682 12.3963 22.9505 13.3047 22.9947 14.2398C23.039 15.1749 22.8439 16.1058 22.4278 16.9444C22.1824 17.4392 21.5823 17.6413 21.0876 17.3958C20.5929 17.1503 20.3908 16.5503 20.6362 16.0556C20.901 15.5219 21.0252 14.9295 20.997 14.3344C20.9688 13.7393 20.7892 13.1613 20.4752 12.6551C20.1611 12.1488 19.7231 11.7311 19.2025 11.4415C18.6819 11.1518 18.096 10.9999 17.5002 11H15.71C15.268 11 14.8784 10.7098 14.7519 10.2862C14.4239 9.18821 13.7888 8.20692 12.9215 7.45805C12.0541 6.70918 10.9907 6.22398 9.85665 6.05967C9.31007 5.98047 8.93118 5.47319 9.01037 4.92661Z" fill="currentColor"/>
</svg>
