<svg viewBox="0 0 24 24" fill="none" xmlns="http://www.w3.org/2000/svg">
<path fill-rule="evenodd" clip-rule="evenodd" d="M14.0327 5.40343C13.5797 5.59732 13.1544 5.85853 12.7723 6.18141C11.8697 6.94414 11.2663 8.00181 11.069 9.16694C10.9768 9.71148 10.4606 10.0782 9.91608 9.98597C9.37154 9.89377 9.00485 9.37759 9.09705 8.83306C9.37322 7.20205 10.2179 5.72149 11.4814 4.65379C12.7449 3.58609 14.3457 3.00021 15.9999 3C16.402 2.99995 16.765 3.24076 16.9214 3.61125C17.0777 3.98174 16.9969 4.40983 16.7163 4.69784C16.1212 5.30865 15.7906 6.12929 15.7961 6.98206C15.8017 7.83483 16.1429 8.65109 16.7459 9.2541C17.3489 9.85711 18.1652 10.1983 19.018 10.2039C19.8707 10.2094 20.6914 9.87886 21.3022 9.28375C21.5902 9.00315 22.0182 8.92234 22.3887 9.07863C22.7592 9.23492 23 9.59791 23 10C23 12.5911 21.5913 14.8542 19.5005 16.0628C19.0223 16.3392 18.4106 16.1756 18.1343 15.6974C17.8579 15.2193 18.0214 14.6076 18.4996 14.3312C19.4316 13.7925 20.1722 12.9625 20.5985 11.9667C20.0873 12.1259 19.5502 12.2074 19.0049 12.2038C17.6263 12.1949 16.3066 11.6432 15.3317 10.6683C14.3568 9.69342 13.8051 8.37375 13.7962 6.99507C13.7926 6.45052 13.8739 5.91407 14.0327 5.40343ZM7.95858 13.1163C7.22376 12.9351 6.45262 12.9661 5.73472 13.2057C5.01682 13.4453 4.38163 13.8837 3.90291 14.4699C3.4242 15.056 3.1216 15.766 3.03027 16.5173C2.93894 17.2686 3.06263 18.0304 3.38697 18.7142C3.7113 19.398 4.22298 19.9758 4.86256 20.3804C5.50209 20.7849 6.24327 20.9998 7.00002 21C7.00009 21 6.99995 21 7.00002 21H13C13.5305 21 14.0392 20.7893 14.4142 20.4142C14.7893 20.0391 15 19.5304 15 19C15 18.4696 14.7893 17.9609 14.4142 17.5858C14.0392 17.2107 13.5305 17 13 17H11.9C11.4248 17 11.0153 16.6656 10.9202 16.2C10.7689 15.4585 10.4102 14.7751 9.88599 14.2292C9.36174 13.6834 8.6934 13.2975 7.95858 13.1163ZM5.10156 11.3086C6.17841 10.9492 7.33512 10.9027 8.43735 11.1745C9.53958 11.4462 10.5421 12.0251 11.3285 12.8439C11.9222 13.4621 12.3743 14.1979 12.6579 15H13C14.0609 15 15.0783 15.4214 15.8284 16.1716C16.5786 16.9217 17 17.9391 17 19C17 20.0609 16.5786 21.0783 15.8284 21.8284C15.0783 22.5786 14.0609 23 13 23H7.00002C5.86478 22.9998 4.7527 22.6775 3.79332 22.0706C2.83394 21.4636 2.06643 20.597 1.57993 19.5713C1.09342 18.5456 0.907895 17.4029 1.04489 16.276C1.18188 15.149 1.63577 14.0841 2.35385 13.2048C3.07192 12.3255 4.02472 11.668 5.10156 11.3086Z" fill="currentColor"/>
</svg>
