<svg viewBox="0 0 24 24" fill="none" xmlns="http://www.w3.org/2000/svg">
<path fill-rule="evenodd" clip-rule="evenodd" d="M11.1953 4.41771C10.3478 4.08499 9.43578 3.94949 8.5282 4.02147C7.62062 4.09345 6.74133 4.37102 5.95691 4.83316C5.1725 5.2953 4.50354 5.92989 4.00071 6.68886C3.49788 7.44783 3.17436 8.31128 3.05465 9.2138C2.93495 10.1163 3.0222 11.0343 3.3098 11.8981C3.5974 12.7619 4.07781 13.5489 4.71463 14.1995C5.10094 14.5942 5.09414 15.2274 4.69945 15.6137C4.30476 16 3.67163 15.9932 3.28532 15.5985C2.43622 14.731 1.79568 13.6816 1.41221 12.5299C1.02875 11.3781 0.91241 10.1542 1.07201 8.95084C1.23162 7.74748 1.66298 6.59621 2.33343 5.58425C3.00387 4.57229 3.89581 3.72617 4.9417 3.10998C5.98758 2.4938 7.15998 2.1237 8.37008 2.02773C9.58018 1.93176 10.7963 2.11243 11.9262 2.55605C13.0561 2.99968 14.0703 3.69462 14.8919 4.58825C15.5423 5.29573 16.0585 6.11304 16.4177 7.00002H17.4999C17.4999 7.00002 17.4998 7.00002 17.4999 7.00002C18.6799 6.99991 19.8288 7.37933 20.7766 8.08222C21.7245 8.78515 22.4212 9.7743 22.7637 10.9036C23.1062 12.0328 23.0765 13.2423 22.6788 14.3534C22.2812 15.4644 21.5367 16.4181 20.5554 17.0736C20.0962 17.3803 19.4752 17.2567 19.1684 16.7975C18.8617 16.3382 18.9853 15.7172 19.4445 15.4105C20.069 14.9934 20.5427 14.3865 20.7958 13.6794C21.0488 12.9724 21.0678 12.2027 20.8498 11.4841C20.6318 10.7655 20.1885 10.136 19.5853 9.6887C18.9821 9.24138 18.251 8.99993 17.5001 9.00002H15.71C15.2679 9.00002 14.8783 8.70973 14.7518 8.28611C14.4913 7.41374 14.0357 6.61208 13.4195 5.94186C12.8034 5.27164 12.0427 4.75043 11.1953 4.41771ZM6.99997 15C6.99997 14.4477 7.44769 14 7.99997 14H8.00997C8.56226 14 9.00997 14.4477 9.00997 15C9.00997 15.5523 8.56226 16 8.00997 16H7.99997C7.44769 16 6.99997 15.5523 6.99997 15ZM15 15C15 14.4477 15.4477 14 16 14H16.01C16.5623 14 17.01 14.4477 17.01 15C17.01 15.5523 16.5623 16 16.01 16H16C15.4477 16 15 15.5523 15 15ZM11 17C11 16.4477 11.4477 16 12 16H12.01C12.5623 16 13.01 16.4477 13.01 17C13.01 17.5523 12.5623 18 12.01 18H12C11.4477 18 11 17.5523 11 17ZM6.99997 19C6.99997 18.4477 7.44769 18 7.99997 18H8.00997C8.56226 18 9.00997 18.4477 9.00997 19C9.00997 19.5523 8.56226 20 8.00997 20H7.99997C7.44769 20 6.99997 19.5523 6.99997 19ZM15 19C15 18.4477 15.4477 18 16 18H16.01C16.5623 18 17.01 18.4477 17.01 19C17.01 19.5523 16.5623 20 16.01 20H16C15.4477 20 15 19.5523 15 19ZM11 21C11 20.4477 11.4477 20 12 20H12.01C12.5623 20 13.01 20.4477 13.01 21C13.01 21.5523 12.5623 22 12.01 22H12C11.4477 22 11 21.5523 11 21Z" fill="currentColor"/>
</svg>
