<svg viewBox="0 0 24 24" fill="none" xmlns="http://www.w3.org/2000/svg">
<path fill-rule="evenodd" clip-rule="evenodd" d="M11.1953 4.41771C10.3479 4.08499 9.43581 3.94949 8.52823 4.02147C7.62065 4.09345 6.74136 4.37102 5.95694 4.83316C5.17253 5.2953 4.50357 5.92989 4.00074 6.68886C3.49791 7.44783 3.17439 8.31128 3.05468 9.2138C2.93498 10.1163 3.02223 11.0343 3.30983 11.8981C3.59743 12.7619 4.07784 13.5489 4.71466 14.1995C5.10097 14.5942 5.09417 15.2274 4.69948 15.6137C4.30479 16 3.67166 15.9932 3.28535 15.5985C2.43625 14.731 1.79571 13.6816 1.41224 12.5299C1.02878 11.3781 0.91244 10.1542 1.07205 8.95084C1.23165 7.74748 1.66301 6.59621 2.33346 5.58425C3.0039 4.57229 3.89584 3.72617 4.94173 3.10998C5.98761 2.4938 7.16001 2.1237 8.37011 2.02773C9.58021 1.93176 10.7963 2.11243 11.9262 2.55605C13.0562 2.99968 14.0703 3.69462 14.8919 4.58825C15.5423 5.29573 16.0585 6.11304 16.4177 7.00002H17.4999C17.4999 7.00002 17.4999 7.00002 17.4999 7.00002C18.6799 6.99991 19.8288 7.37933 20.7767 8.08222C21.7245 8.78515 22.4212 9.7743 22.7637 10.9036C23.1063 12.0328 23.0765 13.2423 22.6788 14.3534C22.2812 15.4644 21.5367 16.4181 20.5554 17.0736C20.0962 17.3803 19.4752 17.2567 19.1684 16.7975C18.8617 16.3382 18.9853 15.7172 19.4446 15.4105C20.069 14.9934 20.5428 14.3865 20.7958 13.6794C21.0489 12.9724 21.0678 12.2027 20.8498 11.4841C20.6319 10.7655 20.1885 10.136 19.5853 9.6887C18.9821 9.24138 18.2511 8.99993 17.5001 9.00002H15.71C15.2679 9.00002 14.8783 8.70973 14.7518 8.28611C14.4913 7.41374 14.0358 6.61208 13.4196 5.94186C12.8034 5.27164 12.0428 4.75043 11.1953 4.41771ZM9.39392 12.0809C9.90155 12.2984 10.1367 12.8863 9.91915 13.3939L6.91915 20.3939C6.70159 20.9016 6.11371 21.1367 5.60608 20.9192C5.09845 20.7016 4.8633 20.1137 5.08086 19.6061L8.08086 12.6061C8.29841 12.0985 8.88629 11.8633 9.39392 12.0809ZM17.3939 12.0809C17.9016 12.2984 18.1367 12.8863 17.9191 13.3939L14.9191 20.3939C14.7016 20.9016 14.1137 21.1367 13.6061 20.9192C13.0985 20.7016 12.8633 20.1137 13.0809 19.6061L16.0809 12.6061C16.2984 12.0985 16.8863 11.8633 17.3939 12.0809ZM12.5939 14.0809C13.1016 14.2984 13.3367 14.8863 13.1191 15.3939L10.1191 22.3939C9.90159 22.9016 9.31371 23.1367 8.80608 22.9192C8.29845 22.7016 8.0633 22.1137 8.28086 21.6061L11.2809 14.6061C11.4984 14.0985 12.0863 13.8633 12.5939 14.0809Z" fill="currentColor"/>
</svg>
