<svg viewBox="0 0 24 24" fill="none" xmlns="http://www.w3.org/2000/svg">
<path fill-rule="evenodd" clip-rule="evenodd" d="M12 1C12.5523 1 13 1.44772 13 2V4C13 4.55228 12.5523 5 12 5C11.4477 5 11 4.55228 11 4V2C11 1.44772 11.4477 1 12 1Z" fill="currentColor"/>
<path fill-rule="evenodd" clip-rule="evenodd" d="M4.22289 4.22295C4.61341 3.83242 5.24658 3.83242 5.6371 4.22295L7.0471 5.63295C7.43762 6.02347 7.43762 6.65664 7.0471 7.04716C6.65658 7.43769 6.02341 7.43769 5.63289 7.04716L4.22289 5.63716C3.83236 5.24664 3.83236 4.61347 4.22289 4.22295Z" fill="currentColor"/>
<path fill-rule="evenodd" clip-rule="evenodd" d="M19 12C19 11.4477 19.4477 11 20 11H22C22.5523 11 23 11.4477 23 12C23 12.5523 22.5523 13 22 13H20C19.4477 13 19 12.5523 19 12Z" fill="currentColor"/>
<path fill-rule="evenodd" clip-rule="evenodd" d="M19.7771 4.22295C20.1676 4.61347 20.1676 5.24664 19.7771 5.63716L18.3671 7.04716C17.9766 7.43769 17.3434 7.43769 16.9529 7.04716C16.5623 6.65664 16.5623 6.02347 16.9529 5.63295L18.3629 4.22295C18.7534 3.83242 19.3866 3.83242 19.7771 4.22295Z" fill="currentColor"/>
<path fill-rule="evenodd" clip-rule="evenodd" d="M9.52742 7.65282C10.3483 7.18568 11.2847 6.96058 12.2282 7.0036C13.1717 7.04663 14.0837 7.35601 14.8587 7.89592C15.6336 8.43584 16.2398 9.18421 16.607 10.0544C16.9743 10.9246 17.0875 11.8809 16.9337 12.8128C16.8437 13.3577 16.3291 13.7265 15.7841 13.6366C15.2392 13.5466 14.8704 13.032 14.9604 12.4871C15.0527 11.9279 14.9847 11.3541 14.7644 10.832C14.5441 10.3099 14.1804 9.86087 13.7154 9.53692C13.2504 9.21297 12.7032 9.02734 12.1371 9.00153C11.571 8.97571 11.0092 9.11077 10.5166 9.39106C10.0366 9.66422 9.42607 9.49655 9.15291 9.01655C8.87974 8.53655 9.04742 7.92599 9.52742 7.65282Z" fill="currentColor"/>
<path d="M3 20C2.55054 19.4001 2.2417 18.7068 2.09633 17.9715C1.95096 17.2362 1.97279 16.4776 2.16018 15.7518C2.34758 15.026 2.69576 14.3517 3.17896 13.7786C3.66216 13.2056 4.26802 12.7485 4.95171 12.4413C5.6354 12.134 6.37943 11.9844 7.12876 12.0035C7.87809 12.0225 8.61353 12.2099 9.28069 12.5516C9.94785 12.8933 10.5296 13.3806 10.983 13.9775C11.4364 14.5744 11.7498 15.2656 11.9 16H13C13.6085 15.9991 14.2028 16.1832 14.7042 16.5279C15.2055 16.8727 15.5902 17.3617 15.8072 17.9302C16.0242 18.4986 16.0632 19.1196 15.919 19.7108C15.7748 20.3019 15.4543 20.8352 15 21.24" stroke="currentColor" stroke-width="2" stroke-linecap="round" stroke-linejoin="round"/>
<path fill-rule="evenodd" clip-rule="evenodd" d="M11 19C11.5523 19 12 19.4477 12 20V22C12 22.5523 11.5523 23 11 23C10.4477 23 10 22.5523 10 22V20C10 19.4477 10.4477 19 11 19Z" fill="currentColor"/>
<path fill-rule="evenodd" clip-rule="evenodd" d="M7 18C7.55228 18 8 18.4477 8 19V21C8 21.5523 7.55228 22 7 22C6.44772 22 6 21.5523 6 21V19C6 18.4477 6.44772 18 7 18Z" fill="currentColor"/>
</svg>
