<svg viewBox="0 0 24 24" fill="none" xmlns="http://www.w3.org/2000/svg">
<path fill-rule="evenodd" clip-rule="evenodd" d="M1.54104 3.11158C1.95309 2.89874 2.45741 2.99713 2.75924 3.34926L7.83576 9.27187L11.1317 3.50391C11.3098 3.19234 11.6411 3.00005 12 3.00005C12.3588 3.00005 12.6902 3.19234 12.8682 3.50391L16.1642 9.27187L21.2407 3.34926C21.5425 2.99713 22.0469 2.89874 22.4589 3.11158C22.871 3.32443 23.0826 3.79266 22.9701 4.24259L19.9701 16.2426C19.8588 16.6878 19.4588 17.0001 19 17.0001H4.99998C4.54111 17.0001 4.14113 16.6878 4.02984 16.2426L1.02984 4.24259C0.917353 3.79266 1.12899 3.32443 1.54104 3.11158ZM3.99752 7.8671L5.78076 15.0001H18.2192L20.0024 7.8671L16.7592 11.6508C16.5476 11.8978 16.2291 12.0263 15.9054 11.9956C15.5816 11.9648 15.2931 11.7785 15.1317 11.4962L12 6.01562L8.86822 11.4962C8.70688 11.7785 8.41832 11.9648 8.09458 11.9956C7.77084 12.0263 7.45236 11.8978 7.24072 11.6508L3.99752 7.8671ZM3.99998 20C3.99998 19.4478 4.44769 19 4.99998 19H19C19.5523 19 20 19.4478 20 20C20 20.5523 19.5523 21 19 21H4.99998C4.44769 21 3.99998 20.5523 3.99998 20Z" fill="currentColor"/>
</svg>
