<svg viewBox="0 0 24 24" fill="none" xmlns="http://www.w3.org/2000/svg">
<path fill-rule="evenodd" clip-rule="evenodd" d="M12.9923 3.41032C12.4419 2.8599 11.5495 2.8599 10.999 3.41032L3.4077 11.0017C2.85727 11.5521 2.85727 12.4445 3.4077 12.9949L10.999 20.5863C11.5495 21.1367 12.4419 21.1367 12.9923 20.5863L20.5836 12.9949C21.1341 12.4445 21.1341 11.5521 20.5836 11.0017L12.9923 3.41032ZM9.58538 1.99666C10.9165 0.6655 13.0748 0.6655 14.406 1.99666L21.9973 9.588C23.3285 10.9192 23.3285 13.0774 21.9973 14.4086L14.406 21.9999C13.0748 23.3311 10.9165 23.3311 9.58538 21.9999L1.99404 14.4086C0.662876 13.0774 0.662875 10.9192 1.99404 9.588L9.58538 1.99666Z" fill="currentColor"/>
</svg>
