<svg viewBox="0 0 24 24" fill="none" xmlns="http://www.w3.org/2000/svg">
  <path
    d="M1.16669 4.2583C1.16669 4.1435 1.19582 4.0861 1.34149 4.07175C1.89505 4.04305 3.49745 4 5.14355 4C10.0527 4 12.5 7.12825 12.5 11.7058C12.5 18.07 8.26094 20 4.99788 20C3.75966 20 1.96789 19.9713 1.31236 19.957C1.21039 19.957 1.16669 19.8852 1.16669 19.7704V4.2583ZM3.8325 17.661C4.24038 17.6897 4.56086 17.704 5.04158 17.704C7.75109 17.704 9.77594 15.8242 9.77594 11.7632C9.80508 7.81704 7.72196 6.28161 5.12898 6.28161C4.61913 6.28161 4.24038 6.31031 3.81793 6.32466L3.8325 17.661Z"
    fill="currentColor" />
  <path
    d="M14.8599 10.601C14.8599 10.4575 14.8599 9.95523 14.7871 9.12295C14.7871 9.0225 14.8162 9.00815 14.9036 8.95075C16.3603 8.37356 17.9085 8.05299 19.4778 8.00366C21.5318 8.00366 23.848 8.7929 23.848 12.2799V19.7705C23.848 19.914 23.8043 19.957 23.6731 19.957H21.3569C21.2113 19.957 21.1676 19.8853 21.1676 19.7705V12.4664C21.1676 11.0889 20.5849 10.314 19.1427 10.314C18.5932 10.3144 18.0473 10.4016 17.5258 10.5723V19.7848C17.5258 19.8853 17.4821 19.957 17.3801 19.957H15.0493C14.9328 19.957 14.8745 19.914 14.8745 19.7848V10.601H14.8599Z"
    fill="currentColor" />
</svg>