<svg viewBox="0 0 24 24" fill="none" xmlns="http://www.w3.org/2000/svg">
<path fill-rule="evenodd" clip-rule="evenodd" d="M15.9932 18.9055C16.5582 19.6795 17.2363 20.5554 17.2363 20.5554C21.399 20.4129 23 17.4592 23 17.4592C23 10.9 20.2877 5.58337 20.2877 5.58337C17.5753 3.38339 14.9949 3.44451 14.9949 3.44451L14.7312 3.77043C17.9332 4.82968 19.4212 6.35744 19.4212 6.35744C17.4623 5.19634 15.5411 4.62598 13.7517 4.4019C12.3955 4.23894 11.0959 4.27968 9.94692 4.44264C9.84825 4.44264 9.76394 4.45817 9.66892 4.47567L9.62671 4.48338C8.96747 4.54449 7.36644 4.80931 5.35103 5.76671C4.65411 6.113 4.23973 6.35744 4.23973 6.35744C4.23973 6.35744 5.80308 4.7482 9.19349 3.68895L9.00514 3.44451C9.00514 3.44451 6.42466 3.38339 3.71233 5.58337C3.71233 5.58337 1 10.9 1 17.4592C1 17.4592 2.58219 20.4129 6.74486 20.5554C6.74486 20.5554 7.44178 19.6388 8.00685 18.8647C5.61473 18.0907 4.71062 16.461 4.71062 16.461C4.71062 16.461 4.89897 16.6036 5.23801 16.8073C5.25685 16.8277 5.27568 16.8481 5.31336 16.8684C5.34161 16.8888 5.36987 16.9041 5.39813 16.9194C5.42638 16.9347 5.45463 16.9499 5.48288 16.9703C5.95377 17.2555 6.42466 17.4796 6.85788 17.6629C7.63014 17.9888 8.55308 18.3147 9.62671 18.5388C11.0394 18.824 12.6969 18.9258 14.5051 18.5592C15.3904 18.3962 16.2945 18.111 17.2363 17.6833C17.8955 17.4184 18.6301 17.0314 19.4024 16.4814C19.4024 16.4814 18.4606 18.1518 15.9932 18.9055ZM6.55651 13.3037C6.55651 12.0611 7.40411 11.0426 8.47774 11.0426C9.55137 11.0426 10.4178 12.0611 10.399 13.3037C10.399 14.5462 9.55137 15.5648 8.47774 15.5648C7.42295 15.5648 6.55651 14.5462 6.55651 13.3037ZM13.4315 13.3037C13.4315 12.0611 14.2791 11.0426 15.3527 11.0426C16.4264 11.0426 17.274 12.0611 17.274 13.3037C17.274 14.5462 16.4264 15.5648 15.3527 15.5648C14.2979 15.5648 13.4315 14.5462 13.4315 13.3037Z" fill="currentColor"/>
</svg>
