<svg viewBox="0 0 24 24" fill="none" xmlns="http://www.w3.org/2000/svg">
<path d="M10 5.17211C10 3.78211 8.42301 2.67911 6.50001 3.00011C3.67701 3.47011 2.38701 9.00611 2.50001 10.0001C2.58001 10.7031 4.22501 11.7221 6.15601 11.0001C7.41701 10.5281 8.11601 9.55011 8.50001 8.50011M14.267 5.17211C14.267 3.78211 15.844 2.67911 17.767 3.00011C20.59 3.47011 21.88 9.00611 21.767 10.0001C21.687 10.7031 20.042 11.7221 18.111 11.0001C16.85 10.5281 16.256 9.55011 15.872 8.50011M8.00001 14.0001V14.5001M16 14.0001V14.5001M4.42001 11.2471C4.14014 12.3278 3.99901 13.4398 4.00001 14.5561C4.00001 18.7281 7.58201 21.0001 12 21.0001C16.418 21.0001 20 18.7281 20 14.5561C20 13.4951 19.838 12.3561 19.507 11.2471M10.264 5.16511C10.8358 5.05278 11.4173 4.99751 12 5.00011C12.78 5.00011 13.5 5.10811 14.161 5.30611M11.25 16.2501H12.75L12 17.0001L11.25 16.2501Z" stroke="currentColor" stroke-width="2" stroke-linecap="round" stroke-linejoin="round"/>
</svg>
