<svg viewBox="0 0 24 24" fill="none" xmlns="http://www.w3.org/2000/svg">
  <path
    d="M0 4.23126C0 4.11563 1.69403e-07 4.05781 0.158025 4.05781C0.632099 4.05781 2.107 4 3.58189 4C8.00659 4 10.1663 7.12195 10.1663 11.6893C10.1663 18.0488 6.37366 20 3.42387 20C2.3177 20 0.684774 20 0.10535 19.9422C2.16459e-07 19.9422 0 19.8844 0 19.7687V4.23126ZM2.37037 17.6441C2.73909 17.6441 3.05514 17.7019 3.47654 17.7019C5.89959 17.7019 7.69054 15.794 7.75638 11.7471C7.75638 7.81572 5.91276 6.25474 3.59506 6.25474C3.19049 6.24325 2.78568 6.26257 2.38354 6.31256L2.37037 17.6441ZM19.0683 19.8988C18.9103 19.8988 18.8576 19.841 18.8576 19.6676C18.2255 15.6929 17.6461 12.8455 17.4354 10.9377C17.172 12.7444 16.6453 15.6351 15.7498 19.7254C15.6971 19.841 15.6444 19.8988 15.5391 19.8988H13.4321C13.2741 19.8988 13.2214 19.8988 13.1687 19.7254L10.8642 8.33604C10.8642 8.22042 10.8642 8.1626 11.0222 8.1626H13.1292C13.2346 8.1626 13.2872 8.22042 13.2872 8.27823C14.13 13.4237 14.4461 16.0831 14.6041 17.1238H14.7095C14.8543 15.9097 15.3152 13.308 16.2765 8.33604C16.3292 8.22042 16.3292 8.1626 16.4346 8.1626H18.6469C18.7523 8.1626 18.7523 8.22042 18.8049 8.33604C19.5951 13.0334 20.1218 15.9675 20.2272 17.1816H20.2798C20.4905 15.6784 20.7539 13.5971 21.7021 8.27823C21.6992 8.25854 21.7 8.23843 21.7043 8.21905C21.7085 8.19968 21.7162 8.18142 21.7269 8.16531C21.7376 8.1492 21.7511 8.13557 21.7666 8.12519C21.7821 8.1148 21.7993 8.10787 21.8173 8.10479H23.8749C23.9802 8.10479 24.0329 8.1626 23.9802 8.27823L21.386 19.6676C21.386 19.7832 21.3333 19.841 21.1753 19.841L19.0683 19.8988Z"
    fill="currentColor" />
</svg>