<svg viewBox="0 0 24 24" fill="none" xmlns="http://www.w3.org/2000/svg">
<path fill-rule="evenodd" clip-rule="evenodd" d="M12 22C17.5228 22 22 17.5228 22 12C22 6.47715 17.5228 2 12 2C6.47715 2 2 6.47715 2 12C2 17.5228 6.47715 22 12 22ZM12 3.47999C14.16 3.47999 16.16 4.29999 17.66 5.61999C17.5 5.83999 16.22 7.55999 13.18 8.69999C11.9499 6.43313 10.5963 4.53683 10.1366 3.89285C10.0731 3.80389 10.0267 3.73883 9.99999 3.69999C10.64 3.55999 11.3 3.47999 12 3.47999ZM18.6 6.59999C19.8 8.05999 20.5 9.89999 20.54 11.92C20.26 11.86 17.44 11.3 14.6 11.64C14.5701 11.5702 14.5401 11.4954 14.5102 11.4206L14.51 11.4201C14.48 11.3451 14.45 11.27 14.42 11.2L14.4193 11.1984C14.2395 10.7789 14.0597 10.3595 13.86 9.95999C16.98 8.69999 18.42 6.83999 18.6 6.59999ZM11.52 9.21999C10.1 6.69999 8.58001 4.57999 8.36002 4.27999C5.97999 5.39999 4.20001 7.59999 3.61999 10.26L3.6407 10.26C4.11334 10.2604 7.5843 10.2629 11.52 9.21999ZM3.46 12.02V11.76C3.81999 11.78 7.98 11.82 12.24 10.54C12.48 11.02 12.72 11.5 12.94 12C12.8843 12.0223 12.8224 12.0384 12.7577 12.0551L12.7577 12.0551L12.7576 12.0552L12.7572 12.0553L12.7571 12.0553C12.7059 12.0686 12.6529 12.0823 12.6 12.1C8.28433 13.4928 5.9505 17.2521 5.6739 17.6977L5.66001 17.72C4.28001 16.2 3.46 14.2 3.46 12.02ZM6.76002 18.74C8.19999 19.86 10.02 20.54 12 20.54C13.18 20.54 14.32 20.3 15.34 19.86C15.22 19.1 14.72 16.5 13.52 13.38C13.5061 13.38 13.4922 13.38 13.4783 13.3867C13.4722 13.3896 13.4661 13.3939 13.46 13.4C8.64001 15.08 6.92001 18.42 6.76002 18.74ZM16.76 19.08C16.68 18.56 16.22 16.06 15.1 13C17.6578 12.5991 19.906 13.2185 20.3664 13.3453L20.42 13.36C20.04 15.74 18.68 17.8 16.76 19.08Z" fill="currentColor"/>
</svg>
