<svg viewBox="0 0 24 24" fill="none" xmlns="http://www.w3.org/2000/svg">
<path fill-rule="evenodd" clip-rule="evenodd" d="M14.9567 4.36893C14.4736 3.83217 13.6384 3.77573 13.0071 4.40707L6.41418 11L14 18.5857L20.5929 11.9929C20.6052 11.9805 20.618 11.9684 20.631 11.9567C21.1678 11.4736 21.2242 10.6384 20.5929 10.0071L14.9929 4.40707C14.9805 4.39467 14.9684 4.38196 14.9567 4.36893ZM12.5857 20L4.99996 12.4142L3.40707 14.0071C3.39467 14.0195 3.38196 14.0315 3.36893 14.0433C2.83217 14.5263 2.77573 15.3615 3.40707 15.9929L7.41418 20H12.5857ZM4.2924 10.2933C4.29255 10.2932 4.2927 10.293 4.29286 10.2929C4.29301 10.2927 4.29316 10.2926 4.29331 10.2924L11.5929 2.99286C12.9549 1.6308 15.1054 1.56833 16.4241 3.0099L22.0071 8.59286C23.3691 9.95491 23.4316 12.1054 21.99 13.4241L15.4142 20H22C22.5522 20 23 20.4477 23 21C23 21.5522 22.5522 22 22 22H13.0009C13.0003 22 12.9996 22 12.999 22H6.99996C6.73475 22 6.48039 21.8946 6.29286 21.7071L1.99286 17.4071C0.630801 16.045 0.568334 13.8945 2.0099 12.5758L4.2924 10.2933Z" fill="currentColor"/>
</svg>
