<svg viewBox="0 0 24 24" fill="none" xmlns="http://www.w3.org/2000/svg">
<path fill-rule="evenodd" clip-rule="evenodd" d="M19.5456 5.47987C19.3971 4.6817 18.9244 4.28839 18.4971 4.13374C18.036 3.96644 17.1012 3.79314 15.9266 3.65414C14.9816 3.54241 13.8708 3.55131 13.1999 3.57213C13.1194 3.01841 12.7326 2.51258 12.2997 2.33745C11.1465 1.8714 9.36457 1.98399 8.90709 2.11272C8.54353 2.21473 8.14116 2.42381 7.91722 2.74593C7.76703 2.96112 7.66985 3.2368 7.6691 3.62194C7.6691 3.83992 7.67514 4.3534 7.68067 4.80959C7.68524 5.19086 7.69015 5.53856 7.69167 5.64562L7.69214 5.67933C7.69193 6.08678 7.36301 6.41838 6.9554 6.41889H5.08553C4.6867 6.41889 4.38192 6.48619 4.14915 6.59237C3.916 6.69865 3.75087 6.84196 3.6254 7.01146C3.37563 7.34803 3.3323 7.76344 3.33333 8.18733C3.33333 8.18733 3.337 8.53372 3.42014 9.20416C3.48922 9.72292 4.04957 13.3469 4.58183 14.449C4.78817 14.8778 4.92565 15.0564 5.33107 15.2454C6.23438 15.6337 8.29767 16.0657 9.26471 16.1894C9.42466 16.2099 9.57474 16.2342 9.71548 16.257C10.4241 16.3717 10.8957 16.4481 11.1969 15.814C11.1981 15.8121 11.2693 15.6249 11.367 15.3503C11.6805 14.3966 11.7242 13.5505 11.7242 12.9382C11.7242 12.8759 11.8151 12.8731 11.8151 12.9382C11.8151 12.9622 11.8149 12.9897 11.8146 13.0202C11.8098 13.5373 11.797 14.9231 12.8839 15.3107C13.3383 15.4724 14.2809 15.6167 15.2387 15.7294C16.1047 15.8293 16.7332 16.1715 16.7332 18.4021C16.7332 19.7592 16.4493 19.9453 14.965 19.9453L14.8546 19.9454C13.7336 19.9463 13.3033 19.9466 13.3033 19.0169C13.3033 18.3074 13.9427 18.315 14.4852 18.3214C14.5357 18.322 14.5854 18.3226 14.6336 18.3226C14.7928 18.3226 14.7791 18.2478 14.7471 18.073C14.7282 17.9701 14.703 17.8325 14.703 17.6552C14.703 17.4534 14.7563 17.2877 14.7963 17.1632C14.8507 16.9941 14.8806 16.901 14.719 16.897C12.7609 16.8429 11.6087 16.8948 11.6087 19.3535C11.6087 21.5855 12.4595 22 15.2387 22C17.4177 22 18.1858 21.9284 19.0856 19.1255C19.2637 18.5722 19.6942 16.8837 19.9548 14.0486C20.1195 12.2559 19.7994 6.84544 19.5456 5.47987ZM4.99793 5.87367H4.99917H6.86873C6.97586 5.87367 7.06201 5.78607 7.06225 5.67934L7.06216 5.67252L7.06216 5.67249C7.06057 5.55844 7.03956 4.05299 7.03956 3.62257V3.61729C7.03956 3.24987 7.11633 2.92951 7.25015 2.6611L7.31408 2.54054C7.30694 2.54175 7.29976 2.54527 7.29266 2.5524L3.66005 6.169C3.65294 6.17486 3.64851 6.18248 3.64645 6.19027L3.64858 6.18921L3.64872 6.18915C3.72367 6.15192 3.82446 6.10185 3.83884 6.09554C4.15519 5.95223 4.53877 5.87367 4.99793 5.87367ZM14.9775 11.5068C15.2189 11.4678 15.4779 11.4507 15.7471 11.4602C16.2521 11.478 16.7158 11.5849 17.0904 11.7525C17.0872 11.1816 16.9627 10.3387 16.0744 10.308C15.272 10.2797 15.0454 10.9558 14.9775 11.5068Z" fill="currentColor"/>
</svg>
