<svg viewBox="0 0 24 24" fill="none" xmlns="http://www.w3.org/2000/svg">
<path fill-rule="evenodd" clip-rule="evenodd" d="M1 7.04472C1 5.38043 2.91416 4.44423 4.22788 5.46601L10.5991 10.4214C11.6285 11.2221 11.6286 12.7781 10.5991 13.5788L4.22788 18.5341C2.91417 19.5559 1 18.6197 1 16.9554V7.04472ZM12 7.04472C12 5.38043 13.9142 4.44423 15.2279 5.46601L21.5991 10.4214C22.6286 11.2221 22.6286 12.7781 21.5991 13.5788L15.2279 18.5341C13.9142 19.5559 12 18.6197 12 16.9554V7.04472ZM9.37118 12.0001L3 7.04472V16.9554L9.37118 12.0001ZM20.3712 12.0001L14 7.04472V16.9554L20.3712 12.0001Z" fill="currentColor"/>
</svg>
