<svg viewBox="0 0 24 24" fill="none" xmlns="http://www.w3.org/2000/svg">
<path fill-rule="evenodd" clip-rule="evenodd" d="M5 5.74189C5 3.6753 6.68682 2 8.76761 2H15.2324C17.3132 2 19 3.6753 19 5.74189C19 7.05048 18.3237 8.20218 17.2992 8.87099C18.3237 9.5398 19 10.6915 19 12.0001C19 14.0667 17.3132 15.742 15.2324 15.742H15.1506C14.1751 15.742 13.2862 15.3738 12.6171 14.7697V18.2175C12.6171 20.3116 10.8862 22 8.78794 22C6.71232 22 5 20.3298 5 18.2581C5 16.9496 5.67628 15.7979 6.70064 15.1291C5.67628 14.4603 5 13.3086 5 12.0001C5 10.6915 5.67633 9.5398 6.70077 8.87099C5.67633 8.20218 5 7.05048 5 5.74189ZM15.2324 8.25811H12.6171V3.22571H15.2324C16.6316 3.22571 17.7659 4.35225 17.7659 5.7419C17.7659 7.13157 16.6316 8.25811 15.2324 8.25811ZM11.383 14.5162V9.48389H8.76762C7.36841 9.48389 6.23413 10.6104 6.23413 12.0001C6.23413 13.3844 7.35973 14.5077 8.75154 14.5162L8.76762 14.5162H11.383ZM6.23413 18.2581C6.23413 16.8738 7.35973 15.7506 8.75154 15.742L8.76762 15.742H11.383V18.2175C11.383 19.6245 10.2149 20.7743 8.78795 20.7743C7.38356 20.7743 6.23413 19.6427 6.23413 18.2581ZM12.6171 12.0001C12.6171 13.3898 13.7514 14.5163 15.1506 14.5163H15.2324C16.6316 14.5163 17.7659 13.3898 17.7659 12.0001C17.7659 10.6104 16.6316 9.48389 15.2324 9.48389H15.1506C13.7513 9.48389 12.6171 10.6104 12.6171 12.0001ZM11.383 3.22571H8.76762C7.36841 3.22571 6.23413 4.35225 6.23413 5.7419C6.23413 7.13157 7.36841 8.25811 8.76762 8.25811H11.383V3.22571Z" fill="currentColor"/>
</svg>
