<svg viewBox="0 0 24 24" fill="none" xmlns="http://www.w3.org/2000/svg">
<path fill-rule="evenodd" clip-rule="evenodd" d="M3.87868 1.87868C4.44129 1.31607 5.20435 1 6 1H14.5C14.7652 1 15.0196 1.10536 15.2071 1.29289L20.7071 6.79289C20.8946 6.98043 21 7.23478 21 7.5V16.999C21 16.9997 21 17.0003 21 17.001V20C21 20.7957 20.6839 21.5587 20.1213 22.1213C19.5587 22.6839 18.7957 23 18 23H10.001C10.0003 23 9.99967 23 9.99902 23H6C5.20435 23 4.44129 22.6839 3.87868 22.1213C3.31607 21.5587 3 20.7957 3 20V4C3 3.20435 3.31607 2.44129 3.87868 1.87868ZM12.4142 21H18C18.2652 21 18.5196 20.8946 18.7071 20.7071C18.8946 20.5196 19 20.2652 19 20V17.4142L18.205 16.6192C18.2047 16.6189 18.2045 16.6187 18.2042 16.6184C18.0169 16.4327 17.7638 16.3284 17.5 16.3284C17.2362 16.3284 16.9831 16.4327 16.7958 16.6184C16.7955 16.6187 16.7953 16.6189 16.795 16.6192L12.4142 21ZM19 14.7303C18.5478 14.4693 18.0311 14.3284 17.5 14.3284C16.7074 14.3284 15.9471 14.642 15.385 15.2008L15.3829 15.2029L9.58579 21H6C5.73478 21 5.48043 20.8946 5.29289 20.7071C5.10536 20.5196 5 20.2652 5 20V4C5 3.73478 5.10536 3.48043 5.29289 3.29289C5.48043 3.10536 5.73478 3 6 3H13V8C13 8.55228 13.4477 9 14 9H19V14.7303ZM18.0858 7L15 3.91421V7H18.0858ZM10 12C9.44772 12 9 12.4477 9 13C9 13.5523 9.44772 14 10 14C10.5523 14 11 13.5523 11 13C11 12.4477 10.5523 12 10 12ZM7 13C7 11.3431 8.34315 10 10 10C11.6569 10 13 11.3431 13 13C13 14.6569 11.6569 16 10 16C8.34315 16 7 14.6569 7 13Z" fill="currentColor"/>
</svg>
