<svg viewBox="0 0 24 24" fill="none" xmlns="http://www.w3.org/2000/svg">
<path fill-rule="evenodd" clip-rule="evenodd" d="M6 3C5.77356 3 5.52555 3.08866 5.30711 3.30711C5.08866 3.52555 5 3.77356 5 4V22C5 22.5523 4.55228 23 4 23C3.44772 23 3 22.5523 3 22V4C3 3.22644 3.31134 2.47445 3.89289 1.89289C4.47445 1.31134 5.22644 1 6 1H14.5C14.7652 1 15.0196 1.10536 15.2071 1.29289L20.7071 6.79289C20.8946 6.98043 21 7.23478 21 7.5V20C21 20.7736 20.6887 21.5256 20.1071 22.1071C19.5256 22.6887 18.7736 23 18 23H16C15.4477 23 15 22.5523 15 22C15 21.4477 15.4477 21 16 21H18C18.2264 21 18.4744 20.9113 18.6929 20.6929C18.9113 20.4744 19 20.2264 19 20V9H14C13.4477 9 13 8.55228 13 8V3H6ZM15 3.91421V7H18.0858L15 3.91421ZM10 5C10.5523 5 11 5.44772 11 6V7C11 7.55228 10.5523 8 10 8C9.44772 8 9 7.55228 9 7V6C9 5.44772 9.44772 5 10 5ZM10 10C10.5523 10 11 10.4477 11 11V12C11 12.5523 10.5523 13 10 13C9.44772 13 9 12.5523 9 12V11C9 10.4477 9.44772 10 10 10ZM10 15C10.5523 15 11 15.4477 11 16V17.1707C12.1652 17.5825 13 18.6938 13 20C13 21.6569 11.6569 23 10 23C8.34315 23 7 21.6569 7 20C7 18.6938 7.83481 17.5825 9 17.1707V16C9 15.4477 9.44772 15 10 15ZM10 19C9.44772 19 9 19.4477 9 20C9 20.5523 9.44772 21 10 21C10.5523 21 11 20.5523 11 20C11 19.4477 10.5523 19 10 19Z" fill="currentColor"/>
</svg>
