<svg viewBox="0 0 24 24" fill="none" xmlns="http://www.w3.org/2000/svg">
<path fill-rule="evenodd" clip-rule="evenodd" d="M3.87868 1.87868C4.44129 1.31607 5.20435 1 6 1H14.5C14.7652 1 15.0196 1.10536 15.2071 1.29289L20.7071 6.79289C20.8946 6.98043 21 7.23478 21 7.5V20C21 20.7957 20.6839 21.5587 20.1213 22.1213C19.5587 22.6839 18.7957 23 18 23H4C3.44772 23 3 22.5523 3 22C3 21.4477 3.44772 21 4 21H18C18.2652 21 18.5196 20.8946 18.7071 20.7071C18.8946 20.5196 19 20.2652 19 20V9H14C13.4477 9 13 8.55228 13 8V3H6C5.73478 3 5.48043 3.10536 5.29289 3.29289C5.10536 3.48043 5 3.73478 5 4V6C5 6.55228 4.55228 7 4 7C3.44772 7 3 6.55228 3 6V4C3 3.20435 3.31607 2.44129 3.87868 1.87868ZM15 3.91421V7H18.0858L15 3.91421ZM6 11C5.20435 11 4.44129 11.3161 3.87868 11.8787C3.31607 12.4413 3 13.2044 3 14V15C4.10457 15 5 15.8954 5 17C5 18.1046 4.10457 19 3 19C1.89543 19 1 18.1046 1 17V14C1 12.6739 1.52678 11.4021 2.46447 10.4645C3.40215 9.52678 4.67392 9 6 9C7.32608 9 8.59785 9.52678 9.53553 10.4645C10.4732 11.4021 11 12.6739 11 14V17C11 18.1046 10.1046 19 9 19C7.89543 19 7 18.1046 7 17C7 15.8954 7.89543 15 9 15V14C9 13.2044 8.68393 12.4413 8.12132 11.8787C7.55871 11.3161 6.79565 11 6 11Z" fill="currentColor"/>
</svg>
