<svg viewBox="0 0 24 24" fill="none" xmlns="http://www.w3.org/2000/svg">
<path fill-rule="evenodd" clip-rule="evenodd" d="M6.79289 1.79289C7.23324 1.35255 7.87477 1 8.6 1H15.5C15.7652 1 16.0196 1.10536 16.2071 1.29289L20.7071 5.79289C20.8946 5.98043 21 6.23478 21 6.5V16.4C21 17.1252 20.6475 17.7668 20.2071 18.2071C19.7668 18.6475 19.1252 19 18.4 19H8.6C7.87477 19 7.23324 18.6475 6.79289 18.2071C6.35255 17.7668 6 17.1252 6 16.4V3.6C6 2.87477 6.35255 2.23324 6.79289 1.79289ZM18.0858 6L16 3.91421V6H18.0858ZM14 3V7C14 7.55228 14.4477 8 15 8H19V16.4C19 16.4748 18.9525 16.6332 18.7929 16.7929C18.6332 16.9525 18.4748 17 18.4 17H8.6C8.52523 17 8.36676 16.9525 8.20711 16.7929C8.04745 16.6332 8 16.4748 8 16.4V3.6C8 3.52523 8.04745 3.36676 8.20711 3.20711C8.36676 3.04745 8.52523 3 8.6 3H14ZM3 6.6C3.55228 6.6 4 7.04772 4 7.6V20.4C4 20.4748 4.04745 20.6332 4.20711 20.7929C4.36676 20.9525 4.52523 21 4.6 21H14.4C14.9523 21 15.4 21.4477 15.4 22C15.4 22.5523 14.9523 23 14.4 23H4.6C3.87477 23 3.23324 22.6475 2.79289 22.2071C2.35255 21.7668 2 21.1252 2 20.4V7.6C2 7.04772 2.44772 6.6 3 6.6Z" fill="currentColor"/>
</svg>
