<svg viewBox="0 0 24 24" fill="none" xmlns="http://www.w3.org/2000/svg">
<path fill-rule="evenodd" clip-rule="evenodd" d="M6 3C5.73478 3 5.48043 3.10536 5.29289 3.29289C5.10536 3.48043 5 3.73478 5 4V5C5 5.55228 4.55228 6 4 6C3.44772 6 3 5.55228 3 5V4C3 3.20435 3.31607 2.44129 3.87868 1.87868C4.44129 1.31607 5.20435 1 6 1H14.5C14.7652 1 15.0196 1.10536 15.2071 1.29289L20.7071 6.79289C20.8946 6.98043 21 7.23478 21 7.5V20C21 20.7957 20.6839 21.5587 20.1213 22.1213C19.5587 22.6839 18.7957 23 18 23H4C3.44772 23 3 22.5523 3 22C3 21.4477 3.44772 21 4 21H18C18.2652 21 18.5196 20.8946 18.7071 20.7071C18.8946 20.5196 19 20.2652 19 20V9H14C13.4477 9 13 8.55228 13 8V3H6ZM15 3.91421V7H18.0858L15 3.91421ZM3.87868 8.87868C4.44129 8.31607 5.20435 8 6 8C6.79565 8 7.55871 8.31607 8.12132 8.87868C8.68393 9.44129 9 10.2044 9 11V12C10.1046 12 11 12.8954 11 14V17C11 18.1046 10.1046 19 9 19H3C1.89543 19 1 18.1046 1 17V14C1 12.8954 1.89543 12 3 12V11C3 10.2044 3.31607 9.44129 3.87868 8.87868ZM3 14V17H9V14H3ZM7 12H5V11C5 10.7348 5.10536 10.4804 5.29289 10.2929C5.48043 10.1054 5.73478 10 6 10C6.26522 10 6.51957 10.1054 6.70711 10.2929C6.89464 10.4804 7 10.7348 7 11V12Z" fill="currentColor"/>
</svg>
