<svg viewBox="0 0 24 24" fill="none" xmlns="http://www.w3.org/2000/svg">
<path fill-rule="evenodd" clip-rule="evenodd" d="M3.87866 1.87868C4.44127 1.31607 5.20433 1 5.99998 1H14.5C14.7652 1 15.0195 1.10536 15.2071 1.29289L20.7071 6.79289C20.8946 6.98043 21 7.23478 21 7.5V20C21 20.7957 20.6839 21.5587 20.1213 22.1213C19.5587 22.6839 18.7956 23 18 23H16C15.4477 23 15 22.5523 15 22C15 21.4477 15.4477 21 16 21H18C18.2652 21 18.5195 20.8946 18.7071 20.7071C18.8946 20.5196 19 20.2652 19 20V9H14C13.4477 9 13 8.55228 13 8V3H5.99998C5.73476 3 5.48041 3.10536 5.29287 3.29289C5.10533 3.48043 4.99998 3.73478 4.99998 4V7C4.99998 7.55228 4.55226 8 3.99998 8C3.44769 8 2.99998 7.55228 2.99998 7V4C2.99998 3.20435 3.31605 2.44129 3.87866 1.87868ZM15 3.91421V7H18.0858L15 3.91421ZM7.29287 9.46289C7.48041 9.27536 7.73476 9.17 7.99998 9.17C9.81141 9.17 11.5486 9.88959 12.8295 11.1705C14.1104 12.4513 14.83 14.1886 14.83 16C14.83 16.5523 14.3823 17 13.83 17H7.99998C7.44769 17 6.99998 16.5523 6.99998 16V10.17C6.99998 9.90478 7.10533 9.65043 7.29287 9.46289ZM8.99998 11.2746V15H12.7253C12.5332 14.092 12.0816 13.251 11.4153 12.5847C10.749 11.9183 9.908 11.4668 8.99998 11.2746ZM4.7905 11.0492C5.15547 11.4637 5.11533 12.0955 4.70082 12.4605C4.20606 12.8962 3.80551 13.4283 3.52374 14.0243C3.24196 14.6202 3.08491 15.2675 3.0622 15.9263C3.03949 16.5851 3.15161 17.2417 3.39168 17.8556C3.63175 18.4696 3.99471 19.028 4.4583 19.4967C4.92189 19.9654 5.47634 20.3344 6.08764 20.5812C6.69894 20.8279 7.3542 20.9472 8.01324 20.9317C8.67228 20.9162 9.32121 20.7662 9.92022 20.4909C10.5192 20.2157 11.0557 19.821 11.4967 19.331C11.8662 18.9205 12.4985 18.8873 12.909 19.2567C13.3195 19.6262 13.3527 20.2585 12.9832 20.669C12.36 21.3614 11.6018 21.9193 10.7553 22.3083C9.90876 22.6973 8.99169 22.9092 8.06032 22.9311C7.12894 22.9531 6.20291 22.7845 5.33901 22.4358C4.4751 22.0871 3.69155 21.5655 3.03639 20.9032C2.38123 20.2408 1.86829 19.4516 1.52902 18.584C1.18974 17.7163 1.03129 16.7885 1.06339 15.8574C1.09548 14.9263 1.31744 14.0116 1.71565 13.1694C2.11386 12.3272 2.67992 11.5751 3.37913 10.9595C3.79363 10.5945 4.42552 10.6347 4.7905 11.0492Z" fill="currentColor"/>
</svg>
