<svg viewBox="0 0 24 24" fill="none" xmlns="http://www.w3.org/2000/svg">
<path fill-rule="evenodd" clip-rule="evenodd" d="M3.87868 1.87868C4.44129 1.31607 5.20435 1 6 1H14.5C14.7652 1 15.0196 1.10536 15.2071 1.29289L20.7071 6.79289C20.8946 6.98043 21 7.23478 21 7.5V20C21 20.7957 20.6839 21.5587 20.1213 22.1213C19.5587 22.6839 18.7957 23 18 23H6C5.20435 23 4.44129 22.6839 3.87868 22.1213C3.31607 21.5587 3 20.7957 3 20V4C3 3.20435 3.31607 2.44129 3.87868 1.87868ZM6 3C5.73478 3 5.48043 3.10536 5.29289 3.29289C5.10536 3.48043 5 3.73478 5 4V20C5 20.2652 5.10536 20.5196 5.29289 20.7071C5.48043 20.8946 5.73478 21 6 21H18C18.2652 21 18.5196 20.8946 18.7071 20.7071C18.8946 20.5196 19 20.2652 19 20V7.91421L14.0858 3H6ZM12.1183 10.0308C11.8707 9.99273 11.6174 10.0403 11.4005 10.1657C11.383 10.1758 11.3653 10.1854 11.3472 10.1944C11.226 10.255 11.0514 10.4332 10.8944 10.7472C10.6474 11.2412 10.0468 11.4414 9.55279 11.1944C9.05881 10.9474 8.85858 10.3468 9.10557 9.85279C9.34521 9.37352 9.7622 8.76219 10.4247 8.41984C11.0304 8.0772 11.7341 7.94818 12.4224 8.05408C13.1204 8.16146 13.7608 8.5039 14.2376 9.02475C14.2596 9.0488 14.2804 9.07391 14.3 9.1C14.6658 9.58774 15 10.1969 15 11C15 12.1845 14.1087 12.9456 13.5595 13.3163C13.2511 13.5245 12.9497 13.6783 12.7292 13.7794C12.6175 13.8305 12.5232 13.8698 12.4545 13.897C12.42 13.9106 12.3918 13.9214 12.3708 13.9292L12.3449 13.9387L12.3361 13.9418L12.3329 13.943L12.3315 13.9435L12.3309 13.9437C12.3306 13.9438 12.3304 13.9439 12.0153 13.0438L12.3304 13.9439C11.8091 14.1263 11.2386 13.8516 11.0561 13.3304C10.874 12.8101 11.1473 12.2408 11.6667 12.0572M11.6668 12.0572L11.6741 12.0545C11.6824 12.0514 11.6972 12.0458 11.7174 12.0378C11.7581 12.0216 11.82 11.996 11.8958 11.9612C12.0503 11.8904 12.2489 11.788 12.4405 11.6587C12.8913 11.3544 13 11.1155 13 11C13 10.8123 12.9402 10.6302 12.732 10.3433C12.5664 10.1764 12.3514 10.0667 12.1183 10.0308M11.6668 12.0572L11.6679 12.0568L11.6683 12.0566L11.6687 12.0565L11.669 12.0564M11 17C11 16.4477 11.4477 16 12 16H12.01C12.5623 16 13.01 16.4477 13.01 17C13.01 17.5523 12.5623 18 12.01 18H12C11.4477 18 11 17.5523 11 17Z" fill="currentColor"/>
</svg>
