<svg viewBox="0 0 24 24" fill="none" xmlns="http://www.w3.org/2000/svg">
<path fill-rule="evenodd" clip-rule="evenodd" d="M5.99998 3C5.73476 3 5.4804 3.10536 5.29287 3.29289C5.10533 3.48043 4.99997 3.73478 4.99997 4V6C4.99997 6.55228 4.55226 7 3.99997 7C3.44769 7 2.99998 6.55228 2.99998 6V4C2.99998 3.20435 3.31605 2.44129 3.87865 1.87868C4.44126 1.31607 5.20433 1 5.99998 1H14.5C14.7652 1 15.0195 1.10536 15.2071 1.29289L20.7071 6.79289C20.8946 6.98043 21 7.23478 21 7.5V20C21 20.7957 20.6839 21.5587 20.1213 22.1213C19.5587 22.6839 18.7956 23 18 23H3.99997C3.44769 23 2.99998 22.5523 2.99998 22C2.99998 21.4477 3.44769 21 3.99997 21H18C18.2652 21 18.5195 20.8946 18.7071 20.7071C18.8946 20.5196 19 20.2652 19 20V9H14C13.4477 9 13 8.55228 13 8V3H5.99998ZM15 3.91421V7H18.0858L15 3.91421ZM7.24478 9.25716C7.87198 8.99374 8.56338 8.92275 9.23106 9.05328C9.89977 9.184 10.5144 9.51093 10.9966 9.99236C11.0282 10.024 11.0576 10.0576 11.0845 10.0928C12.3733 11.4658 12.3251 13.6264 10.81 15.1542L10.8022 15.1621L7.20212 18.712C6.81237 19.0964 6.18605 19.0959 5.79684 18.7111L2.19991 15.1542C0.655735 13.5972 0.620416 11.3728 2.00478 10.001C2.31733 9.68888 2.68638 9.42934 3.12309 9.25373C3.74917 8.99597 4.43757 8.92926 5.10156 9.06205C5.60971 9.16368 6.0861 9.37867 6.49633 9.68855C6.7286 9.51073 6.98182 9.36626 7.24478 9.25716ZM8.84735 11.0161C8.56856 10.9616 8.27985 10.9914 8.01805 11.1016L8.01233 11.104C7.8438 11.1738 7.69156 11.2769 7.57262 11.4012C7.56416 11.4101 7.55554 11.4188 7.54676 11.4273L7.19676 11.7673C6.80871 12.1442 6.19124 12.1442 5.80319 11.7673L5.45319 11.4273L5.44171 11.4159C5.24184 11.2154 4.98695 11.0787 4.70933 11.0232C4.43171 10.9677 4.14386 10.9958 3.88224 11.1041L3.87139 11.1085C3.71139 11.1725 3.56282 11.2714 3.41708 11.4171L3.41334 11.4208C2.90021 11.9286 2.7652 12.8812 3.61684 13.7426L6.50095 16.5946L9.39357 13.7422C10.2396 12.886 10.1045 11.9333 9.58662 11.4208C9.56312 11.3976 9.54089 11.3733 9.51998 11.348C9.32969 11.1799 9.09761 11.065 8.84735 11.0161Z" fill="currentColor"/>
</svg>
