<svg viewBox="0 0 24 24" fill="none" xmlns="http://www.w3.org/2000/svg">
<path fill-rule="evenodd" clip-rule="evenodd" d="M3.87868 1.87868C4.44129 1.31607 5.20435 1 6 1H14.5C14.7652 1 15.0196 1.10536 15.2071 1.29289L20.7071 6.79289C20.8946 6.98043 21 7.23478 21 7.5V20C21 20.7957 20.6839 21.5587 20.1213 22.1213C19.5587 22.6839 18.7957 23 18 23H4C3.44772 23 3 22.5523 3 22C3 21.4477 3.44772 21 4 21H18C18.2652 21 18.5196 20.8946 18.7071 20.7071C18.8946 20.5196 19 20.2652 19 20V9H14C13.4477 9 13 8.55228 13 8V3H6C5.73478 3 5.48043 3.10536 5.29289 3.29289C5.10536 3.48043 5 3.73478 5 4V8C5 8.55228 4.55228 9 4 9C3.44772 9 3 8.55228 3 8V4C3 3.20435 3.31607 2.44129 3.87868 1.87868ZM15 3.91421V7H18.0858L15 3.91421ZM5.70711 11.2929C6.09763 11.6834 6.09763 12.3166 5.70711 12.7071L4.41421 14H12C12.5523 14 13 14.4477 13 15C13 15.5523 12.5523 16 12 16H4.41421L5.70711 17.2929C6.09763 17.6834 6.09763 18.3166 5.70711 18.7071C5.31658 19.0976 4.68342 19.0976 4.29289 18.7071L1.29289 15.7071C0.902369 15.3166 0.902369 14.6834 1.29289 14.2929L4.29289 11.2929C4.68342 10.9024 5.31658 10.9024 5.70711 11.2929Z" fill="currentColor"/>
</svg>
