<svg viewBox="0 0 24 24" fill="none" xmlns="http://www.w3.org/2000/svg">
<path fill-rule="evenodd" clip-rule="evenodd" d="M6 3C5.73478 3 5.48043 3.10536 5.29289 3.29289C5.10536 3.48043 5 3.73478 5 4V20C5 20.2652 5.10536 20.5196 5.29289 20.7071C5.48043 20.8946 5.73478 21 6 21H18C18.2652 21 18.5196 20.8946 18.7071 20.7071C18.8946 20.5196 19 20.2652 19 20V19.5C19 18.9477 19.4477 18.5 20 18.5C20.5523 18.5 21 18.9477 21 19.5V20C21 20.7957 20.6839 21.5587 20.1213 22.1213C19.5587 22.6839 18.7957 23 18 23H6C5.20435 23 4.44129 22.6839 3.87868 22.1213C3.31607 21.5587 3 20.7957 3 20V4C3 3.20435 3.31607 2.44129 3.87868 1.87868C4.44129 1.31607 5.20435 1 6 1H14.5C14.7652 1 15.0196 1.10536 15.2071 1.29289L18.7071 4.79289C19.0976 5.18342 19.0976 5.81658 18.7071 6.20711C18.3166 6.59763 17.6834 6.59763 17.2929 6.20711L14.0858 3H6ZM19.905 9.99489C19.7605 9.99489 19.6175 10.0233 19.484 10.0786C19.3508 10.1338 19.2297 10.2146 19.1277 10.3165L14.8929 14.5609L14.3768 16.6199L16.4388 16.0979L20.6829 11.8729C20.7847 11.7709 20.8662 11.6492 20.9214 11.516C20.9767 11.3825 21.0051 11.2395 21.0051 11.095C21.0051 10.9505 20.9767 10.8075 20.9214 10.674C20.8661 10.5405 20.785 10.4193 20.6829 10.3171C20.5807 10.215 20.4595 10.1339 20.326 10.0786C20.1925 10.0233 20.0495 9.99489 19.905 9.99489ZM18.7186 8.23087C19.0948 8.07508 19.4979 7.99489 19.905 7.99489C20.3121 7.99489 20.7152 8.07508 21.0914 8.23087C21.4675 8.38667 21.8092 8.61502 22.0971 8.90289C22.385 9.19077 22.6133 9.53252 22.7691 9.90864C22.9249 10.2848 23.0051 10.6879 23.0051 11.095C23.0051 11.5021 22.9249 11.9052 22.7691 12.2814C22.6133 12.6575 22.385 12.9992 22.0971 13.2871L22.0955 13.2887L17.6555 17.7087C17.5283 17.8353 17.3694 17.9254 17.1954 17.9694L13.2454 18.9694C12.9043 19.0558 12.5429 18.9565 12.2937 18.7079C12.0446 18.4594 11.9445 18.0982 12.03 17.7569L13.02 13.8069C13.0639 13.6316 13.1545 13.4716 13.2821 13.3437L17.7121 8.90369L17.7129 8.90289C18.0008 8.61502 18.3425 8.38667 18.7186 8.23087Z" fill="currentColor"/>
</svg>
