<svg viewBox="0 0 24 24" fill="none" xmlns="http://www.w3.org/2000/svg">
<path fill-rule="evenodd" clip-rule="evenodd" d="M3.87868 1.87868C4.44129 1.31607 5.20435 1 6 1H14.5C14.7652 1 15.0196 1.10536 15.2071 1.29289L20.7071 6.79289C20.8946 6.98043 21 7.23478 21 7.5V20C21 20.7957 20.6839 21.5587 20.1213 22.1213C19.5587 22.6839 18.7957 23 18 23H6C5.20435 23 4.44129 22.6839 3.87868 22.1213C3.31607 21.5587 3 20.7957 3 20V4C3 3.20435 3.31607 2.44129 3.87868 1.87868ZM18.0858 7L15 3.91421V7H18.0858ZM13 3V8C13 8.55228 13.4477 9 14 9H19V20C19 20.2652 18.8946 20.5196 18.7071 20.7071C18.5196 20.8946 18.2652 21 18 21H6C5.73478 21 5.48043 20.8946 5.29289 20.7071C5.10536 20.5196 5 20.2652 5 20V4C5 3.73478 5.10536 3.48043 5.29289 3.29289C5.48043 3.10536 5.73478 3 6 3H13ZM11.5 13C10.6716 13 10 13.6716 10 14.5C10 15.3284 10.6716 16 11.5 16C11.8516 16 12.1749 15.8791 12.4306 15.6765C12.4635 15.6296 12.501 15.5848 12.5429 15.5429C12.5848 15.501 12.6296 15.4635 12.6765 15.4306C12.8791 15.1749 13 14.8516 13 14.5C13 13.6716 12.3284 13 11.5 13ZM14.5793 16.1651C14.8476 15.6699 15 15.1028 15 14.5C15 12.567 13.433 11 11.5 11C9.567 11 8 12.567 8 14.5C8 16.433 9.567 18 11.5 18C12.1028 18 12.6699 17.8476 13.1651 17.5793L14.2929 18.7071C14.6834 19.0976 15.3166 19.0976 15.7071 18.7071C16.0976 18.3166 16.0976 17.6834 15.7071 17.2929L14.5793 16.1651Z" fill="currentColor"/>
</svg>
