<svg viewBox="0 0 24 24" fill="none" xmlns="http://www.w3.org/2000/svg">
<path fill-rule="evenodd" clip-rule="evenodd" d="M3.87868 1.87868C4.44129 1.31607 5.20435 1 6 1H14.5C14.7652 1 15.0196 1.10536 15.2071 1.29289L20.7071 6.79289C20.8946 6.98043 21 7.23478 21 7.5V20C21 20.7957 20.6839 21.5587 20.1213 22.1213C19.5587 22.6839 18.7957 23 18 23H4C3.44772 23 3 22.5523 3 22C3 21.4477 3.44772 21 4 21H18C18.2652 21 18.5196 20.8946 18.7071 20.7071C18.8946 20.5196 19 20.2652 19 20V9H14C13.4477 9 13 8.55228 13 8V3H6C5.73478 3 5.48043 3.10536 5.29289 3.29289C5.10536 3.48043 5 3.73478 5 4V7C5 7.55228 4.55228 8 4 8C3.44772 8 3 7.55228 3 7V4C3 3.20435 3.31607 2.44129 3.87868 1.87868ZM15 3.91421V7H18.0858L15 3.91421ZM7.47186 9.11833C7.79702 9.29235 8 9.6312 8 10V18C8 18.3688 7.79702 18.7077 7.47186 18.8817C7.1467 19.0557 6.75216 19.0366 6.4453 18.8321L3.69722 17H2C1.44772 17 1 16.5523 1 16V12C1 11.4477 1.44772 11 2 11H3.69722L6.4453 9.16795C6.75216 8.96338 7.1467 8.94431 7.47186 9.11833ZM6 11.8685L4.5547 12.8321C4.39043 12.9416 4.19742 13 4 13H3V15H4C4.19742 15 4.39043 15.0584 4.5547 15.1679L6 16.1315V11.8685ZM10.3753 10.2191C10.8066 9.87412 11.4359 9.94404 11.7809 10.3753C12.5756 11.3687 13 12.6644 13 14C13 15.3356 12.5756 16.6313 11.7809 17.6247C11.4359 18.056 10.8066 18.1259 10.3753 17.7809C9.94404 17.4359 9.87412 16.8066 10.2191 16.3753C10.7044 15.7687 11 14.9244 11 14C11 13.0756 10.7044 12.2313 10.2191 11.6247C9.87412 11.1934 9.94404 10.5641 10.3753 10.2191Z" fill="currentColor"/>
</svg>
