<svg viewBox="0 0 24 24" fill="none" xmlns="http://www.w3.org/2000/svg">
<path fill-rule="evenodd" clip-rule="evenodd" d="M12 3C7.05228 3 3 7.05228 3 12C3 12.5523 2.55228 13 2 13C1.44772 13 1 12.5523 1 12C1 5.94772 5.94772 1 12 1C13.7077 1 15.3919 1.3976 16.9193 2.1613C18.4468 2.92501 19.7754 4.03384 20.8 5.4C21.1314 5.84183 21.0418 6.46863 20.6 6.8C20.1582 7.13137 19.5314 7.04183 19.2 6.6C18.3617 5.48224 17.2746 4.575 16.0249 3.95016C14.7752 3.32531 13.3972 3 12 3Z" fill="currentColor"/>
<path fill-rule="evenodd" clip-rule="evenodd" d="M6.66968 9.05591C7.19109 9.23799 7.46617 9.80827 7.28409 10.3297C7.09992 10.8571 7 11.4158 7 12C7 15.0803 6.4903 18.1914 5.94868 19.8162C5.77404 20.3402 5.20772 20.6233 4.68377 20.4487C4.15983 20.274 3.87667 19.7077 4.05132 19.1838C4.5097 17.8086 5 14.9197 5 12C5 11.1842 5.14008 10.4029 5.39591 9.67032C5.57799 9.14891 6.14828 8.87383 6.66968 9.05591Z" fill="currentColor"/>
<path fill-rule="evenodd" clip-rule="evenodd" d="M17.8868 17.0047C18.4365 17.0581 18.8388 17.5471 18.7853 18.0968C18.7098 18.8735 18.3898 20.6199 18.2706 21.2161C18.1623 21.7577 17.6354 22.1089 17.0939 22.0006C16.5523 21.8923 16.2011 21.3654 16.3094 20.8239C16.4302 20.2201 16.7302 18.5665 16.7947 17.9032C16.8481 17.3535 17.3371 16.9513 17.8868 17.0047Z" fill="currentColor"/>
<path fill-rule="evenodd" clip-rule="evenodd" d="M9.87868 9.87868C10.4413 9.31607 11.2043 9 12 9C12.5523 9 13 9.44772 13 10C13 10.5523 12.5523 11 12 11C11.7348 11 11.4804 11.1054 11.2929 11.2929C11.1054 11.4804 11 11.7348 11 12C11 13.0699 10.8962 14.599 10.7343 16.1068C10.6753 16.6559 10.1824 17.0533 9.63323 16.9943C9.0841 16.9353 8.68675 16.4424 8.74572 15.8932C8.90381 14.421 9 12.9701 9 12C9 11.2043 9.31607 10.4413 9.87868 9.87868Z" fill="currentColor"/>
<path fill-rule="evenodd" clip-rule="evenodd" d="M9.39379 19.0152C9.93767 19.1112 10.3008 19.6299 10.2048 20.1738C10.0942 20.8007 9.89058 21.422 9.71472 21.9588C9.67565 22.0781 9.63794 22.1932 9.60293 22.3032C9.43547 22.8295 8.87308 23.1204 8.3468 22.9529C7.82051 22.7855 7.52962 22.2231 7.69707 21.6968C7.74315 21.552 7.78834 21.4135 7.83199 21.2796C8.00377 20.7531 8.15166 20.2997 8.23522 19.8262C8.3312 19.2823 8.8499 18.9192 9.39379 19.0152Z" fill="currentColor"/>
<path fill-rule="evenodd" clip-rule="evenodd" d="M14 12.12C14.5523 12.12 15 12.5677 15 13.12V13.1316C15 14.3171 15 15.9437 14.872 17.5924C14.7448 19.2306 14.4859 20.9777 13.9285 22.3714C13.7234 22.8842 13.1414 23.1336 12.6286 22.9285C12.1158 22.7234 11.8664 22.1414 12.0715 21.6286C12.5141 20.5223 12.7552 19.0194 12.878 17.4376C12.9996 15.8716 13 14.3135 13 13.12C13 12.5677 13.4477 12.12 14 12.12Z" fill="currentColor"/>
<path fill-rule="evenodd" clip-rule="evenodd" d="M1 16C1 15.4477 1.44772 15 2 15H2.01C2.56228 15 3.01 15.4477 3.01 16C3.01 16.5523 2.56228 17 2.01 17H2C1.44772 17 1 16.5523 1 16Z" fill="currentColor"/>
<path fill-rule="evenodd" clip-rule="evenodd" d="M21.6013 9.01995C22.1425 8.91019 22.6703 9.25999 22.7801 9.80126C22.83 10.0478 22.8609 10.4521 22.8821 10.879C22.9048 11.3325 22.9197 11.8893 22.9241 12.4849C22.9328 13.669 22.9002 15.048 22.795 16.0995C22.7401 16.649 22.25 17.05 21.7005 16.995C21.151 16.9401 20.75 16.45 20.805 15.9005C20.8998 14.952 20.9327 13.654 20.9242 12.4996C20.9199 11.9259 20.9055 11.3981 20.8846 10.9786C20.8624 10.5324 20.8355 10.2752 20.8199 10.1987C20.7102 9.65747 21.06 9.12971 21.6013 9.01995Z" fill="currentColor"/>
<path fill-rule="evenodd" clip-rule="evenodd" d="M12.0008 6.99615C11.1228 6.99601 10.2603 7.22705 9.5 7.66603C9.02171 7.94217 8.41012 7.77829 8.13398 7.3C7.85783 6.82171 8.02171 6.21012 8.5 5.93397C9.56446 5.31941 10.772 4.99595 12.0011 4.99615C13.2303 4.99635 14.4377 5.32019 15.5019 5.9351C16.5662 6.55001 17.4498 7.43431 18.0639 8.49907C18.6779 9.56383 19.0008 10.7715 19 12.0006C19 12.4713 19 13.182 18.9797 14.0241C18.9664 14.5762 18.508 15.013 17.9559 14.9997C17.4038 14.9864 16.967 14.528 16.9803 13.9759C17 13.1589 17 12.4693 17 12C17.0006 11.122 16.7699 10.2588 16.3313 9.49823C15.8927 8.73769 15.2616 8.10605 14.5014 7.66683C13.7412 7.2276 12.8788 6.99629 12.0008 6.99615Z" fill="currentColor"/>
</svg>
