<svg viewBox="0 0 24 24" fill="none" xmlns="http://www.w3.org/2000/svg">
<path fill-rule="evenodd" clip-rule="evenodd" d="M1.87868 2.87868C2.44129 2.31607 3.20435 2 4 2H7.93517C8.42929 2.00256 8.91513 2.12714 9.34953 2.36265C9.78116 2.59667 10.1487 2.93304 10.42 3.34218L11.2356 4.53581L11.2452 4.55001C11.3358 4.68757 11.4589 4.80063 11.6037 4.87913C11.7479 4.9573 11.9091 4.9988 12.073 5H20C20.7957 5 21.5587 5.31607 22.1213 5.87868C22.6839 6.44129 23 7.20435 23 8V20C23 20.5523 22.5523 21 22 21C21.4477 21 21 20.5523 21 20V8C21 7.73478 20.8946 7.48043 20.7071 7.29289C20.5196 7.10536 20.2652 7 20 7H12.0648C11.5707 6.99744 11.0849 6.87286 10.6505 6.63735C10.2188 6.40333 9.85128 6.06696 9.58001 5.65782L8.76436 4.46419L8.75483 4.44999C8.66424 4.31243 8.54107 4.19937 8.39628 4.12087C8.25211 4.0427 8.09094 4.0012 7.92697 4H4C3.73478 4 3.48043 4.10536 3.29289 4.29289C3.10536 4.48043 3 4.73478 3 5V18C3 18.5477 3.45228 19 4 19H10C10.5523 19 11 19.4477 11 20C11 20.5523 10.5523 21 10 21H4C2.34772 21 1 19.6523 1 18V5C1 4.20435 1.31607 3.44129 1.87868 2.87868ZM16 9C16.5523 9 17 9.44772 17 10V11C17 11.5523 16.5523 12 16 12C15.4477 12 15 11.5523 15 11V10C15 9.44772 15.4477 9 16 9ZM16 14C16.5523 14 17 14.4477 17 15V16.1707C18.1652 16.5825 19 17.6938 19 19C19 20.6569 17.6569 22 16 22C14.3431 22 13 20.6569 13 19C13 17.6938 13.8348 16.5825 15 16.1707V15C15 14.4477 15.4477 14 16 14ZM16 18C15.4477 18 15 18.4477 15 19C15 19.5523 15.4477 20 16 20C16.5523 20 17 19.5523 17 19C17 18.4477 16.5523 18 16 18Z" fill="currentColor"/>
</svg>
