<svg viewBox="0 0 24 24" fill="none" xmlns="http://www.w3.org/2000/svg">
<path fill-rule="evenodd" clip-rule="evenodd" d="M4 4C3.45228 4 3 4.45228 3 5V9C3 9.55228 2.55228 10 2 10C1.44772 10 1 9.55228 1 9V5C1 3.34772 2.34772 2 4 2H7.93517C8.42929 2.00256 8.91513 2.12714 9.34953 2.36265C9.78116 2.59667 10.1487 2.93304 10.42 3.34218L11.2356 4.53581L11.2452 4.55001C11.3358 4.68757 11.4589 4.80063 11.6037 4.87913C11.7479 4.9573 11.9091 4.9988 12.073 5H20C20.7957 5 21.5587 5.31607 22.1213 5.87868C22.6839 6.44129 23 7.20435 23 8V18C23 18.7957 22.6839 19.5587 22.1213 20.1213C21.5587 20.6839 20.7957 21 20 21H2C1.44772 21 1 20.5523 1 20C1 19.4477 1.44772 19 2 19H20C20.2652 19 20.5196 18.8946 20.7071 18.7071C20.8946 18.5196 21 18.2652 21 18V8C21 7.73478 20.8946 7.48043 20.7071 7.29289C20.5196 7.10536 20.2652 7 20 7H12.0648C11.5707 6.99744 11.0849 6.87286 10.6505 6.63735C10.2188 6.40333 9.85128 6.06696 9.58001 5.65782L8.76436 4.46419L8.75483 4.44999C8.66424 4.31243 8.54107 4.19937 8.39628 4.12087C8.25211 4.0427 8.09094 4.0012 7.92697 4H4ZM7.29289 9.29289C7.68342 8.90237 8.31658 8.90237 8.70711 9.29289L11.7071 12.2929C12.0976 12.6834 12.0976 13.3166 11.7071 13.7071L8.70711 16.7071C8.31658 17.0976 7.68342 17.0976 7.29289 16.7071C6.90237 16.3166 6.90237 15.6834 7.29289 15.2929L8.58579 14H4C3.73478 14 3.48043 14.1054 3.29289 14.2929C3.10536 14.4804 3 14.7348 3 15V16C3 16.5523 2.55228 17 2 17C1.44772 17 1 16.5523 1 16V15C1 14.2044 1.31607 13.4413 1.87868 12.8787C2.44129 12.3161 3.20435 12 4 12H8.58579L7.29289 10.7071C6.90237 10.3166 6.90237 9.68342 7.29289 9.29289Z" fill="currentColor"/>
</svg>
