<svg viewBox="0 0 24 24" fill="none" xmlns="http://www.w3.org/2000/svg">
<path fill-rule="evenodd" clip-rule="evenodd" d="M4 4C3.45228 4 3 4.45228 3 5V18C3 18.2652 3.10536 18.5196 3.29289 18.7071C3.48043 18.8946 3.73478 19 4 19H10C10.5523 19 11 19.4477 11 20C11 20.5523 10.5523 21 10 21H4C3.20435 21 2.44129 20.6839 1.87868 20.1213C1.31607 19.5587 1 18.7957 1 18V5C1 3.34772 2.34772 2 4 2H7.93517C8.42929 2.00256 8.91513 2.12714 9.34953 2.36265C9.78116 2.59667 10.1487 2.93304 10.42 3.34218L11.2356 4.53581L11.2452 4.55001C11.3358 4.68757 11.4589 4.80063 11.6037 4.87913C11.7479 4.9573 11.9091 4.9988 12.073 5H20C20.7957 5 21.5587 5.31607 22.1213 5.87868C22.6839 6.44129 23 7.20435 23 8V10.5C23 11.0523 22.5523 11.5 22 11.5C21.4477 11.5 21 11.0523 21 10.5V8C21 7.73478 20.8946 7.48043 20.7071 7.29289C20.5196 7.10536 20.2652 7 20 7H12.0648C11.5707 6.99744 11.0849 6.87286 10.6505 6.63735C10.2188 6.40333 9.85128 6.06696 9.58001 5.65782L8.76436 4.46419L8.75483 4.44999C8.66424 4.31243 8.54107 4.19937 8.39628 4.12087C8.25211 4.0427 8.09094 4.0012 7.92697 4H4ZM15.8787 12.8787C16.4413 12.3161 17.2043 12 18 12C18.7957 12 19.5587 12.3161 20.1213 12.8787C20.6839 13.4413 21 14.2043 21 15V16C22.1046 16 23 16.8954 23 18V21C23 22.1046 22.1046 23 21 23H15C13.8954 23 13 22.1046 13 21V18C13 16.8954 13.8954 16 15 16V15C15 14.2043 15.3161 13.4413 15.8787 12.8787ZM15 18V21H21V18H15ZM19 16H17V15C17 14.7348 17.1054 14.4804 17.2929 14.2929C17.4804 14.1054 17.7348 14 18 14C18.2652 14 18.5196 14.1054 18.7071 14.2929C18.8946 14.4804 19 14.7348 19 15V16Z" fill="currentColor"/>
</svg>
