<svg viewBox="0 0 24 24" fill="none" xmlns="http://www.w3.org/2000/svg">
<path fill-rule="evenodd" clip-rule="evenodd" d="M4 4C3.45228 4 3 4.45228 3 5V18C3 18.2652 3.10536 18.5196 3.29289 18.7071C3.48043 18.8946 3.73478 19 4 19H11C11.5523 19 12 19.4477 12 20C12 20.5523 11.5523 21 11 21H4C3.20435 21 2.44129 20.6839 1.87868 20.1213C1.31607 19.5587 1 18.7957 1 18V5C1 3.34772 2.34772 2 4 2H7.93517C8.42929 2.00256 8.91513 2.12714 9.34953 2.36265C9.78116 2.59667 10.1487 2.93304 10.42 3.34218L11.2356 4.53581L11.2452 4.55001C11.3358 4.68757 11.4589 4.80063 11.6037 4.87913C11.7479 4.9573 11.9091 4.9988 12.073 5H20C20.7957 5 21.5587 5.31607 22.1213 5.87868C22.6839 6.44129 23 7.20435 23 8V9.5C23 10.0523 22.5523 10.5 22 10.5C21.4477 10.5 21 10.0523 21 9.5V8C21 7.73478 20.8946 7.48043 20.7071 7.29289C20.5196 7.10536 20.2652 7 20 7H12.0648C11.5707 6.99744 11.0849 6.87286 10.6505 6.63735C10.2188 6.40333 9.85128 6.06696 9.58001 5.65782L8.76436 4.46419L8.75483 4.44999C8.66424 4.31243 8.54107 4.19937 8.39628 4.12087C8.25211 4.0427 8.09094 4.0012 7.92697 4H4ZM18.2616 12.2543C18.886 11.9953 19.573 11.9265 20.2364 12.0567C20.9023 12.1873 21.5144 12.5125 21.9954 12.9911C22.0275 13.0232 22.0573 13.0571 22.0845 13.0928C23.3733 14.4658 23.3251 16.6264 21.81 18.1542L21.8022 18.1621L18.2021 21.712C17.8124 22.0964 17.1861 22.0959 16.7969 21.7111L13.1999 18.1542C11.6557 16.5971 11.6204 14.3727 13.0048 13.0009C13.3174 12.6889 13.6864 12.4293 14.1231 12.2537C14.7492 11.996 15.4376 11.9293 16.1016 12.0621C16.6093 12.1636 17.0853 12.3783 17.4952 12.6877C17.7291 12.5115 17.9858 12.3654 18.2616 12.2543ZM19.8513 14.0193C19.5737 13.9648 19.2862 13.9939 19.0252 14.1028L19.0114 14.1085C18.8408 14.1767 18.6841 14.2801 18.5471 14.4171L18.2071 14.7571C17.8206 15.1436 17.1953 15.1482 16.8032 14.7673L16.4532 14.4273L16.4417 14.4159C16.2419 14.2154 15.987 14.0787 15.7094 14.0232C15.4317 13.9677 15.1439 13.9958 14.8823 14.1041L14.8714 14.1085C14.7114 14.1725 14.5628 14.2714 14.4171 14.4171L14.4134 14.4208C13.9002 14.9286 13.7652 15.8812 14.6168 16.7426L17.501 19.5946L20.3936 16.7422C21.2396 15.886 21.1045 14.9333 20.5866 14.4208C20.5635 14.398 20.5417 14.3741 20.5211 14.3493C20.3314 14.1823 20.1004 14.0681 19.8513 14.0193Z" fill="currentColor"/>
</svg>
