<svg viewBox="0 0 24 24" fill="none" xmlns="http://www.w3.org/2000/svg">
<path fill-rule="evenodd" clip-rule="evenodd" d="M4.00002 4C3.45231 4 3.00002 4.45228 3.00002 5V11.5C3.00002 12.0523 2.55231 12.5 2.00002 12.5C1.44774 12.5 1.00002 12.0523 1.00002 11.5V5C1.00002 3.34772 2.34774 2 4.00002 2H7.93519C8.42932 2.00256 8.91516 2.12714 9.34955 2.36265C9.78119 2.59667 10.1487 2.93304 10.42 3.34218L11.2357 4.53581L11.2452 4.55001C11.3358 4.68757 11.4589 4.80063 11.6037 4.87913C11.7479 4.9573 11.9091 4.9988 12.0731 5H20C20.7957 5 21.5587 5.31607 22.1213 5.87868C22.684 6.44129 23 7.20435 23 8V18C23 18.7957 22.684 19.5587 22.1213 20.1213C21.5587 20.6839 20.7957 21 20 21H10.5C9.94774 21 9.50002 20.5523 9.50002 20C9.50002 19.4477 9.94774 19 10.5 19H20C20.2652 19 20.5196 18.8946 20.7071 18.7071C20.8947 18.5196 21 18.2652 21 18V8C21 7.73478 20.8947 7.48043 20.7071 7.29289C20.5196 7.10536 20.2652 7 20 7H12.0648C11.5707 6.99744 11.0849 6.87286 10.6505 6.63735C10.2189 6.40333 9.8513 6.06696 9.58003 5.65782L8.76438 4.46419L8.75485 4.44999C8.66426 4.31243 8.5411 4.19937 8.3963 4.12087C8.25213 4.0427 8.09096 4.0012 7.92699 4H4.00002ZM9.90502 10.9949C9.76055 10.9949 9.6175 11.0233 9.48403 11.0786C9.35077 11.1338 9.22967 11.2147 9.12761 11.3166C9.12745 11.3168 9.12778 11.3165 9.12761 11.3166L3.89288 16.561L3.37685 18.6199L5.4386 18.0979L10.6829 12.8729C10.6831 12.8727 10.6828 12.873 10.6829 12.8729C10.7849 12.7708 10.8662 12.6493 10.9214 12.516C10.9767 12.3825 11.0051 12.2395 11.0051 12.095C11.0051 11.9505 10.9767 11.8075 10.9214 11.674C10.8661 11.5405 10.7851 11.4193 10.6829 11.3171C10.5808 11.215 10.4595 11.1339 10.326 11.0786C10.1925 11.0233 10.0495 10.9949 9.90502 10.9949ZM8.71866 9.23087C9.09479 9.07508 9.49791 8.99489 9.90502 8.99489C10.3121 8.99489 10.7153 9.07508 11.0914 9.23087C11.4675 9.38667 11.8093 9.61502 12.0971 9.90289C12.385 10.1908 12.6134 10.5325 12.7691 10.9086C12.9249 11.2848 13.0051 11.6879 13.0051 12.095C13.0051 12.5021 12.9249 12.9052 12.7691 13.2814C12.6134 13.6575 12.385 13.9992 12.0971 14.2871L6.65582 19.7084C6.52859 19.8352 6.36956 19.9253 6.19544 19.9694L2.24544 20.9694C1.90431 21.0558 1.54288 20.9565 1.29376 20.7079C1.04463 20.4594 0.944472 20.0982 1.03002 19.7569L2.02002 15.8069C2.06396 15.6316 2.15459 15.4715 2.28226 15.3435L7.71226 9.90354C8.00014 9.61567 8.34254 9.38667 8.71866 9.23087Z" fill="currentColor"/>
</svg>
