<svg viewBox="0 0 24 24" fill="none" xmlns="http://www.w3.org/2000/svg">
<path fill-rule="evenodd" clip-rule="evenodd" d="M4 4C3.45228 4 3 4.45228 3 5V18C3 18.2652 3.10536 18.5196 3.29289 18.7071C3.48043 18.8946 3.73478 19 4 19H10C10.5523 19 11 19.4477 11 20C11 20.5523 10.5523 21 10 21H4C3.20435 21 2.44129 20.6839 1.87868 20.1213C1.31607 19.5587 1 18.7957 1 18V5C1 3.34772 2.34772 2 4 2H7.93517C8.42929 2.00256 8.91513 2.12714 9.34953 2.36265C9.78116 2.59667 10.1487 2.93304 10.42 3.34218L11.2356 4.53581L11.2452 4.55001C11.3358 4.68757 11.4589 4.80063 11.6037 4.87913C11.7479 4.9573 11.9091 4.9988 12.073 5H20C20.7957 5 21.5587 5.31607 22.1213 5.87868C22.6839 6.44129 23 7.20435 23 8V10C23 10.5523 22.5523 11 22 11C21.4477 11 21 10.5523 21 10V8C21 7.73478 20.8946 7.48043 20.7071 7.29289C20.5196 7.10536 20.2652 7 20 7H12.0648C11.5707 6.99744 11.0849 6.87286 10.6505 6.63735C10.2188 6.40333 9.85128 6.06696 9.58001 5.65782L8.76436 4.46419L8.75483 4.44999C8.66424 4.31243 8.54107 4.19937 8.39628 4.12087C8.25211 4.0427 8.09094 4.0012 7.92697 4H4ZM22.7071 13.2929C23.0976 13.6834 23.0976 14.3166 22.7071 14.7071L22.4142 15L22.7071 15.2929C23.0976 15.6834 23.0976 16.3166 22.7071 16.7071C22.3166 17.0976 21.6834 17.0976 21.2929 16.7071L21 16.4142L18.7076 18.7066C18.895 19.0982 19 19.5369 19 20C19 21.6569 17.6569 23 16 23C14.3431 23 13 21.6569 13 20C13 18.3431 14.3431 17 16 17C16.4631 17 16.9018 17.105 17.2934 17.2924L20.2925 14.2933C20.2926 14.2932 20.2924 14.2934 20.2925 14.2933C20.2926 14.2932 20.2932 14.2926 20.2933 14.2925L21.2929 13.2929C21.6834 12.9024 22.3166 12.9024 22.7071 13.2929ZM16 19C15.4477 19 15 19.4477 15 20C15 20.5523 15.4477 21 16 21C16.5523 21 17 20.5523 17 20C17 19.4477 16.5523 19 16 19Z" fill="currentColor"/>
</svg>
