<svg viewBox="0 0 24 24" fill="none" xmlns="http://www.w3.org/2000/svg">
  <path
    d="M5.62499 19.7391C5.62499 19.884 5.57507 19.9311 5.44835 19.9311H3.01001C2.88329 19.9311 2.83337 19.884 2.83337 19.7246V4.14485C2.83337 4.03978 2.88329 3.99268 3.01001 3.99268H11.5384C11.6882 3.99268 11.7151 4.03978 11.742 4.15934L11.9954 6.16297C12.0184 6.30427 11.9455 6.355 11.7765 6.36586H5.63267V11.0325H11.1429C11.2696 11.0325 11.3234 11.0543 11.3234 11.1992V13.0651C11.3234 13.2064 11.2696 13.2318 11.1429 13.2318H5.62499V19.7391Z"
    fill="currentColor" />
  <path
    d="M14.3454 10.6013C14.3454 10.4346 14.3454 10.0035 14.2686 9.18463C14.2686 9.06506 14.2954 9.04332 14.3953 8.9926C16.1804 8.34063 18.0759 7.99937 19.99 7.98535C20.1167 7.98535 20.1667 8.01071 20.1667 8.13028V10.2426C20.1667 10.3622 20.1167 10.3875 19.99 10.3875C19.035 10.3418 18.079 10.4583 17.1677 10.7317V19.8332C17.1677 19.9527 17.1178 19.9998 16.991 19.9998L14.522 19.9455C14.3953 19.9455 14.3454 19.8948 14.3454 19.7752V10.6013Z"
    fill="currentColor" />
</svg>