<svg viewBox="0 0 24 24" fill="none" xmlns="http://www.w3.org/2000/svg">
  <path
    d="M5.34001 19.4738C5.34001 19.6179 5.29952 19.6648 5.17437 19.6648H2.96583C2.88485 19.6648 2.84436 19.5927 2.84436 19.4738V4.1622C2.84436 4.02163 2.86276 4 2.98792 4H10.9607C11.0859 4 11.1264 4.02163 11.1485 4.1622L11.3325 6.07614C11.3546 6.21672 11.3325 6.2888 11.1889 6.2888H5.34001V10.7871H10.589C10.7104 10.7871 10.7546 10.834 10.7546 10.9529V12.9137C10.7576 12.9357 10.7555 12.9581 10.7482 12.9791C10.741 13.0002 10.7288 13.0193 10.7128 13.035C10.6968 13.0507 10.6773 13.0626 10.6558 13.0696C10.6343 13.0767 10.6114 13.0789 10.589 13.0759H5.34001V19.4738Z"
    fill="currentColor" />
  <path
    d="M16.6514 10.0878C15.6502 10.0878 15.3889 10.7006 15.3889 11.1475C15.3889 11.7134 15.6502 12.0234 17.1815 12.7299C19.2796 13.7211 20.174 14.5934 20.174 16.2946C20.174 18.6555 18.606 20 16.3643 20C15.2858 20 13.9239 19.8991 13.0515 19.2791C13.0103 19.2557 12.9769 19.2211 12.9554 19.1796C12.9338 19.138 12.925 19.0912 12.93 19.0448V16.8822C12.93 16.7668 13.011 16.7164 13.0736 16.7668C14.0347 17.4493 15.1997 17.8004 16.3864 17.7652C16.5479 17.7839 16.7116 17.7683 16.8664 17.7196C17.0212 17.6708 17.1635 17.59 17.2836 17.4827C17.4037 17.3753 17.4988 17.2439 17.5625 17.0974C17.6262 16.9509 17.6569 16.7926 17.6526 16.6335C17.6526 16.0207 17.4244 15.6675 15.9594 14.9826C13.8466 13.9842 12.9705 13.13 12.9705 11.4071C12.9705 9.49672 14.4429 7.90356 16.8428 7.90356C18.087 7.90356 18.963 7.936 19.5335 8.31086C19.5777 8.34921 19.6118 8.39739 19.6329 8.45134C19.654 8.50529 19.6616 8.56342 19.655 8.62084V10.5708C19.655 10.7114 19.574 10.7835 19.471 10.7114C18.7385 10.2392 17.7005 10.0878 16.6514 10.0878Z"
    fill="currentColor" />
</svg>