<svg viewBox="0 0 24 24" fill="none" xmlns="http://www.w3.org/2000/svg">
<path fill-rule="evenodd" clip-rule="evenodd" d="M5 11C5 10.4477 5.44772 10 6 10H10C10.5523 10 11 10.4477 11 11C11 11.5523 10.5523 12 10 12H6C5.44772 12 5 11.5523 5 11Z" fill="currentColor"/>
<path fill-rule="evenodd" clip-rule="evenodd" d="M8 8C8.55228 8 9 8.44772 9 9V13C9 13.5523 8.55228 14 8 14C7.44772 14 7 13.5523 7 13V9C7 8.44772 7.44772 8 8 8Z" fill="currentColor"/>
<path fill-rule="evenodd" clip-rule="evenodd" d="M14 12C14 11.4477 14.4477 11 15 11H15.01C15.5623 11 16.01 11.4477 16.01 12C16.01 12.5523 15.5623 13 15.01 13H15C14.4477 13 14 12.5523 14 12Z" fill="currentColor"/>
<path fill-rule="evenodd" clip-rule="evenodd" d="M17 10C17 9.44772 17.4477 9 18 9H18.01C18.5623 9 19.01 9.44772 19.01 10C19.01 10.5523 18.5623 11 18.01 11H18C17.4477 11 17 10.5523 17 10Z" fill="currentColor"/>
<path fill-rule="evenodd" clip-rule="evenodd" d="M3.33106 5.28808C4.2495 4.45922 5.44262 4.00029 6.67977 4H12C12.5523 4 13 4.44772 13 5C13 5.55228 12.5523 6 12 6H6.68023C6.68016 6 6.68031 6 6.68023 6C5.93803 6.00023 5.22202 6.27558 4.67101 6.77285C4.11994 7.27016 3.77282 7.95412 3.69673 8.6925L3.69548 8.70463C3.69546 8.70484 3.69525 8.70616 3.69501 8.70844C3.69304 8.72754 3.68414 8.81356 3.67713 8.86736C3.58858 9.60434 3 14.5373 3 16C3 16.5304 3.21071 17.0391 3.58579 17.4142C3.96086 17.7893 4.46957 18 5 18C5.56032 18 5.8034 17.7824 6.29289 17.2929L7.70679 15.879C7.70682 15.879 7.70675 15.879 7.70679 15.879C8.26925 15.3164 9.03225 15.0002 9.82779 15H12C12.5523 15 13 15.4477 13 16C13 16.5523 12.5523 17 12 17H9.82821C9.82814 17 9.82829 17 9.82821 17C9.5631 17.0001 9.30866 17.1055 9.12121 17.293L7.70711 18.7071C7.69846 18.7158 7.68974 18.7245 7.68094 18.7333C7.17075 19.2439 6.41529 20 5 20C3.93913 20 2.92172 19.5786 2.17157 18.8284C1.42143 18.0783 1 17.0609 1 16C1 14.3819 1.61371 9.2753 1.69169 8.62648L1.69214 8.62268L1.69429 8.60602C1.69719 8.58487 1.69789 8.57744 1.69914 8.56403C1.70044 8.55014 1.70234 8.52984 1.70791 8.48127C1.83603 7.25302 2.41417 6.11554 3.33106 5.28808Z" fill="currentColor"/>
<path fill-rule="evenodd" clip-rule="evenodd" d="M20.6689 5.28808C19.7505 4.45922 18.5574 4.00029 17.3202 4H12C11.4477 4 11 4.44772 11 5C11 5.55228 11.4477 6 12 6H17.3198C17.3198 6 17.3197 6 17.3198 6C18.062 6.00023 18.778 6.27558 19.329 6.77285C19.8801 7.27016 20.2272 7.95412 20.3033 8.6925L20.3045 8.70463C20.3045 8.70484 20.3048 8.70616 20.305 8.70844C20.307 8.72754 20.3159 8.81356 20.3229 8.86736C20.4114 9.60434 21 14.5373 21 16C21 16.5304 20.7893 17.0391 20.4142 17.4142C20.0391 17.7893 19.5304 18 19 18C18.4397 18 18.1966 17.7824 17.7071 17.2929L16.2932 15.879C16.2932 15.879 16.2932 15.879 16.2932 15.879C15.7307 15.3164 14.9677 15.0002 14.1722 15H12C11.4477 15 11 15.4477 11 16C11 16.5523 11.4477 17 12 17H14.1718C14.1719 17 14.1717 17 14.1718 17C14.4369 17.0001 14.6913 17.1055 14.8788 17.293L16.2929 18.7071C16.3015 18.7158 16.3103 18.7245 16.3191 18.7333C16.8292 19.2439 17.5847 20 19 20C20.0609 20 21.0783 19.5786 21.8284 18.8284C22.5786 18.0783 23 17.0609 23 16C23 14.3819 22.3863 9.2753 22.3083 8.62648L22.3079 8.62268L22.3057 8.60602C22.3028 8.58487 22.3021 8.57744 22.3009 8.56403C22.2996 8.55014 22.2977 8.52984 22.2921 8.48127C22.164 7.25302 21.5858 6.11554 20.6689 5.28808Z" fill="currentColor"/>
</svg>
