<svg viewBox="0 0 24 24" fill="none" xmlns="http://www.w3.org/2000/svg">
<path fill-rule="evenodd" clip-rule="evenodd" d="M7.5 10C7.5 9.17157 8.17157 8.5 9 8.5H9.01C9.83843 8.5 10.51 9.17157 10.51 10C10.51 10.8284 9.83843 11.5 9.01 11.5H9C8.17157 11.5 7.5 10.8284 7.5 10Z" fill="currentColor"/>
<path fill-rule="evenodd" clip-rule="evenodd" d="M13.5 10C13.5 9.17157 14.1716 8.5 15 8.5H15.01C15.8384 8.5 16.51 9.17157 16.51 10C16.51 10.8284 15.8384 11.5 15.01 11.5H15C14.1716 11.5 13.5 10.8284 13.5 10Z" fill="currentColor"/>
<path fill-rule="evenodd" clip-rule="evenodd" d="M5.63604 3.63604C7.32387 1.94821 9.61305 1 12 1C14.3869 1 16.6761 1.94821 18.364 3.63604C20.0518 5.32387 21 7.61305 21 10V22C21 22.4045 20.7564 22.7691 20.3827 22.9239C20.009 23.0787 19.5789 22.9931 19.2929 22.7071L17 20.4142L15.2071 22.2071C14.8166 22.5976 14.1834 22.5976 13.7929 22.2071L12 20.4142L10.2071 22.2071C9.81658 22.5976 9.18342 22.5976 8.79289 22.2071L7 20.4142L4.70711 22.7071C4.42111 22.9931 3.99099 23.0787 3.61732 22.9239C3.24364 22.7691 3 22.4045 3 22V10C3 7.61305 3.94821 5.32387 5.63604 3.63604ZM12 3C10.1435 3 8.36301 3.7375 7.05025 5.05025C5.7375 6.36301 5 8.14348 5 10V19.5858L6.29289 18.2929C6.68342 17.9024 7.31658 17.9024 7.70711 18.2929L9.5 20.0858L11.2929 18.2929C11.6834 17.9024 12.3166 17.9024 12.7071 18.2929L14.5 20.0858L16.2929 18.2929C16.6834 17.9024 17.3166 17.9024 17.7071 18.2929L19 19.5858V10C19 8.14348 18.2625 6.36301 16.9497 5.05025C15.637 3.7375 13.8565 3 12 3Z" fill="currentColor"/>
</svg>
