<svg viewBox="0 0 24 24" fill="none" xmlns="http://www.w3.org/2000/svg">
<path d="M3 4C3 3.44772 3.44772 3 4 3H20C20.5523 3 21 3.44772 21 4V20C21 20.5523 20.5523 21 20 21H4C3.44772 21 3 20.5523 3 20V4Z" stroke="currentColor" stroke-width="2"/>
<path d="M8.30618 11.5845H10.5755V14.2071C10.3054 14.2934 9.99346 14.3638 9.63979 14.4183C9.29104 14.4728 8.9251 14.5 8.54196 14.5C8.03603 14.5 7.59149 14.4092 7.20835 14.2275C6.83013 14.0459 6.53295 13.7688 6.31682 13.3965C6.10561 13.0241 6 12.554 6 11.9864C6 11.4777 6.10561 11.0372 6.31682 10.6649C6.52804 10.2925 6.8375 10.0064 7.24519 9.80654C7.6578 9.60218 8.16374 9.5 8.763 9.5C9.09211 9.5 9.40402 9.52952 9.69874 9.58856C9.99346 9.64305 10.2489 9.71571 10.465 9.80654L10.0156 10.8352C9.82891 10.7489 9.63243 10.6853 9.42612 10.6444C9.21982 10.599 9.00123 10.5763 8.77037 10.5763C8.456 10.5763 8.20303 10.6421 8.01147 10.7738C7.8199 10.9055 7.6799 11.0804 7.59149 11.2984C7.50798 11.5163 7.46623 11.757 7.46623 12.0204C7.46623 12.4746 7.56938 12.822 7.77569 13.0627C7.98199 13.2988 8.27671 13.4169 8.65985 13.4169C8.74335 13.4169 8.84405 13.4124 8.96194 13.4033C9.08474 13.3896 9.17807 13.376 9.24192 13.3624V12.5995H8.30618V11.5845Z" fill="currentColor"/>
<path d="M14.0697 14.4319H11.3288V13.6826L11.9845 13.451V10.5422L11.3288 10.3174V9.56812H14.0697V10.3174L13.4139 10.5422V13.451L14.0697 13.6826V14.4319Z" fill="currentColor"/>
<path d="M16.2906 14.4319H14.8907V9.56812H18V10.624H16.2906V11.5504H17.8674V12.6063H16.2906V14.4319Z" fill="currentColor"/>
</svg>
