<svg viewBox="0 0 24 24" fill="none" xmlns="http://www.w3.org/2000/svg">
  <path fill-rule="evenodd" clip-rule="evenodd"
    d="M10.3267 9.50612L9.21007 10.5891C8.71486 10.1331 8.11283 10.0096 7.65646 10.0096C6.54951 10.0096 5.83096 10.6556 5.83096 11.9571C5.83096 12.8121 6.28734 13.8666 7.65646 13.8666C8.01573 13.8666 8.57892 13.8001 8.96732 13.5246V12.6696H7.24864V11.1971H10.5695V14.1516C10.1422 14.9971 8.95761 15.4531 7.64675 15.4531C4.95706 15.4531 3.9375 13.6956 3.9375 11.9571C3.9375 10.2186 5.10271 8.43262 7.65646 8.43262C8.59834 8.43262 9.4334 8.62262 10.3267 9.50612ZM13.8254 15.2727H11.9125V8.62268H13.8254V15.2727ZM17.363 15.2727H15.4598V8.62268H20.6741V10.1997H17.363V11.4442H20.4702V12.9832H17.363V15.2727Z"
    fill="currentColor" />
</svg>