<svg viewBox="0 0 24 24" fill="none" xmlns="http://www.w3.org/2000/svg">
<path fill-rule="evenodd" clip-rule="evenodd" d="M6 4C4.89543 4 4 4.89543 4 6C4 7.10457 4.89543 8 6 8C7.10457 8 8 7.10457 8 6C8 4.89543 7.10457 4 6 4ZM2 6C2 3.79086 3.79086 2 6 2C8.20914 2 10 3.79086 10 6C10 7.86384 8.72523 9.42994 7 9.87398V10C7 10.2652 7.10536 10.5196 7.29289 10.7071C7.48043 10.8946 7.73478 11 8 11H16C16.2652 11 16.5196 10.8946 16.7071 10.7071C16.8946 10.5196 17 10.2652 17 10V9.87398C15.2748 9.42994 14 7.86384 14 6C14 3.79086 15.7909 2 18 2C20.2091 2 22 3.79086 22 6C22 7.86384 20.7252 9.42994 19 9.87398V10C19 10.7957 18.6839 11.5587 18.1213 12.1213C17.5587 12.6839 16.7957 13 16 13H13V14.126C14.7252 14.5701 16 16.1362 16 18C16 20.2091 14.2091 22 12 22C9.79086 22 8 20.2091 8 18C8 16.1362 9.27477 14.5701 11 14.126V13H8C7.20435 13 6.44129 12.6839 5.87868 12.1213C5.31607 11.5587 5 10.7956 5 10V9.87398C3.27477 9.42994 2 7.86384 2 6ZM18 4C16.8954 4 16 4.89543 16 6C16 7.10457 16.8954 8 18 8C19.1046 8 20 7.10457 20 6C20 4.89543 19.1046 4 18 4ZM12 16C10.8954 16 10 16.8954 10 18C10 19.1046 10.8954 20 12 20C13.1046 20 14 19.1046 14 18C14 16.8954 13.1046 16 12 16Z" fill="currentColor"/>
</svg>
