<svg viewBox="0 0 24 24" fill="none" xmlns="http://www.w3.org/2000/svg">
<path fill-rule="evenodd" clip-rule="evenodd" d="M2 11.9694C2 6.46483 6.4648 2 11.9694 2C17.474 2 21.9388 6.46483 22 11.9694C22 16.3731 19.1865 20.104 15.211 21.4495C14.7217 21.5107 14.5382 21.2049 14.5382 20.9602V18.208C14.5382 17.2905 14.2324 16.6789 13.8655 16.3731C16.0673 16.1284 18.3914 15.3333 18.3914 11.4801C18.3914 10.3792 17.9633 9.46177 17.3517 8.78899C17.3565 8.76978 17.3632 8.74565 17.3712 8.71686C17.4649 8.3791 17.7365 7.39889 17.2293 6.15902C17.2293 6.15902 16.3731 5.91438 14.477 7.19878C13.682 7.01529 12.8257 6.89296 11.9694 6.89296C11.1132 6.89296 10.2569 6.95413 9.46178 7.19878C7.56572 5.91438 6.70947 6.15902 6.70947 6.15902C6.16893 7.48039 6.51309 8.50685 6.58359 8.7171L6.58717 8.72783C5.91434 9.46177 5.54736 10.318 5.54736 11.419C5.54736 15.2722 7.87158 16.1284 10.0734 16.3731C9.82875 16.6177 9.52296 17.0459 9.46178 17.7187C8.91132 17.9633 7.50461 18.3914 6.58717 16.8624C6.58717 16.8624 6.03671 15.8838 5.05809 15.8226C5.05809 15.8226 4.07954 15.8226 4.99698 16.4343C4.99698 16.4343 5.66974 16.7401 6.09782 17.9021C6.09782 17.9021 6.70947 19.8593 9.46178 19.2477V20.9602C9.46178 21.2049 9.27829 21.5107 8.78902 21.4495C4.8746 20.104 2 16.3731 2 11.9694Z" fill="currentColor"/>
</svg>
