<svg viewBox="0 0 24 24" fill="none" xmlns="http://www.w3.org/2000/svg">
<path fill-rule="evenodd" clip-rule="evenodd" d="M16.1044 7.47275C15.0469 6.48184 13.7018 5.97729 12.2037 5.97729C9.54598 5.97729 7.29685 7.73632 6.49444 10.1C6.29036 10.7 6.1744 11.3409 6.1744 12C6.1744 12.6591 6.28994 13.3 6.49402 13.9C7.29644 16.2636 9.54598 18.0227 12.2037 18.0227C13.5766 18.0227 14.7458 17.6682 15.6595 17.0682C16.7403 16.3591 17.4592 15.3001 17.6957 14.05H12.2041V10.1819H21.8145C21.9351 10.8364 22 11.5182 22 12.2273C22 15.2728 20.8868 17.8364 18.9573 19.5773C17.269 21.1046 14.9588 22 12.2037 22C8.21481 22 4.76397 19.7591 3.08493 16.4909C2.39383 15.1409 2 13.6136 2 12C2 10.3863 2.39425 8.85905 3.08534 7.50904C4.76438 4.24085 8.21481 2 12.2037 2C14.9541 2 17.264 2.99091 19.0311 4.60456L16.1044 7.47275Z" fill="currentColor"/>
</svg>
