<svg viewBox="0 0 24 24" fill="none" xmlns="http://www.w3.org/2000/svg">
<path fill-rule="evenodd" clip-rule="evenodd" d="M9.87866 1.87868C10.4413 1.31607 11.2043 1 12 1C12.7956 1 13.5587 1.31607 14.1213 1.87868C14.4938 2.2512 14.7583 2.71159 14.8944 3.21114C15.243 3.07295 15.6177 3 16 3C16.7956 3 17.5587 3.31607 18.1213 3.87868C18.4938 4.2512 18.7583 4.71159 18.8944 5.21114C19.243 5.07295 19.6177 5 20 5C20.7956 5 21.5587 5.31607 22.1213 5.87868C22.6839 6.44129 23 7.20435 23 8V14C23 16.3869 22.0518 18.6761 20.3639 20.364C18.6761 22.0518 16.3869 23 14 23H12C8.93117 23 6.97919 22.0322 5.30526 20.3695L5.30287 20.3671L1.70287 16.7671C1.69086 16.7551 1.67915 16.7428 1.66777 16.7302C1.15167 16.1586 0.875148 15.4104 0.895453 14.6406C0.915759 13.8707 1.23134 13.1382 1.77685 12.5946C2.32236 12.051 3.05602 11.738 3.82592 11.7205C4.23109 11.7112 4.62995 11.7841 4.99998 11.9308V6C4.99998 5.20435 5.31605 4.44129 5.87866 3.87868C6.44127 3.31607 7.20433 3 7.99998 3C8.38223 3 8.75695 3.07295 9.10555 3.21114C9.24171 2.71159 9.50614 2.2512 9.87866 1.87868ZM8.99998 6V10.5C8.99998 11.0523 9.4477 11.5 9.99998 11.5C10.5523 11.5 11 11.0523 11 10.5V4C11 3.73478 11.1053 3.48043 11.2929 3.29289C11.4804 3.10536 11.7348 3 12 3C12.2652 3 12.5196 3.10536 12.7071 3.29289C12.8946 3.48043 13 3.73478 13 4V10C13 10.5523 13.4477 11 14 11C14.5523 11 15 10.5523 15 10V6C15 5.73478 15.1053 5.48043 15.2929 5.29289C15.4804 5.10536 15.7348 5 16 5C16.2652 5 16.5196 5.10536 16.7071 5.29289C16.8946 5.48043 17 5.73478 17 6V11C17 11.5523 17.4477 12 18 12C18.5523 12 19 11.5523 19 11V8C19 7.73478 19.1053 7.48043 19.2929 7.29289C19.4804 7.10536 19.7348 7 20 7C20.2652 7 20.5196 7.10536 20.7071 7.29289C20.8946 7.48043 21 7.73478 21 8V14C21 15.8565 20.2625 17.637 18.9497 18.9497C17.637 20.2625 15.8565 21 14 21H12C9.46955 21 8.02164 20.2483 6.71588 18.9517C6.71549 18.9513 6.7151 18.9509 6.7147 18.9505L3.13821 15.374C2.97518 15.1856 2.88818 14.9429 2.89476 14.6933C2.90153 14.4367 3.00672 14.1925 3.18856 14.0113C3.37039 13.8301 3.61495 13.7258 3.87158 13.7199C4.12166 13.7142 4.36455 13.8024 4.55253 13.9668L5.29287 14.7071C5.57887 14.9931 6.00899 15.0787 6.38266 14.9239C6.75634 14.7691 6.99998 14.4045 6.99998 14V6C6.99998 5.73478 7.10534 5.48043 7.29287 5.29289C7.48041 5.10536 7.73476 5 7.99998 5C8.2652 5 8.51955 5.10536 8.70709 5.29289C8.89462 5.48043 8.99998 5.73478 8.99998 6Z" fill="currentColor"/>
</svg>
