<svg viewBox="0 0 24 24" fill="none" xmlns="http://www.w3.org/2000/svg">
<path fill-rule="evenodd" clip-rule="evenodd" d="M5.84861 1.96332C6.40316 1.35836 7.17487 1 7.99998 1C8.8251 1 9.5968 1.35836 10.1513 1.96332C10.7032 2.56536 11 3.36467 11 4.18182V6.17157C11.3182 6.05906 11.656 6 12 6C12.7956 6 13.5587 6.31607 14.1213 6.87868C14.2762 7.03362 14.4125 7.20377 14.5286 7.38562C14.9739 7.13501 15.48 7 16 7C16.3439 7 16.6818 7.05906 17 7.17157V7C17 6.20435 17.3161 5.44129 17.8787 4.87868C18.4413 4.31607 19.2043 4 20 4C20.7956 4 21.5587 4.31607 22.1213 4.87868C22.6839 5.44129 23 6.20435 23 7V14C23 16.3869 22.0518 18.6761 20.3639 20.364C18.6761 22.0518 16.3869 23 14 23H12C8.93117 23 6.97919 22.0322 5.30526 20.3695L5.30287 20.3671L1.70287 16.7671C1.69086 16.7551 1.67915 16.7428 1.66777 16.7302C1.15167 16.1586 0.875148 15.4104 0.895453 14.6406C0.915759 13.8707 1.23134 13.1382 1.77685 12.5946C2.32236 12.051 3.05602 11.738 3.82592 11.7205C4.23109 11.7112 4.62995 11.7841 4.99998 11.9308V4.18182C4.99998 3.36467 5.29674 2.56536 5.84861 1.96332ZM4.55253 13.9668C4.36455 13.8024 4.12166 13.7142 3.87158 13.7199C3.61495 13.7258 3.37039 13.8301 3.18856 14.0113C3.00672 14.1925 2.90153 14.4367 2.89476 14.6933C2.88818 14.9429 2.97518 15.1856 3.13821 15.374L6.7147 18.9505C6.7151 18.9509 6.71549 18.9513 6.71588 18.9517C8.02164 20.2483 9.46955 21 12 21H14C15.8565 21 17.637 20.2625 18.9497 18.9497C20.2625 17.637 21 15.8565 21 14V7C21 6.73478 20.8946 6.48043 20.7071 6.29289C20.5196 6.10536 20.2652 6 20 6C19.7348 6 19.4804 6.10536 19.2929 6.29289C19.1053 6.48043 19 6.73478 19 7V12.5C19 13.0523 18.5523 13.5 18 13.5C17.4477 13.5 17 13.0523 17 12.5V10C17 9.73478 16.8946 9.48043 16.7071 9.29289C16.5196 9.10536 16.2652 9 16 9C15.7348 9 15.4804 9.10536 15.2929 9.29289C15.1053 9.48043 15 9.73478 15 10V11.4C15 11.9523 14.5523 12.4 14 12.4C13.4477 12.4 13 11.9523 13 11.4V9C13 8.73478 12.8946 8.48043 12.7071 8.29289C12.5196 8.10536 12.2652 8 12 8C11.7348 8 11.4804 8.10536 11.2929 8.29289C11.1053 8.48043 11 8.73478 11 9V11C11 11.5523 10.5523 12 9.99998 12C9.4477 12 8.99998 11.5523 8.99998 11V4.18182C8.99998 3.84166 8.87531 3.53106 8.67704 3.31476C8.48144 3.10138 8.23573 3 7.99998 3C7.76423 3 7.51852 3.10138 7.32292 3.31476C7.12465 3.53106 6.99998 3.84166 6.99998 4.18182V14C6.99998 14.4045 6.75634 14.7691 6.38266 14.9239C6.00899 15.0787 5.57887 14.9931 5.29287 14.7071L4.55253 13.9668Z" fill="currentColor"/>
</svg>
