<svg viewBox="0 0 24 24" fill="none" xmlns="http://www.w3.org/2000/svg">
<path d="M4.02132 20C4.56256 20 5.00132 19.5613 5.00132 19.02V13.58H12.1613V19.02C12.1613 19.5613 12.6001 20 13.1413 20C13.6826 20 14.1213 19.5613 14.1213 19.02V6.52004C14.1213 5.9788 13.6826 5.54004 13.1413 5.54004C12.6001 5.54004 12.1613 5.9788 12.1613 6.52004V11.76H5.00132V6.52004C5.00132 5.9788 4.56256 5.54004 4.02132 5.54004C3.48008 5.54004 3.04132 5.9788 3.04132 6.52004V19.02C3.04132 19.5613 3.48008 20 4.02132 20Z" fill="currentColor"/>
<path d="M18.9389 15.824C19.9829 15.824 20.3909 16.424 20.3909 17.132C20.3909 17.924 19.8749 18.44 19.1189 18.44C18.3389 18.44 17.8109 17.972 17.8109 17.096H15.8909C15.8909 19.1 17.3429 20.156 19.0709 20.156C20.8709 20.156 22.3829 19.016 22.3829 17.144C22.3829 15.632 21.4109 14.672 20.2109 14.312L22.0829 12.668V11.12H16.2989V12.824H19.6469L17.7149 14.516C17.6909 14.54 17.6669 14.552 17.6429 14.576V15.824H18.9389Z" fill="currentColor"/>
</svg>
