<svg viewBox="0 0 24 24" fill="none" xmlns="http://www.w3.org/2000/svg">
<path d="M3.81038 20C4.35162 20 4.79038 19.5613 4.79038 19.02V13.58H11.9504V19.02C11.9504 19.5613 12.3891 20 12.9304 20C13.4716 20 13.9104 19.5613 13.9104 19.02V6.52004C13.9104 5.9788 13.4716 5.54004 12.9304 5.54004C12.3891 5.54004 11.9504 5.9788 11.9504 6.52004V11.76H4.79038V6.52004C4.79038 5.9788 4.35162 5.54004 3.81038 5.54004C3.26914 5.54004 2.83038 5.9788 2.83038 6.52004V19.02C2.83038 19.5613 3.26914 20 3.81038 20Z" fill="currentColor"/>
<path d="M22.484 19.976V18.176H19.244L20.576 17.06C21.68 16.136 22.412 15.152 22.412 13.94C22.412 12.044 21.2 10.952 19.172 10.952C17.216 10.952 15.944 12.248 15.944 14.24H17.876C17.876 13.244 18.356 12.68 19.184 12.68C19.976 12.68 20.42 13.16 20.42 14.06C20.42 14.792 20.024 15.344 19.076 16.124L16.148 18.56V20L22.484 19.976Z" fill="currentColor"/>
</svg>
