<svg viewBox="0 0 24 24" fill="none" xmlns="http://www.w3.org/2000/svg">
<path d="M3.66396 20C4.2052 20 4.64396 19.5613 4.64396 19.02V13.58H11.804V19.02C11.804 19.5613 12.2427 20 12.784 20C13.3252 20 13.764 19.5613 13.764 19.02V6.52004C13.764 5.9788 13.3252 5.54004 12.784 5.54004C12.2427 5.54004 11.804 5.9788 11.804 6.52004V11.76H4.64396V6.52004C4.64396 5.9788 4.2052 5.54004 3.66396 5.54004C3.12272 5.54004 2.68396 5.9788 2.68396 6.52004V19.02C2.68396 19.5613 3.12272 20 3.66396 20Z" fill="currentColor"/>
<path d="M17.2736 13.508C16.1936 14.984 15.7976 15.788 15.7976 16.88C15.7976 18.74 17.2496 20.156 19.2416 20.156C21.2096 20.156 22.6376 18.836 22.6376 16.892C22.6376 15.068 21.3896 13.808 19.5656 13.808C19.4456 13.808 19.3256 13.82 19.2056 13.844L21.2336 11.12H19.0136L17.2736 13.508ZM17.7896 16.904C17.7896 15.992 18.3656 15.38 19.2416 15.38C20.0936 15.38 20.6696 15.992 20.6696 16.904C20.6696 17.816 20.0816 18.44 19.2416 18.44C18.3776 18.44 17.7896 17.816 17.7896 16.904Z" fill="currentColor"/>
</svg>
