<svg viewBox="0 0 24 24" fill="none" xmlns="http://www.w3.org/2000/svg">
<path d="M4.82406 20C5.36529 20 5.80406 19.5613 5.80406 19.02V13.58H12.9641V19.02C12.9641 19.5613 13.4028 20 13.9441 20C14.4853 20 14.9241 19.5613 14.9241 19.02V6.52004C14.9241 5.9788 14.4853 5.54004 13.9441 5.54004C13.4028 5.54004 12.9641 5.9788 12.9641 6.52004V11.76H5.80406V6.52004C5.80406 5.9788 5.36529 5.54004 4.82406 5.54004C4.28282 5.54004 3.84406 5.9788 3.84406 6.52004V19.02C3.84406 19.5613 4.28282 20 4.82406 20Z" fill="currentColor"/>
<path d="M19.0216 12.86V20H20.8816V11.12H17.0056V12.86H19.0216Z" fill="currentColor"/>
</svg>
