<svg viewBox="0 0 24 24" fill="none" xmlns="http://www.w3.org/2000/svg">
<path d="M3.77529 20C4.31653 20 4.75529 19.5613 4.75529 19.02V13.58H11.9153V19.02C11.9153 19.5613 12.354 20 12.8953 20C13.4365 20 13.8753 19.5613 13.8753 19.02V6.52004C13.8753 5.9788 13.4365 5.54004 12.8953 5.54004C12.354 5.54004 11.9153 5.9788 11.9153 6.52004V11.76H4.75529V6.52004C4.75529 5.9788 4.31653 5.54004 3.77529 5.54004C3.23405 5.54004 2.79529 5.9788 2.79529 6.52004V19.02C2.79529 19.5613 3.23405 20 3.77529 20Z" fill="currentColor"/>
<path d="M19.1249 20.144C21.1769 20.144 22.5809 18.8 22.5809 16.808C22.5809 15.008 21.3809 13.868 19.6529 13.868C19.1129 13.868 18.6209 13.988 18.2369 14.216L18.5849 12.92H22.0169V11.12H17.1929L16.0769 15.884L17.8529 16.22C18.0689 15.788 18.6089 15.476 19.2089 15.476C20.0849 15.476 20.5889 16.016 20.5889 16.928C20.5889 17.864 20.0489 18.428 19.1729 18.428C18.3569 18.428 17.8649 17.924 17.8649 17.084H15.9449C15.9449 18.92 17.2169 20.144 19.1249 20.144Z" fill="currentColor"/>
</svg>
