<svg viewBox="0 0 24 24" fill="none" xmlns="http://www.w3.org/2000/svg">
<path d="M3.99984 20C4.54108 20 4.97984 19.5613 4.97984 19.02V13.58H12.1398V19.02C12.1398 19.5613 12.5786 20 13.1198 20C13.6611 20 14.0998 19.5613 14.0998 19.02V6.52004C14.0998 5.9788 13.6611 5.54004 13.1198 5.54004C12.5786 5.54004 12.1398 5.9788 12.1398 6.52004V11.76H4.97984V6.52004C4.97984 5.9788 4.54108 5.54004 3.99984 5.54004C3.4586 5.54004 3.01984 5.9788 3.01984 6.52004V19.02C3.01984 19.5613 3.4586 20 3.99984 20Z" fill="currentColor"/>
<path d="M23.3574 18.428V16.724H22.2654V11.12H19.8414L16.0134 16.724V18.428H20.4294V20H22.2654V18.428H23.3574ZM18.0774 16.724L20.4294 13.268V16.724H18.0774Z" fill="currentColor"/>
</svg>
