<svg viewBox="0 0 24 24" fill="none" xmlns="http://www.w3.org/2000/svg">
<path fill-rule="evenodd" clip-rule="evenodd" d="M4.9507 2.481C5.72863 2.15798 6.56267 1.9917 7.405 1.9917C8.24733 1.9917 9.08138 2.15798 9.85931 2.481C10.6372 2.80402 11.3438 3.27743 11.9383 3.87408L11.9417 3.87742L12 3.93653L12.0583 3.87743L12.0617 3.87408C12.6563 3.27743 13.3628 2.80402 14.1407 2.481C14.9186 2.15798 15.7527 1.9917 16.595 1.9917C17.4373 1.9917 18.2714 2.15798 19.0493 2.481C19.827 2.80391 20.5333 3.2771 21.1277 3.87346C23.6727 6.41916 23.7293 10.6283 20.7136 13.7005L20.7071 13.7071L12.7071 21.7071C12.5196 21.8946 12.2652 22 12 22C11.7348 22 11.4804 21.8946 11.2929 21.7071L3.28634 13.7005C0.270638 10.6283 0.327258 6.41915 2.87229 3.87346C3.46674 3.2771 4.17303 2.80391 4.9507 2.481ZM10.6238 5.38934L10.5217 5.28584C10.5211 5.2853 10.5206 5.28476 10.5201 5.28422C10.1116 4.87478 9.62646 4.54988 9.09234 4.32809C8.55751 4.10602 7.9841 3.9917 7.405 3.9917C6.8259 3.9917 6.25249 4.10602 5.71767 4.32809C5.18284 4.55017 4.69711 4.87564 4.28833 5.28584L4.28711 5.28706C2.59349 6.98068 2.38976 9.92921 4.71052 12.2963L12 19.5857L19.2895 12.2963C21.6102 9.92922 21.4065 6.98068 19.7129 5.28706L19.7117 5.28584C19.3029 4.87564 18.8172 4.55017 18.2823 4.32809C17.7475 4.10602 17.1741 3.9917 16.595 3.9917C16.0159 3.9917 15.4425 4.10602 14.9077 4.32809C14.3764 4.54868 13.8936 4.87126 13.4866 5.27757L11.4595 7.41447L13.6402 9.23174C13.856 9.4116 13.9862 9.67397 13.999 9.95464C14.0117 10.2353 13.9058 10.5084 13.7071 10.7071L12.4142 12L12.7071 12.2929C13.0976 12.6834 13.0976 13.3165 12.7071 13.7071C12.3166 14.0976 11.6834 14.0976 11.2929 13.7071L10.2929 12.7071C9.90237 12.3165 9.90237 11.6834 10.2929 11.2929L11.5186 10.0672L9.35982 8.26818C9.1475 8.09125 9.01787 7.83434 9.00171 7.55843C8.98555 7.28253 9.0843 7.01224 9.27451 6.81173L10.6238 5.38934Z" fill="currentColor"/>
</svg>
