<svg viewBox="0 0 24 24" fill="none" xmlns="http://www.w3.org/2000/svg">
<path fill-rule="evenodd" clip-rule="evenodd" d="M1.29286 1.29289C1.68339 0.902369 2.31655 0.902369 2.70708 1.29289L4.72361 3.30943C4.79336 3.36228 4.85726 3.42523 4.91313 3.49799C4.91417 3.49934 4.9152 3.50069 4.91624 3.50205L22.7071 21.2929C23.0976 21.6834 23.0976 22.3166 22.7071 22.7071C22.3166 23.0976 21.6834 23.0976 21.2929 22.7071L16.5 17.9142L12.7071 21.7071C12.3166 22.0976 11.6834 22.0976 11.2929 21.7071L3.2863 13.7005C0.353 10.7123 0.326337 6.64812 2.67132 4.08556L1.29286 2.70711C0.90234 2.31658 0.90234 1.68342 1.29286 1.29289ZM4.08777 5.50202C2.58109 7.22188 2.48493 10.0264 4.71049 12.2963L12 19.5858L15.0858 16.5L4.08777 5.50202ZM14.1407 2.48104C14.9186 2.15802 15.7526 1.99174 16.595 1.99174C17.4373 1.99174 18.2713 2.15802 19.0493 2.48104C19.8269 2.80395 20.5332 3.27715 21.1277 3.87351C23.6727 6.4192 23.7293 10.6283 20.7136 13.7005L20.7071 13.7071L20.0351 14.3791C19.6446 14.7696 19.0114 14.7696 18.6209 14.3791C18.2303 13.9886 18.2303 13.3554 18.6209 12.9649L19.2894 12.2964C21.6102 9.92931 21.4065 6.98073 19.7129 5.28711L19.7116 5.28588C19.3029 4.87568 18.8171 4.55021 18.2823 4.32814C17.7475 4.10606 17.1741 3.99174 16.595 3.99174C16.0159 3.99174 15.4425 4.10606 14.9076 4.32814C14.3735 4.54992 13.8884 4.87482 13.4799 5.28426C13.4794 5.2848 13.4788 5.28534 13.4783 5.28588L12.7116 6.06253C12.5237 6.25286 12.2674 6.36 12 6.36C11.7325 6.36 11.4762 6.25286 11.2883 6.06253L10.5216 5.28588C10.5211 5.28535 10.5206 5.28483 10.5201 5.28431C9.98168 4.74458 9.31229 4.354 8.57749 4.15084C8.04517 4.00367 7.73296 3.45283 7.88013 2.92052C8.02731 2.3882 8.57814 2.07599 9.11045 2.22316C10.1803 2.51895 11.1548 3.08789 11.9383 3.87412L11.9416 3.87746L12 3.93657L12.0583 3.87747L12.0616 3.87412C12.6562 3.27747 13.3627 2.80406 14.1407 2.48104Z" fill="currentColor"/>
</svg>
