<svg viewBox="0 0 24 24" fill="none" xmlns="http://www.w3.org/2000/svg">
<path fill-rule="evenodd" clip-rule="evenodd" d="M4.9507 2.481C5.72863 2.15798 6.56267 1.9917 7.405 1.9917C8.24733 1.9917 9.08138 2.15798 9.85931 2.481C10.6372 2.80402 11.3438 3.27743 11.9383 3.87408L11.9417 3.87742L12 3.93653L12.0583 3.87743L12.0617 3.87408C12.6563 3.27743 13.3628 2.80402 14.1407 2.481C14.9186 2.15798 15.7527 1.9917 16.595 1.9917C17.4373 1.9917 18.2714 2.15798 19.0493 2.481C19.827 2.80391 20.5333 3.2771 21.1277 3.87346C23.6727 6.41916 23.7293 10.6283 20.7136 13.7005L20.7071 13.7071L12.7071 21.7071C12.5196 21.8946 12.2652 22 12 22C11.7348 22 11.4804 21.8946 11.2929 21.7071L3.28634 13.7005C0.270638 10.6283 0.327258 6.41915 2.87229 3.87346C3.46674 3.2771 4.17303 2.80391 4.9507 2.481ZM7.405 3.9917C6.8259 3.9917 6.25249 4.10602 5.71767 4.32809C5.18284 4.55017 4.69711 4.87564 4.28833 5.28584L4.28711 5.28706C2.89213 6.68205 2.50793 8.92841 3.71267 11H8.88197L9.10558 10.5527C9.27863 10.2066 9.63585 9.99143 10.0227 10.0002C10.4096 10.009 10.7567 10.2402 10.9138 10.5938L11.7952 12.5768L13.0385 8.22524C13.1547 7.81838 13.5145 7.52873 13.9367 7.50196C14.359 7.47519 14.7525 7.71711 14.9191 8.10604L16.1594 11H20.2873C21.4921 8.92841 21.1079 6.68205 19.7129 5.28706L19.7117 5.28584C19.3029 4.87564 18.8172 4.55017 18.2823 4.32809C17.7475 4.10602 17.1741 3.9917 16.595 3.9917C16.0159 3.9917 15.4425 4.10602 14.9077 4.32809C14.3735 4.54988 13.8884 4.87478 13.4799 5.28422C13.4794 5.28476 13.4789 5.2853 13.4783 5.28584L12.7117 6.06249C12.5238 6.25282 12.2675 6.35996 12 6.35996C11.7325 6.35996 11.4762 6.25282 11.2883 6.06249L10.5217 5.28584C10.5211 5.2853 10.5206 5.28476 10.5201 5.28422C10.1116 4.87478 9.62646 4.54988 9.09234 4.32809C8.55751 4.10602 7.9841 3.9917 7.405 3.9917ZM18.5858 13H15.5C15.1 13 14.7384 12.7616 14.5809 12.3939L14.1888 11.4791L12.9615 15.7747C12.846 16.1792 12.4896 16.4681 12.0699 16.4975C11.6502 16.5269 11.257 16.2905 11.0862 15.9061L9.77717 12.9608C9.68837 12.9864 9.59521 13 9.5 13H5.41422L12 19.5857L18.5858 13Z" fill="currentColor"/>
</svg>
