<svg viewBox="0 0 24 24" fill="none" xmlns="http://www.w3.org/2000/svg">
<path fill-rule="evenodd" clip-rule="evenodd" d="M7.405 1.9917C6.56267 1.9917 5.72863 2.15798 4.9507 2.481C4.17303 2.80391 3.46674 3.2771 2.87229 3.87346C0.327258 6.41915 0.270638 10.6283 3.28634 13.7005L11.2929 21.7071C11.4804 21.8946 11.7348 22 12 22C12.2652 22 12.5196 21.8946 12.7071 21.7071L20.7071 13.7071L20.7136 13.7005C23.7293 10.6283 23.6727 6.41916 21.1277 3.87346C20.5333 3.2771 19.827 2.80391 19.0493 2.481C18.2714 2.15798 17.4373 1.9917 16.595 1.9917C15.7527 1.9917 14.9186 2.15798 14.1407 2.481C13.3628 2.80402 12.6563 3.27743 12.0617 3.87408L12.0583 3.87743L12 3.93653L11.9417 3.87742L11.9383 3.87408C11.3438 3.27743 10.6372 2.80402 9.85931 2.481C9.08138 2.15798 8.24733 1.9917 7.405 1.9917Z" fill="currentColor"/>
</svg>
