<svg viewBox="0 0 24 24" fill="none" xmlns="http://www.w3.org/2000/svg">
<path fill-rule="evenodd" clip-rule="evenodd" d="M14.7071 3.29289C15.0976 3.68342 15.0976 4.31658 14.7071 4.70711L10.1113 9.30296C9.92984 9.48958 9.82829 9.73963 9.82829 10C9.82829 10.2604 9.92984 10.5104 10.1113 10.697L15.303 15.8887C15.4896 16.0702 15.7396 16.1717 16 16.1717C16.2604 16.1717 16.5104 16.0702 16.697 15.8887L21.2929 11.2929C21.6834 10.9024 22.3166 10.9024 22.7071 11.2929C23.0976 11.6834 23.0976 12.3166 22.7071 12.7071L18.1 17.3142C17.5392 17.8639 16.7853 18.1717 16 18.1717C15.7694 18.1717 15.5415 18.1452 15.3205 18.0937L12.7071 20.7071C12.5196 20.8946 12.2652 21 12 21H3C2.44772 21 2 20.5523 2 20V17C2 16.7348 2.10536 16.4804 2.29289 16.2929L7.90625 10.6795C7.85483 10.4585 7.82829 10.2306 7.82829 10C7.82829 9.21474 8.13618 8.46079 8.68586 7.9L8.69286 7.89286L13.2929 3.29289C13.6834 2.90237 14.3166 2.90237 14.7071 3.29289ZM9 12.4142L4 17.4142V19H11.5858L13.5858 17L9 12.4142Z" fill="currentColor"/>
</svg>
