<svg viewBox="0 0 24 24" fill="none" xmlns="http://www.w3.org/2000/svg">
<path fill-rule="evenodd" clip-rule="evenodd" d="M3 2C3.55228 2 4 2.44772 4 3V5.75464L5.33382 4.5542C7.00605 3.06047 9.13179 2.17209 11.3696 2.03173C13.6075 1.89137 15.8275 2.50718 17.6733 3.78025C19.5191 5.05332 20.8835 6.90979 21.5473 9.0515C22.2111 11.1932 22.1359 13.4959 21.3338 15.5897C20.5316 17.6835 19.049 19.447 17.1241 20.5969C15.1991 21.7469 12.9436 22.2165 10.7197 21.9304C8.49579 21.6443 6.43256 20.6191 4.86136 19.0194C3.29015 17.4198 2.30216 15.3385 2.05604 13.1098C1.99542 12.5608 2.39129 12.0667 2.94024 12.006C3.48918 11.9454 3.98334 12.3413 4.04396 12.8902C4.24085 14.6732 5.03125 16.3382 6.28821 17.618C7.54517 18.8977 9.19576 19.7179 10.9749 19.9467C12.754 20.1756 14.5584 19.7999 16.0984 18.88C17.6383 17.96 18.8244 16.5493 19.4661 14.8742C20.1079 13.1991 20.168 11.357 19.637 9.64363C19.1059 7.93026 18.0144 6.44508 16.5378 5.42662C15.0612 4.40816 13.2851 3.91552 11.4948 4.02781C9.70515 4.14006 8.0051 4.85033 6.66752 6.0446C6.66707 6.045 6.66663 6.04539 6.66618 6.04579L5.60596 7H8C8.55228 7 9 7.44772 9 8C9 8.55228 8.55228 9 8 9H3C2.44772 9 2 8.55228 2 8V3C2 2.44772 2.44772 2 3 2ZM12 6C12.5523 6 13 6.44772 13 7V11.382L16.4472 13.1056C16.9412 13.3526 17.1414 13.9532 16.8944 14.4472C16.6474 14.9412 16.0468 15.1414 15.5528 14.8944L11.5528 12.8944C11.214 12.725 11 12.3788 11 12V7C11 6.44772 11.4477 6 12 6Z" fill="currentColor"/>
</svg>
