<svg viewBox="0 0 24 24" fill="none" xmlns="http://www.w3.org/2000/svg">
  <path
    d="M6.52572 15.5875L5.36045 19.8269C5.36045 19.9399 5.30219 19.9965 5.1274 19.9965H2.97166C2.85513 19.9965 2.79687 19.9399 2.85513 19.7704L6.99183 5.69574C7.08694 5.30718 7.12615 4.90771 7.10835 4.50872C7.10835 4.39567 7.16662 4.39567 7.22488 4.39567H10.2546C10.3711 4.39567 10.3711 4.39567 10.4294 4.50872L15.0904 19.7704C15.0904 19.8834 15.0904 19.9399 14.9739 19.9399H12.5851C12.4686 19.9399 12.4103 19.9399 12.3521 19.8269L11.1285 15.5875H6.52572ZM10.6042 13.3266C10.1963 11.7439 9.20583 8.3524 8.85625 6.65666C8.56494 8.29587 7.76382 11.1221 7.16662 13.3266H10.6042ZM17.1296 5.46964C17.1296 5.27664 17.1688 5.08554 17.245 4.90723C17.3211 4.72893 17.4327 4.56692 17.5733 4.43045C17.714 4.29398 17.881 4.18573 18.0648 4.11187C18.2486 4.03801 18.4456 4 18.6445 4C18.8434 4 19.0404 4.03801 19.2242 4.11187C19.408 4.18573 19.575 4.29398 19.7156 4.43045C19.8563 4.56692 19.9679 4.72893 20.044 4.90723C20.1202 5.08554 20.1593 5.27664 20.1593 5.46964C20.1895 5.82985 20.0711 6.18697 19.8301 6.46254C19.5891 6.7381 19.2452 6.90957 18.8739 6.93928C18.7976 6.94634 18.7208 6.94634 18.6445 6.93928C17.7705 6.88276 17.1296 6.37403 17.1296 5.46964ZM17.3044 8.69154C17.3013 8.67229 17.3022 8.65263 17.3069 8.63369C17.3116 8.61475 17.3201 8.59689 17.332 8.58114C17.3438 8.5654 17.3587 8.55206 17.3758 8.54191C17.393 8.53176 17.412 8.52498 17.4319 8.52197H19.7515C19.7713 8.51895 19.7916 8.51975 19.8111 8.52434C19.8307 8.52892 19.8491 8.53718 19.8653 8.54867C19.8815 8.56015 19.8953 8.57462 19.9057 8.59126C19.9162 8.60789 19.9232 8.62636 19.9263 8.64562C19.9299 8.66073 19.9299 8.67643 19.9263 8.69154V19.8269C19.9263 19.9399 19.9263 19.9965 19.7515 19.9965H17.4792C17.4594 19.9995 17.4391 19.9987 17.4196 19.9941C17.4001 19.9895 17.3817 19.9813 17.3654 19.9698C17.3492 19.9583 17.3355 19.9438 17.325 19.9272C17.3145 19.9105 17.3075 19.8921 17.3044 19.8728C17.3009 19.8577 17.3009 19.842 17.3044 19.8269V8.69154Z"
    fill="currentColor" />
</svg>