<svg viewBox="0 0 24 24" fill="none" xmlns="http://www.w3.org/2000/svg">
<path fill-rule="evenodd" clip-rule="evenodd" d="M1.29289 1.29289C1.68342 0.902369 2.31658 0.902369 2.70711 1.29289L4.29667 2.88246C4.29801 2.88379 4.29935 2.88514 4.30068 2.88648L21.1163 19.702C21.117 19.7028 21.1177 19.7035 21.1184 19.7042L22.7071 21.2929C23.0976 21.6834 23.0976 22.3166 22.7071 22.7071C22.3166 23.0976 21.6834 23.0976 21.2929 22.7071L20.2933 21.7075C19.8988 21.897 19.4586 22 19 22H6.00098C6.00033 22 5.99967 22 5.99902 22H5C4.20435 22 3.44129 21.6839 2.87868 21.1213C2.31607 20.5587 2 19.7957 2 19V4.99786C2.00084 4.60374 2.0796 4.21367 2.23173 3.85009C2.25163 3.80254 2.27273 3.75557 2.295 3.70922L1.29289 2.70711C0.902369 2.31658 0.902369 1.68342 1.29289 1.29289ZM4 5.41421V19C4 19.2652 4.10536 19.5196 4.29289 19.7071C4.48043 19.8946 4.73478 20 5 20H5.58579L12.0858 13.5L10.2887 11.7029C10.2409 11.7258 10.1925 11.7474 10.1435 11.7677C9.77936 11.9185 9.38911 11.9961 8.995 11.9961C8.60089 11.9961 8.21064 11.9185 7.84652 11.7677C7.48241 11.6168 7.15157 11.3958 6.87289 11.1171C6.59421 10.8384 6.37315 10.5076 6.22233 10.1435C6.07151 9.77936 5.99389 9.38911 5.99389 8.995C5.99389 8.60089 6.07151 8.21064 6.22233 7.84652C6.24265 7.79749 6.26423 7.74906 6.28706 7.70127L4 5.41421ZM8.25454 9.66875C8.26511 9.68037 8.27597 9.69176 8.28711 9.70289C8.29824 9.71403 8.30963 9.72489 8.32125 9.73546L8.25454 9.66875ZM13.5 14.9142L8.41421 20H18.5858L13.5 14.9142ZM8 3C8 2.44772 8.44772 2 9 2H19C19.7957 2 20.5587 2.31607 21.1213 2.87868C21.6839 3.44129 22 4.20435 22 5V15C22 15.4045 21.7564 15.7691 21.3827 15.9239C21.009 16.0787 20.5789 15.9931 20.2929 15.7071L17.2929 12.7071C16.9024 12.3166 16.9024 11.6834 17.2929 11.2929C17.6834 10.9024 18.3166 10.9024 18.7071 11.2929L20 12.5858V5C20 4.73478 19.8946 4.48043 19.7071 4.29289C19.5196 4.10536 19.2652 4 19 4H9C8.44772 4 8 3.55228 8 3Z" fill="currentColor"/>
</svg>
