<svg viewBox="0 0 24 24" fill="none" xmlns="http://www.w3.org/2000/svg">
  <path
    d="M7.8309 19.6247C7.8309 19.7672 7.80203 19.8089 7.63606 19.8089H5.33772C5.18979 19.8089 5.14288 19.7394 5.14288 19.6247V4.18419C5.14288 4.0417 5.21865 4 5.33772 4H7.65049C7.76956 4 7.8309 4.0417 7.8309 4.17029V19.6247ZM18.8572 19.51C18.8627 19.5492 18.8538 19.5891 18.832 19.6227C18.8103 19.6563 18.7771 19.6816 18.7381 19.6942C18.0166 19.9206 17.2594 20.023 16.5011 19.9965C13.0085 19.9965 10.9627 17.5117 10.9627 13.9739C10.9627 10.4987 13.2791 7.90964 16.8294 7.90964C17.4798 7.87174 18.1321 7.94468 18.7561 8.12511C18.7997 8.14881 18.8345 8.18494 18.8558 8.22851C18.8772 8.27208 18.8839 8.32095 18.8752 8.36838L18.8427 10.3388C18.8427 10.4535 18.7706 10.4813 18.6659 10.4535C18.119 10.2498 17.5345 10.1564 16.9485 10.179C15.0074 10.179 13.6796 11.4891 13.6796 13.8593C13.6796 16.6638 15.3537 17.6264 17.0098 17.6264C17.5755 17.6487 18.1408 17.5758 18.6804 17.4109C18.7994 17.3831 18.8608 17.4387 18.8608 17.5256L18.8572 19.51Z"
    fill="currentColor" />
</svg>