<svg viewBox="0 0 24 24" fill="none" xmlns="http://www.w3.org/2000/svg">
  <path
    d="M18.7489 17.5713V4.11875C18.7489 4.06126 18.7489 4.00377 18.6405 4.00377H16.4186C16.3904 4.00549 16.3638 4.01815 16.3438 4.03936C16.3238 4.06056 16.3118 4.08882 16.3102 4.11875V7.91305H15.6057C12.1915 7.91305 10.0238 10.615 10.0238 14.0213C10.0238 18.0455 12.1915 20.0002 15.1722 20.0002C16.4094 19.9787 17.6283 19.6799 18.7489 19.1235C18.8573 19.066 18.8573 19.066 18.8573 18.951C18.772 18.4969 18.7356 18.034 18.7489 17.5713ZM16.256 17.5713C15.943 17.6894 15.6128 17.7478 15.2806 17.7437C13.709 17.7437 12.4625 16.6658 12.4625 13.9494C12.4625 11.5924 13.709 10.1551 15.4431 10.1551C15.7176 10.1573 15.9907 10.1959 16.256 10.2701V17.5713ZM7.42254 4.00377H5.309C5.29054 4.0007 5.27169 4.00152 5.25353 4.00618C5.23537 4.01084 5.21825 4.01925 5.20315 4.03093C5.18806 4.0426 5.17527 4.05732 5.16554 4.07424C5.15581 4.09116 5.14931 4.10995 5.14642 4.12953C5.14309 4.1449 5.14309 4.16087 5.14642 4.17624V19.5834C5.14353 19.603 5.1443 19.623 5.14869 19.6422C5.15308 19.6615 5.16101 19.6797 5.17202 19.6957C5.18302 19.7117 5.1969 19.7252 5.21285 19.7356C5.2288 19.7459 5.24651 19.7528 5.26497 19.7559C5.27946 19.7594 5.29451 19.7594 5.309 19.7559H7.36834C7.53092 19.7559 7.53092 19.6984 7.53092 19.5834V4.17624C7.57157 4.06126 7.57157 4.00377 7.42254 4.00377Z"
    fill="currentColor" />
</svg>