<svg viewBox="0 0 24 24" fill="none" xmlns="http://www.w3.org/2000/svg">
<path fill-rule="evenodd" clip-rule="evenodd" d="M5 20L8 20C8.55229 20 9 20.4477 9 21C9 21.5523 8.55229 22 8 22L5 22C4.20435 22 3.44129 21.6839 2.87868 21.1213C2.31607 20.5587 2 19.7956 2 19L2 5C2 4.20435 2.31607 3.44129 2.87868 2.87868C3.44129 2.31607 4.20435 2 5 2L11.5 2L19 2C19.7957 2 20.5587 2.31607 21.1213 2.87868C21.6839 3.44129 22 4.20435 22 5L22 19C22 19.7956 21.6839 20.5587 21.1213 21.1213C20.5587 21.6839 19.7956 22 19 22L16 22C15.4477 22 15 21.5523 15 21C15 20.4477 15.4477 20 16 20L19 20C19.2652 20 19.5196 19.8946 19.7071 19.7071C19.8946 19.5196 20 19.2652 20 19L20 5C20 4.73478 19.8946 4.48043 19.7071 4.29289C19.5196 4.10536 19.2652 4 19 4L11.5 4L5 4C4.73478 4 4.48043 4.10536 4.29289 4.29289C4.10536 4.48043 4 4.73478 4 5L4 19C4 19.2652 4.10536 19.5196 4.29289 19.7071C4.48043 19.8946 4.73478 20 5 20ZM6.29289 13.7071C5.90237 13.3166 5.90237 12.6834 6.29289 12.2929L11.2929 7.29289C11.6834 6.90237 12.3166 6.90237 12.7071 7.29289L17.7071 12.2929C18.0976 12.6834 18.0976 13.3166 17.7071 13.7071C17.3166 14.0976 16.6834 14.0976 16.2929 13.7071L13 10.4142L13 21C13 21.5523 12.5523 22 12 22C11.4477 22 11 21.5523 11 21L11 10.4142L7.70711 13.7071C7.31658 14.0976 6.68342 14.0976 6.29289 13.7071Z" fill="currentColor"/>
</svg>
