<svg viewBox="0 0 24 24" fill="none" xmlns="http://www.w3.org/2000/svg">
<path fill-rule="evenodd" clip-rule="evenodd" d="M21.1827 8.03175C21.9126 9.34607 22.3289 10.8586 22.3289 12.4685H22.3292C22.3292 12.8679 22.3035 13.2613 22.2539 13.6473H9.16394C9.16394 15.8023 11.033 17.5493 13.3388 17.5493C14.9125 17.5493 16.2823 16.7351 16.9938 15.5331H21.8025C20.5422 19.0802 17.1565 21.6203 13.1772 21.6203C11.7236 21.6203 10.3495 21.2809 9.12892 20.678C7.99536 21.2645 -0.128086 25.1941 2.47473 15.8888C2.49209 15.8268 2.89335 14.7832 3.71759 13.2895C3.87481 13.0045 4.0494 12.7017 4.23764 12.3875L4.24514 12.3752C4.31516 12.2585 4.38699 12.1405 4.46137 12.0205L4.47352 12.001C4.54781 11.8814 4.62362 11.7608 4.70219 11.6384L4.70437 11.635C5.00277 11.1702 5.33315 10.6863 5.69475 10.1929L5.73354 10.1397C5.7603 10.103 5.78703 10.0663 5.81449 10.0294C5.85901 9.96961 5.90475 9.90957 5.95052 9.84949L5.95054 9.84946L5.95055 9.84944L5.98879 9.79922L6.01847 9.76022L6.0185 9.76018L6.01853 9.76014C6.06035 9.70516 6.10216 9.65019 6.14497 9.59504C6.19757 9.52727 6.25136 9.4595 6.30521 9.39165L6.31443 9.38003C6.37316 9.30603 6.43199 9.23192 6.49214 9.15772C6.54774 9.08912 6.60439 9.02052 6.66122 8.95183C6.72546 8.87422 6.79036 8.7966 6.85611 8.71899C6.91247 8.65247 6.9695 8.58606 7.02699 8.51964C7.09635 8.43956 7.16666 8.35967 7.23763 8.27978C7.29475 8.21545 7.35197 8.15131 7.41013 8.08717C7.48499 8.00462 7.56128 7.92236 7.63804 7.84019L7.67693 7.79854L7.67702 7.79844L7.67705 7.7984C7.72128 7.75101 7.76553 7.7036 7.81063 7.6563C7.8928 7.57015 7.97677 7.48457 8.06093 7.39889L8.10694 7.3519C8.14702 7.31091 8.18707 7.26995 8.22792 7.22924C8.3228 7.13464 8.41996 7.0409 8.51731 6.94725C8.53573 6.92952 8.55398 6.91173 8.57223 6.89395L8.57237 6.89381L8.5724 6.89379L8.57242 6.89376C8.60215 6.86479 8.63188 6.83582 8.66229 6.80711C8.80993 6.66754 8.96003 6.52901 9.11336 6.392C8.15277 6.8072 6.54869 7.84474 4.25662 10.4161C5.18827 6.34996 8.82843 3.31676 13.1772 3.31676C13.3514 3.31676 13.5243 3.32208 13.6961 3.33176C14.8613 2.78798 16.1246 2.35902 17.4901 2.09183C17.8489 2.02162 24.294 0.990248 21.1827 8.03175ZM20.9539 7.6431C22.0395 4.82993 21.4074 3.99459 20.6193 3.46268C19.4289 2.65912 17.3315 3.52425 16.4846 3.93329C18.3464 4.65525 19.9128 5.96871 20.9539 7.6431ZM3.87063 20.6592C3.22875 20.0009 3.11527 18.3976 4.53167 15.476C5.24652 17.5312 6.67298 19.2533 8.51674 20.3463C7.59979 20.8509 5.16549 21.9873 3.87063 20.6592ZM13.2791 7.37277C11.0394 7.37277 9.21648 9.04982 9.14333 11.1443H17.4148C17.3416 9.04982 15.5187 7.37277 13.2791 7.37277Z" fill="currentColor"/>
</svg>
