<svg viewBox="0 0 24 24" fill="none" xmlns="http://www.w3.org/2000/svg">
<path fill-rule="evenodd" clip-rule="evenodd" d="M15 5L11 20L8.87428 19.4331L12.8743 4.43314L15 5Z" fill="currentColor"/>
<path fill-rule="evenodd" clip-rule="evenodd" d="M9 4.1C9 3.49249 9.49249 3 10.1 3H17.9C18.5075 3 19 3.49249 19 4.1C19 4.70751 18.5075 5.2 17.9 5.2H10.1C9.49249 5.2 9 4.70751 9 4.1Z" fill="currentColor"/>
<path fill-rule="evenodd" clip-rule="evenodd" d="M5 19.9C5 19.2925 5.49249 18.8 6.1 18.8H13.9C14.5075 18.8 15 19.2925 15 19.9C15 20.5075 14.5075 21 13.9 21H6.1C5.49249 21 5 20.5075 5 19.9Z" fill="currentColor"/>
</svg>
