<svg viewBox="0 0 24 24" fill="none" xmlns="http://www.w3.org/2000/svg">
<path fill-rule="evenodd" clip-rule="evenodd" d="M12 5C10.8954 5 10 5.89543 10 7C10 8.10457 10.8954 9 12 9C13.1046 9 14 8.10457 14 7C14 5.89543 13.1046 5 12 5ZM8 7C8 4.79086 9.79086 3 12 3C14.2091 3 16 4.79086 16 7C16 8.86384 14.7252 10.4299 13 10.874V13H19C19.7957 13 20.5587 13.3161 21.1213 13.8787C21.6839 14.4413 22 15.2043 22 16V18C22 18.7957 21.6839 19.5587 21.1213 20.1213C20.5587 20.6839 19.7957 21 19 21H5C4.20435 21 3.44129 20.6839 2.87868 20.1213C2.31607 19.5587 2 18.7956 2 18V16C2 15.2044 2.31607 14.4413 2.87868 13.8787C3.44129 13.3161 4.20435 13 5 13H11V10.874C9.27477 10.4299 8 8.86384 8 7ZM5 15C4.73478 15 4.48043 15.1054 4.29289 15.2929C4.10536 15.4804 4 15.7348 4 16V18C4 18.2652 4.10536 18.5196 4.29289 18.7071C4.48043 18.8946 4.73478 19 5 19H19C19.2652 19 19.5196 18.8946 19.7071 18.7071C19.8946 18.5196 20 18.2652 20 18V16C20 15.7348 19.8946 15.4804 19.7071 15.2929C19.5196 15.1054 19.2652 15 19 15H5Z" fill="currentColor"/>
</svg>
