<svg viewBox="0 0 24 24" fill="none" xmlns="http://www.w3.org/2000/svg">
<path fill-rule="evenodd" clip-rule="evenodd" d="M21.7031 2.70711C22.0948 2.31658 22.0948 1.68342 21.7031 1.29289C21.3114 0.902369 20.6762 0.902369 20.2845 1.29289L8.74023 12.8015C7.9557 12.2944 7.02009 12 6.0155 12C3.24551 12 1 14.2386 1 17C1 19.7614 3.24551 22 6.0155 22C8.78548 22 11.031 19.7614 11.031 17C11.031 15.9634 10.7145 15.0004 10.1727 14.2019L12.0633 12.3171L15.4768 8.91421L17.7768 11.2071C18.1685 11.5976 18.8036 11.5976 19.1954 11.2071L22.7062 7.70711C23.0979 7.31658 23.0979 6.68342 22.7062 6.29289L20.4062 4L21.7031 2.70711ZM18.4861 9.08579L16.8954 7.5L18.9876 5.41421L20.5783 7L18.4861 9.08579ZM9.02479 17C9.02479 18.6569 7.67748 20 6.0155 20C4.35351 20 3.0062 18.6569 3.0062 17C3.0062 15.3431 4.35351 14 6.0155 14C7.67748 14 9.02479 15.3431 9.02479 17Z" fill="currentColor"/>
</svg>
