<svg viewBox="0 0 24 24" fill="none" xmlns="http://www.w3.org/2000/svg">
<path fill-rule="evenodd" clip-rule="evenodd" d="M4 5C3.44772 5 3 5.44772 3 6V18C3 18.5523 3.44772 19 4 19H20C20.5523 19 21 18.5523 21 18V6C21 5.44772 20.5523 5 20 5H4ZM1 6C1 4.34315 2.34315 3 4 3H20C21.6569 3 23 4.34315 23 6V18C23 19.6569 21.6569 21 20 21H4C2.34315 21 1 19.6569 1 18V6Z" fill="currentColor"/>
<path fill-rule="evenodd" clip-rule="evenodd" d="M5 8C5 7.44772 5.44772 7 6 7C6.55228 7 7.001 7.44772 7.001 8C7.001 8.55228 6.55328 9 6.001 9C5.44872 9 5 8.55228 5 8Z" fill="currentColor"/>
<path fill-rule="evenodd" clip-rule="evenodd" d="M9 8C9 7.44772 9.44771 7 10 7H10.001C10.5533 7 11.001 7.44772 11.001 8C11.001 8.55228 10.5533 9 10.001 9H10C9.44771 9 9 8.55228 9 8Z" fill="currentColor"/>
<path fill-rule="evenodd" clip-rule="evenodd" d="M13 8C13 7.44772 13.4477 7 14 7H14.001C14.5533 7 15.001 7.44772 15.001 8C15.001 8.55228 14.5533 9 14.001 9H14C13.4477 9 13 8.55228 13 8Z" fill="currentColor"/>
<path fill-rule="evenodd" clip-rule="evenodd" d="M17 8C17 7.44772 17.4477 7 18 7C18.5523 7 19.001 7.44772 19.001 8C19.001 8.55228 18.5533 9 18.001 9C17.4487 9 17 8.55228 17 8Z" fill="currentColor"/>
<path fill-rule="evenodd" clip-rule="evenodd" d="M7 12C7 11.4477 7.44772 11 8 11H8.001C8.55329 11 9.001 11.4477 9.001 12C9.001 12.5523 8.55329 13 8.001 13H8C7.44772 13 7 12.5523 7 12Z" fill="currentColor"/>
<path fill-rule="evenodd" clip-rule="evenodd" d="M11 12C11 11.4477 11.4477 11 12 11H12.001C12.5533 11 13.001 11.4477 13.001 12C13.001 12.5523 12.5533 13 12.001 13H12C11.4477 13 11 12.5523 11 12Z" fill="currentColor"/>
<path fill-rule="evenodd" clip-rule="evenodd" d="M15 12C15 11.4477 15.4477 11 16 11C16.5523 11 17.001 11.4477 17.001 12C17.001 12.5523 16.5533 13 16.001 13C15.4487 13 15 12.5523 15 12Z" fill="currentColor"/>
<path fill-rule="evenodd" clip-rule="evenodd" d="M6 16C6 15.4477 6.44772 15 7 15H17C17.5523 15 18 15.4477 18 16C18 16.5523 17.5523 17 17 17H7C6.44772 17 6 16.5523 6 16Z" fill="currentColor"/>
</svg>
