<svg viewBox="0 0 24 24" fill="none" xmlns="http://www.w3.org/2000/svg">
<path d="M9.88759 8.81585V5.66786C9.88759 4.98426 9.85692 4.51764 9.79559 4.26713C9.69361 3.86275 9.44875 3.4632 9.06102 3.06869C8.36711 2.35638 7.49988 2 6.45889 2C5.36703 2 4.51003 2.35638 3.88766 3.06869C3.2955 3.74265 3 4.59918 3 5.63893V18.2747C3 19.3717 3.29062 20.2528 3.87233 20.9171C4.49446 21.639 5.37237 22 6.50512 22C7.74985 22 8.69885 21.5091 9.35188 20.5274C9.70917 19.9882 9.88759 19.2327 9.88759 18.2602V14.8521L15.1376 21.0326C15.6889 21.6778 16.4897 22 17.5409 22C18.4996 22 19.3164 21.6754 19.9899 21.0253C20.6636 20.3755 21 19.5985 21 18.6933C21 18.01 20.7858 17.4129 20.3572 16.9027L16.0713 11.7762L19.5766 6.96756C19.9441 6.46697 20.1274 5.88923 20.1274 5.23456C20.1274 4.34888 19.7806 3.58835 19.0869 2.95297C18.3925 2.31758 17.5715 2 16.6225 2C15.4591 2 14.5104 2.50059 13.7753 3.50178L9.88759 8.81585Z" fill="currentColor"/>
</svg>
