<svg viewBox="0 0 24 24" fill="none" xmlns="http://www.w3.org/2000/svg">
<path fill-rule="evenodd" clip-rule="evenodd" d="M10.0809 3.60608C10.2384 3.2384 10.6 3 11 3H17C17.4 3 17.7616 3.2384 17.9191 3.60608L20.9191 10.6061C21.0516 10.915 21.0199 11.2699 20.8348 11.5505C20.6498 11.8311 20.3361 12 20 12H8C7.66386 12 7.3502 11.8311 7.16516 11.5505C6.98012 11.2699 6.94844 10.915 7.08085 10.6061L10.0809 3.60608ZM11.6594 5L9.51654 10H18.4835L16.3406 5H11.6594Z" fill="currentColor"/>
<path fill-rule="evenodd" clip-rule="evenodd" d="M14 10C14.5523 10 15 10.4477 15 11V16C15 16.7957 14.6839 17.5587 14.1213 18.1213C13.5587 18.6839 12.7957 19 12 19H8C7.44772 19 7 18.5523 7 18C7 17.4477 7.44772 17 8 17H12C12.2652 17 12.5196 16.8946 12.7071 16.7071C12.8946 16.5196 13 16.2652 13 16V11C13 10.4477 13.4477 10 14 10Z" fill="currentColor"/>
<path fill-rule="evenodd" clip-rule="evenodd" d="M3 15C3 14.4477 3.44772 14 4 14H6C6.79565 14 7.55871 14.3161 8.12132 14.8787C8.68393 15.4413 9 16.2044 9 17V19C9 19.7956 8.68393 20.5587 8.12132 21.1213C7.55871 21.6839 6.79565 22 6 22H4C3.44772 22 3 21.5523 3 21V15ZM5 16V20H6C6.26522 20 6.51957 19.8946 6.70711 19.7071C6.89464 19.5196 7 19.2652 7 19V17C7 16.7348 6.89464 16.4804 6.70711 16.2929C6.51957 16.1054 6.26522 16 6 16H5Z" fill="currentColor"/>
</svg>
