<svg viewBox="0 0 24 24" fill="none" xmlns="http://www.w3.org/2000/svg">
<path fill-rule="evenodd" clip-rule="evenodd" d="M13.2929 4.29289C13.5497 4.0361 13.9255 3.93871 14.2747 4.03848L21.2747 6.03848C21.6154 6.13582 21.8792 6.40617 21.968 6.74916C22.0569 7.09215 21.9576 7.45657 21.7071 7.70711L13.7071 15.7071C13.4566 15.9576 13.0922 16.0569 12.7492 15.968C12.4062 15.8792 12.1358 15.6154 12.0385 15.2747L10.0385 8.27472C9.93871 7.92553 10.0361 7.54969 10.2929 7.29289L13.2929 4.29289ZM14.291 6.12317L12.1232 8.29104L13.4946 13.0912L19.0912 7.49463L14.291 6.12317Z" fill="currentColor"/>
<path fill-rule="evenodd" clip-rule="evenodd" d="M10.2929 1.29289C10.6834 0.902369 11.3166 0.902369 11.7071 1.29289L14.7071 4.29289C15.0976 4.68342 15.0976 5.31658 14.7071 5.70711L11.7071 8.70711C11.3166 9.09763 10.6834 9.09763 10.2929 8.70711L7.29289 5.70711C6.90237 5.31658 6.90237 4.68342 7.29289 4.29289L10.2929 1.29289ZM9.41421 5L11 6.58579L12.5858 5L11 3.41421L9.41421 5Z" fill="currentColor"/>
<path fill-rule="evenodd" clip-rule="evenodd" d="M10.2071 5.79289C10.5976 6.18342 10.5976 6.81658 10.2071 7.20711L5.21676 12.1975L7.89443 17.5528C8.14142 18.0468 7.94119 18.6474 7.44721 18.8944C6.95324 19.1414 6.35256 18.9412 6.10557 18.4472L3.10557 12.4472C2.91308 12.0622 2.98853 11.5973 3.29289 11.2929L8.79289 5.79289C9.18342 5.40237 9.81658 5.40237 10.2071 5.79289Z" fill="currentColor"/>
<path fill-rule="evenodd" clip-rule="evenodd" d="M5 19C4.45228 19 4 19.4523 4 20V21H10V20C10 19.7348 9.89464 19.4804 9.70711 19.2929C9.51957 19.1054 9.26522 19 9 19H5ZM2 20C2 18.3477 3.34772 17 5 17H9C9.79565 17 10.5587 17.3161 11.1213 17.8787C11.6839 18.4413 12 19.2043 12 20V22C12 22.5523 11.5523 23 11 23H3C2.44772 23 2 22.5523 2 22V20Z" fill="currentColor"/>
</svg>
