<svg viewBox="0 0 24 24" fill="none" xmlns="http://www.w3.org/2000/svg">
<path fill-rule="evenodd" clip-rule="evenodd" d="M12 1C12.5523 1 13 1.44772 13 2V7C13 7.55228 12.5523 8 12 8C11.4477 8 11 7.55228 11 7V2C11 1.44772 11.4477 1 12 1Z" fill="currentColor"/>
<path fill-rule="evenodd" clip-rule="evenodd" d="M5.08619 6.59386C5.24669 6.23273 5.60481 6 6 6H18C18.3952 6 18.7533 6.23273 18.9138 6.59386L22.9138 15.5939C23.0513 15.9032 23.023 16.2611 22.8385 16.5449C22.654 16.8287 22.3385 17 22 17H2C1.6615 17 1.34597 16.8287 1.16151 16.5449C0.977053 16.2611 0.94871 15.9032 1.08619 15.5939L5.08619 6.59386ZM6.64988 8L3.53876 15H20.4612L17.3501 8H6.64988Z" fill="currentColor"/>
<path fill-rule="evenodd" clip-rule="evenodd" d="M9.50185 15.0567C10.0228 15.2399 10.2966 15.8109 10.1133 16.3318C10.0072 16.6334 9.975 16.956 10.0193 17.2727C10.0636 17.5893 10.1831 17.8906 10.3679 18.1515C10.5527 18.4124 10.7973 18.6252 11.0813 18.772C11.3653 18.9189 11.6803 18.9955 12 18.9955C12.3197 18.9955 12.6347 18.9189 12.9187 18.772C13.2027 18.6252 13.4473 18.4124 13.6321 18.1515C13.8169 17.8906 13.9364 17.5893 13.9807 17.2727C14.025 16.956 13.9928 16.6334 13.8867 16.3318C13.7034 15.8109 13.9772 15.2399 14.4982 15.0567C15.0191 14.8734 15.5901 15.1472 15.7733 15.6682C15.9855 16.2713 16.05 16.9165 15.9614 17.5498C15.8728 18.183 15.6337 18.7857 15.2642 19.3075C14.8946 19.8293 14.4053 20.2549 13.8374 20.5486C13.2695 20.8423 12.6394 20.9955 12 20.9955C11.3606 20.9955 10.7305 20.8423 10.1626 20.5486C9.59466 20.2549 9.1054 19.8293 8.73584 19.3075C8.36627 18.7857 8.12718 18.183 8.03858 17.5498C7.94999 16.9165 8.01449 16.2713 8.22667 15.6682C8.40994 15.1472 8.98086 14.8734 9.50185 15.0567Z" fill="currentColor"/>
</svg>
