<svg viewBox="0 0 24 24" fill="none" xmlns="http://www.w3.org/2000/svg">
<path fill-rule="evenodd" clip-rule="evenodd" d="M4.29289 7.29289C4.68342 6.90237 5.31658 6.90237 5.70711 7.29289L11.7071 13.2929C12.0976 13.6834 12.0976 14.3166 11.7071 14.7071C11.3166 15.0976 10.6834 15.0976 10.2929 14.7071L4.29289 8.70711C3.90237 8.31658 3.90237 7.68342 4.29289 7.29289Z" fill="currentColor"/>
<path fill-rule="evenodd" clip-rule="evenodd" d="M12.5547 4.16795C13.0142 4.4743 13.1384 5.09517 12.8321 5.5547L10.8321 8.5547C10.7955 8.60949 10.7537 8.66054 10.7071 8.70711L4.70711 14.7071C4.31658 15.0976 3.68342 15.0976 3.29289 14.7071C2.90237 14.3166 2.90237 13.6834 3.29289 13.2929L9.22288 7.36291L11.1679 4.4453C11.4743 3.98577 12.0952 3.8616 12.5547 4.16795Z" fill="currentColor"/>
<path fill-rule="evenodd" clip-rule="evenodd" d="M1 5C1 4.44772 1.44772 4 2 4H14C14.5523 4 15 4.44772 15 5C15 5.55228 14.5523 6 14 6H2C1.44772 6 1 5.55228 1 5Z" fill="currentColor"/>
<path fill-rule="evenodd" clip-rule="evenodd" d="M6 2C6 1.44772 6.44772 1 7 1H8C8.55228 1 9 1.44772 9 2C9 2.55228 8.55228 3 8 3H7C6.44772 3 6 2.55228 6 2Z" fill="currentColor"/>
<path d="M13.6247 22C14.1028 22 14.5293 21.6996 14.6902 21.2494L15.4962 18.9945H20.4674L21.2694 21.2381C21.4327 21.695 21.8656 22 22.3508 22C23.1505 22 23.7054 21.2032 23.428 20.4532L19.6064 10.1187C19.3578 9.44637 18.7168 9 18 9C17.2832 9 16.6422 9.44637 16.3936 10.1187L12.5635 20.4761C12.2903 21.215 12.8369 22 13.6247 22ZM16.1882 17.0739C16.3156 16.7182 17.9909 11.881 17.9909 11.881C17.9909 11.881 19.6844 16.736 19.7936 17.0739H16.1882Z" fill="currentColor"/>
</svg>
