<svg viewBox="0 0 24 24" fill="none" xmlns="http://www.w3.org/2000/svg">
<path fill-rule="evenodd" clip-rule="evenodd" d="M2.99997 9.99608C3.00968 11.1318 3.35257 12.2377 3.9831 13.1776C4.30622 13.0612 4.64994 13 4.99997 13C5.79562 13 6.55868 13.3161 7.12129 13.8787C7.6839 14.4413 7.99997 15.2044 7.99997 16C7.99997 16.0868 7.9962 16.1733 7.98876 16.2592C8.6939 16.5314 9.41664 16.7318 10.1528 16.8533C10.6977 16.9433 11.0666 17.4579 10.9766 18.0028C10.8867 18.5478 10.372 18.9166 9.82712 18.8267C8.91034 18.6753 8.01909 18.4227 7.15955 18.0824C7.14692 18.0955 7.13417 18.1084 7.12129 18.1213C6.82252 18.4201 6.46721 18.6493 6.08051 18.7986C6.1503 19.1411 6.26491 19.4742 6.42226 19.7889C6.69997 20.3443 7.10319 20.8274 7.59997 21.2C8.0418 21.5314 8.13134 22.1582 7.79997 22.6C7.4686 23.0418 6.8418 23.1314 6.39997 22.8C5.65479 22.2411 5.04997 21.5164 4.63341 20.6833C4.34426 20.105 4.15132 19.4855 4.06035 18.8491C3.61906 18.7035 3.21338 18.456 2.87865 18.1213C2.31604 17.5587 1.99997 16.7956 1.99997 16C1.99997 15.4492 2.15144 14.914 2.4313 14.4502C1.51282 13.1514 1.01253 11.6014 1 10.0079L0.999939 10H0.99997C0.99997 4.83074 6.1478 1 12 1C17.8521 1 23 4.83074 23 10L22.9997 10.0221C22.9826 10.7954 22.8561 11.5624 22.6238 12.3003C22.458 12.8271 21.8965 13.1197 21.3697 12.9539C20.8429 12.788 20.5503 12.2265 20.7161 11.6997C20.8905 11.1456 20.9861 10.5697 21 9.98902C20.9924 6.32263 17.1826 3 12 3C6.81398 3 3.00268 6.3269 2.99997 9.99608ZM15 13.0876V19.4746L16.3483 17.4548C16.5338 17.1769 16.8458 17.01 17.18 17.01H19.7984L15 13.0876ZM21.2644 18.2081C21.2605 18.205 21.2566 18.2019 21.2528 18.1988L21.2644 18.2081ZM21.6768 17.0101C21.6815 17.0101 21.6861 17.0101 21.6908 17.0102L21.6768 17.0101ZM15.1753 10.6477C14.9664 10.4753 14.678 10.34 14.33 10.34C14.3202 10.34 14.3104 10.3401 14.3006 10.3404C13.952 10.3507 13.6212 10.4964 13.3784 10.7466C13.1357 10.9967 12.9999 11.3315 13 11.68C13 11.6801 13 11.6803 13 11.6804V21.68C13 21.6918 13.0002 21.7035 13.0006 21.7152C13.0103 21.9909 13.1042 22.257 13.2698 22.4777C13.4353 22.6983 13.6644 22.863 13.9263 22.9495C14.0275 22.983 14.1334 23 14.24 23H14.33C14.5396 23 14.7463 22.9512 14.9337 22.8575C15.1212 22.7638 15.2842 22.6277 15.41 22.46C15.4209 22.4454 15.4315 22.4304 15.4417 22.4152L17.7148 19.01H21.6631C21.9375 19.0128 22.2062 18.9307 22.4322 18.7747C22.6621 18.6161 22.8362 18.3892 22.9298 18.1261C23.0235 17.8629 23.0319 17.577 22.954 17.3088C22.8774 17.0454 22.7213 16.8122 22.5071 16.6411L15.1753 10.6477ZM4.99997 15C4.73475 15 4.4804 15.1054 4.29286 15.2929C4.10533 15.4804 3.99997 15.7348 3.99997 16C3.99997 16.2652 4.10533 16.5196 4.29286 16.7071C4.4804 16.8946 4.73475 17 4.99997 17C5.26519 17 5.51954 16.8946 5.70708 16.7071C5.89461 16.5196 5.99997 16.2652 5.99997 16C5.99997 15.7348 5.89461 15.4804 5.70708 15.2929C5.51954 15.1054 5.26519 15 4.99997 15Z" fill="currentColor"/>
</svg>
