<svg viewBox="0 0 24 24" fill="none" xmlns="http://www.w3.org/2000/svg">
<path fill-rule="evenodd" clip-rule="evenodd" d="M2 3C2 2.44772 2.44772 2 3 2H21C21.5523 2 22 2.44772 22 3V10C22 10.5523 21.5523 11 21 11H3C2.44772 11 2 10.5523 2 10V3ZM4 4V9H20V4H4Z" fill="currentColor"/>
<path fill-rule="evenodd" clip-rule="evenodd" d="M15 14C15 13.4477 15.4477 13 16 13H21C21.5523 13 22 13.4477 22 14V21C22 21.5523 21.5523 22 21 22H16C15.4477 22 15 21.5523 15 21V14ZM17 15V20H20V15H17Z" fill="currentColor"/>
<path fill-rule="evenodd" clip-rule="evenodd" d="M2 14C2 13.4477 2.44772 13 3 13H12C12.5523 13 13 13.4477 13 14V21C13 21.5523 12.5523 22 12 22H3C2.44772 22 2 21.5523 2 21V14ZM4 15V20H11V15H4Z" fill="currentColor"/>
</svg>
