<svg viewBox="0 0 24 24" fill="none" xmlns="http://www.w3.org/2000/svg">
  <path
    d="M15.3381 10.5882C15.3381 10.4072 15.3381 10.009 15.2619 9.17647C15.2619 9.10407 15.3 8.99547 15.3762 8.99547C17.1622 8.3361 19.0601 7.99259 20.9762 7.9819C21.0905 7.9819 21.1667 8.0181 21.1667 8.1267V10.2262C21.1667 10.3348 21.1286 10.371 20.9762 10.371C20.0238 10.3348 18.6143 10.4434 18.081 10.6606V19.7828C18.081 19.8914 18.0429 19.9638 17.8905 19.9638H15.5286C15.4143 19.9638 15.3381 19.9276 15.3381 19.7828V10.5882ZM4.06192 19.9638C3.87144 19.9638 3.83334 19.8914 3.83334 19.7466V4.181C3.83334 4.0724 3.87144 4 4.02382 4H6.42382C6.53811 4 6.5762 4.0362 6.5762 4.181V17.5747H12.8619C12.9762 17.5747 13.0143 17.6109 13.0143 17.7557L12.6333 19.819C12.6276 19.8715 12.6004 19.9198 12.5577 19.9536C12.5151 19.9874 12.4602 20.0041 12.4048 20H4.06192V19.9638Z"
    fill="currentColor" />
</svg>