<svg viewBox="0 0 24 24" fill="none" xmlns="http://www.w3.org/2000/svg">
<path fill-rule="evenodd" clip-rule="evenodd" d="M1.29289 1.29289C1.68342 0.902369 2.31658 0.902369 2.70711 1.29289L22.7071 21.2929C23.0976 21.6834 23.0976 22.3166 22.7071 22.7071C22.3166 23.0976 21.6834 23.0976 21.2929 22.7071L7.01902 8.43324C7.0844 9.13091 7.34482 9.9246 8.19272 10.7785C9.06407 11.5822 9.65861 12.6414 9.89067 13.8043C9.99874 14.3459 9.6473 14.8726 9.10569 14.9807C8.56409 15.0887 8.03741 14.7373 7.92933 14.1957C7.77899 13.4423 7.39218 12.7564 6.82519 12.238C6.8142 12.2279 6.80343 12.2176 6.79289 12.2071C5.29462 10.7088 5 9.20145 5 8V7.99992C5.00003 7.60898 5.03281 7.21872 5.098 6.83325C5.1127 6.74631 5.13822 6.66389 5.17293 6.58715L1.29289 2.70711C0.902369 2.31658 0.902369 1.68342 1.29289 1.29289ZM12 3.00015C11.1223 3.00016 10.2601 3.23119 9.5 3.67003C9.02171 3.94617 8.41012 3.78229 8.13397 3.304C7.85783 2.82571 8.02171 2.21412 8.5 1.93797C9.56412 1.3236 10.7712 1.00016 12 1.00015C13.2287 1.00014 14.4358 1.32357 15.4999 1.93793C16.5641 2.55229 17.4477 3.43593 18.0621 4.50004C18.6751 5.56169 18.9985 6.76565 19 7.99145C19.0208 9.31256 18.578 10.5993 17.7483 11.6278C17.4016 12.0577 16.772 12.1251 16.3422 11.7783C15.9123 11.4316 15.8449 10.802 16.1917 10.3722C16.7288 9.70623 17.015 8.87277 17.0002 8.01732L17 8.00003C17 7.12235 16.7689 6.26015 16.3301 5.50007C15.8912 4.73999 15.26 4.10882 14.4999 3.66999C13.7399 3.23117 12.8776 3.00015 12 3.00015ZM8 18C8 17.4477 8.44772 17 9 17H15C15.5523 17 16 17.4477 16 18C16 18.5523 15.5523 19 15 19H9C8.44772 19 8 18.5523 8 18ZM10 23C9.44772 23 9 22.5523 9 22C9 21.4477 9.44772 21 10 21H14C14.5523 21 15 21.4477 15 22C15 22.5523 14.5523 23 14 23H10Z" fill="currentColor"/>
</svg>
