<svg viewBox="0 0 24 24" fill="none" xmlns="http://www.w3.org/2000/svg">
<path fill-rule="evenodd" clip-rule="evenodd" d="M2.25316 8.625V22H6.55697V8.625H2.25316ZM2 4.375C2 5.75 3.01266 6.75 4.40506 6.75C5.79747 6.75 6.81013 5.75 6.81013 4.375C6.81013 3 5.79747 2 4.40506 2C3.13924 2 2 3 2 4.375ZM17.9494 22H22V13.75C22 9.625 19.4683 8.25 17.0633 8.25C14.9114 8.25 13.3924 9.625 13.0127 10.5V8.625H8.96202V22H13.2658V14.875C13.2658 13 14.5316 12 15.7975 12C17.0633 12 17.9494 12.625 17.9494 14.75V22Z" fill="currentColor"/>
</svg>
