<svg viewBox="0 0 24 24" fill="none" xmlns="http://www.w3.org/2000/svg">
<path fill-rule="evenodd" clip-rule="evenodd" d="M2.99997 6C2.99997 5.44772 3.44769 5 3.99997 5H4.99997C5.55226 5 5.99997 5.44772 5.99997 6V9C6.55226 9 6.99997 9.44772 6.99997 10C6.99997 10.5523 6.55226 11 5.99997 11H3.99997C3.44769 11 2.99997 10.5523 2.99997 10C2.99997 9.44772 3.44769 9 3.99997 9V7C3.44769 7 2.99997 6.55228 2.99997 6ZM8.99997 6C8.99997 5.44772 9.44769 5 9.99997 5H21C21.5523 5 22 5.44772 22 6C22 6.55228 21.5523 7 21 7H9.99997C9.44769 7 8.99997 6.55228 8.99997 6ZM8.99997 12C8.99997 11.4477 9.44769 11 9.99997 11H21C21.5523 11 22 11.4477 22 12C22 12.5523 21.5523 13 21 13H9.99997C9.44769 13 8.99997 12.5523 8.99997 12ZM5.82219 13.0431C6.54543 13.4047 6.99997 14.1319 6.99997 15C6.99997 15.5763 6.71806 16.0426 6.48747 16.35C6.31395 16.5814 6.1052 16.8044 5.91309 17H5.99997C6.55226 17 6.99997 17.4477 6.99997 18C6.99997 18.5523 6.55226 19 5.99997 19H3.99997C3.44769 19 2.99997 18.5523 2.99997 18C2.99997 17.4237 3.28189 16.9574 3.51247 16.65C3.74323 16.3423 4.03627 16.0494 4.26965 15.8161C4.27746 15.8083 4.2852 15.8006 4.29287 15.7929C4.55594 15.5298 4.75095 15.332 4.88747 15.15C4.96287 15.0495 4.99021 14.9922 4.99911 14.9713C4.99535 14.9111 4.9803 14.882 4.9739 14.8715C4.96613 14.8587 4.95382 14.845 4.92776 14.8319C4.87723 14.8067 4.71156 14.7622 4.44719 14.8944C3.95321 15.1414 3.35254 14.9412 3.10555 14.4472C2.85856 13.9532 3.05878 13.3526 3.55276 13.1056C4.28839 12.7378 5.12272 12.6933 5.82219 13.0431ZM8.99997 18C8.99997 17.4477 9.44769 17 9.99997 17H21C21.5523 17 22 17.4477 22 18C22 18.5523 21.5523 19 21 19H9.99997C9.44769 19 8.99997 18.5523 8.99997 18Z" fill="currentColor"/>
</svg>
