<svg viewBox="0 0 24 24" fill="none" xmlns="http://www.w3.org/2000/svg">
<path fill-rule="evenodd" clip-rule="evenodd" d="M9.43748 4.95656L3.41317 10.9987L6.00166 13.5872L11.6846 7.931C11.7153 7.90045 11.7479 7.87193 11.7823 7.84561C12.3867 7.3831 13.1385 7.15585 13.8979 7.20613C14.6574 7.25641 15.3727 7.58079 15.9108 8.11895C16.449 8.65712 16.7734 9.37242 16.8236 10.1318C16.8739 10.8912 16.6467 11.6431 16.1842 12.2475C16.1569 12.2831 16.1272 12.3169 16.0954 12.3485L10.4159 18.0014L12.999 20.5845L19.0223 14.5433C20.1693 13.2525 20.7816 11.5729 20.734 9.8461C20.6862 8.11068 19.9754 6.4595 18.7479 5.23191C17.5203 4.00432 15.8691 3.29357 14.1337 3.24574C12.4074 3.19817 10.7281 3.81016 9.43748 4.95656ZM8.08291 3.48479C9.75721 1.98555 11.9422 1.18459 14.1888 1.2465C16.4354 1.30842 18.5729 2.22852 20.1621 3.8177C21.7512 5.40688 22.6713 7.54441 22.7333 9.791C22.7952 12.0376 21.9942 14.2226 20.495 15.8969C20.4831 15.9102 20.4708 15.9232 20.4582 15.9358L13.7082 22.7058C13.5207 22.8938 13.2662 22.9996 13.0007 22.9998C12.7353 23 12.4806 22.8946 12.2929 22.7069L8.29289 18.7069C8.10507 18.5191 7.99969 18.2642 8 17.9986C8.00031 17.733 8.10629 17.4784 8.29456 17.291L14.6293 10.986C14.7746 10.775 14.845 10.5207 14.828 10.264C14.8098 9.98825 14.692 9.72855 14.4966 9.53317C14.3012 9.33778 14.0415 9.22001 13.7658 9.20176C13.5084 9.18472 13.2534 9.2555 13.0421 9.40161L6.70544 15.7085C6.31465 16.0975 5.68277 16.0968 5.29289 15.7069L1.29289 11.7069C0.902777 11.3168 0.90231 10.6844 1.29185 10.2937L8.04185 3.52371C8.05517 3.51035 8.06886 3.49737 8.08291 3.48479Z" fill="currentColor"/>
<path fill-rule="evenodd" clip-rule="evenodd" d="M4.29289 7.29266C4.68342 6.90214 5.31658 6.90214 5.70711 7.29266L9.70711 11.2927C10.0976 11.6832 10.0976 12.3164 9.70711 12.7069C9.31658 13.0974 8.68342 13.0974 8.29289 12.7069L4.29289 8.70688C3.90237 8.31635 3.90237 7.68319 4.29289 7.29266Z" fill="currentColor"/>
<path fill-rule="evenodd" clip-rule="evenodd" d="M11.2929 14.2927C11.6834 13.9021 12.3166 13.9021 12.7071 14.2927L16.7071 18.2927C17.0976 18.6832 17.0976 19.3164 16.7071 19.7069C16.3166 20.0974 15.6834 20.0974 15.2929 19.7069L11.2929 15.7069C10.9024 15.3164 10.9024 14.6832 11.2929 14.2927Z" fill="currentColor"/>
</svg>
