<svg viewBox="0 0 24 24" fill="none" xmlns="http://www.w3.org/2000/svg">
<path d="M10.5423 8.237C11.8023 8.2506 9.58402 14.7547 9.82215 17.5823C10.0624 20.4349 13.2366 19.6136 13.0351 17.9714C12.6923 15.1796 14.5626 6.43134 16.4593 6.43134C17.7901 6.43134 14.9853 12.4622 15.5372 16.3241C15.9023 18.8792 19.2165 17.9928 18.8797 16.4778C17.7656 11.464 21.2174 6.64549 20.8306 3.2315C20.6614 1.73773 19.758 1.00721 18.8544 1.00007C15.6905 0.975863 13.2465 7.42787 13.2465 7.42787C13.2465 7.42787 13.501 3.76077 11.0421 3.62615C7.27722 3.41983 3.55018 12.7893 3.65576 21.1553C3.68941 23.8243 7.02987 23.3697 6.85421 21.2418C6.52757 17.2844 8.74632 8.21786 10.5423 8.237Z" fill="currentColor"/>
</svg>
