<svg viewBox="0 0 24 24" fill="none" xmlns="http://www.w3.org/2000/svg">
<path fill-rule="evenodd" clip-rule="evenodd" d="M4.18 3C3.5283 3 3 3.5283 3 4.18V19.82C3 20.4717 3.5283 21 4.18 21H19.82C20.4717 21 21 20.4717 21 19.82V4.18C21 3.5283 20.4717 3 19.82 3H4.18ZM1 4.18C1 2.42373 2.42373 1 4.18 1H19.82C21.5763 1 23 2.42373 23 4.18V19.82C23 21.5763 21.5763 23 19.82 23H4.18C2.42373 23 1 21.5763 1 19.82V4.18Z" fill="currentColor"/>
<path d="M13 9C13 8.44772 13.4477 8 14 8C14.5523 8 15 8.44772 15 9V15C15 15.5523 14.5523 16 14 16C13.4477 16 13 15.5523 13 15V9Z" fill="currentColor"/>
<path d="M9 9C9 8.44772 9.44772 8 10 8C10.5523 8 11 8.44772 11 9V15C11 15.5523 10.5523 16 10 16C9.44772 16 9 15.5523 9 15V9Z" fill="currentColor"/>
</svg>
