<svg viewBox="0 0 24 24" fill="none" xmlns="http://www.w3.org/2000/svg">
<path fill-rule="evenodd" clip-rule="evenodd" d="M20.0027 18.1215L19.9988 18.1176H18.0054V16.1044L17.9977 16.1005H16.0043V14.0911L15.9965 14.0833H14.007V12.0896H12.0058V10.0685H10.0085V8.05196L12.0058 8.0514V6.03427H10.0085V4.01713H8.01127V6.03427H6.0101L6.0101 4.01893H6.01578L6.01399 4.01713H8.00738V2H6.0101L6.0101 4.01713H4.01282V2H2V22H22V20.1347H20.0027V18.1215ZM10.0085 6.03427V8.05196L8.01127 8.0514V6.03606H8.01695L8.01515 6.03427H10.0085Z" fill="currentColor"/>
<path d="M14.007 10.0685V12.0857H16.0043V14.0833H18.0016V12.0662H16.0043V10.0685H18.0016V8.0514H16.0043V10.0685H14.007Z" fill="currentColor"/>
<path d="M14.007 10.0685V8.0514H12.0097V10.0633L12.0058 10.0607V10.0685L12.0097 10.068L14.007 10.0685Z" fill="currentColor"/>
<path d="M20.0027 16.1005H18.0054V14.0833H20.0027V16.1005Z" fill="currentColor"/>
<path d="M20.0027 16.1005H22V18.1176H20.0027V16.1005Z" fill="currentColor"/>
<path d="M20.0027 14.0833V12.0662H22V14.0833H20.0027Z" fill="currentColor"/>
<path d="M12.0097 4.01713H14.007V6.03427H12.0097V4.01713Z" fill="currentColor"/>
<path d="M16.0043 4.01713H18.0016V6.03427H16.0043V4.01713Z" fill="currentColor"/>
<path d="M20.0027 8.0514H22V10.0685H20.0027V8.0514Z" fill="currentColor"/>
</svg>
