<svg viewBox="0 0 24 24" fill="none" xmlns="http://www.w3.org/2000/svg">
<path fill-rule="evenodd" clip-rule="evenodd" d="M4.12502 6.625C4.24998 6.75 4.37499 7 4.37499 7.25V16C4.5 16.375 4.37499 16.625 4.12502 16.875L2 19.375V19.75H7.87502V19.375L5.75 16.875C5.62499 16.625 5.49998 16.375 5.49998 16V8.375L10.75 19.75H11.25L15.75 8.375V17.5C15.75 17.75 15.75 17.875 15.625 18L14 19.625V20H21.875V19.625L20.375 18.125C20.25 18 20.25 17.75 20.25 17.625V6.375C20.125 6.125 20.25 6 20.375 5.875L22 4.375V4H16.5L12.5 13.875L7.99998 4H2.25002V4.375L4.12502 6.625Z" fill="currentColor"/>
</svg>
