<svg viewBox="0 0 24 24" fill="none" xmlns="http://www.w3.org/2000/svg">
<path fill-rule="evenodd" clip-rule="evenodd" d="M4.18 3C3.5283 3 3 3.5283 3 4.18V19.82C3 20.4717 3.5283 21 4.18 21H19.82C20.4717 21 21 20.4717 21 19.82V4.18C21 3.5283 20.4717 3 19.82 3H4.18ZM1 4.18C1 2.42373 2.42373 1 4.18 1H19.82C21.5763 1 23 2.42373 23 4.18V19.82C23 21.5763 21.5763 23 19.82 23H4.18C2.42373 23 1 21.5763 1 19.82V4.18Z" fill="currentColor"/>
<path d="M8 9C8 8.44772 8.44772 8 9 8H15C15.5523 8 16 8.44772 16 9V15C16 15.5523 15.5523 16 15 16H9C8.44772 16 8 15.5523 8 15V9Z" fill="currentColor"/>
</svg>
