<svg viewBox="0 0 24 24" fill="none" xmlns="http://www.w3.org/2000/svg">
<path d="M1.00003 19.56C1.00003 20.3556 1.65001 21 2.45084 21H2.47169C1.6586 21 1.00003 20.3556 1.00003 19.56Z" fill="currentColor"/>
<path d="M13.4675 8.39997V12.1596L18.5361 8.07118V4.43999C18.5361 3.6444 17.8861 3 17.0853 3H6.10424L6.09442 8.39997H13.4675Z" fill="currentColor"/>
<path d="M13.4675 15.9207H6.08217L6.07358 21.0003H17.0853C17.8874 21.0003 18.5361 20.3559 18.5361 19.5603V16.2819L13.4675 12.1611V15.9207Z" fill="currentColor"/>
<path d="M6.10424 3L1 8.39997H6.09563L6.10424 3Z" fill="currentColor"/>
<path d="M1.00003 15.9204V19.56C1.00003 20.3556 1.6586 21 2.47169 21L6.07358 21.0003L6.08217 15.9207L1.00003 15.9204Z" fill="currentColor"/>
<path d="M6.09563 8.39997H1L1.00003 15.9204L6.08217 15.9207L6.09563 8.39997Z" fill="currentColor"/>
<path d="M22.9928 18.2799V5.91994C22.7071 4.27955 20.9079 6.15994 20.9079 6.15994L18.5374 8.07153V16.2807L21.9308 19.0395C23.1559 19.2003 22.9928 18.2799 22.9928 18.2799Z" fill="currentColor"/>
<path d="M13.4675 12.1596L18.5374 16.2807V8.07153L13.4675 12.1596Z" fill="currentColor"/>
</svg>
