<svg viewBox="0 0 24 24" fill="none" xmlns="http://www.w3.org/2000/svg">
<path fill-rule="evenodd" clip-rule="evenodd" d="M1.29289 1.29289C1.68342 0.902369 2.31658 0.902369 2.70711 1.29289L9.95452 8.54031C9.9635 8.54896 9.97233 8.55778 9.98099 8.56678L17.8353 16.421C17.8428 16.4284 17.8503 16.4358 17.8576 16.4434L22.7071 21.2929C23.0976 21.6834 23.0976 22.3166 22.7071 22.7071C22.3166 23.0976 21.6834 23.0976 21.2929 22.7071L16.6389 18.0531L12.5418 17.1433C12.3995 17.6216 12.169 18.0694 11.8619 18.4635C11.5384 18.8787 11.1363 19.2262 10.6785 19.486C10.2207 19.7458 9.71627 19.9129 9.1939 19.9778C8.67153 20.0426 8.1415 20.004 7.63407 19.864C7.12665 19.724 6.65176 19.4855 6.23652 19.162C5.82129 18.8384 5.47384 18.4363 5.21402 17.9785C4.9542 17.5207 4.78708 17.0163 4.72222 16.4939C4.67739 16.1328 4.68202 15.7681 4.73538 15.4097L2.78322 14.9762C2.32561 14.8746 2 14.4688 2 14V11C2 10.5509 2.29946 10.1568 2.7322 10.0365L7.34121 8.75543L1.29289 2.70711C0.902369 2.31658 0.902369 1.68342 1.29289 1.29289ZM8.96554 10.3798L4 11.76V13.1977L14.0053 15.4195L8.96554 10.3798ZM6.69763 15.8455C6.68732 15.9791 6.69039 16.1138 6.70698 16.2475C6.73948 16.5092 6.82321 16.762 6.95339 16.9913C7.08357 17.2207 7.25766 17.4222 7.4657 17.5843C7.67375 17.7463 7.91169 17.8659 8.16593 17.936C8.42017 18.0061 8.68573 18.0255 8.94746 17.993C9.20919 17.9605 9.46195 17.8768 9.69132 17.7466C9.92069 17.6164 10.1222 17.4423 10.2843 17.2343C10.4089 17.0743 10.5084 16.8967 10.5796 16.7075L6.69763 15.8455ZM21.6052 5.20389C21.8539 5.39299 22 5.68751 22 6V15.34C22 15.8923 21.5523 16.34 21 16.34C20.4477 16.34 20 15.8923 20 15.34V7.31554L13.9576 8.99354C13.4254 9.14131 12.8742 8.82972 12.7265 8.29758C12.5787 7.76543 12.8903 7.21424 13.4224 7.06646L20.7324 5.03646C21.0335 4.95285 21.3564 5.01479 21.6052 5.20389Z" fill="currentColor"/>
</svg>
