<svg viewBox="0 0 24 24" fill="none" xmlns="http://www.w3.org/2000/svg">
<path fill-rule="evenodd" clip-rule="evenodd" d="M12 3C7.02944 3 3 7.02944 3 12C3 16.9706 7.02944 21 12 21C16.9706 21 21 16.9706 21 12C21 7.02944 16.9706 3 12 3ZM1 12C1 5.92487 5.92487 1 12 1C18.0751 1 23 5.92487 23 12C23 18.0751 18.0751 23 12 23C5.92487 23 1 18.0751 1 12Z" fill="currentColor"/>
<path fill-rule="evenodd" clip-rule="evenodd" d="M7 15C7 14.4477 7.44772 14 8 14H16C16.5523 14 17 14.4477 17 15C17 15.5523 16.5523 16 16 16H8C7.44772 16 7 15.5523 7 15Z" fill="currentColor"/>
<path fill-rule="evenodd" clip-rule="evenodd" d="M7.5 10C7.5 9.17157 8.17157 8.5 9 8.5H9.01C9.83843 8.5 10.51 9.17157 10.51 10C10.51 10.8284 9.83843 11.5 9.01 11.5H9C8.17157 11.5 7.5 10.8284 7.5 10Z" fill="currentColor"/>
<path fill-rule="evenodd" clip-rule="evenodd" d="M13.5 10C13.5 9.17157 14.1716 8.5 15 8.5H15.01C15.8384 8.5 16.51 9.17157 16.51 10C16.51 10.8284 15.8384 11.5 15.01 11.5H15C14.1716 11.5 13.5 10.8284 13.5 10Z" fill="currentColor"/>
</svg>
