<svg viewBox="0 0 24 24" fill="none" xmlns="http://www.w3.org/2000/svg">
<path fill-rule="evenodd" clip-rule="evenodd" d="M1.29289 1.29289C1.68342 0.902369 2.31658 0.902369 2.70711 1.29289L17.7066 16.2924C17.707 16.2928 17.7075 16.2933 17.7079 16.2937L22.7071 21.2929C23.0976 21.6834 23.0976 22.3166 22.7071 22.7071C22.3166 23.0976 21.6834 23.0976 21.2929 22.7071L16.9621 18.3763C15.981 19.1524 14.8275 19.6906 13.5924 19.9415C13.3957 19.9815 13.1981 20.014 13 20.0389V22C13 22.5523 12.5523 23 12 23C11.4477 23 11 22.5523 11 22V20.0391C10.2896 19.9497 9.59055 19.7648 8.92234 19.4864C7.44614 18.8713 6.18816 17.8279 5.31077 16.4909C4.43476 15.1559 3.97828 13.5894 4 11.993V10C4 9.44772 4.44772 9 5 9C5.55229 9 6 9.44772 6 10V12L5.99989 12.0145C5.98246 13.2138 6.32485 14.3908 6.98289 15.3936C7.64094 16.3964 8.58442 17.1789 9.69157 17.6402C10.299 17.8933 10.9404 18.0434 11.5897 18.0878C11.7149 18.0314 11.8538 18 12 18C12.1461 18 12.285 18.0314 12.4101 18.0877C12.6725 18.0697 12.9344 18.0344 13.1941 17.9816C14.0434 17.809 14.8411 17.4554 15.5351 16.9493L14.0298 15.4441C13.6448 15.6708 13.2224 15.8327 12.7794 15.9207C12.0039 16.0747 11.2002 15.9955 10.4697 15.6931C9.73927 15.3906 9.11481 14.8785 8.67524 14.2213C8.23567 13.5642 8.0007 12.7915 8 12.0009L8 9.41421L1.29289 2.70711C0.902369 2.31658 0.902369 1.68342 1.29289 1.29289ZM10 11.4142V11.9991C10 11.9993 10 11.999 10 11.9991C10.0004 12.3943 10.1179 12.7809 10.3376 13.1093C10.5574 13.4379 10.8696 13.694 11.2349 13.8452C11.6001 13.9964 12.002 14.0361 12.3897 13.959C12.432 13.9506 12.474 13.9409 12.5156 13.9298L10 11.4142ZM10.3058 1.3946C11.1195 1.01416 12.0375 0.918643 12.912 1.12342C13.7865 1.3282 14.5667 1.82135 15.1269 2.52347C15.687 3.22559 15.9946 4.0958 16 4.99397L16 5L16 9.34C16 9.89228 15.5523 10.34 15 10.34C14.4477 10.34 14 9.89228 14 9.34V5.00332C13.9967 4.55519 13.843 4.12113 13.5635 3.77077C13.2834 3.41971 12.8933 3.17314 12.456 3.07075C12.0188 2.96836 11.5598 3.01612 11.1529 3.20634C10.7461 3.39655 10.4152 3.71816 10.2134 4.11936C9.96518 4.61274 9.36403 4.81153 8.87064 4.56335C8.37726 4.31518 8.17847 3.71403 8.42665 3.22064C8.83026 2.41824 9.49218 1.77503 10.3058 1.3946ZM19 9C19.5523 9 20 9.44772 20 10L20 12.0024C19.9989 12.4727 19.9569 12.942 19.8745 13.4051C19.7778 13.9489 19.2586 14.3113 18.7149 14.2145C18.1711 14.1178 17.8087 13.5986 17.9055 13.0549C17.9675 12.7061 17.9991 12.3526 18 11.9984C18 11.9982 18 11.9987 18 11.9984V10C18 9.44772 18.4477 9 19 9Z" fill="currentColor"/>
</svg>
