<svg viewBox="0 0 24 24" fill="none" xmlns="http://www.w3.org/2000/svg">
<path fill-rule="evenodd" clip-rule="evenodd" d="M7 21C7 20.4477 7.44772 20 8 20H16C16.5523 20 17 20.4477 17 21C17 21.5523 16.5523 22 16 22H8C7.44772 22 7 21.5523 7 21Z" fill="currentColor"/>
<path fill-rule="evenodd" clip-rule="evenodd" d="M12 15C12.5523 15 13 15.4477 13 16V21C13 21.5523 12.5523 22 12 22C11.4477 22 11 21.5523 11 21V16C11 15.4477 11.4477 15 12 15Z" fill="currentColor"/>
<path d="M11.9387 13.096C13.3067 13.096 14.2427 12.2 14.2427 10.872C14.2427 9.672 13.4427 8.912 12.2907 8.912C11.9307 8.912 11.6027 8.992 11.3467 9.144L11.5787 8.28H13.8667V7.08H10.6507L9.90669 10.256L11.0907 10.48C11.2347 10.192 11.5947 9.984 11.9947 9.984C12.5787 9.984 12.9147 10.344 12.9147 10.952C12.9147 11.576 12.5547 11.952 11.9707 11.952C11.4267 11.952 11.0987 11.616 11.0987 11.056H9.81869C9.81869 12.28 10.6667 13.096 11.9387 13.096Z" fill="currentColor"/>
<path fill-rule="evenodd" clip-rule="evenodd" d="M3 6V14C3 14.5523 3.44772 15 4 15H20C20.5523 15 21 14.5523 21 14V6C21 5.44772 20.5523 5 20 5H4C3.44772 5 3 5.44772 3 6ZM4 3C2.34315 3 1 4.34315 1 6V14C1 15.6569 2.34315 17 4 17H20C21.6569 17 23 15.6569 23 14V6C23 4.34315 21.6569 3 20 3H4Z" fill="currentColor"/>
</svg>
