<svg viewBox="0 0 24 24" fill="none" xmlns="http://www.w3.org/2000/svg">
<path fill-rule="evenodd" clip-rule="evenodd" d="M7 21C7 20.4477 7.44772 20 8 20H16C16.5523 20 17 20.4477 17 21C17 21.5523 16.5523 22 16 22H8C7.44772 22 7 21.5523 7 21Z" fill="currentColor"/>
<path fill-rule="evenodd" clip-rule="evenodd" d="M12 15C12.5523 15 13 15.4477 13 16V21C13 21.5523 12.5523 22 12 22C11.4477 22 11 21.5523 11 21V16C11 15.4477 11.4477 15 12 15Z" fill="currentColor"/>
<path d="M12.0666 13.096C13.5466 13.096 14.6506 12.224 14.8586 10.904H13.5146C13.3546 11.488 12.8186 11.848 12.0906 11.848C11.1386 11.848 10.5466 11.152 10.5466 10.04C10.5466 8.912 11.1306 8.232 12.0906 8.232C12.8026 8.232 13.3066 8.568 13.4826 9.16H14.8506C14.6666 7.832 13.6026 6.984 12.1226 6.984C10.3546 6.984 9.17863 8.2 9.17863 10.048C9.17863 11.92 10.2906 13.096 12.0666 13.096Z" fill="currentColor"/>
<path fill-rule="evenodd" clip-rule="evenodd" d="M3 6V14C3 14.5523 3.44772 15 4 15H20C20.5523 15 21 14.5523 21 14V6C21 5.44772 20.5523 5 20 5H4C3.44772 5 3 5.44772 3 6ZM4 3C2.34315 3 1 4.34315 1 6V14C1 15.6569 2.34315 17 4 17H20C21.6569 17 23 15.6569 23 14V6C23 4.34315 21.6569 3 20 3H4Z" fill="currentColor"/>
</svg>
