<svg viewBox="0 0 24 24" fill="none" xmlns="http://www.w3.org/2000/svg">
<path fill-rule="evenodd" clip-rule="evenodd" d="M7 21C7 20.4477 7.44772 20 8 20H16C16.5523 20 17 20.4477 17 21C17 21.5523 16.5523 22 16 22H8C7.44772 22 7 21.5523 7 21Z" fill="currentColor"/>
<path fill-rule="evenodd" clip-rule="evenodd" d="M12 15C12.5523 15 13 15.4477 13 16V21C13 21.5523 12.5523 22 12 22C11.4477 22 11 21.5523 11 21V16C11 15.4477 11.4477 15 12 15Z" fill="currentColor"/>
<path d="M11.893 13C13.581 13 14.757 11.784 14.757 10.056C14.757 8.296 13.549 7.08 11.813 7.08H9.57303V13H11.893ZM11.685 8.28C12.757 8.28 13.389 8.936 13.389 10.056C13.389 11.152 12.789 11.8 11.765 11.8H10.869V8.28H11.685Z" fill="currentColor"/>
<path fill-rule="evenodd" clip-rule="evenodd" d="M3 6V14C3 14.5523 3.44772 15 4 15H20C20.5523 15 21 14.5523 21 14V6C21 5.44772 20.5523 5 20 5H4C3.44772 5 3 5.44772 3 6ZM4 3C2.34315 3 1 4.34315 1 6V14C1 15.6569 2.34315 17 4 17H20C21.6569 17 23 15.6569 23 14V6C23 4.34315 21.6569 3 20 3H4Z" fill="currentColor"/>
</svg>
