<svg viewBox="0 0 24 24" fill="none" xmlns="http://www.w3.org/2000/svg">
<path fill-rule="evenodd" clip-rule="evenodd" d="M7 21C7 20.4477 7.44772 20 8 20H16C16.5523 20 17 20.4477 17 21C17 21.5523 16.5523 22 16 22H8C7.44772 22 7 21.5523 7 21Z" fill="currentColor"/>
<path fill-rule="evenodd" clip-rule="evenodd" d="M12 16C12.5523 16 13 16.4477 13 17V21C13 21.5523 12.5523 22 12 22C11.4477 22 11 21.5523 11 21V17C11 16.4477 11.4477 16 12 16Z" fill="currentColor"/>
<path fill-rule="evenodd" clip-rule="evenodd" d="M22.7071 3.29289C23.0976 3.68342 23.0976 4.31658 22.7071 4.70711L17.7071 9.70711C17.3166 10.0976 16.6834 10.0976 16.2929 9.70711C15.9024 9.31658 15.9024 8.68342 16.2929 8.29289L21.2929 3.29289C21.6834 2.90237 22.3166 2.90237 22.7071 3.29289Z" fill="currentColor"/>
<path fill-rule="evenodd" clip-rule="evenodd" d="M16 4C16 3.44772 16.4477 3 17 3H22C22.5523 3 23 3.44772 23 4V9C23 9.55228 22.5523 10 22 10C21.4477 10 21 9.55228 21 9V5H17C16.4477 5 16 4.55228 16 4Z" fill="currentColor"/>
<path fill-rule="evenodd" clip-rule="evenodd" d="M4 5C3.44772 5 3 5.44772 3 6V14C3 14.5523 3.44772 15 4 15H20C20.5523 15 21 14.5523 21 14V13C21 12.4477 21.4477 12 22 12C22.5523 12 23 12.4477 23 13V14C23 15.6569 21.6569 17 20 17H4C2.34315 17 1 15.6569 1 14V6C1 4.34315 2.34315 3 4 3H13C13.5523 3 14 3.44772 14 4C14 4.55228 13.5523 5 13 5H4Z" fill="currentColor"/>
</svg>
