<svg viewBox="0 0 24 24" fill="none" xmlns="http://www.w3.org/2000/svg">
<path fill-rule="evenodd" clip-rule="evenodd" d="M7 21C7 20.4477 7.44772 20 8 20H16C16.5523 20 17 20.4477 17 21C17 21.5523 16.5523 22 16 22H8C7.44772 22 7 21.5523 7 21Z" fill="currentColor"/>
<path fill-rule="evenodd" clip-rule="evenodd" d="M12 15C12.5523 15 13 15.4477 13 16V21C13 21.5523 12.5523 22 12 22C11.4477 22 11 21.5523 11 21V16C11 15.4477 11.4477 15 12 15Z" fill="currentColor"/>
<path fill-rule="evenodd" clip-rule="evenodd" d="M3 6V14C3 14.5523 3.44772 15 4 15H20C20.5523 15 21 14.5523 21 14V6C21 5.44772 20.5523 5 20 5H4C3.44772 5 3 5.44772 3 6ZM4 3C2.34315 3 1 4.34315 1 6V14C1 15.6569 2.34315 17 4 17H20C21.6569 17 23 15.6569 23 14V6C23 4.34315 21.6569 3 20 3H4Z" fill="currentColor"/>
<path d="M15.2071 9.20711C15.5976 8.81658 15.5976 8.18342 15.2071 7.79289C14.8166 7.40237 14.1834 7.40237 13.7929 7.79289L11 10.5858L10.2071 9.79289C9.81658 9.40237 9.18342 9.40237 8.79289 9.79289C8.40237 10.1834 8.40237 10.8166 8.79289 11.2071L10.2929 12.7071C10.6834 13.0976 11.3166 13.0976 11.7071 12.7071L15.2071 9.20711Z" fill="currentColor"/>
</svg>
