<svg viewBox="0 0 24 24" fill="none" xmlns="http://www.w3.org/2000/svg">
<path fill-rule="evenodd" clip-rule="evenodd" d="M7 21C7 20.4477 7.44772 20 8 20H16C16.5523 20 17 20.4477 17 21C17 21.5523 16.5523 22 16 22H8C7.44772 22 7 21.5523 7 21Z" fill="currentColor"/>
<path fill-rule="evenodd" clip-rule="evenodd" d="M12 15C12.5523 15 13 15.4477 13 16V21C13 21.5523 12.5523 22 12 22C11.4477 22 11 21.5523 11 21V16C11 15.4477 11.4477 15 12 15Z" fill="currentColor"/>
<path d="M11.8148 10.216C12.5108 10.216 12.7828 10.616 12.7828 11.088C12.7828 11.616 12.4387 11.96 11.9347 11.96C11.4147 11.96 11.0627 11.648 11.0627 11.064H9.78275C9.78275 12.4 10.7507 13.104 11.9028 13.104C13.1027 13.104 14.1108 12.344 14.1108 11.096C14.1108 10.088 13.4628 9.448 12.6628 9.208L13.9108 8.112V7.08H10.0548V8.216H12.2868L10.9988 9.344C10.9828 9.36 10.9668 9.368 10.9508 9.384V10.216H11.8148Z" fill="currentColor"/>
<path fill-rule="evenodd" clip-rule="evenodd" d="M3 6V14C3 14.5523 3.44772 15 4 15H20C20.5523 15 21 14.5523 21 14V6C21 5.44772 20.5523 5 20 5H4C3.44772 5 3 5.44772 3 6ZM4 3C2.34315 3 1 4.34315 1 6V14C1 15.6569 2.34315 17 4 17H20C21.6569 17 23 15.6569 23 14V6C23 4.34315 21.6569 3 20 3H4Z" fill="currentColor"/>
</svg>
