<svg viewBox="0 0 24 24" fill="none" xmlns="http://www.w3.org/2000/svg">
<path fill-rule="evenodd" clip-rule="evenodd" d="M7 21C7 20.4477 7.44772 20 8 20H16C16.5523 20 17 20.4477 17 21C17 21.5523 16.5523 22 16 22H8C7.44772 22 7 21.5523 7 21Z" fill="currentColor"/>
<path fill-rule="evenodd" clip-rule="evenodd" d="M12 15C12.5523 15 13 15.4477 13 16V21C13 21.5523 12.5523 22 12 22C11.4477 22 11 21.5523 11 21V16C11 15.4477 11.4477 15 12 15Z" fill="currentColor"/>
<path d="M9.95584 13H12.4198C13.6998 13 14.4038 12.416 14.4038 11.368C14.4038 10.696 14.0918 10.24 13.5078 10.048C14.0438 9.816 14.3318 9.352 14.3318 8.72C14.3318 7.704 13.6118 7.08 12.4198 7.08H9.95584V13ZM12.2838 8.216C12.7558 8.216 13.0038 8.432 13.0038 8.848C13.0038 9.272 12.7478 9.504 12.2838 9.504H11.2518V8.216H12.2838ZM12.3478 10.592C12.8198 10.592 13.0758 10.808 13.0758 11.208C13.0758 11.648 12.8278 11.864 12.3478 11.864H11.2518V10.592H12.3478Z" fill="currentColor"/>
<path fill-rule="evenodd" clip-rule="evenodd" d="M3 6V14C3 14.5523 3.44772 15 4 15H20C20.5523 15 21 14.5523 21 14V6C21 5.44772 20.5523 5 20 5H4C3.44772 5 3 5.44772 3 6ZM4 3C2.34315 3 1 4.34315 1 6V14C1 15.6569 2.34315 17 4 17H20C21.6569 17 23 15.6569 23 14V6C23 4.34315 21.6569 3 20 3H4Z" fill="currentColor"/>
</svg>
