<svg viewBox="0 0 24 24" fill="none" xmlns="http://www.w3.org/2000/svg">
<path fill-rule="evenodd" clip-rule="evenodd" d="M9.8829 4.28522C9.05947 4.51119 8.27307 4.86874 7.55544 5.34824C6.23985 6.22729 5.21447 7.47672 4.60897 8.93853C4.00347 10.4003 3.84504 12.0089 4.15372 13.5607C4.4624 15.1126 5.22433 16.538 6.34315 17.6569C7.46197 18.7757 8.88743 19.5376 10.4393 19.8463C11.9911 20.155 13.5997 19.9965 15.0615 19.391C16.5233 18.7855 17.7727 17.7602 18.6518 16.4446C19.1313 15.7269 19.4888 14.9405 19.7148 14.1171C18.7223 14.5958 17.6255 14.8502 16.5029 14.8482C14.5543 14.8448 12.6865 14.0692 11.3086 12.6914C9.93076 11.3135 9.15517 9.44572 9.15176 7.49714C9.1498 6.37446 9.40425 5.27769 9.8829 4.28522ZM6.4443 3.6853C8.08879 2.58649 10.0222 2 12 2C12.4038 2 12.768 2.24289 12.9232 2.6157C13.0784 2.98852 12.9941 3.41808 12.7096 3.70463C11.7095 4.71178 11.1493 6.07427 11.1518 7.49364C11.1542 8.91301 11.7192 10.2735 12.7228 11.2772C13.7265 12.2808 15.087 12.8458 16.5064 12.8482C17.9257 12.8507 19.2882 12.2906 20.2954 11.2904C20.5819 11.0059 21.0115 10.9216 21.3843 11.0768C21.7571 11.232 22 11.5962 22 12C22 13.9778 21.4135 15.9112 20.3147 17.5557C19.2159 19.2002 17.6541 20.4819 15.8268 21.2388C13.9996 21.9957 11.9889 22.1937 10.0491 21.8079C8.10929 21.422 6.32746 20.4696 4.92894 19.0711C3.53041 17.6725 2.578 15.8907 2.19215 13.9509C1.8063 12.0111 2.00433 10.0004 2.76121 8.17317C3.51809 6.3459 4.79981 4.78412 6.4443 3.6853Z" fill="currentColor"/>
</svg>
