<svg viewBox="0 0 24 24" fill="none" xmlns="http://www.w3.org/2000/svg">
<path d="M3.00629 10.8968C3.00629 10.5145 2.99288 10.1318 3.00998 9.75053C3.02847 9.34288 3.06915 8.93615 3.11167 8.53035C3.15927 8.07416 3.21196 7.61844 3.27574 7.16411C3.38066 6.41398 3.50545 5.66708 3.70743 4.93589C3.85395 4.4053 4.07395 3.90705 4.41042 3.46612C4.82686 2.92028 5.36716 2.54868 6.01469 2.32682C6.43667 2.18216 6.86974 2.09573 7.31437 2.05321C7.82647 2.00422 8.3395 1.9885 8.85207 2.00837C9.27729 2.02501 9.70204 2.068 10.1259 2.10913C11.3123 2.22422 12.4743 2.47195 13.6247 2.77469C14.9895 3.13335 16.3215 3.58676 17.5935 4.20378C17.9905 4.39651 18.382 4.60358 18.7203 4.89522C18.9491 5.09303 19.1224 5.33476 19.2791 5.58989C19.7034 6.28086 19.9946 7.03146 20.2659 7.79177C20.7613 9.18065 21.1098 10.6079 21.3802 12.055C21.4819 12.5995 21.5461 13.1504 21.6229 13.6995C21.7102 14.3239 21.7453 14.9529 21.7255 15.5824C21.7153 15.9004 21.6746 16.2175 21.6372 16.5341C21.597 16.8747 21.3987 17.116 21.126 17.3083C20.7502 17.5731 20.3329 17.7594 19.9266 17.9683C19.5287 18.1726 19.1312 18.3796 18.7462 18.607C18.4689 18.7706 18.3982 18.9976 18.4901 19.3072C18.5239 19.4209 18.5701 19.5337 18.6269 19.6377C18.7952 19.9437 18.9764 20.2427 19.1427 20.5496C19.238 20.7248 19.3281 20.9055 19.3942 21.0927C19.4386 21.2184 19.4473 21.3603 19.451 21.4957C19.4547 21.6274 19.3822 21.7356 19.2809 21.8179C19.085 21.9764 18.8017 22.0804 18.6001 21.9191C18.4998 21.8387 18.4079 21.7379 18.339 21.6293C18.1338 21.3062 18.0303 20.9388 17.899 20.5834C17.8218 20.3735 17.7386 20.1651 17.6429 19.9631C17.6023 19.8776 17.5288 19.805 17.4608 19.7357C17.4026 19.6761 17.3263 19.6742 17.2547 19.7191C17.0319 19.8582 16.8101 19.9987 16.5878 20.1383C15.9735 20.5247 15.3505 20.8967 14.6817 21.1837C14.3517 21.3256 14.0124 21.4412 13.6533 21.4768C13.3265 21.5091 13.0035 21.4777 12.692 21.3658C11.8332 21.0576 10.9647 20.7733 10.118 20.435C8.61821 19.836 7.19558 19.0886 5.91532 18.0926C5.17627 17.5176 4.51164 16.8706 3.99584 16.0798C3.7347 15.679 3.56924 15.2404 3.44121 14.7847C3.28822 14.2384 3.17591 13.6828 3.11444 13.119C3.06683 12.6841 3.03171 12.2468 3.00814 11.8101C2.99196 11.5064 3.0049 11.2013 3.0049 10.8972C3.0049 10.8968 3.00536 10.8968 3.00629 10.8968ZM9.27405 8.57888C9.28884 8.72077 9.29347 8.86497 9.32073 9.00455C9.47464 9.79074 10.1194 10.5178 10.9911 10.6754C11.6414 10.7928 12.2963 10.4452 12.5482 9.83372C12.734 9.38309 12.728 8.92691 12.5588 8.47997C12.2464 7.65588 11.6876 7.12113 10.772 7.04718C10.3699 7.01482 10.0196 7.15163 9.72792 7.42756C9.39884 7.73954 9.27405 8.13379 9.27405 8.57888ZM9.53612 14.524C9.53704 14.9224 9.63872 15.2982 9.85919 15.6407C10.2733 16.2841 10.8395 16.6723 11.6345 16.6312C12.288 16.5974 12.7821 16.1278 12.9124 15.5131C13.0233 14.9904 12.9203 14.4935 12.6407 14.0434C12.2261 13.3755 11.6451 12.9771 10.8289 13.0261C10.3893 13.0524 10.0376 13.2641 9.79124 13.6302C9.60822 13.9019 9.5278 14.2093 9.53612 14.524ZM15.9846 9.93263C15.8335 9.96267 15.6759 9.97562 15.5317 10.0265C14.8897 10.2511 14.5865 10.7863 14.5643 11.426C14.5472 11.9205 14.7034 12.3693 15.0057 12.7589C15.4304 13.3057 15.9767 13.6163 16.6894 13.5682C17.0014 13.547 17.2755 13.4282 17.4992 13.2086C17.9096 12.8051 18.0275 12.306 17.9429 11.7532C17.862 11.2258 17.6134 10.7858 17.2103 10.435C16.8609 10.1295 16.4579 9.95574 15.9846 9.93263Z" fill="currentColor"/>
</svg>
