<svg viewBox="0 0 24 24" fill="none" xmlns="http://www.w3.org/2000/svg">
<path fill-rule="evenodd" clip-rule="evenodd" d="M8 2C8 1.44772 8.44772 1 9 1H15C15.5523 1 16 1.44772 16 2V8C16 8.55228 15.5523 9 15 9H13V11H19C19.5523 11 20 11.4477 20 12V15H22C22.5523 15 23 15.4477 23 16V22C23 22.5523 22.5523 23 22 23H16C15.4477 23 15 22.5523 15 22V16C15 15.4477 15.4477 15 16 15H18V13H6V15H8C8.55228 15 9 15.4477 9 16V22C9 22.5523 8.55228 23 8 23H2C1.44772 23 1 22.5523 1 22V16C1 15.4477 1.44772 15 2 15H4V12C4 11.4477 4.44772 11 5 11H11V9H9C8.44772 9 8 8.55228 8 8V2ZM14 7V3H10V7H14ZM3 17V21H7V17H3ZM17 17V21H21V17H17Z" fill="currentColor"/>
</svg>
