<svg viewBox="0 0 24 24" fill="none" xmlns="http://www.w3.org/2000/svg">
<path d="M7.00534 9.89303C5.97199 9.90517 5.11978 9.05295 5.11978 8.00746C5.11377 6.96197 5.95384 6.11001 6.99333 6.11001C8.03281 6.11615 8.87876 6.96798 8.87275 8.00746C8.86675 9.04695 8.03281 9.88102 7.00534 9.89303Z" fill="currentColor"/>
<path fill-rule="evenodd" clip-rule="evenodd" d="M11.2845 2.00654C10.8691 2.00654 10.4532 2.00491 10.0372 2.00327C9.06672 1.99946 8.09523 1.99564 7.12655 2.01255C5.17452 2.03671 3.69992 2.91361 2.69661 4.58109C2.18901 5.42718 2.00775 6.35788 2.00775 7.33089C2.01176 9.36955 2.01042 11.4082 2.00909 13.4469C2.00842 14.4662 2.00775 15.4855 2.00775 16.5049C2.00775 16.7399 2.01376 16.9824 2.03191 17.218C2.19501 19.853 4.36461 21.938 7.00563 21.9864C7.99117 22.0033 8.97971 21.9995 9.96723 21.9957C10.3906 21.9941 10.814 21.9924 11.2367 21.9924C11.6295 21.9924 11.6295 21.9924 11.6295 21.5936C11.6355 18.4026 11.6375 15.2116 11.6355 12.0206V2.36919C11.6347 2.00654 11.6287 2.00654 11.2845 2.00654ZM9.99728 3.64425V20.3481L9.99206 20.3485C9.91546 20.3543 9.83895 20.3602 9.76757 20.3602C9.47949 20.3602 9.19142 20.3609 8.90334 20.3615C8.32718 20.3629 7.75103 20.3642 7.17487 20.3602C5.41624 20.3481 4.03827 19.212 3.69991 17.4773C3.65147 17.2356 3.63945 16.9879 3.63945 16.7461C3.63345 13.5791 3.63345 10.4102 3.63945 7.23922C3.63945 5.4563 4.74541 4.06592 6.42556 3.69766L6.4757 3.6869C6.57505 3.66537 6.67732 3.64321 6.77605 3.64321L9.99728 3.64425Z" fill="currentColor"/>
<path fill-rule="evenodd" clip-rule="evenodd" d="M21.9274 16.8132C21.9314 14.6737 21.9301 12.5343 21.9287 10.3949C21.9281 9.32519 21.9274 8.25549 21.9274 7.18581C21.9283 6.94141 21.9142 6.69718 21.8851 6.45452C21.669 4.72605 20.5792 3.27756 19.0957 2.53687L19.0898 2.53399C18.7294 2.35451 18.3488 2.21887 17.9561 2.12995C17.8591 2.10801 17.7612 2.08886 17.6623 2.07249C17.5745 2.05813 17.486 2.04607 17.3968 2.03632C17.3128 2.02701 17.2283 2.01991 17.1432 2.01503C17.1263 2.01402 17.1084 2.01293 17.0909 2.01216C17.0222 2.00894 16.9533 2.00703 16.8841 2.00642H16.8743C16.514 2.00407 16.1544 2.00315 15.7952 2.00367C15.496 2.00367 15.1969 2.00436 14.8977 2.00504C14.598 2.00573 14.2981 2.00642 13.9976 2.00642C13.7961 2.00642 13.6964 2.00642 13.6471 2.05626C13.5987 2.1051 13.5987 2.20179 13.5987 2.39322V21.672C13.5987 21.9802 13.6169 21.9984 13.9191 21.9984C14.1541 21.9984 14.389 21.9988 14.624 21.9992L14.6261 21.9992C14.8618 21.9996 15.0975 22 15.3332 22C15.8046 22 16.2761 21.9984 16.7474 21.9924C17.0857 21.9864 17.4302 21.9683 17.7625 21.9018C20.2527 21.4002 21.9207 19.3514 21.9274 16.8132ZM17.5458 15.0061C16.4338 15.0001 15.5514 14.105 15.5574 12.982C15.558 12.72 15.6102 12.4607 15.7111 12.2189C15.812 11.9772 15.9595 11.7577 16.1454 11.573C16.3312 11.3883 16.5516 11.2421 16.794 11.1427C17.0363 11.0432 17.2959 10.9926 17.5579 10.9936C18.6699 10.9936 19.5523 11.8816 19.5523 13.0061C19.5517 14.1237 18.6579 15.0122 17.5458 15.0061Z" fill="currentColor"/>
</svg>
