<svg viewBox="0 0 24 24" fill="none" xmlns="http://www.w3.org/2000/svg">
<path fill-rule="evenodd" clip-rule="evenodd" d="M15.1068 2.04561L4.00693 2.8624C3.1119 2.93986 2.79999 3.52333 2.79999 4.22283V16.3544C2.79999 16.8995 2.99441 17.3653 3.46196 17.988L6.07124 21.3709C6.49983 21.9156 6.88933 22.0321 7.70773 21.9931L20.5979 21.2153C21.6881 21.1379 22 20.6321 22 19.7767V6.1283C22 5.68615 21.8249 5.55842 21.3088 5.18189L21.2205 5.11739L17.6773 2.62892C16.8205 2.00704 16.4698 1.92879 15.1068 2.04561ZM6.77248 19.6598V8.07285C6.77248 7.56747 6.92827 7.33399 7.39534 7.29478L20.0521 6.55624C20.4814 6.51735 20.6758 6.78973 20.6758 7.29478V18.804C20.6758 19.3099 20.5977 19.7382 19.8965 19.7767L7.78483 20.477C7.0839 20.5155 6.77248 20.2826 6.77248 19.6598ZM6.11084 5.50642C6.70849 5.99158 6.94762 5.97544 8.00003 5.90443L8.13588 5.8953L19.1565 5.23405C19.3903 5.23405 19.1959 5.00104 19.1179 4.96232L17.2876 3.64015C16.9369 3.36809 16.4697 3.05651 15.5742 3.13445L4.90294 3.9122C4.51377 3.95076 4.43603 4.1452 4.59104 4.30106L6.11084 5.50642ZM18.3779 9.43407C18.7291 9.39471 18.8067 9.04473 18.7291 8.69441L16.0411 8.85076C15.6516 8.88932 15.3405 9.20028 15.4183 9.62852L16.4311 9.74469V15.1108L12.4586 9.04487L9.57653 9.239C9.03091 9.2782 8.83649 9.78327 8.91454 10.1336L9.88795 10.2115V17.8717L9.18688 18.0658C8.91438 18.1437 8.83634 18.5322 8.91438 18.6879L11.6009 18.5322C12.5754 18.5322 12.5754 17.8326 12.5754 17.8326L11.3676 17.5603V11.7667L15.1847 17.7547C15.6516 18.3376 15.8077 18.5322 16.4311 18.5322C16.8204 18.5322 17.2876 18.3766 17.7943 18.1045V9.55025L18.3779 9.43407Z" fill="currentColor"/>
</svg>
