<svg viewBox="0 0 24 24" fill="none" xmlns="http://www.w3.org/2000/svg">
<path fill-rule="evenodd" clip-rule="evenodd" d="M11.9999 22C6.47712 22 2 17.523 2 12C2 6.47715 6.47712 2 11.9999 2C17.5228 2 22 6.47715 22 12C22 17.523 17.5228 22 11.9999 22ZM14.7136 10.151C15.192 9.78784 15.5927 9.33227 15.8918 8.81134C15.956 8.81423 16.0202 8.81824 16.0842 8.82337C16.8408 8.88358 17.5765 9.10062 18.2446 9.46068C18.8961 9.81192 19.4704 10.2903 19.9336 10.8675C20.5637 11.6515 20.9662 12.5935 21.0972 13.5907C21.0488 13.4042 20.9888 13.221 20.9177 13.0419C20.8516 12.8773 20.7759 12.7166 20.691 12.5609C20.63 12.4492 20.5639 12.3402 20.494 12.234C20.426 12.1307 20.353 12.0304 20.2765 11.9331C20.2078 11.8457 20.136 11.7611 20.061 11.6794C19.9858 11.5971 19.9077 11.5178 19.8267 11.4415C19.7505 11.3699 19.6722 11.3003 19.5911 11.2343C19.5125 11.1703 19.432 11.1087 19.3496 11.0495C19.2697 10.9922 19.1875 10.938 19.1039 10.8863C19.0148 10.8312 18.924 10.7794 18.8314 10.7307C18.7388 10.6819 18.6445 10.6365 18.5486 10.5946C18.4545 10.5533 18.3591 10.5153 18.2624 10.4806C18.1671 10.4464 18.0707 10.4155 17.9733 10.3879C17.8738 10.3598 17.7736 10.3351 17.6726 10.3138C17.5693 10.2921 17.4656 10.2741 17.3612 10.2599C17.2558 10.2456 17.1501 10.235 17.044 10.2279C16.934 10.2208 16.824 10.2176 16.7138 10.2184C15.9165 10.2236 15.1351 10.4414 14.45 10.8493C13.7649 11.2572 13.201 11.8404 12.8165 12.5389C12.586 12.9551 12.4236 13.4056 12.3356 13.8731C12.2322 14.4235 12.2319 14.9884 12.3347 15.5389C12.3827 15.795 12.4531 16.0464 12.545 16.2902C12.5904 16.4105 12.6409 16.5286 12.6964 16.6444C12.724 16.7021 12.7528 16.7591 12.7829 16.8155C12.7927 16.829 12.8006 16.8437 12.8066 16.8593C12.8079 16.8669 12.8004 16.8774 12.7941 16.8861C12.7922 16.8887 12.7905 16.8911 12.7891 16.8933C12.7739 16.9173 12.7584 16.9413 12.7428 16.9651C12.3823 17.5145 11.9268 17.9954 11.3978 18.3853C10.677 18.917 9.83693 19.264 8.95102 19.396C8.45566 19.4693 7.95268 19.4753 7.45571 19.414C6.92304 19.3482 6.40298 19.2042 5.91229 18.9868C6.02151 19.0215 6.13196 19.0522 6.24352 19.0784C6.41576 19.1188 6.5902 19.1491 6.76595 19.1692C7.73782 19.2794 8.71915 19.07 9.56136 18.5726C9.98324 18.3215 10.3617 18.0038 10.6821 17.6318C11.241 16.9826 11.6017 16.1866 11.7215 15.3384C11.7846 14.8886 11.7797 14.432 11.7071 13.9837C11.5463 13.0038 11.0654 12.1048 10.3396 11.4271C9.61389 10.7494 8.68411 10.3311 7.69553 10.2377C7.58863 10.2278 7.48156 10.2217 7.37432 10.2193C7.31628 10.2181 7.25818 10.2178 7.20014 10.2189C7.19865 10.2189 7.19732 10.2189 7.19613 10.219C7.1884 10.2193 7.18619 10.2193 7.17988 10.2123C7.17559 10.2059 7.17204 10.1989 7.1693 10.1917L7.15185 10.1572C7.13914 10.1318 7.12662 10.1063 7.11431 10.0807C6.49225 8.78623 6.40092 7.29983 6.85982 5.93893C7.31873 4.57802 8.2915 3.45045 9.57042 2.79698C9.50746 2.83744 9.44564 2.87956 9.38496 2.92334C9.26727 3.00828 9.15302 3.09805 9.04408 3.19403C8.93709 3.28822 8.8345 3.387 8.7363 3.49039C8.63901 3.59282 8.54679 3.70037 8.46001 3.81184C8.38001 3.91412 8.30462 4.01967 8.23385 4.12848C8.15711 4.24646 8.08524 4.36798 8.02037 4.49289C7.95876 4.6115 7.90166 4.73239 7.85045 4.8559C7.80104 4.97469 7.75703 5.09533 7.71842 5.21781C7.67864 5.34366 7.64451 5.47097 7.61604 5.59974C7.58831 5.72518 7.56582 5.85214 7.549 5.97967C7.53192 6.10908 7.52101 6.23906 7.51462 6.36943C7.46107 7.53458 7.86415 8.67466 8.63814 9.54723C8.9322 9.87828 9.27286 10.1648 9.64942 10.3978C10.1609 10.7127 10.7305 10.9217 11.3243 11.0123C11.9182 11.103 12.5241 11.0734 13.1063 10.9255C13.6885 10.7775 14.2351 10.5142 14.7136 10.151Z" fill="currentColor"/>
</svg>
