<svg viewBox="0 0 24 24" fill="none" xmlns="http://www.w3.org/2000/svg">
<path d="M12 16.7059C14.599 16.7059 16.7059 14.599 16.7059 12C16.7059 9.40101 14.599 7.29412 12 7.29412C9.40101 7.29412 7.29412 9.40101 7.29412 12C7.29412 14.599 9.40101 16.7059 12 16.7059Z" fill="currentColor"/>
<path fill-rule="evenodd" clip-rule="evenodd" d="M22 12C22 17.5228 17.5228 22 12 22C6.47715 22 2 17.5228 2 12C2 6.47715 6.47715 2 12 2C17.5228 2 22 6.47715 22 12ZM18.4706 12C18.4706 15.5736 15.5736 18.4706 12 18.4706C8.42639 18.4706 5.52941 15.5736 5.52941 12C5.52941 8.42639 8.42639 5.52941 12 5.52941C15.5736 5.52941 18.4706 8.42639 18.4706 12Z" fill="currentColor"/>
</svg>
