<svg viewBox="0 0 24 24" fill="none" xmlns="http://www.w3.org/2000/svg">
<path d="M10.4883 2.00507C9.41617 2.00507 8.34387 2.00542 7.27143 2.00613C7.08441 2.00634 6.9029 2.07318 6.75611 2.19588C6.60932 2.31858 6.50579 2.49001 6.46219 2.68258C6.43733 2.78871 6.4239 2.89781 6.40766 3.00606C6.24342 4.10581 6.07958 5.20585 5.91614 6.30617C5.74562 7.45121 5.57503 8.59645 5.40438 9.74191C5.26085 10.7057 5.11753 11.6695 4.9744 12.6332C4.79733 13.8203 4.62013 15.0074 4.44279 16.1944C4.29866 17.1617 4.15754 18.1293 4.01061 19.0961C3.94907 19.5009 4.15894 19.7809 4.54542 19.7817C5.55091 19.7843 6.55647 19.7843 7.56209 19.7817C7.71343 19.7817 7.73007 19.7645 7.75412 19.6034C7.83538 19.0622 7.91649 18.5211 7.99748 17.9801C8.16894 16.8458 8.34086 15.7116 8.51325 14.5775C8.56577 14.2357 8.61047 13.891 8.69186 13.5567C8.80812 13.0802 9.11141 12.7943 9.57387 12.7177C9.71601 12.6972 9.8594 12.6879 10.0028 12.6899C10.6443 12.6852 11.2858 12.6922 11.9272 12.6812C12.699 12.6678 13.4573 12.5479 14.1948 12.3017C15.2889 11.9364 16.1913 11.2829 16.8632 10.2889C17.2604 9.70116 17.5262 9.04742 17.7284 8.36227C18.0034 7.4309 18.1855 6.48531 18.0726 5.50215C17.9636 4.55126 17.5737 3.75892 16.8671 3.14996C16.4567 2.79635 15.9871 2.56096 15.4875 2.39307C14.7422 2.14282 13.9841 1.98724 13.1945 2.00082C12.2925 2.01717 11.3904 2.00507 10.4883 2.00507ZM10.0526 21.9993C10.4867 21.9993 10.9211 21.9993 11.3555 21.9993C11.5326 22 11.7042 21.934 11.8395 21.8129C11.9748 21.6919 12.0651 21.5238 12.094 21.3388C12.2586 20.2533 12.4175 19.167 12.5811 18.0813C12.632 17.7417 12.6813 17.4034 12.7473 17.0681C12.8227 16.686 13.1027 16.4542 13.4709 16.4464C13.5611 16.4444 13.6513 16.4449 13.7415 16.4464C14.6236 16.4551 15.4953 16.3714 16.3415 16.0834C17.6274 15.6455 18.5952 14.8052 19.2216 13.5332C19.5824 12.7986 19.8019 12.0149 19.9192 11.1984C20.0136 10.5404 20.0395 9.88434 19.9192 9.22444C19.7967 8.55245 19.5211 7.97576 19.0272 7.52493C18.9843 7.48588 18.9404 7.44746 18.8945 7.41222C18.8073 7.34557 18.783 7.35534 18.7596 7.46253C18.7552 7.48375 18.7515 7.50498 18.7479 7.52493C18.6439 8.13045 18.4821 8.72325 18.2652 9.29427C17.5867 11.0857 16.413 12.3422 14.6873 13.0025C13.6521 13.3984 12.5785 13.5253 11.4868 13.5306C10.9424 13.5334 10.3977 13.5292 9.8533 13.5306C9.5909 13.5306 9.45239 13.6601 9.41069 13.9354C9.26169 14.9088 9.11335 15.8824 8.96568 16.8562C8.73663 18.3745 8.50871 19.8931 8.28193 21.4118C8.23001 21.7601 8.42585 21.9981 8.75881 21.9985C9.19033 22 9.62157 21.9999 10.0526 21.9993Z" fill="currentColor"/>
<path d="M10.4883 2.00507C11.3904 2.00507 12.2925 2.01717 13.1945 2.00082C13.9841 1.98724 14.7422 2.14282 15.4875 2.39307C15.9871 2.56096 16.4567 2.79635 16.8671 3.14996C17.5737 3.75892 17.9636 4.55126 18.0726 5.50215C18.1855 6.48531 18.0034 7.4309 17.7284 8.36227C17.5262 9.04742 17.2604 9.70116 16.8632 10.2889C16.1913 11.2829 15.2889 11.9364 14.1948 12.3017C13.4573 12.5479 12.699 12.6678 11.9272 12.6812C11.2858 12.6922 10.6443 12.6852 10.0028 12.6899C9.8594 12.6879 9.71601 12.6972 9.57387 12.7177C9.11141 12.7943 8.80812 13.0802 8.69186 13.5567C8.61047 13.891 8.56577 14.2357 8.51325 14.5775C8.33952 15.7113 8.1676 16.8455 7.99748 17.9801C7.91649 18.5211 7.83538 19.0622 7.75412 19.6034C7.73007 19.7645 7.71343 19.7817 7.56209 19.7817C6.55633 19.7817 5.55078 19.7817 4.54542 19.7817C4.15894 19.7809 3.94907 19.5009 4.01061 19.0961C4.15754 18.1293 4.29866 17.1617 4.44279 16.1944C4.62013 15.0074 4.79733 13.8203 4.9744 12.6332C5.11753 11.6695 5.26085 10.7057 5.40438 9.74191C5.57503 8.59645 5.74562 7.45121 5.91614 6.30617C6.07958 5.20585 6.24342 4.10581 6.40766 3.00606C6.4239 2.89781 6.43733 2.78871 6.46219 2.68258C6.50579 2.49001 6.60932 2.31858 6.75611 2.19588C6.9029 2.07318 7.08441 2.00634 7.27143 2.00613C8.34387 2.00358 9.41617 2.00323 10.4883 2.00507Z" fill="currentColor"/>
<path d="M10.0526 21.9993C9.62157 21.9993 9.19066 22 8.75981 22C8.42686 22 8.23101 21.7616 8.28293 21.4133C8.51011 19.8947 8.73803 18.3762 8.96668 16.8577C9.11369 15.8838 9.26202 14.9102 9.4117 13.9369C9.45379 13.661 9.59211 13.5336 9.8543 13.5322C10.3987 13.5298 10.9434 13.5341 11.4878 13.5322C12.5795 13.5268 13.6527 13.3999 14.6883 13.0041C16.4138 12.3427 17.5867 11.0865 18.2652 9.29427C18.4821 8.72325 18.6439 8.13045 18.7479 7.52493C18.7515 7.5037 18.7552 7.48248 18.7596 7.46253C18.783 7.35534 18.8073 7.34557 18.8945 7.41222C18.9404 7.44746 18.9843 7.48588 19.0272 7.52493C19.5211 7.97576 19.7967 8.55245 19.9192 9.22444C20.0395 9.88434 20.0136 10.5404 19.9192 11.1984C19.8019 12.0149 19.5824 12.7986 19.2216 13.5332C18.5952 14.8052 17.6274 15.6455 16.3415 16.0834C15.4953 16.3714 14.6236 16.4551 13.7415 16.4464C13.6513 16.4464 13.5611 16.4451 13.4709 16.4464C13.1027 16.4542 12.8227 16.686 12.7473 17.0681C12.6813 17.4034 12.632 17.7417 12.5811 18.0813C12.4175 19.167 12.2586 20.2533 12.094 21.3388C12.0651 21.5238 11.9748 21.6919 11.8395 21.8129C11.7042 21.934 11.5326 22 11.3555 21.9993C10.9211 21.9993 10.4867 21.9993 10.0526 21.9993Z" fill="currentColor"/>
</svg>
