<svg viewBox="0 0 24 24" fill="none" xmlns="http://www.w3.org/2000/svg">
<path fill-rule="evenodd" clip-rule="evenodd" d="M17.2929 1.29289C17.6834 0.902369 18.3166 0.902369 18.7071 1.29289L22.7071 5.29289C23.0977 5.68342 23.0977 6.31658 22.7071 6.70711C22.3166 7.09763 21.6834 7.09763 21.2929 6.70711L17.2929 2.70711C16.9024 2.31658 16.9024 1.68342 17.2929 1.29289ZM14.2929 4.29289C14.6834 3.90237 15.3166 3.90237 15.7071 4.29289L19.7071 8.29289C20.0977 8.68342 20.0977 9.31658 19.7071 9.70711L8.20713 21.2071C8.08407 21.3302 7.93104 21.419 7.76314 21.4648L2.26314 22.9648C1.91693 23.0592 1.54667 22.9609 1.29292 22.7071C1.03917 22.4534 0.940838 22.0831 1.03526 21.7369L2.53526 16.2369C2.58105 16.069 2.66986 15.9159 2.79292 15.7929L14.2929 4.29289ZM4.39491 17.0193L3.42524 20.5748L6.9807 19.6051L17.5858 9L15 6.41421L4.39491 17.0193Z" fill="currentColor"/>
</svg>
