<svg viewBox="0 0 24 24" fill="none" xmlns="http://www.w3.org/2000/svg">
<path fill-rule="evenodd" clip-rule="evenodd" d="M2 12.1358V9.82352H2.86664V12.1358C2.86664 12.4245 2.69363 12.598 2.43332 12.598C2.15881 12.598 2 12.425 2 12.1358ZM6.45099 12.1358V9.82352H7.31763V12.1358C7.31763 12.4245 7.14462 12.598 6.88431 12.598C6.6098 12.598 6.45099 12.425 6.45099 12.1358ZM13.5171 10.026V9.82352H14.3838V12.1647C14.3838 12.4539 14.225 12.6127 13.9505 12.6127C13.676 12.6127 13.5171 12.4392 13.5171 12.1647V11.4422L13.5029 11.4711C13.0838 12.2662 12.4044 12.6706 11.4652 12.6706C9.87547 12.6706 9.08088 11.8034 9.08088 10.1127V9.82352H9.94804V10.0549C9.94804 11.3554 10.526 11.9912 11.7255 11.9912C12.7225 11.9912 13.5171 11.124 13.5171 10.026ZM13.5171 9.18721V6.86075C13.5171 6.57205 13.6765 6.41271 13.951 6.41271C14.2255 6.41271 14.3843 6.57152 14.3843 6.84603V9.18721H13.5171ZM9.08088 9.17301V6.84655C9.08088 6.55732 9.23969 6.39851 9.51472 6.39851C9.78923 6.39851 9.94804 6.57205 9.94804 6.84655V9.17301H9.08088ZM19.2397 6.99117C17.9971 6.99117 17.1299 7.84361 17.0289 9.15881V9.18774H21.1907V9.15881C21.1907 7.5549 20.1789 6.99117 19.2397 6.99117ZM15.5985 9.18774H16.1476C16.2922 7.49653 17.5059 6.34066 19.2108 6.34119C19.8613 6.34119 21.9711 6.55837 22 9.40492V9.44804C21.9853 9.70835 21.8412 9.83824 21.5809 9.83824H17.0431V9.85244C17.072 11.1676 18.0407 12.0201 19.5 12.0201C20.1442 12.0201 20.4396 11.9203 20.756 11.8134C20.7803 11.8052 20.8047 11.797 20.8294 11.7887C20.8627 11.7776 20.8982 11.7644 20.935 11.7507C20.994 11.7288 21.0564 11.7056 21.1186 11.6877C21.2627 11.6446 21.3784 11.6446 21.4652 11.7025C21.5372 11.7461 21.5804 11.8182 21.5951 11.9049C21.624 12.1216 21.4794 12.2373 21.3495 12.2951C20.8152 12.5554 20.1936 12.6711 19.4132 12.6711C17.5201 12.6711 16.2774 11.5584 16.1476 9.82404H15.5985C15.3961 9.82404 15.2662 9.70835 15.2662 9.50589C15.2662 9.30343 15.3961 9.18774 15.5985 9.18774ZM2 9.17301V4.46224C2 4.17301 2.15881 3.99948 2.43385 4C2.69363 4 2.86716 4.17301 2.86716 4.46224V7.72791L2.98286 7.51126C3.11275 7.23675 3.64756 6.34066 5.03481 6.34066C6.50883 6.34066 7.31815 7.27987 7.31815 8.97055V9.17301H6.45099V8.94163C6.45099 7.69899 5.85886 7.00537 4.78923 7.00537C3.47402 7.00537 2.86716 8.11811 2.86716 9.15881V9.17301H2ZM9.20507 17.2957H9.90343V19.5712H9.20507V18.6756H8.48095V19.5712H7.78942V17.2957H8.48095V18.2007H9.20507V17.2957ZM12.3146 17.3025V19.1158V19.1252H12.9808L12.8772 19.578H11.623V17.3025H12.3146ZM10.4135 17.302H11.1087V19.5775H10.4135V17.302ZM13.2327 17.302H13.9211H13.9243V19.5775H13.2327V17.302ZM17.6706 17.7033C17.4702 17.7033 17.3472 17.7611 17.3472 17.8842H17.3545C17.3545 18.0321 17.5366 18.0958 17.7519 18.1711C18.0631 18.28 18.4436 18.4132 18.4436 18.8602C18.4436 19.4292 17.9682 19.6232 17.3866 19.6232C17.1605 19.6232 16.876 19.5848 16.6625 19.5039L16.5846 18.9869C16.795 19.0937 17.1442 19.1678 17.3703 19.1678C17.6285 19.1678 17.7321 19.0931 17.7321 18.9512C17.7321 18.8004 17.5539 18.7373 17.3422 18.6623C17.0318 18.5524 16.6493 18.417 16.6493 17.9425C16.6493 17.4771 17.0306 17.2573 17.5933 17.2573C17.8872 17.2573 18.0492 17.2831 18.2301 17.322L18.2848 17.8163C18.1234 17.7516 17.8872 17.7033 17.6706 17.7033ZM16.449 18.1234C16.449 18.7019 16.0414 19.0348 15.3951 19.0348H15.3888H15.1401V19.578H14.4517V17.3025C14.6905 17.2768 15.0239 17.2573 15.2984 17.2573C16.0125 17.2573 16.449 17.4834 16.449 18.1234ZM15.2626 18.6277C15.6249 18.6277 15.7638 18.4269 15.7638 18.1297L15.7569 18.1366C15.7569 17.8453 15.5955 17.6838 15.2526 17.6838C15.2174 17.6838 15.1816 17.6838 15.1396 17.6901V18.6277H15.2626ZM7.51755 18.1234C7.51755 18.7019 7.10684 19.0348 6.46054 19.0348H6.21864V19.578H5.52344V17.3025C5.75587 17.2768 6.09191 17.2573 6.37009 17.2573C7.08107 17.2573 7.51755 17.4834 7.51755 18.1234ZM6.32487 18.6277C6.68667 18.6277 6.83234 18.4269 6.83234 18.1297L6.82918 18.1366C6.82918 17.8453 6.66774 17.6838 6.32487 17.6838C6.28963 17.6838 6.25072 17.6838 6.2118 17.6901V18.6277H6.32487Z" fill="currentColor"/>
</svg>
