<svg viewBox="0 0 24 24" fill="none" xmlns="http://www.w3.org/2000/svg">
<path d="M10.68 13.3101C11.6949 14.3258 12.8418 15.2004 14.09 15.9101L15.36 14.6401C15.6319 14.3712 15.9752 14.1859 16.3491 14.1062C16.7231 14.0264 17.1121 14.0556 17.47 14.1901C18.3773 14.5286 19.3199 14.7635 20.28 14.8901C20.7606 14.958 21.2 15.1984 21.5165 15.5663C21.8329 15.9343 22.0048 16.4048 22 16.8901V19.8901C22.0011 20.1686 21.9441 20.4443 21.8325 20.6994C21.7209 20.9546 21.5573 21.1837 21.3521 21.372C21.1469 21.5602 20.9046 21.7036 20.6407 21.7928C20.3769 21.882 20.0974 21.9152 19.82 21.8901C16.7428 21.5557 13.787 20.5042 11.19 18.8201C9.98527 18.0552 8.86853 17.1597 7.86 16.1501M5.19 12.8101C3.50586 10.2131 2.45436 7.25726 2.12 4.1801C2.09501 3.90356 2.12787 3.62486 2.2165 3.36172C2.30513 3.09859 2.44757 2.85679 2.63477 2.65172C2.82196 2.44665 3.0498 2.28281 3.30379 2.17062C3.55778 2.05843 3.83234 2.00036 4.11 2.0001H7.11C7.59531 1.99532 8.06579 2.16718 8.43376 2.48363C8.80173 2.80008 9.04208 3.23954 9.11 3.7201C9.23662 4.68016 9.47145 5.62282 9.81 6.5301C9.94454 6.88802 9.97366 7.27701 9.89391 7.65098C9.81415 8.02494 9.62886 8.36821 9.36 8.6401L8.09 9.9101M22 2.0001L2 22.0001" stroke="currentColor" stroke-width="2" stroke-linecap="round" stroke-linejoin="round"/>
</svg>
