<svg viewBox="0 0 24 24" fill="none" xmlns="http://www.w3.org/2000/svg">
<path d="M22.1113 16.9738V19.9846C22.1124 20.2642 22.055 20.5408 21.9428 20.7969C21.8306 21.053 21.6661 21.2829 21.4597 21.4719C21.2533 21.6608 21.0097 21.8047 20.7444 21.8942C20.4791 21.9838 20.198 22.017 19.9191 21.9919C16.8247 21.6563 13.8523 20.601 11.2408 18.9108C8.81109 17.3699 6.75114 15.3141 5.20721 12.8892C3.50774 10.271 2.45012 7.29008 2.12004 4.18795C2.09491 3.91042 2.12796 3.63071 2.21708 3.36663C2.3062 3.10254 2.44944 2.85987 2.63769 2.65407C2.82593 2.44826 3.05505 2.28383 3.31045 2.17123C3.56586 2.05864 3.84196 2.00036 4.12117 2.0001H7.13796C7.62598 1.9953 8.09909 2.16778 8.46912 2.48537C8.83915 2.80297 9.08084 3.24401 9.14914 3.72629C9.27648 4.68982 9.51262 5.63587 9.85306 6.54641C9.98836 6.90563 10.0176 7.29602 9.93744 7.67133C9.85724 8.04665 9.67091 8.39115 9.40054 8.66402L8.12344 9.93859C9.55496 12.4512 11.6395 14.5315 14.157 15.9602L15.4341 14.6856C15.7075 14.4158 16.0527 14.2298 16.4288 14.1498C16.8048 14.0698 17.196 14.099 17.5559 14.234C18.4683 14.5738 19.4162 14.8095 20.3816 14.9365C20.8701 15.0053 21.3162 15.2509 21.6351 15.6265C21.954 16.0021 22.1235 16.4817 22.1113 16.9738Z" stroke="currentColor" stroke-width="2" stroke-linecap="round" stroke-linejoin="round"/>
</svg>
