<svg viewBox="0 0 24 24" fill="none" xmlns="http://www.w3.org/2000/svg">
<path d="M14.087 2.0001C16.1316 2.21564 18.0415 3.12293 19.5007 4.57191C20.9599 6.02089 21.8811 7.92477 22.1119 9.9687M14.087 6.01451C15.0736 6.20914 15.9789 6.69598 16.6855 7.41183C17.392 8.12768 17.8672 9.03949 18.0493 10.0289M22.0617 16.9738V19.9846C22.0629 20.2642 22.0056 20.5408 21.8937 20.7969C21.7818 21.053 21.6176 21.2829 21.4118 21.4719C21.2059 21.6608 20.9629 21.8047 20.6983 21.8942C20.4336 21.9838 20.1532 22.017 19.875 21.9919C16.7882 21.6563 13.8232 20.601 11.2182 18.9108C8.7945 17.3699 6.73965 15.3141 5.19955 12.8892C3.50428 10.271 2.44928 7.29008 2.12002 4.18795C2.09495 3.91042 2.12792 3.63071 2.21682 3.36663C2.30572 3.10254 2.44861 2.85987 2.63638 2.65407C2.82416 2.44826 3.05271 2.28383 3.30748 2.17123C3.56226 2.05864 3.83767 2.00036 4.1162 2.0001H7.12551C7.61232 1.9953 8.08427 2.16778 8.45338 2.48537C8.82249 2.80297 9.06358 3.24401 9.13172 3.72629C9.25873 4.68982 9.49429 5.63587 9.83389 6.54642C9.96885 6.90563 9.99806 7.29602 9.91806 7.67133C9.83805 8.04665 9.65219 8.39115 9.38249 8.66402L8.10855 9.93859C9.53652 12.4512 11.6159 14.5315 14.1272 15.9602L15.4011 14.6856C15.6738 14.4158 16.0182 14.2298 16.3933 14.1498C16.7684 14.0698 17.1586 14.099 17.5177 14.234C18.4278 14.5738 19.3733 14.8095 20.3364 14.9365C20.8237 15.0053 21.2687 15.2509 21.5868 15.6265C21.9049 16.0021 22.0739 16.4817 22.0617 16.9738Z" stroke="currentColor" stroke-width="2" stroke-linecap="round" stroke-linejoin="round"/>
</svg>
