<svg viewBox="0 0 24 24" fill="none" xmlns="http://www.w3.org/2000/svg">
  <path
    d="M2.72931 4.22847C2.72931 4.11423 2.96481 4.05712 3.09727 4.05712C4.03925 4 5.45222 4 6.8652 4C10.9128 4 12.5171 6.17046 12.5171 8.96921C12.5171 12.6247 9.80888 14.1669 6.45308 14.1669H5.3492V19.6502C5.35234 19.6696 5.3515 19.6895 5.34673 19.7086C5.34196 19.7278 5.33335 19.7458 5.32139 19.7617C5.30943 19.7776 5.29436 19.7911 5.27703 19.8014C5.2597 19.8116 5.24046 19.8185 5.22041 19.8215H2.84706C2.82701 19.8246 2.80653 19.8237 2.7868 19.8191C2.76707 19.8145 2.74847 19.8061 2.73207 19.7945C2.71567 19.7829 2.70179 19.7683 2.69121 19.7515C2.68064 19.7347 2.67358 19.716 2.67044 19.6966C2.66682 19.6813 2.66682 19.6654 2.67044 19.6502L2.72931 4.22847ZM5.30504 11.8251H6.48252C8.20458 11.8251 9.83832 11.2539 9.83832 8.96921C9.83832 7.14145 8.66085 6.22758 6.71801 6.22758C6.24621 6.21088 5.77378 6.22998 5.30504 6.28469V11.8251ZM17.9629 10.1116C16.7854 10.1116 16.4322 10.6827 16.4322 11.1397C16.4322 11.5966 16.7266 11.9964 18.272 12.7961C20.5681 13.867 21.3334 14.9094 21.3334 16.4516C21.3334 18.7363 19.5672 19.9929 17.0945 19.9929C16.0357 20.0384 14.9822 19.8222 14.0331 19.3646C13.9153 19.3075 13.9153 19.2503 13.9153 19.1361V17.0228C13.9153 16.9085 13.9742 16.8514 14.092 16.9085C14.9628 17.4733 15.9882 17.7718 17.0356 17.7653C18.2131 17.7653 18.6841 17.3083 18.6841 16.6943C18.6841 16.1803 18.3161 15.7233 16.8443 14.9808C14.7837 14.0098 13.9006 13.0388 13.9006 11.3824C13.9006 9.55466 15.3725 8.01249 17.9482 8.01249C18.8497 7.97659 19.7498 8.11243 20.5975 8.41232C20.6238 8.42146 20.6479 8.43559 20.6685 8.45389C20.689 8.47219 20.7056 8.49429 20.7173 8.5189C20.7289 8.5435 20.7354 8.57011 20.7363 8.59717C20.7372 8.62423 20.7326 8.65119 20.7226 8.67648C20.7242 8.68354 20.7242 8.69085 20.7226 8.6979V10.6399C20.7226 10.7541 20.6637 10.8112 20.4871 10.7541C19.7189 10.3468 18.8603 10.1263 17.985 10.1116H17.9629Z"
    fill="currentColor" />
</svg>