<svg viewBox="0 0 24 24" fill="none" xmlns="http://www.w3.org/2000/svg">
<path fill-rule="evenodd" clip-rule="evenodd" d="M1.29289 1.29289C1.68342 0.902369 2.31658 0.902369 2.70711 1.29289L22.7071 21.2929C23.0976 21.6834 23.0976 22.3166 22.7071 22.7071C22.3166 23.0976 21.6834 23.0976 21.2929 22.7071L16.5858 18H13V22C13 22.5523 12.5523 23 12 23C11.4477 23 11 22.5523 11 22V18H5C4.44772 18 4 17.5523 4 17V15.24C4.0003 14.6819 4.15628 14.1344 4.45042 13.66C4.74388 13.1868 5.16324 12.8046 5.66154 12.5562L7.44499 11.6544C7.61159 11.5717 7.75181 11.4441 7.84986 11.2859C7.94791 11.1278 7.9999 10.9455 8 10.7595V9.41421L1.29289 2.70711C0.902369 2.31658 0.902369 1.68342 1.29289 1.29289ZM9.94029 11.3545C9.86989 11.702 9.73812 12.0359 9.54958 12.34C9.25613 12.8132 8.83678 13.1954 8.33849 13.4438L6.55501 14.3456C6.38841 14.4283 6.24819 14.5559 6.15014 14.7141C6.05219 14.872 6.0002 15.0541 6 15.24V16H14.5858L9.94029 11.3545ZM6.89 2C6.89 1.44772 7.33772 1 7.89 1H16C16.7956 1 17.5587 1.31607 18.1213 1.87868C18.6839 2.44129 19 3.20435 19 4C19 4.79565 18.6839 5.55871 18.1213 6.12132C17.5587 6.68393 16.7956 7 16 7V9.34C16 9.89228 15.5523 10.34 15 10.34C14.4477 10.34 14 9.89228 14 9.34V6C14 5.44772 14.4477 5 15 5H16C16.2652 5 16.5196 4.89464 16.7071 4.70711C16.8946 4.51957 17 4.26522 17 4C17 3.73478 16.8946 3.48043 16.7071 3.29289C16.5196 3.10536 16.2652 3 16 3H7.89C7.33772 3 6.89 2.55228 6.89 2Z" fill="currentColor"/>
</svg>
