<svg viewBox="0 0 24 24" fill="none" xmlns="http://www.w3.org/2000/svg">
<path fill-rule="evenodd" clip-rule="evenodd" d="M1.9613 12.2564C1.9613 6.61538 6.57669 2 12.2177 2C17.8587 2 22.4741 6.61538 22.3459 11.7436C22.3459 17.3846 17.7305 22 12.0895 22C11.0639 22 10.0382 21.8718 9.1408 21.6154C9.52541 20.9744 9.91001 20.2051 10.1664 19.4359C10.2946 18.9231 10.9357 16.6154 10.9357 16.6154C11.3203 17.2564 12.3459 17.8974 13.4998 17.8974C16.8331 17.8974 19.0126 14.8205 19.0126 10.8462C19.0126 7.76923 16.4485 4.94872 12.4741 4.94872C7.60233 4.94872 5.16643 8.41026 5.16643 11.359C5.16643 13.1538 5.80747 14.6923 7.21772 15.3333C7.47413 15.4615 7.60233 15.3333 7.73053 15.0769C7.85874 14.9487 7.98694 14.4359 7.98694 14.3077C8.07759 14.1264 8.04005 14.0733 7.96495 13.9671C7.93384 13.9231 7.8963 13.87 7.85875 13.7949C7.47413 13.2821 7.21772 12.641 7.21772 11.7436C7.21772 9.17949 9.14079 6.8718 12.2177 6.8718C14.91 6.8718 16.4485 8.53846 16.4485 10.8462C16.4485 13.9231 15.1664 16.359 13.2434 16.359C12.0895 16.359 11.3203 15.4615 11.5767 14.4359C11.6837 13.9007 11.8578 13.3432 12.0242 12.81C12.2566 12.0659 12.4741 11.369 12.4741 10.8462C12.4741 9.94872 11.9613 9.30769 11.0639 9.30769C10.0382 9.30769 9.1408 10.4615 9.1408 12C9.1408 13.0256 9.5254 13.6667 9.5254 13.6667C9.5254 13.6667 8.49976 18.4103 8.24335 19.3077C8.11515 20.0769 8.11515 20.846 8.11515 21.6152C4.52541 20.0767 1.9613 16.4872 1.9613 12.2564Z" fill="currentColor"/>
</svg>
