<svg viewBox="0 0 24 24" fill="none" xmlns="http://www.w3.org/2000/svg">
<path fill-rule="evenodd" clip-rule="evenodd" d="M15.7071 11.2927C16.0976 11.6833 16.0976 12.3164 15.7071 12.7069L6.70711 21.7069C6.51957 21.8945 6.26522 21.9998 6 21.9998H3.41421L2.70711 22.7069C2.31658 23.0975 1.68342 23.0975 1.29289 22.7069C0.902369 22.3164 0.902369 21.6833 1.29289 21.2927L2.29289 20.2927C2.48043 20.1052 2.73478 19.9998 3 19.9998H5.58579L14.2929 11.2927C14.6834 10.9022 15.3166 10.9022 15.7071 11.2927Z" fill="currentColor"/>
<path fill-rule="evenodd" clip-rule="evenodd" d="M12.7071 8.29273C13.0976 8.68325 13.0976 9.31642 12.7071 9.70694L4 18.414V20.9998C4 21.5521 3.55228 21.9998 3 21.9998C2.44772 21.9998 2 21.5521 2 20.9998V17.9998C2 17.7346 2.10536 17.4803 2.29289 17.2927L11.2929 8.29273C11.6834 7.9022 12.3166 7.9022 12.7071 8.29273Z" fill="currentColor"/>
<path fill-rule="evenodd" clip-rule="evenodd" d="M19.9 2.97852C19.6026 2.97852 19.3174 3.09665 19.1071 3.30694L15.7071 6.70694C15.5196 6.89448 15.2652 6.99984 15 6.99984C14.7348 6.99984 14.4804 6.89448 14.2929 6.70694L13.8929 6.30694C13.7888 6.20282 13.6652 6.12022 13.5291 6.06387C13.3931 6.00752 13.2473 5.97852 13.1 5.97852C12.9527 5.97852 12.8069 6.00752 12.6709 6.06387C12.5348 6.12022 12.4112 6.20282 12.3071 6.30694C12.203 6.41107 12.1204 6.53468 12.064 6.67072C12.0077 6.80677 11.9787 6.95258 11.9787 7.09984C11.9787 7.24709 12.0077 7.3929 12.064 7.52895C12.1204 7.66499 12.203 7.78861 12.3071 7.89273L16.1071 11.6927C16.2112 11.7969 16.3348 11.8794 16.4709 11.9358C16.6069 11.9922 16.7527 12.0212 16.9 12.0212C17.0473 12.0212 17.1931 11.9922 17.3291 11.9358C17.4652 11.8794 17.5888 11.7969 17.6929 11.6927C17.797 11.5886 17.8796 11.465 17.936 11.3289C17.9923 11.1929 18.0213 11.0471 18.0213 10.8998C18.0213 10.7526 17.9923 10.6068 17.936 10.4707C17.8796 10.3347 17.797 10.2111 17.6929 10.1069L17.2929 9.70694C16.9024 9.31642 16.9024 8.68325 17.2929 8.29273L20.6929 4.89273C20.9032 4.68244 21.0213 4.39723 21.0213 4.09984C21.0213 3.80244 20.9032 3.51723 20.6929 3.30694C20.4826 3.09665 20.1974 2.97852 19.9 2.97852ZM17.6929 1.89273C18.2783 1.30737 19.0722 0.978516 19.9 0.978516C20.7278 0.978516 21.5217 1.30737 22.1071 1.89273C22.6925 2.47809 23.0213 3.27201 23.0213 4.09984C23.0213 4.92766 22.6925 5.72158 22.1071 6.30694L19.3927 9.02131C19.5511 9.23143 19.6826 9.4612 19.7837 9.70536C19.9406 10.0841 20.0213 10.4899 20.0213 10.8998C20.0213 11.3097 19.9406 11.7156 19.7837 12.0943C19.6269 12.473 19.3969 12.8171 19.1071 13.1069C18.8173 13.3968 18.4732 13.6267 18.0945 13.7836C17.7158 13.9404 17.3099 14.0212 16.9 14.0212C16.4901 14.0212 16.0842 13.9404 15.7055 13.7836C15.3268 13.6267 14.9827 13.3968 14.6929 13.1069L10.8929 9.30694C10.6031 9.0171 10.3731 8.67301 10.2163 8.29431C10.0594 7.91562 9.97868 7.50973 9.97868 7.09984C9.97868 6.68994 10.0594 6.28405 10.2163 5.90536C10.3731 5.52666 10.6031 5.18257 10.8929 4.89273C11.1827 4.60289 11.5268 4.37297 11.9055 4.21611C12.2842 4.05925 12.6901 3.97852 13.1 3.97852C13.5099 3.97852 13.9158 4.05925 14.2945 4.21611C14.5386 4.31724 14.7684 4.44874 14.9785 4.60709L17.6929 1.89273Z" fill="currentColor"/>
</svg>
