<svg viewBox="0 0 24 24" fill="none" xmlns="http://www.w3.org/2000/svg">
<path d="M18.157 17.8299C17.2939 17.8299 16.4821 17.4938 15.8717 16.8837L12.572 13.5839C12.3403 13.3516 11.9365 13.3523 11.7049 13.5839L8.39309 16.8958C7.78272 17.5058 6.9709 17.8419 6.10779 17.8419H5.4575L9.63676 22.0211C10.9419 23.3262 13.0581 23.3262 14.3633 22.0211L18.5545 17.8299H18.157Z" fill="currentColor"/>
<path d="M6.10773 6.15799C6.97085 6.15799 7.78267 6.49406 8.39304 7.10413L11.7048 10.4165C11.9434 10.6551 12.3328 10.656 12.5719 10.4162L15.8716 7.11621C16.482 6.50613 17.2938 6.17006 18.1569 6.17006H18.5544L14.3634 1.97894C13.058 0.673688 10.9419 0.673688 9.63671 1.97894L5.45764 6.158L6.10773 6.15799Z" fill="currentColor"/>
<path d="M22.0211 9.63666L19.4884 7.10396C19.4327 7.12629 19.3723 7.14023 19.3085 7.14023H18.157C17.5616 7.14023 16.9788 7.38171 16.5582 7.80269L13.2585 11.1024C12.9497 11.4112 12.544 11.5657 12.1386 11.5657C11.7329 11.5657 11.3274 11.4112 11.0187 11.1027L7.70659 7.79063C7.28591 7.36955 6.70312 7.12818 6.10778 7.12818H4.69183C4.63143 7.12818 4.575 7.11394 4.52172 7.09387L1.97894 9.63666C0.673688 10.9419 0.673688 13.058 1.97894 14.3632L4.52162 16.9059C4.57499 16.8859 4.63143 16.8716 4.69183 16.8716H6.10778C6.70312 16.8716 7.28591 16.6302 7.70659 16.2093L11.0184 12.8975C11.617 12.2993 12.6605 12.2991 13.2585 12.8977L16.5582 16.1972C16.9788 16.6182 17.5616 16.8596 18.157 16.8596H19.3085C19.3723 16.8596 19.4327 16.8736 19.4884 16.8959L22.0211 14.3632C23.3263 13.058 23.3263 10.9419 22.0211 9.63666Z" fill="currentColor"/>
</svg>
