<svg viewBox="0 0 24 24" fill="none" xmlns="http://www.w3.org/2000/svg">
<path fill-rule="evenodd" clip-rule="evenodd" d="M2 6.08062C2 4.40361 3.93986 3.47127 5.24939 4.51889L12.6486 10.4383C13.6494 11.2389 13.6494 12.7611 12.6486 13.5617L5.24939 19.4811C3.93987 20.5287 2 19.5964 2 17.9194V6.08062ZM11.3992 12L4 6.08062V17.9194L11.3992 12Z" fill="currentColor"/>
<path fill-rule="evenodd" clip-rule="evenodd" d="M16 4C16.5523 4 17 4.44772 17 5V19C17 19.5523 16.5523 20 16 20C15.4477 20 15 19.5523 15 19V5C15 4.44772 15.4477 4 16 4Z" fill="currentColor"/>
<path fill-rule="evenodd" clip-rule="evenodd" d="M21 4C21.5523 4 22 4.44772 22 5V19C22 19.5523 21.5523 20 21 20C20.4477 20 20 19.5523 20 19V5C20 4.44772 20.4477 4 21 4Z" fill="currentColor"/>
</svg>
