<svg viewBox="0 0 24 24" fill="none" xmlns="http://www.w3.org/2000/svg">
<path fill-rule="evenodd" clip-rule="evenodd" d="M9.42859 3V19.7941L13.013 21V6.91346C13.013 6.25397 13.292 5.81317 13.737 5.96631C14.3231 6.13808 14.4376 6.74652 14.4376 7.40601V13.0317C16.6702 14.174 18.4286 13.031 18.4286 10.0102C18.4286 6.91346 17.4001 5.5393 14.3648 4.43487C13.1717 4.00855 10.9515 3.2987 9.42859 3ZM13.9286 18.869V21L21.8693 18.1103C21.8693 18.1103 22.9367 17.7126 23.3734 17.1558C23.8082 16.599 23.6149 15.7908 21.9003 15.2407C20.3804 14.6565 18.4429 14.4566 16.8609 14.6338C15.2783 14.8109 14.1529 15.214 14.1529 15.214L13.9286 15.2902V17.5027L17.8214 16.1137C18.4844 15.8731 19.4601 15.8209 19.9991 16.0001C20.5367 16.1785 20.4338 16.5181 19.7728 16.7581L13.9286 18.869ZM8.39296 18.2694C6.42333 18.5766 4.32735 18.4492 2.26313 17.7988C0.336102 17.2815 0.0148102 16.204 0.891324 15.5832C1.70502 15.0093 3.08333 14.576 3.08333 14.576L8.78573 12.6429V14.8461L4.68329 16.2481C3.95696 16.4974 3.84649 16.8467 4.43493 17.0314C5.0248 17.216 6.09193 17.1636 6.81754 16.9142L8.78573 16.2343V18.206C8.70272 18.2206 8.61372 18.2345 8.52602 18.2483C8.48099 18.2554 8.43631 18.2624 8.39296 18.2694Z" fill="currentColor"/>
</svg>
