<svg viewBox="0 0 24 24" fill="none" xmlns="http://www.w3.org/2000/svg">
<path fill-rule="evenodd" clip-rule="evenodd" d="M1.29289 1.29289C1.68342 0.902369 2.31658 0.902369 2.70711 1.29289L22.7071 21.2929C23.0976 21.6834 23.0976 22.3166 22.7071 22.7071C22.3166 23.0976 21.6834 23.0976 21.2929 22.7071L1.29289 2.70711C0.902369 2.31658 0.902369 1.68342 1.29289 1.29289Z" fill="currentColor"/>
<path d="M7.58579 7H6C5.44772 7 5 7.44772 5 8V13C5 14.3261 5.52678 15.5979 6.46447 16.5355C7.40215 17.4732 8.67392 18 10 18H11V22C11 22.5523 11.4477 23 12 23C12.5523 23 13 22.5523 13 22V18H14C15.2281 18 16.4097 17.5482 17.3224 16.7366L15.9041 15.3183C15.3698 15.7572 14.6974 16 14 16H10C9.20435 16 8.44129 15.6839 7.87868 15.1213C7.31607 14.5587 7 13.7956 7 13V9H9.58579L7.58579 7Z" fill="currentColor"/>
<path d="M16.9515 13.5373C16.9836 13.3612 17 13.1815 17 13V9H12.4142L10.4142 7H14V2C14 1.44772 14.4477 1 15 1C15.5523 1 16 1.44772 16 2V7H18C18.5523 7 19 7.44772 19 8V13C19 13.7383 18.8367 14.4597 18.5302 15.116L16.9515 13.5373Z" fill="currentColor"/>
<path d="M10 6.58579V2C10 1.44772 9.55228 1 9 1C8.44772 1 8 1.44772 8 2V4.58579L10 6.58579Z" fill="currentColor"/>
</svg>
