<svg viewBox="0 0 24 24" fill="none" xmlns="http://www.w3.org/2000/svg">
<path fill-rule="evenodd" clip-rule="evenodd" d="M4.61467 3H19.308C20.7508 3 21.9226 4.17966 21.9226 5.63486V12.934C21.9226 13.0695 21.912 13.2026 21.8924 13.3326C21.912 13.527 21.9226 13.7235 21.9226 13.9221C21.9226 18.106 17.4628 21.499 11.9612 21.499C6.45957 21.499 2 18.106 2 13.9221C2 13.7236 2.0097 13.527 2.03013 13.3326C2.01018 13.2025 2 13.0695 2 12.934V5.63479C2 4.18005 3.17059 3 4.61467 3ZM12.9249 15.4824L18.0699 10.338C18.5869 9.82055 18.5869 8.98413 18.0699 8.46766C17.5544 7.95222 16.7148 7.95088 16.1996 8.46766L11.9613 12.706L7.72325 8.46766C7.20568 7.95009 6.36917 7.95088 5.85295 8.46766C5.33735 8.98334 5.33609 9.82134 5.85295 10.338L10.9968 15.4824C11.2672 15.7528 11.6242 15.8817 11.9775 15.8696C12.3202 15.8725 12.6636 15.7438 12.9249 15.4824Z" fill="currentColor"/>
</svg>
