<svg viewBox="0 0 24 24" fill="none" xmlns="http://www.w3.org/2000/svg">
<path fill-rule="evenodd" clip-rule="evenodd" d="M6.04297 2.98455C7.76614 1.70655 9.85463 1.0166 12 1.0166C14.1454 1.0166 16.2339 1.70655 17.957 2.98455C19.6802 4.26255 20.9467 6.06085 21.5694 8.11384C22.1922 10.1668 22.1382 12.3657 21.4154 14.3856C20.6926 16.4056 19.3394 18.1395 17.5556 19.3314C17.0963 19.6382 16.4753 19.5147 16.1685 19.0555C15.8617 18.5963 15.9852 17.9753 16.4444 17.6684C17.8715 16.7149 18.9541 15.3278 19.5323 13.7118C20.1105 12.0959 20.1537 10.3368 19.6555 8.69439C19.1573 7.052 18.1442 5.61336 16.7656 4.59096C15.3871 3.56856 13.7163 3.0166 12 3.0166C10.2837 3.0166 8.61291 3.56856 7.23438 4.59096C5.85584 5.61336 4.84266 7.052 4.34446 8.69439C3.84626 10.3368 3.88946 12.0959 4.46768 13.7118C5.04591 15.3278 6.12849 16.7149 7.55556 17.6684C8.01477 17.9753 8.1383 18.5963 7.83148 19.0555C7.52465 19.5147 6.90366 19.6382 6.44445 19.3314C4.66062 18.1395 3.30738 16.4056 2.5846 14.3856C1.86183 12.3657 1.80782 10.1668 2.43057 8.11384C3.05332 6.06085 4.3198 4.26255 6.04297 2.98455ZM12 6.99992C11.2572 6.99992 10.529 7.20677 9.89708 7.59731C9.26517 7.98785 8.7545 8.54664 8.42229 9.21106C8.09008 9.87548 7.94945 10.6193 8.01616 11.3591C8.08288 12.099 8.35429 12.8056 8.8 13.3999C9.13137 13.8417 9.04183 14.4685 8.6 14.7999C8.15817 15.1313 7.53137 15.0417 7.2 14.5999C6.53144 13.7085 6.12431 12.6485 6.02424 11.5387C5.92418 10.429 6.13512 9.31327 6.63344 8.31663C7.13175 7.32 7.89776 6.48182 8.84561 5.89601C9.79347 5.3102 10.8857 4.99992 12 4.99992C13.1143 4.99992 14.2065 5.3102 15.1544 5.89601C16.1022 6.48182 16.8682 7.32 17.3666 8.31663C17.8649 9.31327 18.0758 10.429 17.9758 11.5387C17.8757 12.6485 17.4686 13.7085 16.8 14.5999C16.4686 15.0417 15.8418 15.1313 15.4 14.7999C14.9582 14.4685 14.8686 13.8417 15.2 13.3999C15.6457 12.8056 15.9171 12.099 15.9838 11.3591C16.0505 10.6193 15.9099 9.87549 15.5777 9.21106C15.2455 8.54664 14.7348 7.98785 14.1029 7.59731C13.471 7.20677 12.7428 6.99992 12 6.99992ZM10 10.9999C10 9.89535 10.8954 8.99992 12 8.99992C13.1046 8.99992 14 9.89535 14 10.9999C14 12.1045 13.1046 12.9999 12 12.9999C10.8954 12.9999 10 12.1045 10 10.9999ZM10.5858 15.5857C10.9609 15.2106 11.4696 14.9999 12 14.9999C12.5304 14.9999 13.0391 15.2106 13.4142 15.5857C13.7893 15.9608 14 16.4695 14 16.9999C14 17.3271 13.9029 18.1609 13.8029 18.9941C13.7764 19.2147 13.7489 19.4417 13.7212 19.6697C13.6399 20.3395 13.5576 21.0179 13.4985 21.5675C13.4817 21.9408 13.326 22.2952 13.0607 22.5606C12.7794 22.8419 12.3978 22.9999 12 22.9999C11.6022 22.9999 11.2206 22.8419 10.9393 22.5606C10.674 22.2952 10.5183 21.9408 10.5015 21.5675C10.4424 21.0179 10.3601 20.3395 10.2788 19.6697C10.2511 19.4417 10.2236 19.2147 10.1971 18.9941C10.0971 18.1609 10 17.3271 10 16.9999C10 16.4695 10.2107 15.9608 10.5858 15.5857Z" fill="currentColor"/>
</svg>
