<svg viewBox="0 0 24 24" fill="none" xmlns="http://www.w3.org/2000/svg">
<path fill-rule="evenodd" clip-rule="evenodd" d="M5.87866 1.87868C6.44127 1.31607 7.20433 1 7.99998 1C8.79563 1 9.55869 1.31607 10.1213 1.87868C10.6839 2.44129 11 3.20435 11 4V6.17157C11.3182 6.05906 11.656 6 12 6C12.7956 6 13.5587 6.31607 14.1213 6.87868C14.2762 7.03362 14.4125 7.20377 14.5286 7.38562C14.9739 7.13501 15.48 7 16 7C16.7956 7 17.5587 7.31607 18.1213 7.87868C18.2762 8.03362 18.4125 8.20377 18.5286 8.38562C18.9739 8.13501 19.48 8 20 8C20.7956 8 21.5587 8.31607 22.1213 8.87868C22.6839 9.44129 23 10.2043 23 11V14C23 16.3869 22.0518 18.6761 20.3639 20.364C18.6761 22.0518 16.3869 23 14 23H12C8.93117 23 6.97919 22.0322 5.30526 20.3695L5.30287 20.3671L1.70287 16.7671C1.69086 16.7551 1.67915 16.7428 1.66777 16.7302C1.15167 16.1586 0.875148 15.4104 0.895453 14.6406C0.915759 13.8707 1.23134 13.1382 1.77685 12.5946C2.32236 12.051 3.05602 11.738 3.82592 11.7205C4.23109 11.7112 4.62995 11.7841 4.99998 11.9308V4C4.99998 3.20435 5.31605 2.44129 5.87866 1.87868ZM6.00498 15C6.26475 15.0013 6.5248 14.902 6.72169 14.7025C6.94986 14.4713 7.04241 14.1571 6.99998 13.8586V4C6.99998 3.73478 7.10534 3.48043 7.29287 3.29289C7.48041 3.10536 7.73476 3 7.99998 3C8.2652 3 8.51955 3.10536 8.70709 3.29289C8.89462 3.48043 8.99998 3.73478 8.99998 4V10.5C8.99998 11.0523 9.4477 11.5 9.99998 11.5C10.5523 11.5 11 11.0523 11 10.5V9C11 8.73478 11.1053 8.48043 11.2929 8.29289C11.4804 8.10536 11.7348 8 12 8C12.2652 8 12.5196 8.10536 12.7071 8.29289C12.8946 8.48043 13 8.73478 13 9V11C13 11.5523 13.4477 12 14 12C14.5523 12 15 11.5523 15 11V10C15 9.73478 15.1053 9.48043 15.2929 9.29289C15.4804 9.10536 15.7348 9 16 9C16.2652 9 16.5196 9.10536 16.7071 9.29289C16.8946 9.48043 17 9.73478 17 10V12C17 12.5523 17.4477 13 18 13C18.5523 13 19 12.5523 19 12V11C19 10.7348 19.1053 10.4804 19.2929 10.2929C19.4804 10.1054 19.7348 10 20 10C20.2652 10 20.5196 10.1054 20.7071 10.2929C20.8946 10.4804 21 10.7348 21 11V14C21 15.8565 20.2625 17.637 18.9497 18.9497C17.637 20.2625 15.8565 21 14 21H12C9.46955 21 8.02164 20.2483 6.71588 18.9517C6.71549 18.9513 6.7151 18.9509 6.7147 18.9505L3.13821 15.374C2.97518 15.1856 2.88818 14.9429 2.89476 14.6933C2.90153 14.4367 3.00672 14.1925 3.18856 14.0113C3.37039 13.8301 3.61495 13.7258 3.87158 13.7199C4.12257 13.7142 4.36631 13.8031 4.55457 13.9685L5.218 14.6234C5.40124 14.8529 5.68343 15 5.99998 15C6.00165 15 6.00331 15 6.00498 15Z" fill="currentColor"/>
</svg>
