<svg viewBox="0 0 24 24" fill="none" xmlns="http://www.w3.org/2000/svg">
<path fill-rule="evenodd" clip-rule="evenodd" d="M1.29289 1.29289C1.68342 0.902369 2.31658 0.902369 2.70711 1.29289L6.85857 5.44436C6.86377 5.44944 6.86892 5.4546 6.87403 5.45982L19.5403 18.1261C19.5454 18.1311 19.5505 18.1362 19.5556 18.1413L22.7071 21.2929C23.0976 21.6834 23.0976 22.3166 22.7071 22.7071C22.3166 23.0976 21.6834 23.0976 21.2929 22.7071L18.8623 20.2765C18.1263 20.9807 17.2856 21.5699 16.3681 22.022C15.1245 22.6347 13.7672 22.9822 12.3822 23.0423C10.9972 23.1025 9.6148 22.874 8.32282 22.3714C7.03084 21.8688 5.85747 21.1031 4.87721 20.1228C3.89695 19.1425 3.13121 17.9692 2.62862 16.6772C2.12602 15.3852 1.89754 14.0028 1.95769 12.6178C2.01784 11.2328 2.3653 9.87549 2.97801 8.63195C3.43009 7.71443 4.01928 6.87365 4.72353 6.13775L1.29289 2.70711C0.902369 2.31658 0.902369 1.68342 1.29289 1.29289ZM6.13817 7.55239C5.58816 8.13348 5.12722 8.79509 4.77207 9.5159C4.2819 10.5107 4.00393 11.5966 3.95581 12.7046C3.90769 13.8126 4.09047 14.9185 4.49255 15.9521C4.89462 16.9857 5.50721 17.9244 6.29142 18.7086C7.07563 19.4928 8.01432 20.1054 9.04791 20.5075C10.0815 20.9095 11.1874 21.0923 12.2954 21.0442C13.4034 20.9961 14.4893 20.7181 15.4841 20.2279C16.2049 19.8728 16.8665 19.4118 17.4476 18.8618L6.13817 7.55239ZM11 6V2C11 1.44772 11.4477 1 12 1C12.5523 1 13 1.44772 13 2V6C13 6.55228 12.5523 7 12 7C11.4477 7 11 6.55228 11 6ZM17.6531 5.93272C18.0437 5.54229 18.6769 5.54245 19.0673 5.93307C20.2624 7.12879 21.1349 8.60799 21.6032 10.2324C22.0715 11.8569 22.1203 13.5735 21.7451 15.222C21.6225 15.7605 21.0866 16.0976 20.548 15.9751C20.0095 15.8525 19.6724 15.3166 19.7949 14.778C20.0951 13.4593 20.0561 12.086 19.6815 10.7864C19.3068 9.48687 18.6088 8.30351 17.6527 7.34693C17.2623 6.95631 17.2624 6.32315 17.6531 5.93272Z" fill="currentColor"/>
</svg>
