<svg viewBox="0 0 24 24" fill="none" xmlns="http://www.w3.org/2000/svg">
  <path
    d="M5.16669 4.24307C5.16669 4.14298 5.19335 4.07149 5.30002 4.07149C6.15335 4.0286 7.39335 4 8.71335 4C12.4067 4 14.02 6.17337 14.02 8.96157C14.02 12.5934 11.58 14.1519 8.56669 14.1519C8.06002 14.1519 7.90002 14.1233 7.52669 14.1233V19.6282C7.52669 19.7426 7.48669 19.7998 7.36669 19.7998H5.32669C5.22002 19.7998 5.16669 19.7569 5.16669 19.6282V4.24307ZM7.54002 11.8356C7.84669 11.8642 8.08669 11.8642 8.62002 11.8642C10.18 11.8642 11.62 11.2779 11.62 9.00447C11.62 7.18856 10.5934 6.27346 8.80669 6.27346C8.27335 6.27346 7.76669 6.30206 7.52669 6.31635L7.54002 11.8356ZM16.3667 4.21448C16.3667 4.11439 16.3934 4.07149 16.5267 4.07149H18.5934C18.7267 4.07149 18.7667 4.11439 18.7667 4.21448V17.0545C18.7667 17.6265 18.9667 17.8266 19.3667 17.8266C19.4876 17.8236 19.6081 17.8092 19.7267 17.7837C19.82 17.7837 19.8334 17.8123 19.8334 17.9267V19.5996C19.8334 19.7426 19.8067 19.7855 19.7267 19.8284C19.3519 19.9557 18.9596 20.0138 18.5667 20C17.4067 20 16.3667 19.5282 16.3667 17.269V4.21448Z"
    fill="currentColor" />
</svg>