<svg viewBox="0 0 24 24" fill="none" xmlns="http://www.w3.org/2000/svg">
<path d="M3.60014 19.6123C3.60014 19.7316 3.55453 19.7763 3.43288 19.7763H1.19767C1.04562 19.7763 1 19.7316 1 19.5825V4.28332C1 4.16403 1.04562 4.07456 1.15205 4.07456C2.33808 4.02982 3.43288 4 5.24234 4C8.70919 4 10.7923 5.49115 10.7923 8.47344C10.8055 9.40907 10.5192 10.3252 9.97369 11.0929C9.42816 11.8606 8.65088 12.4412 7.75125 12.753C8.4507 13.9459 10.8228 18.1659 11.5982 19.5974C11.6743 19.7167 11.6743 19.8061 11.507 19.8061H9.0057C8.83844 19.8061 8.76241 19.7614 8.7168 19.6869C8.15419 18.7325 6.43597 15.452 5.29556 13.4688H3.60014V19.6123ZM5.07508 11.1426C6.83892 11.1426 8.11618 10.4567 8.11618 8.66729C8.11618 6.93756 6.97577 6.14725 5.16631 6.14725C4.54288 6.14725 3.93466 6.17707 3.58494 6.19198V11.1426H5.07508Z" fill="currentColor"/>
<path d="M22.2573 17.3756C22.2573 17.5396 22.2877 18.0466 22.3333 18.8667C22.3333 18.9562 22.3029 19.0158 22.2117 19.0308C20.7937 19.6329 19.2708 19.9619 17.7261 20C15.5213 20 13.4077 19.165 13.4077 15.8397V8.38397C13.4077 8.26468 13.4533 8.19012 13.575 8.19012H15.8862C16.0078 8.19012 16.0535 8.26468 16.0535 8.38397V15.5266C16.0535 16.9282 16.6161 17.6887 18.1062 17.6887C18.6259 17.6962 19.1423 17.605 19.6267 17.4203V8.35415C19.6267 8.23485 19.6724 8.1603 19.794 8.1603H22.0748C22.2269 8.1603 22.2421 8.23485 22.2421 8.35415V17.3756H22.2573Z" fill="currentColor"/>
<path d="M3.60014 19.6123C3.60014 19.7316 3.55453 19.7763 3.43288 19.7763H1.19767C1.04562 19.7763 1 19.7316 1 19.5825V4.28332C1 4.16403 1.04562 4.07456 1.15205 4.07456C2.33808 4.02982 3.43288 4 5.24234 4C8.70919 4 10.7923 5.49115 10.7923 8.47344C10.8055 9.40907 10.5192 10.3252 9.97369 11.0929C9.42816 11.8606 8.65088 12.4412 7.75125 12.753C8.4507 13.9459 10.8228 18.1659 11.5982 19.5974C11.6743 19.7167 11.6743 19.8061 11.507 19.8061H9.0057C8.83844 19.8061 8.76241 19.7614 8.7168 19.6869C8.15419 18.7325 6.43597 15.452 5.29556 13.4688H3.60014V19.6123ZM5.07508 11.1426C6.83892 11.1426 8.11618 10.4567 8.11618 8.66729C8.11618 6.93756 6.97577 6.14725 5.16631 6.14725C4.54288 6.14725 3.93466 6.17707 3.58494 6.19198V11.1426H5.07508Z" fill="currentColor"/>
<path d="M22.2573 17.3756C22.2573 17.5396 22.2877 18.0466 22.3333 18.8667C22.3333 18.9562 22.3029 19.0158 22.2117 19.0308C20.7937 19.6329 19.2708 19.9619 17.7261 20C15.5213 20 13.4077 19.165 13.4077 15.8397V8.38397C13.4077 8.26468 13.4533 8.19012 13.575 8.19012H15.8862C16.0078 8.19012 16.0535 8.26468 16.0535 8.38397V15.5266C16.0535 16.9282 16.6161 17.6887 18.1062 17.6887C18.6259 17.6962 19.1423 17.605 19.6267 17.4203V8.35415C19.6267 8.23485 19.6724 8.1603 19.794 8.1603H22.0748C22.2269 8.1603 22.2421 8.23485 22.2421 8.35415V17.3756H22.2573Z" fill="currentColor"/>
<path d="M3.60014 19.6123C3.60014 19.7316 3.55453 19.7763 3.43288 19.7763H1.19767C1.04562 19.7763 1 19.7316 1 19.5825V4.28332C1 4.16403 1.04562 4.07456 1.15205 4.07456C2.33808 4.02982 3.43288 4 5.24234 4C8.70919 4 10.7923 5.49115 10.7923 8.47344C10.8055 9.40907 10.5192 10.3252 9.97369 11.0929C9.42816 11.8606 8.65088 12.4412 7.75125 12.753C8.4507 13.9459 10.8228 18.1659 11.5982 19.5974C11.6743 19.7167 11.6743 19.8061 11.507 19.8061H9.0057C8.83844 19.8061 8.76241 19.7614 8.7168 19.6869C8.15419 18.7325 6.43597 15.452 5.29556 13.4688H3.60014V19.6123ZM5.07508 11.1426C6.83892 11.1426 8.11618 10.4567 8.11618 8.66729C8.11618 6.93756 6.97577 6.14725 5.16631 6.14725C4.54288 6.14725 3.93466 6.17707 3.58494 6.19198V11.1426H5.07508Z" fill="currentColor"/>
<path d="M22.2573 17.3756C22.2573 17.5396 22.2877 18.0466 22.3333 18.8667C22.3333 18.9562 22.3029 19.0158 22.2117 19.0308C20.7937 19.6329 19.2708 19.9619 17.7261 20C15.5213 20 13.4077 19.165 13.4077 15.8397V8.38397C13.4077 8.26468 13.4533 8.19012 13.575 8.19012H15.8862C16.0078 8.19012 16.0535 8.26468 16.0535 8.38397V15.5266C16.0535 16.9282 16.6161 17.6887 18.1062 17.6887C18.6259 17.6962 19.1423 17.605 19.6267 17.4203V8.35415C19.6267 8.23485 19.6724 8.1603 19.794 8.1603H22.0748C22.2269 8.1603 22.2421 8.23485 22.2421 8.35415V17.3756H22.2573Z" fill="currentColor"/>
</svg>
