<svg viewBox="0 0 24 24" fill="none" xmlns="http://www.w3.org/2000/svg">
<path d="M2.83677 4.231C2.83677 4.1155 2.83677 4.05775 2.9523 4.05775C3.87657 4 5.26297 4 6.64937 4C10.6208 4 12.3683 6.19448 12.3683 9.02421C12.3683 12.7202 9.711 14.2794 6.47607 14.2794H5.39294V19.8234C5.39603 19.8431 5.39521 19.8631 5.39052 19.8825C5.38584 19.9018 5.37739 19.9201 5.36566 19.9362C5.35392 19.9523 5.33913 19.9659 5.32213 19.9763C5.30513 19.9866 5.28626 19.9935 5.26658 19.9966C5.25113 20.0002 5.23509 20.0002 5.21964 19.9966H3.01007C2.99039 19.9997 2.9703 19.9989 2.95094 19.9942C2.93158 19.9895 2.91334 19.9811 2.89724 19.9694C2.88115 19.9576 2.86753 19.9428 2.85715 19.9258C2.84677 19.9088 2.83985 19.89 2.83677 19.8703C2.83322 19.8549 2.83322 19.8388 2.83677 19.8234V4.231ZM5.43627 11.9117H6.5916C8.26683 11.9117 9.88429 11.3342 9.88429 9.02421C9.88429 7.17623 8.72896 6.25223 6.82267 6.25223C6.35973 6.23535 5.89619 6.25466 5.43627 6.30998V11.9117ZM14.6789 10.5834C14.6789 10.4102 14.6789 10.006 14.6212 9.19746C14.6212 9.08196 14.6212 9.08196 14.7367 9.02421C16.4152 8.38203 18.1962 8.0494 19.9935 8.04247C20.109 8.04247 20.1667 8.04247 20.1667 8.15797V10.237C20.1667 10.3525 20.109 10.3525 19.9935 10.3525C19.0788 10.302 18.162 10.3995 17.2784 10.6412V19.7079C17.2815 19.7276 17.2807 19.7476 17.276 19.767C17.2713 19.7863 17.2629 19.8046 17.2511 19.8207C17.2394 19.8368 17.2246 19.8504 17.2076 19.8608C17.1906 19.8711 17.1717 19.878 17.1521 19.8811C17.1366 19.8847 17.1206 19.8847 17.1051 19.8811H14.8522C14.8325 19.8842 14.8125 19.8834 14.7931 19.8787C14.7737 19.874 14.7555 19.8656 14.7394 19.8539C14.7233 19.8421 14.7097 19.8273 14.6993 19.8103C14.6889 19.7933 14.682 19.7745 14.6789 19.7548C14.6754 19.7394 14.6754 19.7233 14.6789 19.7079V10.5834Z" fill="currentColor"/>
<path d="M2.83677 4.231C2.83677 4.1155 2.83677 4.05775 2.9523 4.05775C3.87657 4 5.26297 4 6.64937 4C10.6208 4 12.3683 6.19448 12.3683 9.02421C12.3683 12.7202 9.711 14.2794 6.47607 14.2794H5.39294V19.8234C5.39603 19.8431 5.39521 19.8631 5.39052 19.8825C5.38584 19.9018 5.37739 19.9201 5.36566 19.9362C5.35392 19.9523 5.33913 19.9659 5.32213 19.9763C5.30513 19.9866 5.28626 19.9935 5.26658 19.9966C5.25113 20.0002 5.23509 20.0002 5.21964 19.9966H3.01007C2.99039 19.9997 2.9703 19.9989 2.95094 19.9942C2.93158 19.9895 2.91334 19.9811 2.89724 19.9694C2.88115 19.9576 2.86753 19.9428 2.85715 19.9258C2.84677 19.9088 2.83985 19.89 2.83677 19.8703C2.83322 19.8549 2.83322 19.8388 2.83677 19.8234V4.231ZM5.43627 11.9117H6.5916C8.26683 11.9117 9.88429 11.3342 9.88429 9.02421C9.88429 7.17623 8.72896 6.25223 6.82267 6.25223C6.35973 6.23535 5.89619 6.25466 5.43627 6.30998V11.9117ZM14.6789 10.5834C14.6789 10.4102 14.6789 10.006 14.6212 9.19746C14.6212 9.08196 14.6212 9.08196 14.7367 9.02421C16.4152 8.38203 18.1962 8.0494 19.9935 8.04247C20.109 8.04247 20.1667 8.04247 20.1667 8.15797V10.237C20.1667 10.3525 20.109 10.3525 19.9935 10.3525C19.0788 10.302 18.162 10.3995 17.2784 10.6412V19.7079C17.2815 19.7276 17.2807 19.7476 17.276 19.767C17.2713 19.7863 17.2629 19.8046 17.2511 19.8207C17.2394 19.8368 17.2246 19.8504 17.2076 19.8608C17.1906 19.8711 17.1717 19.878 17.1521 19.8811C17.1366 19.8847 17.1206 19.8847 17.1051 19.8811H14.8522C14.8325 19.8842 14.8125 19.8834 14.7931 19.8787C14.7737 19.874 14.7555 19.8656 14.7394 19.8539C14.7233 19.8421 14.7097 19.8273 14.6993 19.8103C14.6889 19.7933 14.682 19.7745 14.6789 19.7548C14.6754 19.7394 14.6754 19.7233 14.6789 19.7079V10.5834Z" fill="currentColor"/>
</svg>
