<svg viewBox="0 0 24 24" fill="none" xmlns="http://www.w3.org/2000/svg">
  <path fill-rule="evenodd" clip-rule="evenodd"
    d="M23 3.88088C23 3.88093 23 3.88097 23 3.88102C22.9968 4.18969 22.9829 4.4953 22.9585 4.79745C22.9203 5.27025 22.8564 5.73458 22.7676 6.18892C22.0052 10.0897 19.409 13.2536 15.5128 14.7171C14.3076 15.1701 13.0592 15.5105 11.8112 15.8507C11.1438 16.0326 10.4765 16.2145 9.81613 16.4135C9.73048 16.4393 9.64481 16.465 9.55913 16.4908C8.49632 16.81 7.43194 17.1297 6.3949 17.5204C4.20532 18.3436 2.9235 19.9723 2.40195 22.2294C2.3813 22.3414 2.35103 22.4513 2.31148 22.5581C2.19372 22.842 1.97867 23.0034 1.6904 22.9996C1.66753 22.9996 1.64419 22.9985 1.6204 22.9963C1.28892 22.9666 1.02739 22.7757 1.01218 22.425C0.98137 21.8814 0.988991 21.3364 1.03499 20.7939C1.25851 18.5277 1.93972 16.4151 3.24967 14.5315C5.08648 11.8955 7.64404 10.3146 10.7003 9.4938C13.1362 8.83956 15.5357 8.10391 17.7017 6.76348C18.8345 6.06359 19.8472 5.23362 20.5907 4.11076C21.075 3.37892 21.3708 2.58394 21.4034 1.69692C21.4179 1.28916 21.6893 1.01453 22.0618 1.00007C22.0722 0.999651 22.0825 0.999468 22.0927 0.99952C22.258 0.998684 22.4181 1.05861 22.5424 1.16838C22.6727 1.28348 22.7536 1.44448 22.7681 1.6178C22.9072 2.43707 23 3.20842 23 3.88088Z"
    fill="currentColor" />
</svg>