<svg viewBox="0 0 24 24" fill="none" xmlns="http://www.w3.org/2000/svg">
<path d="M23.0479 12.1606C23.0479 10.7951 21.9438 9.71082 20.5982 9.71082C19.9357 9.71082 19.3331 9.9717 18.8914 10.3935C17.2048 9.18868 14.8954 8.40566 12.3252 8.30535L13.4496 3.04428L17.1042 3.8273C17.1446 4.75106 17.9074 5.49403 18.8514 5.49403C19.8152 5.49403 20.5982 4.71101 20.5982 3.74683C20.5982 2.78302 19.8152 2 18.8514 2C18.1686 2 17.566 2.40162 17.2849 2.98402L13.2089 2.12052C13.0884 2.10031 12.9678 2.12052 12.8874 2.18078C12.7871 2.24104 12.7268 2.34136 12.707 2.46188L11.4617 8.32519C8.85136 8.40566 6.50192 9.18868 4.79514 10.4137C4.33547 9.9747 3.72401 9.73012 3.08836 9.73103C1.72294 9.73103 0.638611 10.8352 0.638611 12.1808C0.638611 13.1846 1.24085 14.0279 2.08451 14.4097C2.04408 14.6504 2.02425 14.8914 2.02425 15.1527C2.02425 18.9274 6.42182 22 11.8435 22C17.2651 22 21.6627 18.9476 21.6627 15.1527C21.6627 14.9116 21.6425 14.6504 21.6024 14.4097C22.4457 14.0279 23.0479 13.1644 23.0479 12.1606ZM6.22082 13.9074C6.22082 12.9436 7.00385 12.1606 7.96803 12.1606C8.93183 12.1606 9.71485 12.9436 9.71485 13.9074C9.71485 14.8712 8.93183 15.6546 7.96803 15.6546C7.00385 15.6744 6.22082 14.8712 6.22082 13.9074ZM16 18.546C14.7951 19.7509 12.506 19.8313 11.8435 19.8313C11.1607 19.8313 8.87157 19.7307 7.68656 18.546C7.50615 18.3652 7.50615 18.0841 7.68656 17.9034C7.86734 17.7229 8.14844 17.7229 8.32922 17.9034C9.0924 18.6665 10.6989 18.9274 11.8435 18.9274C12.9881 18.9274 14.6144 18.6665 15.3573 17.9034C15.5381 17.7229 15.8192 17.7229 16 17.9034C16.1606 18.0841 16.1606 18.3652 16 18.546ZM15.6785 15.6744C14.7147 15.6744 13.9316 14.8914 13.9316 13.9276C13.9316 12.9638 14.7147 12.1808 15.6785 12.1808C16.6427 12.1808 17.4257 12.9638 17.4257 13.9276C17.4257 14.8712 16.6427 15.6744 15.6785 15.6744Z" fill="currentColor"/>
</svg>
