<svg viewBox="0 0 24 24" fill="none" xmlns="http://www.w3.org/2000/svg">
<path fill-rule="evenodd" clip-rule="evenodd" d="M12.1777 4.00193C12.1186 4.00065 12.0594 4 12 4C11.9277 4 11.8556 4.00096 11.7837 4.00286C9.75405 4.05673 7.91279 4.86657 6.53121 6.1611C6.3993 6.2847 6.27158 6.41271 6.14829 6.54491C4.85306 7.93371 4.04635 9.78408 4.00193 11.8223C4.00065 11.8814 4 11.9406 4 12C4 12.4752 4.04133 12.94 4.12035 13.3911C4.21565 13.9351 3.8519 14.4534 3.3079 14.5486C2.7639 14.6439 2.24565 14.2802 2.15035 13.7362C2.05145 13.1716 2 12.5914 2 12C2 6.47715 6.47715 2 12 2C14.6047 2 16.9768 2.99585 18.7564 4.62758C19.032 4.88031 19.2934 5.14829 19.5393 5.43021C21.0267 7.13573 21.9449 9.35063 21.9976 11.7788C21.9992 11.8523 22 11.9261 22 12C22 12.5914 21.9485 13.1716 21.8496 13.7362C21.7544 14.2802 21.2361 14.6439 20.6921 14.5486C20.1481 14.4534 19.7844 13.9351 19.8796 13.3911C19.9587 12.94 20 12.4752 20 12C20 11.8923 19.9979 11.7852 19.9937 11.6786C19.9164 9.72159 19.136 7.94527 17.8982 6.59521C17.7338 6.41585 17.5612 6.24401 17.3812 6.08026C16.001 4.82485 14.18 4.04557 12.1777 4.00193ZM19.9473 16.3439C20.3995 16.6611 20.5089 17.2847 20.1917 17.7368C19.5225 18.6909 18.6909 19.5225 17.7368 20.1917C17.2847 20.5089 16.6611 20.3995 16.3439 19.9473C16.0267 19.4952 16.1361 18.8716 16.5883 18.5544C17.3523 18.0185 18.0185 17.3523 18.5544 16.5883C18.8716 16.1361 19.4952 16.0267 19.9473 16.3439ZM4.05267 16.3439C4.5048 16.0267 5.12844 16.1361 5.44561 16.5883C5.98154 17.3523 6.64774 18.0185 7.41172 18.5544C7.86386 18.8716 7.97327 19.4952 7.6561 19.9473C7.33893 20.3995 6.71529 20.5089 6.26316 20.1917C5.30913 19.5225 4.47754 18.6909 3.80829 17.7368C3.49113 17.2847 3.60054 16.6611 4.05267 16.3439ZM9.45135 20.6921C9.54665 20.1481 10.0649 19.7844 10.6089 19.8796C11.06 19.9587 11.5248 20 12 20C12.4752 20 12.94 19.9587 13.3911 19.8796C13.9351 19.7843 14.4534 20.1481 14.5486 20.6921C14.6439 21.2361 14.2802 21.7544 13.7362 21.8496C13.1716 21.9485 12.5914 22 12 22C11.4086 22 10.8284 21.9485 10.2638 21.8496C9.7198 21.7544 9.35605 21.2361 9.45135 20.6921ZM12 7C12.5523 7 13 7.44772 13 8V13.5858L15.2929 11.2929C15.6834 10.9024 16.3166 10.9024 16.7071 11.2929C17.0976 11.6834 17.0976 12.3166 16.7071 12.7071L12.7078 16.7064L12.7005 16.7136C12.5208 16.8901 12.2746 16.9992 12.003 17L12 17L11.997 17C11.8625 16.9996 11.7343 16.9727 11.6172 16.9241C11.502 16.8764 11.3938 16.8063 11.2995 16.7136L11.2922 16.7064L7.29289 12.7071C6.90237 12.3166 6.90237 11.6834 7.29289 11.2929C7.68342 10.9024 8.31658 10.9024 8.70711 11.2929L11 13.5858V8C11 7.44772 11.4477 7 12 7Z" fill="currentColor"/>
</svg>
