<svg viewBox="0 0 24 24" fill="none" xmlns="http://www.w3.org/2000/svg">
<path fill-rule="evenodd" clip-rule="evenodd" d="M3.00247 1C3.55614 1 4.00498 1.44718 4.00498 1.9988V5.74893L5.34719 4.54541C7.03301 3.06546 9.16901 2.19269 11.4124 2.06707C13.6557 1.94145 15.8764 2.57031 17.718 3.85273C19.5597 5.13515 20.9155 6.99679 21.568 9.1389C21.8509 10.0675 21.9944 11.0256 21.9999 11.9829C22 11.9886 22 11.9943 22 12C22 12.6666 21.9346 13.3189 21.8097 13.9505C21.7025 14.4923 21.1764 14.8446 20.6346 14.7374C20.0928 14.6303 19.7405 14.1042 19.8477 13.5624C19.9475 13.0579 20 12.5356 20 12C20 11.9956 20 11.9912 20.0001 11.9868H19.9948C19.9898 11.2234 19.875 10.4595 19.6494 9.71898C19.1274 8.00529 18.0427 6.51599 16.5694 5.49005C15.0961 4.46411 13.3196 3.96102 11.5249 4.06152C9.73189 4.16192 8.02466 4.85894 6.6766 6.04086L5.61497 6.99279H9.01752C9.5712 6.99279 10.02 7.43997 10.02 7.99159C10.02 8.54321 9.5712 8.99039 9.01752 8.99039H3.00247C2.4488 8.99039 1.99996 8.54321 1.99996 7.99159V1.9988C1.99996 1.44718 2.4488 1 3.00247 1ZM2 13V12.9688C1.99984 12.9791 1.99984 12.9895 2 13ZM4 12C4 11.4477 3.55228 11 3 11C2.44772 11 2 11.4477 2 12C2 12.6666 2.06536 13.3189 2.19032 13.9505C2.2975 14.4923 2.82359 14.8446 3.36538 14.7374C3.90716 14.6303 4.25948 14.1042 4.15229 13.5624C4.05249 13.0579 4 12.5356 4 12ZM20.3151 17.5569C20.6223 17.0979 20.4993 16.4768 20.0404 16.1696C19.5815 15.8623 18.9604 15.9853 18.6531 16.4442C18.0688 17.3171 17.3171 18.0688 16.4442 18.6531C15.9853 18.9604 15.8623 19.5815 16.1696 20.0404C16.4768 20.4993 17.0979 20.6223 17.5569 20.3151C18.6469 19.5853 19.5853 18.6469 20.3151 17.5569ZM5.34688 16.4442C5.03963 15.9853 4.41852 15.8623 3.95959 16.1696C3.50066 16.4768 3.3777 17.0979 3.68494 17.5569C4.41474 18.6469 5.35306 19.5853 6.44314 20.3151C6.90207 20.6223 7.52318 20.4993 7.83043 20.0404C8.13767 19.5815 8.01471 18.9604 7.55578 18.6531C6.68294 18.0688 5.93123 17.3171 5.34688 16.4442ZM10.4376 19.8477C9.89583 19.7405 9.36973 20.0928 9.26255 20.6346C9.15537 21.1764 9.50769 21.7025 10.0495 21.8097C10.6811 21.9346 11.3334 22 12 22C12.6666 22 13.3189 21.9346 13.9505 21.8097C14.4923 21.7025 14.8446 21.1764 14.7374 20.6346C14.6303 20.0928 14.1042 19.7405 13.5624 19.8477C13.0579 19.9475 12.5356 20 12 20C11.4644 20 10.9421 19.9475 10.4376 19.8477Z" fill="currentColor"/>
</svg>
