<svg viewBox="0 0 24 24" fill="none" xmlns="http://www.w3.org/2000/svg">
<path fill-rule="evenodd" clip-rule="evenodd" d="M8.77214 5.46601C10.0859 4.44423 12 5.38043 12 7.04472V16.9554C12 18.6197 10.0859 19.5559 8.77214 18.5341L2.40096 13.5788C1.37147 12.7781 1.37147 11.2221 2.40096 10.4214L8.77214 5.46601ZM19.7721 5.46601C21.0859 4.44423 23 5.38043 23 7.04472V16.9554C23 18.6197 21.0859 19.5559 19.7721 18.5341L13.401 13.5788C12.3715 12.7781 12.3715 11.2221 13.401 10.4214L19.7721 5.46601ZM10 7.04472L3.62885 12.0001L10 16.9554L10 7.04472ZM21 7.04472L14.6288 12.0001L21 16.9554L21 7.04472Z" fill="currentColor"/>
</svg>
