<svg viewBox="0 0 24 24" fill="none" xmlns="http://www.w3.org/2000/svg">
<path fill-rule="evenodd" clip-rule="evenodd" d="M20.9592 3.03893C19.2917 3.17424 17.6676 3.6606 16.1949 4.47056C14.419 5.4473 12.9225 6.86214 11.8478 8.58051L11.8422 8.58948C11.1968 9.59747 10.639 10.6584 10.1747 11.7607L12.2419 13.828C13.3575 13.3648 14.4322 12.8076 15.4542 12.1622C19.6793 9.32404 20.7549 5.61299 20.9592 3.03893ZM15.3413 14.5512C14.5826 14.9702 13.8009 15.3466 13 15.6788V18.7056C13.0961 18.6742 13.1949 18.6403 13.2952 18.6039C14.1579 18.291 14.8771 17.8797 15.1684 17.4448C15.3115 17.2298 15.4176 16.8978 15.4599 16.443C15.5014 15.9963 15.4751 15.5007 15.4132 15.0206C15.3923 14.8583 15.3677 14.7008 15.3413 14.5512ZM12 20.0002L12.1786 20.9842C11.8869 21.0371 11.5867 20.9579 11.3591 20.7679C11.1315 20.5779 11 20.2967 11 20.0002V15.4145L8.58578 13.0002H3.99999C3.70352 13.0002 3.42233 12.8687 3.23233 12.6411C3.04234 12.4135 2.96312 12.1134 3.01607 11.8216L3.99999 12.0002C3.01607 11.8216 3.01603 11.8219 3.01607 11.8216L3.01646 11.8195L3.01705 11.8163L3.01888 11.8065L3.02508 11.7742C3.03036 11.7472 3.03796 11.7093 3.04798 11.6618C3.06798 11.5669 3.09773 11.4332 3.138 11.2709C3.21815 10.9478 3.34182 10.5037 3.51617 10.023C3.84063 9.12852 4.42906 7.84802 5.44397 7.16908L5.44529 7.1682C6.04028 6.77154 6.73807 6.60785 7.37213 6.54891C8.01482 6.48918 8.66794 6.53033 9.23531 6.60345C9.76091 6.67119 10.236 6.76947 10.5949 6.85535C11.8058 5.14646 13.3899 3.73077 15.2311 2.71812C17.3059 1.57695 19.6383 0.98558 22.0062 1.00027C22.556 1.00368 23 1.45038 23 2.00025C23 4.81054 22.2116 9.70793 17.1477 13.4169C17.2329 13.7744 17.3298 14.245 17.3968 14.7649C17.4699 15.3323 17.5111 15.9854 17.4513 16.6281C17.3924 17.2622 17.2287 17.96 16.832 18.5549L16.8312 18.5563C16.1522 19.5712 14.8717 20.1596 13.9772 20.4841C13.4966 20.6584 13.0525 20.7821 12.7293 20.8622C12.567 20.9025 12.4333 20.9323 12.3384 20.9523C12.2909 20.9623 12.253 20.9699 12.226 20.9752L12.1937 20.9814L12.184 20.9832L12.1807 20.9838L12.1786 20.9842C12.1784 20.9842 12.1786 20.9842 12 20.0002ZM9.46732 8.66216C9.04276 9.41918 8.6613 10.1998 8.32483 11.0002H5.29467C5.32605 10.9042 5.35991 10.8053 5.39631 10.705C5.70917 9.84247 6.12045 9.1233 6.55526 8.83192C6.77029 8.68877 7.10231 8.58261 7.55722 8.54033C8.00392 8.49881 8.49954 8.52517 8.97967 8.58705C9.14859 8.60882 9.31228 8.63454 9.46732 8.66216ZM3.85618 15.7351C4.45545 15.2303 5.21997 14.9645 6.00313 14.9888C6.78656 15.013 7.53344 15.3257 8.10043 15.8669L8.11258 15.8787C9.30099 17.052 9.28575 18.9354 8.26472 20.1446C7.82205 20.6711 7.21238 21.0577 6.62607 21.3441C6.02789 21.6363 5.38235 21.8583 4.8025 22.0242C4.21947 22.191 3.68173 22.3069 3.29059 22.3811C3.09433 22.4184 2.93325 22.4455 2.81972 22.4635C2.76292 22.4725 2.7179 22.4792 2.68621 22.4839L2.64882 22.4892L2.63796 22.4907L2.63335 22.4913C2.63315 22.4913 2.6325 22.4914 2.49999 21.5002C1.50881 21.3677 1.50883 21.3676 1.50886 21.3674L1.50955 21.3623L1.51105 21.3514L1.51638 21.314C1.52099 21.2823 1.52773 21.2373 1.53674 21.1805C1.55473 21.067 1.58184 20.9059 1.61911 20.7096C1.69337 20.3185 1.80928 19.7808 1.97605 19.1977C2.14191 18.6179 2.36395 17.9724 2.65614 17.3742C2.94262 16.7877 3.32941 16.1778 3.85618 15.7351ZM2.49999 21.5002L1.50886 21.3674C1.46757 21.6762 1.57255 21.987 1.79288 22.2074C2.01321 22.4277 2.32451 22.5326 2.63335 22.4913L2.49999 21.5002ZM3.77044 20.2298C3.92548 20.1913 4.08722 20.1486 4.25248 20.1013C4.76514 19.9547 5.29085 19.7705 5.74828 19.547C6.21718 19.318 6.54704 19.08 6.73429 18.8571L6.73626 18.8547C7.13225 18.3862 7.09895 17.6951 6.71326 17.3077C6.50365 17.1105 6.22912 16.9967 5.9413 16.9878C5.6506 16.9788 5.36681 17.0775 5.14441 17.2649L5.14318 17.266C4.92027 17.4532 4.68225 17.7831 4.45322 18.252C4.22978 18.7094 4.04557 19.2351 3.89893 19.7478C3.85166 19.913 3.8089 20.0748 3.77044 20.2298Z" fill="currentColor"/>
</svg>
