<svg viewBox="0 0 24 24" fill="none" xmlns="http://www.w3.org/2000/svg">
  <path fill-rule="evenodd" clip-rule="evenodd"
    d="M17.9567 3.36917C17.4736 2.83241 16.6385 2.77598 16.0071 3.40731L14.9142 4.50021L16.2071 5.7931C16.5977 6.18362 16.5977 6.81679 16.2071 7.20731C15.8166 7.59784 15.1834 7.59784 14.7929 7.20731L13.5 5.91442L11.9142 7.50021L13.2071 8.7931C13.5977 9.18362 13.5977 9.81679 13.2071 10.2073C12.8166 10.5978 12.1834 10.5978 11.7929 10.2073L10.5 8.91442L8.91424 10.5002L10.2071 11.7931C10.5977 12.1836 10.5977 12.8168 10.2071 13.2073C9.81661 13.5978 9.18344 13.5978 8.79292 13.2073L7.50002 11.9144L5.91424 13.5002L7.20713 14.7931C7.59765 15.1836 7.59765 15.8168 7.20713 16.2073C6.81661 16.5978 6.18344 16.5978 5.79292 16.2073L4.50002 14.9144L3.40713 16.0073C3.39474 16.0197 3.38202 16.0318 3.36899 16.0435C2.83223 16.5266 2.7758 17.3618 3.40713 17.9931L6.00713 20.5931C6.01952 20.6055 6.03159 20.6182 6.04332 20.6312C6.5264 21.168 7.36158 21.2244 7.99292 20.5931L20.5929 7.9931C20.6053 7.9807 20.618 7.96864 20.6311 7.95691C21.1678 7.47383 21.2243 6.63865 20.5929 6.00731L17.9929 3.40731C17.9805 3.39492 17.9685 3.3822 17.9567 3.36917ZM3.79292 12.7931L12.7925 3.79356C12.7926 3.7934 12.7923 3.79371 12.7925 3.79356C12.7926 3.7934 12.7932 3.7928 12.7934 3.79264L14.5929 1.9931C15.955 0.631048 18.1055 0.568578 19.4242 2.01014L22.0071 4.5931C23.3692 5.95515 23.4317 8.10568 21.9901 9.42435L9.40713 22.0073C8.04508 23.3694 5.89455 23.4318 4.57588 21.9903L1.99292 19.4073C0.630862 18.0453 0.568395 15.8947 2.00996 14.5761L3.79292 12.7931Z"
    fill="currentColor" />
</svg>