<svg viewBox="0 0 24 24" fill="none" xmlns="http://www.w3.org/2000/svg">
<path fill-rule="evenodd" clip-rule="evenodd" d="M12 3C7.02944 3 3 7.02944 3 12C3 16.9706 7.02944 21 12 21C16.9706 21 21 16.9706 21 12C21 7.02944 16.9706 3 12 3ZM1 12C1 5.92487 5.92487 1 12 1C18.0751 1 23 5.92487 23 12C23 18.0751 18.0751 23 12 23C5.92487 23 1 18.0751 1 12Z" fill="currentColor"/>
<path fill-rule="evenodd" clip-rule="evenodd" d="M7.5 10C7.5 9.17157 8.17157 8.5 9 8.5H9.01C9.83843 8.5 10.51 9.17157 10.51 10C10.51 10.8284 9.83843 11.5 9.01 11.5H9C8.17157 11.5 7.5 10.8284 7.5 10Z" fill="currentColor"/>
<path fill-rule="evenodd" clip-rule="evenodd" d="M13.5 10C13.5 9.17157 14.1716 8.5 15 8.5H15.01C15.8384 8.5 16.51 9.17157 16.51 10C16.51 10.8284 15.8384 11.5 15.01 11.5H15C14.1716 11.5 13.5 10.8284 13.5 10Z" fill="currentColor"/>
<path fill-rule="evenodd" clip-rule="evenodd" d="M8.47439 14.1913C9.27233 13.6109 10.4745 13 12.0001 13C12.5523 13 13.0001 13.4477 13.0001 14C13.0001 14.5523 12.5523 15 12.0001 15C11.0256 15 10.2278 15.3891 9.65073 15.8087C9.36413 16.0172 9.14278 16.2257 8.99548 16.3794C8.92225 16.4558 8.86852 16.5174 8.83537 16.5569C8.81883 16.5766 8.80751 16.5907 8.80156 16.5982L8.79692 16.6042C8.46474 17.0424 7.84049 17.1303 7.40006 16.8C6.95823 16.4686 6.86869 15.8418 7.20006 15.4L8.00006 16C7.20006 15.4 7.20006 15.4 7.20006 15.4L7.20107 15.3987L7.20222 15.3971L7.20496 15.3935L7.21217 15.3841L7.23347 15.3568C7.25071 15.3351 7.27407 15.3062 7.30342 15.2712C7.36207 15.2013 7.44506 15.1067 7.55151 14.9956C7.76358 14.7743 8.07349 14.4828 8.47439 14.1913Z" fill="currentColor"/>
<path fill-rule="evenodd" clip-rule="evenodd" d="M15.5257 14.1913C14.7278 13.6109 13.5256 13 12.0001 13C11.4478 13 11.0001 13.4477 11.0001 14C11.0001 14.5523 11.4478 15 12.0001 15C12.9745 15 13.7723 15.3891 14.3494 15.8087C14.636 16.0172 14.8573 16.2257 15.0046 16.3794C15.0779 16.4558 15.1316 16.5174 15.1648 16.5569C15.1813 16.5766 15.1926 16.5907 15.1986 16.5982L15.2032 16.6042C15.5354 17.0424 16.1596 17.1303 16.6001 16.8C17.0419 16.4686 17.1314 15.8418 16.8001 15.4L16.0001 16C16.8001 15.4 16.8001 15.4 16.8001 15.4L16.7991 15.3987L16.7979 15.3971L16.7952 15.3935L16.788 15.3841L16.7667 15.3568C16.7494 15.3351 16.7261 15.3062 16.6967 15.2712C16.6381 15.2013 16.5551 15.1067 16.4486 14.9956C16.2365 14.7743 15.9266 14.4828 15.5257 14.1913Z" fill="currentColor"/>
</svg>
