<svg viewBox="0 0 24 24" fill="none" xmlns="http://www.w3.org/2000/svg">
<path fill-rule="evenodd" clip-rule="evenodd" d="M2 3C2 2.44772 2.44772 2 3 2H12C12.5523 2 13 2.44772 13 3C13 3.55228 12.5523 4 12 4H4V20H20V12C20 11.4477 20.4477 11 21 11C21.5523 11 22 11.4477 22 12V21C22 21.5523 21.5523 22 21 22H3C2.44772 22 2 21.5523 2 21V3ZM16 4C15.4477 4 15 3.55228 15 3C15 2.44772 15.4477 2 16 2H21C21.5523 2 22 2.44772 22 3V8C22 8.55228 21.5523 9 21 9C20.4477 9 20 8.55228 20 8V5.41421L11.4142 14H14C14.5523 14 15 14.4477 15 15C15 15.5523 14.5523 16 14 16H9C8.44772 16 8 15.5523 8 15V10C8 9.44772 8.44772 9 9 9C9.55228 9 10 9.44772 10 10V12.5858L18.5858 4H16Z" fill="currentColor"/>
</svg>
