<svg viewBox="0 0 24 24" fill="none" xmlns="http://www.w3.org/2000/svg">
<path fill-rule="evenodd" clip-rule="evenodd" d="M2 4C2 2.89543 2.89543 2 4 2H6C7.10457 2 8 2.89543 8 4V6C8 7.10457 7.10457 8 6 8V16.5858L10.2929 12.2929C10.6834 11.9024 11.3166 11.9024 11.7071 12.2929C12.0976 12.6834 12.0976 13.3166 11.7071 13.7071L7.41421 18H16C16 16.8954 16.8954 16 18 16H20C21.1046 16 22 16.8954 22 18V20C22 21.1046 21.1046 22 20 22H18C16.8954 22 16 21.1046 16 20H5C4.44772 20 4 19.5523 4 19V8C2.89543 8 2 7.10457 2 6V4ZM6 6V4H4V6H6ZM18 20H20V18H18V20Z" fill="currentColor"/>
</svg>
