<svg viewBox="0 0 24 24" fill="none" xmlns="http://www.w3.org/2000/svg">
<path fill-rule="evenodd" clip-rule="evenodd" d="M5 4C4.73478 4 4.48043 4.10536 4.29289 4.29289C4.10536 4.48043 4 4.73478 4 5V7C4 7.55228 3.55228 8 3 8C2.44772 8 2 7.55228 2 7V5C2 4.20435 2.31607 3.44129 2.87868 2.87868C3.44129 2.31607 4.20435 2 5 2H7C7.55228 2 8 2.44772 8 3C8 3.55228 7.55228 4 7 4H5Z" fill="currentColor"/>
<path fill-rule="evenodd" clip-rule="evenodd" d="M16 3C16 2.44772 16.4477 2 17 2H19C19.7956 2 20.5587 2.31607 21.1213 2.87868C21.6839 3.44129 22 4.20435 22 5V7C22 7.55228 21.5523 8 21 8C20.4477 8 20 7.55228 20 7V5C20 4.73478 19.8946 4.48043 19.7071 4.29289C19.5196 4.10536 19.2652 4 19 4H17C16.4477 4 16 3.55228 16 3Z" fill="currentColor"/>
<path fill-rule="evenodd" clip-rule="evenodd" d="M21 16C21.5523 16 22 16.4477 22 17V19C22 19.7957 21.6839 20.5587 21.1213 21.1213C20.5587 21.6839 19.7957 22 19 22H17C16.4477 22 16 21.5523 16 21C16 20.4477 16.4477 20 17 20H19C19.2652 20 19.5196 19.8946 19.7071 19.7071C19.8946 19.5196 20 19.2652 20 19V17C20 16.4477 20.4477 16 21 16Z" fill="currentColor"/>
<path fill-rule="evenodd" clip-rule="evenodd" d="M3 16C3.55228 16 4 16.4477 4 17V19C4 19.2652 4.10536 19.5196 4.29289 19.7071C4.48043 19.8946 4.73478 20 5 20H7C7.55228 20 8 20.4477 8 21C8 21.5523 7.55228 22 7 22H5C4.20435 22 3.44129 21.6839 2.87868 21.1213C2.31607 20.5587 2 19.7956 2 19V17C2 16.4477 2.44772 16 3 16Z" fill="currentColor"/>
<path fill-rule="evenodd" clip-rule="evenodd" d="M8.79686 13.3958C8.46468 12.9576 7.84044 12.8697 7.4 13.2C6.95817 13.5314 6.86863 14.1582 7.2 14.6L8 14C7.2 14.6 7.19975 14.5997 7.2 14.6L7.20101 14.6013L7.20216 14.6029L7.2049 14.6065L7.21211 14.6159L7.23341 14.6432C7.25065 14.6649 7.27401 14.6938 7.30336 14.7288C7.36201 14.7987 7.445 14.8933 7.55145 15.0044C7.76353 15.2257 8.07343 15.5172 8.47433 15.8087C9.27227 16.3891 10.4745 17 12 17C13.5255 17 14.7277 16.3891 15.5257 15.8087C15.9266 15.5172 16.2365 15.2257 16.4486 15.0044C16.555 14.8933 16.638 14.7987 16.6966 14.7288C16.726 14.6938 16.7493 14.6649 16.7666 14.6432L16.7879 14.6159L16.7951 14.6065L16.7978 14.6029L16.799 14.6013C16.7992 14.601 16.8 14.6 16 14L16.8 14.6C17.1314 14.1582 17.0418 13.5314 16.6 13.2C16.1596 12.8697 15.5353 12.9576 15.2031 13.3958L15.1985 13.4018C15.1925 13.4093 15.1812 13.4234 15.1647 13.4431C15.1315 13.4826 15.0778 13.5442 15.0046 13.6206C14.8573 13.7743 14.6359 13.9828 14.3493 14.1913C13.7723 14.6109 12.9745 15 12 15C11.0255 15 10.2277 14.6109 9.65067 14.1913C9.36407 13.9828 9.14273 13.7743 8.99543 13.6206C8.92219 13.5442 8.86846 13.4826 8.83531 13.4431C8.81877 13.4234 8.80745 13.4093 8.8015 13.4018L8.79686 13.3958Z" fill="currentColor"/>
<path fill-rule="evenodd" clip-rule="evenodd" d="M7.5 10C7.5 9.17157 8.17157 8.5 9 8.5H9.01C9.83843 8.5 10.51 9.17157 10.51 10C10.51 10.8284 9.83843 11.5 9.01 11.5H9C8.17157 11.5 7.5 10.8284 7.5 10Z" fill="currentColor"/>
<path fill-rule="evenodd" clip-rule="evenodd" d="M13.5 10C13.5 9.17157 14.1716 8.5 15 8.5H15.01C15.8384 8.5 16.51 9.17157 16.51 10C16.51 10.8284 15.8384 11.5 15.01 11.5H15C14.1716 11.5 13.5 10.8284 13.5 10Z" fill="currentColor"/>
</svg>
