<svg viewBox="0 0 24 24" fill="none" xmlns="http://www.w3.org/2000/svg">
<path fill-rule="evenodd" clip-rule="evenodd" d="M6.00003 2C6.00003 1.44772 6.44775 1 7.00003 1H20C20.7957 1 21.5587 1.31607 22.1214 1.87868C22.684 2.44129 23 3.20435 23 4V8C23 8.79565 22.684 9.55871 22.1214 10.1213C21.5587 10.6839 20.7957 11 20 11H15C14.4477 11 14 10.5523 14 10C14 9.44772 14.4477 9 15 9H20C20.2652 9 20.5196 8.89464 20.7071 8.70711C20.8947 8.51957 21 8.26522 21 8V4C21 3.73478 20.8947 3.48043 20.7071 3.29289C20.5196 3.10536 20.2652 3 20 3H7.00003C6.44775 3 6.00003 2.55228 6.00003 2Z" fill="currentColor"/>
<path fill-rule="evenodd" clip-rule="evenodd" d="M18 14C18 13.4477 18.4477 13 19 13H20C20.7957 13 21.5587 13.3161 22.1214 13.8787C22.684 14.4413 23 15.2043 23 16V17C23 17.5523 22.5523 18 22 18C21.4477 18 21 17.5523 21 17V16C21 15.7348 20.8947 15.4804 20.7071 15.2929C20.5196 15.1054 20.2652 15 20 15H19C18.4477 15 18 14.5523 18 14Z" fill="currentColor"/>
<path fill-rule="evenodd" clip-rule="evenodd" d="M1.87871 13.8787C2.44132 13.3161 3.20438 13 4.00003 13H14C14.2653 13 14.5196 13.1054 14.7071 13.2929L22.207 20.7927C22.207 20.7928 22.2069 20.7926 22.207 20.7927L22.7071 21.2929C23.0977 21.6834 23.0977 22.3166 22.7071 22.7071C22.3198 23.0944 21.6939 23.0976 21.3027 22.7167L20.9472 22.8944C20.8084 22.9639 20.6553 23 20.5 23H4.00003C3.20438 23 2.44132 22.6839 1.87871 22.1213C1.3161 21.5587 1.00003 20.7957 1.00003 20V16C1.00003 15.2044 1.3161 14.4413 1.87871 13.8787ZM19.5858 21L13.5858 15H4.00003C3.73482 15 3.48046 15.1054 3.29293 15.2929C3.10539 15.4804 3.00003 15.7348 3.00003 16V20C3.00003 20.2652 3.10539 20.5196 3.29293 20.7071C3.48046 20.8946 3.73482 21 4.00003 21H19.5858Z" fill="currentColor"/>
<path fill-rule="evenodd" clip-rule="evenodd" d="M5.00003 18C5.00003 17.4477 5.44775 17 6.00003 17H6.01003C6.56232 17 7.01003 17.4477 7.01003 18C7.01003 18.5523 6.56232 19 6.01003 19H6.00003C5.44775 19 5.00003 18.5523 5.00003 18Z" fill="currentColor"/>
<path fill-rule="evenodd" clip-rule="evenodd" d="M1.29293 1.29289C1.68345 0.902369 2.31662 0.902369 2.70714 1.29289L3.20684 1.7926C3.20694 1.7927 3.20675 1.7925 3.20684 1.7926L22.7071 21.2929C23.0977 21.6834 23.0977 22.3166 22.7071 22.7071C22.3166 23.0976 21.6835 23.0976 21.2929 22.7071L9.58582 11H4.00003C3.20438 11 2.44132 10.6839 1.87871 10.1213C1.3161 9.55871 1.00003 8.79565 1.00003 8V5C1.00003 4.94527 1.00002 4.89123 1.00002 4.83786C0.999843 3.73111 0.999716 2.91914 1.07614 2.4606C1.07901 2.44335 1.08221 2.42507 1.08582 2.40589C0.922954 2.03885 0.99199 1.59383 1.29293 1.29289ZM3.00051 4.41469C3.00014 4.59282 3.00003 4.78748 3.00003 5V8C3.00003 8.26522 3.10539 8.51957 3.29293 8.70711C3.48046 8.89464 3.73482 9 4.00003 9H7.58582L3.00051 4.41469Z" fill="currentColor"/>
</svg>
