<svg viewBox="0 0 24 24" fill="none" xmlns="http://www.w3.org/2000/svg">
<path fill-rule="evenodd" clip-rule="evenodd" d="M1.29289 1.29289C1.68342 0.902369 2.31658 0.902369 2.70711 1.29289L5.42204 4.00782C5.43259 4.01792 5.44293 4.02826 5.45306 4.03884L18.3228 16.9086C18.3261 16.9118 18.3294 16.9151 18.3327 16.9184L22.7071 21.2929C23.0976 21.6834 23.0976 22.3166 22.7071 22.7071C22.3166 23.0976 21.6834 23.0976 21.2929 22.7071L17.6401 19.0544C16.1212 20.5844 14.3771 21.8764 12.4667 22.8844C12.1815 23.0349 11.8412 23.0386 11.5528 22.8944L12 22C11.5528 22.8944 11.5531 22.8946 11.5528 22.8944L11.5492 22.8926L11.5427 22.8894L11.5212 22.8784C11.5032 22.8692 11.4777 22.856 11.4453 22.839C11.3806 22.805 11.2881 22.7556 11.1719 22.6913C10.9397 22.5627 10.6118 22.3741 10.22 22.1292C9.43854 21.6408 8.39238 20.9221 7.3415 20.0026C5.28175 18.2003 3 15.4464 3 12V5C3 4.83265 3.04167 4.67238 3.11679 4.531L1.29289 2.70711C0.902369 2.31658 0.902369 1.68342 1.29289 1.29289ZM5 6.41421V12C5 14.5536 6.71825 16.7997 8.6585 18.4974C9.60762 19.3279 10.5615 19.9842 11.28 20.4333C11.5626 20.6098 11.8071 20.7534 11.9985 20.8619C13.5501 19.9879 14.9727 18.9035 16.2259 17.6401L5 6.41421ZM11.6502 1.06318C11.8762 0.978771 12.1252 0.978944 12.3511 1.06367L20.3511 4.06367C20.7414 4.21003 21 4.58316 21 5V12.0066C20.9949 12.7832 20.8753 13.5548 20.6451 14.2964C20.4813 14.8239 19.921 15.1188 19.3936 14.9551C18.8661 14.7913 18.5712 14.231 18.7349 13.7036C18.9066 13.1506 18.9959 12.5754 19 11.9965V5.693L11.9993 3.06772L9.18982 4.11682C8.67244 4.31002 8.09639 4.04721 7.90318 3.52982C7.70998 3.01243 7.97279 2.43639 8.49018 2.24318L11.6502 1.06318Z" fill="currentColor"/>
</svg>
