<svg viewBox="0 0 24 24" fill="none" xmlns="http://www.w3.org/2000/svg">
<path d="M20.38 3.46L16 2C16 3.06087 15.5786 4.07828 14.8284 4.82843C14.0783 5.57857 13.0608 6 12 6C10.9391 6 9.9217 5.57857 9.17155 4.82843C8.42141 4.07828 7.99998 3.06087 7.99998 2L3.61998 3.46C3.16736 3.61079 2.78356 3.91842 2.53783 4.32734C2.29211 4.73627 2.20066 5.21956 2.27998 5.69L2.85998 9.16C2.89805 9.39491 3.01866 9.60855 3.20012 9.76251C3.38158 9.91648 3.612 10.0007 3.84998 10H5.99998V20C5.99998 21.1 6.89998 22 7.99998 22H16C16.5304 22 17.0391 21.7893 17.4142 21.4142C17.7893 21.0391 18 20.5304 18 20V10H20.15C20.388 10.0007 20.6184 9.91648 20.7998 9.76251C20.9813 9.60855 21.1019 9.39491 21.14 9.16L21.72 5.69C21.7993 5.21956 21.7078 4.73627 21.4621 4.32734C21.2164 3.91842 20.8326 3.61079 20.38 3.46Z" stroke="currentColor" stroke-width="2" stroke-linecap="round" stroke-linejoin="round"/>
</svg>
