<svg viewBox="0 0 24 24" fill="none" xmlns="http://www.w3.org/2000/svg">
<path fill-rule="evenodd" clip-rule="evenodd" d="M18.3919 5.901C18.3801 5.79493 18.2858 5.74779 18.2151 5.736C18.1444 5.72422 16.6005 5.61815 16.6005 5.61815C16.6005 5.61815 15.528 4.55745 15.4219 4.4396C15.3041 4.32174 15.0801 4.3571 14.9859 4.38067C14.9741 4.38067 14.7501 4.45138 14.3848 4.56924C14.043 3.5439 13.4066 2.60106 12.2988 2.60106H12.2045C11.8863 2.18857 11.4973 2 11.1674 2C8.58633 2.01179 7.36064 5.22923 6.97172 6.86741C6.51285 7.00777 6.1158 7.13082 5.81115 7.22524L5.811 7.22528C5.45066 7.33696 5.21962 7.40856 5.16853 7.42133C4.61461 7.59811 4.59104 7.6099 4.52033 8.14025C4.4614 8.55274 3 19.8668 3 19.8668L14.3966 22L20.5722 20.6682C20.5722 20.6635 20.224 18.3083 19.8058 15.4803C19.1806 11.2511 18.3989 5.96457 18.3919 5.901ZM13.7602 4.76958C13.5496 4.83978 13.3128 4.90998 13.0597 4.98505C12.9728 5.0108 12.8841 5.03712 12.7937 5.06422V4.85208C12.7937 4.21566 12.6995 3.6971 12.558 3.29639C13.1355 3.37889 13.5244 4.02709 13.7602 4.76958ZM12.122 5.1585C12.122 4.39244 12.0159 3.82674 11.8627 3.42603C11.2381 3.6971 10.5192 4.41601 10.1302 5.87742L10.1303 5.8774L10.1303 5.8774L10.1304 5.87737C10.8139 5.66525 11.4974 5.45313 12.122 5.26457V5.1585ZM11.0966 2.70714C11.2027 2.70714 11.3206 2.7425 11.4266 2.81321C10.6016 3.20213 9.71773 4.18033 9.34059 6.13672C8.79846 6.30172 8.25633 6.46672 7.76134 6.61993C8.20919 5.13496 9.24631 2.70714 11.0966 2.70714ZM11.5327 11.4166L12.2987 9.15381C12.2987 9.15381 11.792 8.85917 10.7313 8.84739C8.03239 8.84739 6.68884 10.6624 6.68884 12.5245C6.68884 13.7677 7.38649 14.3319 7.99884 14.8272C8.47777 15.2145 8.90452 15.5596 8.90452 16.1544C8.90452 16.4844 8.66881 16.9322 8.10311 16.9322C7.23098 16.9322 6.20564 16.0483 6.20564 16.0483L5.68708 17.7808C5.68708 17.7808 6.68884 18.9947 8.64524 18.9947C10.2716 18.9947 11.4855 17.769 11.4855 15.8598C11.4855 14.3916 10.4985 13.669 9.71827 13.0978C9.2083 12.7245 8.78666 12.4158 8.78666 12.0059C8.78666 11.8173 8.84559 11.0631 10.0477 11.0631C10.8609 11.0631 11.5327 11.4166 11.5327 11.4166Z" fill="currentColor"/>
</svg>
