<svg viewBox="0 0 24 24" fill="none" xmlns="http://www.w3.org/2000/svg">
<path fill-rule="evenodd" clip-rule="evenodd" d="M11.5528 4.10557C11.8343 3.96481 12.1657 3.96481 12.4472 4.10557L22.4472 9.10557C22.786 9.27496 23 9.62123 23 10C23 10.3788 22.786 10.725 22.4472 10.8944L12.4472 15.8944C12.1657 16.0352 11.8343 16.0352 11.5528 15.8944L1.55279 10.8944C1.21401 10.725 1.00001 10.3788 1.00001 10C1.00001 9.62123 1.21401 9.27496 1.55279 9.10557L11.5528 4.10557ZM4.23607 10L12 13.882L19.7639 10L12 6.11803L4.23607 10ZM1.10558 14.5528C1.35257 14.0588 1.95324 13.8586 2.44722 14.1056L12 18.882L21.5528 14.1056C22.0468 13.8586 22.6474 14.0588 22.8944 14.5528C23.1414 15.0468 22.9412 15.6474 22.4472 15.8944L12.4472 20.8944C12.1657 21.0352 11.8343 21.0352 11.5528 20.8944L1.55279 15.8944C1.05881 15.6474 0.858589 15.0468 1.10558 14.5528Z" fill="currentColor"/>
</svg>
