<svg viewBox="0 0 24 24" fill="none" xmlns="http://www.w3.org/2000/svg">
<path fill-rule="evenodd" clip-rule="evenodd" d="M9.82372 3.20109L9.59927 2.29193C8.62401 2.5307 7.69087 2.91679 6.83202 3.4369L7.31217 4.24094C8.09244 3.77027 8.9391 3.41972 9.82372 3.20109ZM14.1763 3.20109L14.4008 2.29193C15.3776 2.5312 16.3126 2.91725 17.1737 3.4369L16.6878 4.24094C15.9076 3.77027 15.0609 3.41972 14.1763 3.20109ZM2.29192 9.59928C2.53121 8.6233 2.91727 7.6893 3.43689 6.8292L4.24093 7.31218C3.77025 8.09245 3.41971 8.93911 3.20108 9.82373L2.29192 9.59928ZM3.03914 10.642C2.97098 11.0914 2.93679 11.5454 2.93686 12C2.93689 12.4546 2.97108 12.9086 3.03914 13.3581L2.11293 13.4973C1.96236 12.5038 1.96236 11.4934 2.11293 10.4999L3.03914 10.642ZM16.6878 19.7591L17.168 20.5603C16.3097 21.0801 15.3777 21.4671 14.4036 21.7081L14.1791 20.799C15.063 20.5808 15.9088 20.2302 16.6878 19.7591ZM20.9609 13.3581C21.0289 12.9086 21.0631 12.4546 21.0632 12C21.0632 11.5454 21.029 11.0914 20.9609 10.642L21.8871 10.4999C22.0377 11.4934 22.0377 12.5038 21.8871 13.4973L20.9609 13.3581ZM20.7989 14.1735L21.7081 14.3979C21.4693 15.375 21.0833 16.31 20.5631 17.1709L19.7591 16.6879C20.2303 15.9068 20.5808 15.0592 20.7989 14.1735ZM10.5027 21.8871L10.642 20.9609C11.5422 21.0973 12.4578 21.0973 13.3581 20.9609L13.4973 21.8871C12.5048 22.0377 11.4952 22.0377 10.5027 21.8871ZM17.3754 19.2932C18.1085 18.7542 18.756 18.1077 19.296 17.3754L20.0517 17.938C19.4541 18.743 18.7397 19.4545 17.9323 20.0489L17.3754 19.2932ZM19.296 6.62463C18.756 5.89148 18.1086 5.244 17.3754 4.70404L17.9379 3.94831C18.7437 4.54386 19.4562 5.2563 20.0517 6.06209L19.296 6.62463ZM6.62462 4.70404C5.89147 5.244 5.24399 5.89148 4.70403 6.62463L3.94829 6.06209C4.54385 5.2563 5.25629 4.54386 6.06208 3.94831L6.62462 4.70404ZM19.7591 7.31218L20.5631 6.8292C21.0827 7.6883 21.4688 8.62136 21.7081 9.59644L20.7989 9.82089C20.5808 8.93701 20.2302 8.09121 19.7591 7.31218ZM13.3581 3.03915C12.4578 2.90276 11.5422 2.90276 10.642 3.03915L10.5027 2.11294C11.4952 1.96235 12.5048 1.96235 13.4973 2.11294L13.3581 3.03915ZM3.24938 20.7478L5.18418 20.2989L5.39726 21.2166L3.46246 21.6627C3.32213 21.6939 3.17663 21.6939 3.03629 21.6627C2.9163 21.6346 2.80301 21.5831 2.70292 21.5112C2.60284 21.4393 2.5179 21.3484 2.45299 21.2436C2.38808 21.1388 2.34445 21.0223 2.32462 20.9007C2.30478 20.779 2.30912 20.6547 2.33738 20.5347L2.78912 18.5999L3.70112 18.813L3.24938 20.7478ZM3.89715 17.9749L2.98231 17.7646L3.21244 16.7759C2.80576 16.0256 2.49642 15.2265 2.29192 14.3979L3.20108 14.1735C3.41337 15.0391 3.75329 15.8683 4.20967 16.6339L3.89715 17.9749ZM6.01662 20.1057L7.35763 19.7932L7.36615 19.7875C8.12883 20.2449 8.95511 20.5867 9.81804 20.8018L9.59359 21.711C8.7646 21.5077 7.96532 21.1983 7.21557 20.7904L6.22971 21.0206L6.01662 20.1057ZM3.87726 12.0029C3.87726 7.51674 7.51105 3.87728 12 3.87444C13.535 3.87402 15.0389 4.30737 16.3384 5.12453C20.1341 7.51675 21.2706 12.5342 18.8812 16.3299C16.4918 20.1256 11.4744 21.2649 7.67583 18.8755L4.34321 19.6568L5.12451 16.3214C4.31195 15.0273 3.87974 13.5309 3.87726 12.0029Z" fill="currentColor"/>
</svg>
