<svg viewBox="0 0 24 24" fill="none" xmlns="http://www.w3.org/2000/svg">
<path d="M6.78008 8.46012C6.78008 10.7001 8.08008 12.1201 10.5601 12.6601L12.8801 13.1801C14.0801 13.4401 14.5801 14.0201 14.5801 15.0001C14.5801 16.2201 13.5001 16.9601 11.8001 16.9601C10.1601 16.9601 9.16008 16.2201 9.14008 14.9801H6.58008C6.64008 17.6001 8.68008 19.2601 11.8001 19.2601C15.0201 19.2601 17.1401 17.5001 17.1401 14.7801C17.1401 12.6001 15.9201 11.3201 13.4201 10.7801L11.1201 10.2801C9.90008 10.0001 9.34008 9.42012 9.34008 8.38012C9.34008 7.16012 10.3601 6.40012 11.9401 6.40012C13.3801 6.40012 14.2801 7.14012 14.3401 8.40012H16.9001C16.8201 5.76012 14.9401 4.12012 11.9801 4.12012C8.90008 4.12012 6.78008 5.90012 6.78008 8.46012Z" fill="currentColor"/>
</svg>
