<svg viewBox="0 0 24 24" fill="none" xmlns="http://www.w3.org/2000/svg">
<path d="M22.8341 8.35631L19.8166 4.19022L19.3681 3.57057L19.0945 3.19419C18.9673 3.01989 18.8405 2.84526 18.7142 2.67032C18.6422 2.56976 18.5707 2.46888 18.4996 2.36768C18.4659 2.31867 18.4274 2.27341 18.3845 2.23264C18.2607 2.11541 18.0986 2.04967 17.9299 2.04828C17.8252 2.04445 17.7209 2.02577 17.6166 2.0138L15.4105 1.76192L13.2287 1.51052L12.0375 1.375C11.9467 1.38027 11.8845 1.38075 11.8223 1.38745C11.2692 1.4513 10.7159 1.51515 10.1625 1.579L8.10462 1.81843C7.41867 1.89792 6.73179 1.97629 6.04397 2.05354H6.03274C5.96563 2.06141 5.89968 2.07749 5.83631 2.10143C5.77958 2.12306 5.72595 2.15237 5.67683 2.18858C5.65575 2.20322 5.63559 2.21922 5.61649 2.23647C5.57613 2.27456 5.53947 2.31657 5.50706 2.36193C5.26323 2.69969 5.01925 3.03712 4.77511 3.37424C4.04302 4.38592 3.3103 5.39775 2.57696 6.40974C2.09009 7.08014 1.60135 7.7539 1.11729 8.4291C1.02655 8.55552 0.989138 8.6714 1.0027 8.78728C1.01901 8.88902 1.06165 8.98443 1.12617 9.06359C1.19025 9.1493 1.259 9.23071 1.32728 9.31259C2.25175 10.4242 3.17685 11.5351 4.10257 12.6455C5.11622 13.8627 6.12955 15.0803 7.14258 16.2982C8.20673 17.5752 9.27105 18.8531 10.3355 20.132C10.5734 20.4174 10.811 20.7028 11.0483 20.9882C11.2856 21.2736 11.5241 21.5582 11.7638 21.842C11.8541 21.9483 11.9289 22.0005 12.0038 22C12.0786 21.9995 12.1534 21.9454 12.2428 21.8396C12.7184 21.274 13.1898 20.7056 13.6627 20.1382L16.8402 16.3217L20.0322 12.487C20.7057 11.6777 21.3795 10.8687 22.0536 10.0601L22.8019 9.16367C22.8449 9.11349 22.8842 9.06002 22.9193 9.00373C22.9296 8.98697 22.9389 8.97021 22.9473 8.95584C22.9694 8.91413 22.9851 8.86925 22.9941 8.82272L22.9969 8.80883C23.0137 8.669 22.9623 8.53349 22.8341 8.35631ZM21.6485 8.67618C21.6397 8.69485 21.6271 8.71137 21.6115 8.72466C21.5959 8.73795 21.5778 8.74771 21.5583 8.75328C21.4964 8.76329 21.4337 8.76651 21.3712 8.76286C20.7712 8.76286 20.1706 8.76956 19.5706 8.75999C19.304 8.75568 19.1314 8.85576 18.9986 9.10045C17.4805 11.8871 15.9578 14.6714 14.4306 17.4532C14.2576 17.7697 14.0794 18.0839 13.9124 18.4038C13.8582 18.5086 13.7848 18.4995 13.7085 18.466C13.6323 18.4325 13.6234 18.3573 13.6552 18.2836C13.7375 18.0946 13.8217 17.9062 13.9078 17.7185C15.2005 14.9009 16.4932 12.0836 17.7859 9.26662C17.8217 9.20075 17.8459 9.12894 17.8574 9.05449C17.8691 8.89981 17.748 8.7825 17.5768 8.7643C17.5422 8.76095 17.5067 8.7643 17.4716 8.7643H6.70435C6.60291 8.76253 6.50144 8.76605 6.40035 8.77483C6.1969 8.79638 6.08559 8.96638 6.1665 9.15792C6.31336 9.5051 6.47611 9.84557 6.63419 10.1884C7.8081 12.7471 8.98185 15.3054 10.1555 17.8631C10.2219 18.0068 10.2841 18.1533 10.3477 18.2984C10.3563 18.3132 10.3617 18.3297 10.3634 18.3468C10.3651 18.3638 10.3632 18.3811 10.3577 18.3974C10.3522 18.4136 10.3433 18.4284 10.3317 18.4408C10.32 18.4531 10.3058 18.4627 10.2901 18.4689C10.2752 18.4785 10.2584 18.485 10.2409 18.4878C10.2235 18.4906 10.2056 18.4897 10.1884 18.4852C10.1713 18.4808 10.1552 18.4728 10.1412 18.4617C10.1271 18.4507 10.1155 18.4368 10.1068 18.421C10.0811 18.3813 10.0549 18.341 10.0324 18.2994C8.34033 15.2094 6.649 12.1189 4.95845 9.02767C4.85368 8.83613 4.70589 8.7619 4.50198 8.76238C3.87059 8.7643 3.23921 8.7643 2.60782 8.76238C2.52738 8.76238 2.44647 8.7528 2.36415 8.74753C2.3403 8.62926 2.37024 8.58616 2.47173 8.56413C3.14474 8.42047 3.81634 8.2658 4.48889 8.11879C4.7059 8.0709 4.83498 7.95263 4.88455 7.72278C5.15207 6.48875 5.42661 5.25617 5.69928 4.0231C5.71047 3.96045 5.72883 3.89937 5.75399 3.84113C5.76253 3.82445 5.77484 3.8101 5.78989 3.79927C5.80494 3.78844 5.8223 3.78145 5.84052 3.77888C5.86952 3.78223 5.90506 3.82389 5.91722 3.85693C5.92781 3.89914 5.9302 3.94308 5.92423 3.98623C5.87279 5.05409 5.82088 6.12179 5.76849 7.18933C5.76095 7.2245 5.76095 7.26093 5.76849 7.29611C5.79936 7.36363 5.82929 7.45653 5.88354 7.47999C5.91944 7.48855 5.95677 7.48868 5.99273 7.48039C6.02869 7.4721 6.06235 7.45559 6.0912 7.43211C6.21982 7.3234 6.33066 7.19267 6.44898 7.07152C7.82088 5.6592 9.19278 4.24737 10.5647 2.836C10.6017 2.7897 10.6461 2.75018 10.6961 2.71916C10.7422 2.70079 10.7934 2.70182 10.8388 2.72203C10.907 2.75747 10.8626 2.81063 10.8322 2.84989C10.5792 3.17887 10.3266 3.50832 10.0708 3.83491C9.21212 4.9299 8.35312 6.02441 7.49381 7.11845C7.46891 7.14827 7.44668 7.18032 7.4274 7.21422C7.3507 7.36219 7.4115 7.50154 7.57238 7.54512C7.62514 7.55744 7.67918 7.56307 7.73327 7.56187C10.5706 7.56187 13.4079 7.56187 16.2453 7.56187C16.2998 7.56438 16.3544 7.56182 16.4085 7.55422C16.5909 7.5207 16.67 7.3483 16.5605 7.19698C16.366 6.92834 16.1606 6.66736 15.9553 6.40638C15.0324 5.23126 14.1084 4.05726 13.1833 2.88437C13.1459 2.83648 13.1178 2.7977 13.1576 2.74071C13.1973 2.68373 13.2446 2.64973 13.3077 2.71198C13.3582 2.75987 13.4111 2.80775 13.4602 2.85995L17.8223 7.34974C17.907 7.4369 17.9893 7.54655 18.131 7.4776C18.2727 7.40864 18.2316 7.27887 18.2246 7.16107C18.1974 6.55451 18.1705 5.94892 18.1437 5.34428C18.124 4.9133 18.103 4.48233 18.0847 4.05135C18.0806 3.98018 18.0837 3.90876 18.0941 3.83826C18.0992 3.82267 18.1082 3.80872 18.1202 3.79773C18.1322 3.78675 18.1467 3.7791 18.1624 3.77553C18.1785 3.77632 18.1943 3.78109 18.2083 3.78942C18.2223 3.79776 18.2341 3.80941 18.2428 3.82341C18.2691 3.88495 18.289 3.94915 18.3022 4.01496C18.5739 5.24371 18.8489 6.47199 19.1127 7.70218C19.1637 7.93826 19.2872 8.06325 19.5093 8.11017C19.9125 8.19573 20.3153 8.28352 20.7178 8.37355C21.0027 8.43628 21.2866 8.5038 21.5718 8.56509C21.6345 8.5852 21.6682 8.61776 21.6485 8.67618Z" fill="currentColor"/>
</svg>
