<svg viewBox="0 0 24 24" fill="none" xmlns="http://www.w3.org/2000/svg">
<path fill-rule="evenodd" clip-rule="evenodd" d="M21.1358 13.4815C21.2593 12.9877 21.2593 12.3706 21.2593 11.8768C21.2593 9.16072 20.0247 6.5679 17.9259 4.71605C15.8271 2.8642 12.9876 2.24691 10.2716 2.61728C9.53083 2.24691 8.54323 2 7.55559 2C5.58027 2 3.72839 3.11111 2.74074 4.83951C1.75309 6.5679 1.75309 8.66667 2.74074 10.3951C2.24691 13.358 3.11108 16.4444 5.3333 18.6667C7.43207 20.7654 10.5185 21.7531 13.4815 21.2593C14.3457 21.7531 15.2099 22 16.1976 22C18.1729 22 20.0247 20.8889 21.0123 19.1605C22 17.3086 22.1235 15.2099 21.1358 13.4815ZM12 17.8025C8.66666 17.8025 7.18516 16.0741 7.18516 14.8395C7.18516 14.5926 7.30867 14.2222 7.55559 14.0988C7.8025 13.8519 8.04938 13.8519 8.2963 13.8519C8.8588 13.8519 9.12475 14.2119 9.43635 14.6338L9.43636 14.6338L9.43638 14.6339C9.87705 15.2305 10.409 15.9506 12 15.9506C13.358 15.9506 14.0988 15.0864 14.0988 14.3457C14.0988 13.8519 13.8518 13.358 12.9876 13.1111L10.0247 12.3704C7.67904 11.7531 7.30867 10.3951 7.30867 9.28397C7.30867 6.69137 9.65436 5.82717 11.8766 5.82717C13.8519 5.82717 16.321 6.93829 16.321 8.41977C16.321 9.03705 15.8272 9.40742 15.0864 9.40742C14.5751 9.40742 14.3179 9.11089 14.0166 8.76348L14.0166 8.76345C13.5904 8.27212 13.076 7.67903 11.6297 7.67903C10.3951 7.67903 9.7778 8.29631 9.7778 9.03705C9.7778 9.77779 10.7654 10.1482 11.5062 10.2716L13.7284 10.7654C16.0741 11.2593 16.6914 12.7408 16.6914 13.9753C16.6914 16.321 15.0864 17.8025 12 17.8025Z" fill="currentColor"/>
</svg>
