<svg viewBox="0 0 24 24" fill="none" xmlns="http://www.w3.org/2000/svg">
<path fill-rule="evenodd" clip-rule="evenodd" d="M9.36705 6.20381C8.20555 6.20381 7.26681 5.26432 7.26681 4.10191C7.26681 2.93949 8.20555 2 9.36705 2C10.5285 2 11.4673 2.93949 11.4673 4.10191V6.20381H9.36705ZM4.1161 16.7452C5.27759 16.7452 6.21634 15.8057 6.21634 14.6433V12.5414H4.1161C2.9546 12.5414 2.01586 13.4808 2.01586 14.6433C2.01586 15.8057 2.9546 16.7452 4.1161 16.7452ZM9.36705 12.5414C8.20555 12.5414 7.26681 13.4809 7.26681 14.6433V19.8981C7.26681 21.0605 8.20555 22 9.36705 22C10.5285 22 11.4673 21.0605 11.4673 19.8981V14.6433C11.4673 13.4809 10.5285 12.5414 9.36705 12.5414ZM11.467 9.37258C11.467 8.21016 10.5282 7.27068 9.36675 7.27068H4.10024C2.93874 7.27068 2 8.21016 2 9.37258C2 10.535 2.93874 11.4745 4.10024 11.4745H9.36675C10.5282 11.4745 11.467 10.535 11.467 9.37258ZM17.784 9.37258C17.784 8.21016 18.7227 7.27068 19.8842 7.27068C21.0457 7.27068 21.9844 8.21016 21.9844 9.37258C21.9844 10.535 21.0457 11.4745 19.8842 11.4745H17.784V9.37258ZM14.6332 11.4745C15.7947 11.4745 16.7335 10.535 16.7335 9.37259V4.10191C16.7335 2.93949 15.7947 2 14.6332 2C13.4718 2 12.533 2.93949 12.533 4.10191V9.37259C12.533 10.535 13.4718 11.4745 14.6332 11.4745ZM14.6332 17.7962C15.7947 17.7962 16.7335 18.7356 16.7335 19.8981C16.7335 21.0605 15.7947 22 14.6332 22C13.4718 22 12.533 21.0605 12.533 19.8981V17.7962H14.6332ZM12.533 14.6433C12.533 15.8057 13.4718 16.7452 14.6332 16.7452H19.8998C21.0613 16.7452 22 15.8057 22 14.6433C22 13.4808 21.0613 12.5414 19.8998 12.5414H14.6332C13.4718 12.5414 12.533 13.4808 12.533 14.6433Z" fill="currentColor"/>
</svg>
