<svg viewBox="0 0 24 24" fill="none" xmlns="http://www.w3.org/2000/svg">
<path fill-rule="evenodd" clip-rule="evenodd" d="M17.6629 2.923C18.2483 2.33764 19.0422 2.00879 19.87 2.00879C20.6979 2.00879 21.4918 2.33764 22.0771 2.923C22.6625 3.50837 22.9913 4.30229 22.9913 5.13011C22.9913 5.95793 22.6625 6.75185 22.0771 7.33722L12 17.4143V20.0001C12 20.5524 11.5523 21.0001 11 21.0001H2.00003C1.59557 21.0001 1.23093 20.7565 1.07615 20.3828C0.921369 20.0091 1.00692 19.579 1.29292 19.293L17.6629 2.923ZM11 15.5859L20.6629 5.923C20.8732 5.71272 20.9913 5.4275 20.9913 5.13011C20.9913 4.83272 20.8732 4.5475 20.6629 4.33722C20.4526 4.12693 20.1674 4.00879 19.87 4.00879C19.5726 4.00879 19.2874 4.12693 19.0771 4.33722L9.41424 14.0001L11 15.5859ZM8.00003 15.4143L4.41424 19.0001H10V17.4143L8.00003 15.4143Z" fill="currentColor"/>
</svg>
