<svg viewBox="0 0 24 24" fill="none" xmlns="http://www.w3.org/2000/svg">
<path fill-rule="evenodd" clip-rule="evenodd" d="M4 2C4.55228 2 5 2.44772 5 3V14C5 14.5523 4.55228 15 4 15C3.44772 15 3 14.5523 3 14V3C3 2.44772 3.44772 2 4 2ZM12 2C12.5523 2 13 2.44772 13 3V14C13 14.5523 12.5523 15 12 15C11.4477 15 11 14.5523 11 14V3C11 2.44772 11.4477 2 12 2ZM20 2C20.5523 2 21 2.44772 21 3V14C21 14.5523 20.5523 15 20 15C19.4477 15 19 14.5523 19 14V3C19 2.44772 19.4477 2 20 2ZM1 18C1 17.4477 1.44772 17 2 17H6C6.55228 17 7 17.4477 7 18C7 18.5523 6.55228 19 6 19H5V21C5 21.5523 4.55228 22 4 22C3.44772 22 3 21.5523 3 21L3 19H2C1.44772 19 1 18.5523 1 18ZM9 18C9 17.4477 9.44772 17 10 17H14C14.5523 17 15 17.4477 15 18C15 18.5523 14.5523 19 14 19H13V21C13 21.5523 12.5523 22 12 22C11.4477 22 11 21.5523 11 21V19H10C9.44772 19 9 18.5523 9 18ZM17 18C17 17.4477 17.4477 17 18 17H22C22.5523 17 23 17.4477 23 18C23 18.5523 22.5523 19 22 19H21V21C21 21.5523 20.5523 22 20 22C19.4477 22 19 21.5523 19 21V19H18C17.4477 19 17 18.5523 17 18Z" fill="currentColor"/>
</svg>
