<svg viewBox="0 0 24 24" fill="none" xmlns="http://www.w3.org/2000/svg">
<path fill-rule="evenodd" clip-rule="evenodd" d="M12.9 2.99531C11.0926 2.81368 9.27254 3.18322 7.67909 4.05536C6.08564 4.92749 4.79339 6.2614 3.97222 7.88171C3.15106 9.50202 2.83942 11.3329 3.07828 13.1336C3.31713 14.9344 4.0953 16.6207 5.31048 17.9709C6.52567 19.3211 8.12098 20.272 9.8867 20.6985C11.6524 21.1251 13.5059 21.0074 15.2034 20.3608C16.901 19.7143 18.3632 18.5692 19.3978 17.0761C20.4319 15.5837 20.9904 13.8135 21 11.9979V11.0003C21 10.448 21.4477 10.0003 22 10.0003C22.5523 10.0003 23 10.448 23 11.0003V12.0003L23 12.0053C22.9889 14.2255 22.3062 16.3903 21.0417 18.2152C19.7772 20.0401 17.9901 21.4397 15.9153 22.2299C13.8405 23.0201 11.5751 23.164 9.41704 22.6426C7.25894 22.1213 5.30912 20.9591 3.8239 19.3088C2.33867 17.6586 1.38758 15.5975 1.09564 13.3966C0.803706 11.1957 1.1846 8.95798 2.18824 6.9776C3.19189 4.99722 4.7713 3.36689 6.71886 2.30095C8.66641 1.235 10.8909 0.783338 13.1 1.00533C13.6495 1.06055 14.0502 1.55079 13.995 2.1003C13.9398 2.64982 13.4495 3.05053 12.9 2.99531Z" fill="currentColor"/>
<path fill-rule="evenodd" clip-rule="evenodd" d="M8.79687 13.3962C8.46469 12.9579 7.84044 12.87 7.40001 13.2003C6.95818 13.5317 6.86864 14.1585 7.20001 14.6003L8.00001 14.0003C7.20001 14.6003 7.19976 14.6 7.20001 14.6003L7.20102 14.6017L7.20217 14.6032L7.20491 14.6068L7.21212 14.6162L7.23342 14.6435C7.25066 14.6653 7.27401 14.6941 7.30337 14.7291C7.36201 14.799 7.44501 14.8936 7.55146 15.0047C7.76353 15.226 8.07344 15.5175 8.47433 15.8091C9.27227 16.3894 10.4745 17.0003 12 17.0003C13.5255 17.0003 14.7277 16.3894 15.5257 15.8091C15.9266 15.5175 16.2365 15.226 16.4486 15.0047C16.555 14.8936 16.638 14.799 16.6966 14.7291C16.726 14.6941 16.7494 14.6653 16.7666 14.6435L16.7879 14.6162L16.7951 14.6068L16.7978 14.6032L16.799 14.6017C16.7992 14.6013 16.8 14.6003 16 14.0003L16.8 14.6003C17.1314 14.1585 17.0418 13.5317 16.6 13.2003C16.1596 12.87 15.5353 12.9579 15.2031 13.3961L15.1985 13.4021C15.1926 13.4096 15.1812 13.4237 15.1647 13.4434C15.1315 13.4829 15.0778 13.5445 15.0046 13.6209C14.8573 13.7746 14.6359 13.9831 14.3493 14.1916C13.7723 14.6113 12.9745 15.0003 12 15.0003C11.0255 15.0003 10.2277 14.6113 9.65068 14.1916C9.36407 13.9831 9.14273 13.7746 8.99543 13.6209C8.92219 13.5445 8.86847 13.4829 8.83532 13.4434C8.81877 13.4237 8.80746 13.4096 8.80151 13.4021L8.79687 13.3962Z" fill="currentColor"/>
<path fill-rule="evenodd" clip-rule="evenodd" d="M7.50001 10.0003C7.50001 9.17189 8.17158 8.50032 9.00001 8.50032H9.01001C9.83843 8.50032 10.51 9.17189 10.51 10.0003C10.51 10.8287 9.83843 11.5003 9.01001 11.5003H9.00001C8.17158 11.5003 7.50001 10.8287 7.50001 10.0003Z" fill="currentColor"/>
<path fill-rule="evenodd" clip-rule="evenodd" d="M13.5 10.0003C13.5 9.17189 14.1716 8.50032 15 8.50032H15.01C15.8384 8.50032 16.51 9.17189 16.51 10.0003C16.51 10.8287 15.8384 11.5003 15.01 11.5003H15C14.1716 11.5003 13.5 10.8287 13.5 10.0003Z" fill="currentColor"/>
<path fill-rule="evenodd" clip-rule="evenodd" d="M15 5.00032C15 4.44803 15.4477 4.00032 16 4.00032H22C22.5523 4.00032 23 4.44803 23 5.00032C23 5.5526 22.5523 6.00032 22 6.00032H16C15.4477 6.00032 15 5.5526 15 5.00032Z" fill="currentColor"/>
<path fill-rule="evenodd" clip-rule="evenodd" d="M19 1.00032C19.5523 1.00032 20 1.44803 20 2.00032V8.00032C20 8.5526 19.5523 9.00032 19 9.00032C18.4477 9.00032 18 8.5526 18 8.00032V2.00032C18 1.44803 18.4477 1.00032 19 1.00032Z" fill="currentColor"/>
</svg>
