<svg viewBox="0 0 24 24" fill="none" xmlns="http://www.w3.org/2000/svg">
<path d="M12.1923 3.125C12.175 3.125 12.1579 3.125 12.1425 3.12521C12.0193 3.12645 11.8169 3.12841 11.7987 3.12862C11.3547 3.12862 10.4664 3.19115 9.51218 3.61111C8.9666 3.85106 8.47587 4.17551 8.05365 4.57546C7.55027 5.05201 7.14018 5.63956 6.835 6.32205C6.38806 7.32135 6.49416 9.00452 6.57937 10.3572L6.57968 10.3593C6.5888 10.5041 6.59839 10.6554 6.60715 10.8028C6.54158 10.8328 6.43528 10.8645 6.27859 10.8645C6.02649 10.8645 5.7267 10.7841 5.38777 10.6258C5.28805 10.5795 5.17423 10.5561 5.04864 10.5561C4.84687 10.5561 4.63415 10.6153 4.44963 10.7235C4.21748 10.8594 4.06748 11.0515 4.02674 11.2645C3.99989 11.4053 4.00119 11.6838 4.3114 11.9662C4.48203 12.1216 4.73268 12.265 5.05621 12.3925C5.14111 12.4258 5.24187 12.4577 5.34859 12.4914C5.71892 12.6088 6.27942 12.7861 6.42559 13.1291C6.49965 13.303 6.46778 13.5318 6.3311 13.8084C6.32752 13.816 6.32395 13.8234 6.32068 13.8311C6.28652 13.9106 5.96787 14.6304 5.31423 15.3894C4.9428 15.821 4.5337 16.1817 4.09894 16.4619C3.5683 16.8038 2.99411 17.0274 2.39251 17.1262C2.15627 17.1649 1.98756 17.3747 2.00072 17.6132C2.00476 17.682 2.02093 17.7505 2.04897 17.8168C2.04918 17.8172 2.04944 17.8176 2.04965 17.818C2.14517 18.0408 2.36665 18.23 2.72672 18.397C3.16671 18.6007 3.82476 18.7722 4.68241 18.9063C4.72574 18.9885 4.77073 19.195 4.80188 19.3364C4.83448 19.4867 4.86848 19.6412 4.91694 19.8053C4.96924 19.9831 5.10488 20.1957 5.45334 20.1957C5.58541 20.1957 5.73727 20.166 5.91313 20.132C6.17068 20.0816 6.52287 20.0129 6.96245 20.0129C7.20616 20.0129 7.45874 20.0343 7.71297 20.0764C8.20303 20.1577 8.6255 20.4553 9.11432 20.7999C9.8298 21.3042 10.6397 21.875 11.877 21.875C11.9108 21.875 11.9446 21.8739 11.978 21.8716C12.0189 21.8735 12.0696 21.875 12.1231 21.875C13.3608 21.875 14.1705 21.304 14.8852 20.8001L14.8863 20.7991C15.3753 20.4549 15.7973 20.1577 16.2872 20.0764C16.5413 20.0343 16.7938 20.0129 17.0376 20.0129C17.4576 20.0129 17.7901 20.0662 18.0869 20.124C18.2807 20.162 18.4313 20.1803 18.5468 20.1803L18.5581 20.1805H18.5698C18.8247 20.1805 19.0119 20.041 19.0834 19.7969C19.1309 19.6363 19.1648 19.4854 19.1982 19.3325C19.2273 19.2 19.2739 18.9876 19.3172 18.9046C20.1754 18.7702 20.8332 18.5991 21.2733 18.3954C21.6325 18.2293 21.8537 18.0402 21.9498 17.8184C21.9786 17.7518 21.9955 17.6829 21.9993 17.6127C22.0128 17.3746 21.8438 17.1643 21.6074 17.1257C18.9337 16.6863 17.7292 13.947 17.6794 13.8306C17.6762 13.823 17.6726 13.8154 17.6688 13.808C17.5321 13.5313 17.5005 13.3027 17.5746 13.1285C17.7205 12.7858 18.2806 12.6085 18.6512 12.4912C18.7585 12.4575 18.8596 12.4255 18.9439 12.3923C19.3087 12.2486 19.5695 12.0927 19.7415 11.9157C19.947 11.7047 19.987 11.5025 19.9845 11.3702C19.9782 11.0501 19.7328 10.7657 19.3424 10.6264C19.2105 10.572 19.0602 10.5434 18.9071 10.5434C18.8028 10.5434 18.6485 10.5576 18.5024 10.6256C18.1896 10.7716 17.9094 10.8514 17.6688 10.8627C17.5409 10.8563 17.4512 10.8286 17.3931 10.8022C17.4004 10.6774 17.4085 10.5491 17.4168 10.4153L17.4203 10.3581C17.506 9.00458 17.6124 7.32011 17.1653 6.32009C16.8588 5.63517 16.4473 5.04612 15.9419 4.56854C15.518 4.16832 15.0256 3.84393 14.4781 3.60413C13.5252 3.18727 12.6369 3.125 12.1923 3.125Z" fill="currentColor"/>
</svg>
