<svg viewBox="0 0 24 24" fill="none" xmlns="http://www.w3.org/2000/svg">
<path fill-rule="evenodd" clip-rule="evenodd" d="M5.29289 3.29289C5.68342 2.90237 6.31658 2.90237 6.70711 3.29289L9.70711 6.29289C10.0976 6.68342 10.0976 7.31658 9.70711 7.70711C9.31658 8.09763 8.68342 8.09763 8.29289 7.70711L7 6.41421V20C7 20.5523 6.55228 21 6 21C5.44772 21 5 20.5523 5 20V6.41421L3.70711 7.70711C3.31658 8.09763 2.68342 8.09763 2.29289 7.70711C1.90237 7.31658 1.90237 6.68342 2.29289 6.29289L5.29289 3.29289ZM10 11C10 10.4477 10.4477 10 11 10H15C15.5523 10 16 10.4477 16 11C16 11.5523 15.5523 12 15 12H11C10.4477 12 10 11.5523 10 11ZM10 15C10 14.4477 10.4477 14 11 14H18C18.5523 14 19 14.4477 19 15C19 15.5523 18.5523 16 18 16H11C10.4477 16 10 15.5523 10 15ZM10 19C10 18.4477 10.4477 18 11 18H21C21.5523 18 22 18.4477 22 19C22 19.5523 21.5523 20 21 20H11C10.4477 20 10 19.5523 10 19Z" fill="currentColor"/>
</svg>
