<svg viewBox="0 0 24 24" fill="none" xmlns="http://www.w3.org/2000/svg">
<path fill-rule="evenodd" clip-rule="evenodd" d="M12.5433 7.66526C12.5433 7.44352 12.6172 7.36961 12.8389 7.29569C13.3403 7.12628 13.8626 7.02679 14.3911 7.00004H14.7607C16.0594 6.99526 17.3125 7.47908 18.271 8.35544C19.2295 9.2318 19.8234 10.4366 19.9347 11.7306C20.2845 11.5792 20.6623 11.5036 21.0434 11.5088C21.8276 11.5088 22.5796 11.8203 23.134 12.3748C23.6885 12.9292 24 13.6813 24 14.4654C24 15.2495 23.6885 16.0015 23.134 16.556C22.5796 17.1105 21.8276 17.422 21.0434 17.422H12.8389C12.7623 17.3905 12.695 17.3401 12.6433 17.2754C12.5916 17.2108 12.5571 17.134 12.5433 17.0524V7.66526ZM11.6785 7.96092L11.5306 14.6132L11.6785 17.0524C11.6785 17.1308 11.7096 17.206 11.7651 17.2615C11.8205 17.3169 11.8957 17.3481 11.9741 17.3481C12.0525 17.3481 12.1277 17.3169 12.1832 17.2615C12.2386 17.206 12.2698 17.1308 12.2698 17.0524L12.4176 14.6132L12.2698 7.96092C12.2646 7.88422 12.2318 7.81199 12.1774 7.75763C12.1231 7.70327 12.0508 7.67045 11.9741 7.66526H11.9002C11.7524 7.66526 11.6785 7.81309 11.6785 7.96092ZM10.4737 14.6132L10.6215 8.47832C10.6215 8.39991 10.6526 8.32471 10.7081 8.26926C10.7635 8.21382 10.8387 8.18267 10.9172 8.18267C10.9956 8.18267 11.0708 8.21382 11.1262 8.26926C11.1817 8.32471 11.2128 8.39991 11.2128 8.47832L11.3606 14.6132L11.2128 17.0524C11.2128 17.1308 11.1817 17.206 11.1262 17.2615C11.0708 17.3169 10.9956 17.3481 10.9172 17.3481C10.8387 17.3481 10.7635 17.3169 10.7081 17.2615C10.6526 17.206 10.6215 17.1308 10.6215 17.0524L10.4737 14.6132ZM7.66492 9.14355L7.51709 14.6132L7.66492 17.1263C7.66492 17.1851 7.68828 17.2415 7.72987 17.2831C7.77145 17.3247 7.82786 17.3481 7.88667 17.3481C7.94548 17.3481 8.00188 17.3247 8.04346 17.2831C8.08505 17.2415 8.10841 17.1851 8.10841 17.1263L8.25624 14.6132L8.10841 9.14355C8.10841 9.08474 8.08505 9.02834 8.04346 8.98676C8.00188 8.94517 7.94548 8.92181 7.88667 8.92181C7.82786 8.92181 7.77145 8.94517 7.72987 8.98676C7.68828 9.02834 7.66492 9.08474 7.66492 9.14355ZM8.50016 14.6132L8.64798 9.29138C8.64798 9.21297 8.67913 9.13777 8.73458 9.08232C8.79003 9.02687 8.86523 8.99572 8.94364 8.99572C9.02205 8.99572 9.09726 9.02687 9.1527 9.08232C9.20815 9.13777 9.2393 9.21297 9.2393 9.29138L9.38713 14.6132L9.2393 17.1263C9.2393 17.2047 9.20815 17.2799 9.1527 17.3354C9.09726 17.3908 9.02205 17.422 8.94364 17.422C8.86523 17.422 8.79003 17.3908 8.73458 17.3354C8.67913 17.2799 8.64798 17.2047 8.64798 17.1263L8.50016 14.6132ZM6.72621 9.29138L6.57838 14.6132L6.72621 17.1263C6.72621 17.1554 6.73195 17.1843 6.74309 17.2112C6.75423 17.2381 6.77057 17.2625 6.79116 17.2831C6.81175 17.3037 6.83619 17.32 6.8631 17.3312C6.89 17.3423 6.91883 17.3481 6.94795 17.3481C6.97707 17.3481 7.00591 17.3423 7.03281 17.3312C7.05971 17.32 7.08416 17.3037 7.10475 17.2831C7.12534 17.2625 7.14167 17.2381 7.15282 17.2112C7.16396 17.1843 7.1697 17.1554 7.1697 17.1263L7.31752 14.6132L7.1697 9.29138C7.18028 9.25716 7.18146 9.22072 7.17311 9.18589C7.16477 9.15106 7.1472 9.11911 7.12225 9.09341C7.0973 9.0677 7.0659 9.04919 7.03133 9.0398C6.99676 9.03042 6.9603 9.03051 6.92578 9.04007C6.86811 9.04358 6.81373 9.06806 6.77288 9.10891C6.73203 9.14976 6.70754 9.20415 6.70404 9.26181L6.72621 9.29138ZM9.53496 14.6132L9.68279 9.51312C9.68279 9.29138 9.7567 9.21747 9.97844 9.14355C10.0551 9.14874 10.1274 9.18156 10.1817 9.23592C10.2361 9.29028 10.2689 9.36251 10.2741 9.43921L10.4219 14.6132L10.2741 17.0524C10.2741 17.1308 10.243 17.206 10.1875 17.2615C10.1321 17.3169 10.0569 17.3481 9.97844 17.3481C9.90003 17.3481 9.82483 17.3169 9.76938 17.2615C9.71394 17.206 9.68279 17.1308 9.68279 17.0524L9.53496 14.6132ZM5.76532 9.73487L5.61749 14.6132L5.76532 17.2002C5.76176 17.2302 5.76504 17.2606 5.77492 17.2891C5.7848 17.3176 5.80103 17.3436 5.82238 17.3649C5.84373 17.3863 5.86964 17.4025 5.89816 17.4124C5.92669 17.4223 5.95709 17.4255 5.98707 17.422C6.04583 17.4128 6.09901 17.3819 6.13599 17.3353C6.17297 17.2888 6.19106 17.23 6.18664 17.1707L6.40838 14.5837L6.18664 9.7053C6.18664 9.64649 6.16327 9.59009 6.12169 9.54851C6.0801 9.50692 6.0237 9.48356 5.96489 9.48356C5.90608 9.48356 5.84968 9.50692 5.8081 9.54851C5.76651 9.59009 5.74315 9.64649 5.74315 9.7053L5.76532 9.73487ZM4.58269 14.6132L4.80444 10.6218C4.80444 10.5479 4.87835 10.474 5.02618 10.474C5.06427 10.4773 5.09996 10.494 5.127 10.521C5.15403 10.5481 5.17068 10.5838 5.17401 10.6218L5.39575 14.6132L5.17401 17.2002C5.17401 17.2741 5.10009 17.3481 4.95226 17.3481C4.91418 17.3447 4.87848 17.3281 4.85145 17.301C4.82441 17.274 4.80777 17.2383 4.80444 17.2002L4.58269 14.6132ZM2.88266 11.9523L2.66092 14.6132L2.88266 17.1263C2.88266 17.1655 2.89824 17.2031 2.92596 17.2308C2.95368 17.2586 2.99128 17.2741 3.03049 17.2741C3.0697 17.2741 3.1073 17.2586 3.13502 17.2308C3.16274 17.2031 3.17832 17.1655 3.17832 17.1263L3.40006 14.6132L3.17832 11.9523C3.17499 11.9142 3.15834 11.8785 3.13131 11.8515C3.10427 11.8244 3.06858 11.8078 3.03049 11.8045C2.98481 11.8045 2.96736 11.8327 2.94325 11.8717C2.92834 11.8958 2.91089 11.9241 2.88266 11.9523ZM1.75177 14.6132L1.99569 11.9966C1.99569 11.9597 2.01417 11.9412 2.03265 11.9227C2.05112 11.9043 2.0696 11.8858 2.0696 11.8488C2.10769 11.8521 2.14339 11.8688 2.17042 11.8958C2.19746 11.9229 2.2141 11.9586 2.21743 11.9966L2.417 14.6132L2.19526 17.0524C2.18745 17.1084 2.16148 17.1604 2.12134 17.2002C2.08326 17.1969 2.04756 17.1802 2.02052 17.1532C1.99349 17.1262 1.97684 17.0905 1.97351 17.0524L1.75177 14.6132ZM3.84355 12.174L3.69572 14.6132L3.84355 17.2002C3.84355 17.2394 3.85912 17.277 3.88685 17.3048C3.91457 17.3325 3.95217 17.3481 3.99138 17.3481C4.03058 17.3481 4.06819 17.3325 4.09591 17.3048C4.12363 17.277 4.13921 17.2394 4.13921 17.2002L4.43486 14.6132L4.21312 12.174C4.20979 12.136 4.19315 12.1003 4.16611 12.0732C4.13908 12.0462 4.10338 12.0295 4.06529 12.0262C3.91746 12.0262 3.84355 12.1001 3.84355 12.174ZM0.790884 14.6132L1.01263 12.4697L1.08654 12.3958C1.10614 12.3958 1.12495 12.4036 1.13881 12.4174C1.15267 12.4313 1.16046 12.4501 1.16046 12.4697L1.45611 14.6132L1.16046 16.7567C1.16046 16.7763 1.15267 16.7951 1.13881 16.809C1.12495 16.8229 1.10614 16.8307 1.08654 16.8307C1.06694 16.8307 1.04814 16.8229 1.03428 16.809C1.02041 16.7951 1.01263 16.7763 1.01263 16.7567L0.790884 14.6132ZM0 14.6132L0.147829 13.2828H0.125654C0.125654 13.2632 0.133442 13.2444 0.147303 13.2305C0.161165 13.2166 0.179966 13.2088 0.199569 13.2088C0.219172 13.2088 0.237973 13.2166 0.251834 13.2305C0.265696 13.2444 0.273483 13.2632 0.273483 13.2828L0.517401 14.6132L0.295658 15.9437C0.295658 15.9633 0.28787 15.9821 0.274009 15.9959C0.260147 16.0098 0.241346 16.0176 0.221743 16.0176C0.20214 16.0176 0.183339 16.0098 0.169478 15.9959C0.155616 15.9821 0.147829 15.9633 0.147829 15.9437L0 14.6132Z" fill="currentColor"/>
</svg>
