<svg viewBox="0 0 24 24" fill="none" xmlns="http://www.w3.org/2000/svg">
  <path
    d="M3.15719 18.1806C3.10904 18.1427 3.0699 18.0943 3.04268 18.0389C3.01547 17.9835 3.00088 17.9225 3 17.8606V15.791C3 15.7093 3.07692 15.631 3.15719 15.7093C4.08526 16.3352 5.17434 16.6679 6.28762 16.6658C7.85284 16.6658 8.47826 15.8693 8.47826 14.9128C8.47826 14.1163 8.08696 13.4015 6.59866 12.5301L5.81605 12.1318C3.6388 10.8519 3 9.57544 3 7.9824C3 5.75283 4.48829 3.9998 7.38127 3.9998C8.34228 3.97909 9.29859 4.14189 10.2007 4.47976C10.2776 4.55805 10.3579 4.55805 10.3579 4.71803V6.70933C10.3579 6.78762 10.2776 6.86932 10.2007 6.78762C9.35432 6.34556 8.41252 6.1267 7.46154 6.15109C5.81605 6.15109 5.2709 7.10759 5.2709 7.82582C5.2709 8.62234 5.66221 9.25888 7.14716 10.0554L7.85284 10.4537C10.2776 11.8152 10.903 13.1768 10.903 14.7528C10.903 17.1356 9.18394 18.8171 6.36455 18.8171C5.25711 18.9324 4.14094 18.7109 3.15719 18.1806ZM21 13.0032C21 16.9041 18.3545 18.8171 15.5987 18.8171C15.4133 18.8302 15.2273 18.8024 15.0535 18.7354V21.6832C15.0504 21.7246 15.0329 21.7635 15.004 21.7929C14.9752 21.8222 14.937 21.8401 14.8963 21.8432L12.9398 22.0032C12.7826 22.0032 12.7826 22.0032 12.7826 21.8432V9.81712C12.793 9.4173 12.7673 9.01736 12.7057 8.62234C12.7057 8.62234 12.6254 8.54065 12.7057 8.54065C13.8804 8.08142 15.1263 7.83935 16.3846 7.82582C19.3579 7.82582 21 10.0554 21 13.0032ZM15.0535 10.0554V16.7441C15.2804 16.8163 15.5188 16.844 15.7558 16.8258C17.1639 16.8258 18.6522 15.8046 18.6522 13.1598C18.6522 11.0119 17.7124 9.89541 16.1472 9.89541C15.7771 9.89669 15.409 9.95053 15.0535 10.0554Z"
    fill="currentColor" />
</svg>