<svg viewBox="0 0 24 24" fill="none" xmlns="http://www.w3.org/2000/svg">
<path fill-rule="evenodd" clip-rule="evenodd" d="M14.3902 6.44518C13.8699 6.63209 13.8699 7.36791 14.3902 7.55482L15.6405 8.00398C15.8061 8.06348 15.9365 8.19387 15.996 8.35949L16.4452 9.60978C16.6321 10.1301 17.3679 10.1301 17.5548 9.60978L18.004 8.35949C18.0635 8.19387 18.1939 8.06348 18.3595 8.00398L19.6098 7.55482C20.1301 7.36791 20.1301 6.63209 19.6098 6.44518L18.3595 5.99602C18.1939 5.93652 18.0635 5.80613 18.004 5.64051L17.5548 4.39022C17.3679 3.86993 16.6321 3.86993 16.4452 4.39022L15.996 5.64051C15.9365 5.80613 15.8061 5.93652 15.6405 5.99602L14.3902 6.44518ZM4.4291 13.3899C3.85697 13.5954 3.85697 14.4046 4.4291 14.6101L7.79117 15.8179C7.97329 15.8833 8.11667 16.0267 8.18209 16.2088L9.3899 19.5709C9.59544 20.143 10.4046 20.143 10.6101 19.5709L11.8179 16.2088C11.8833 16.0267 12.0267 15.8833 12.2088 15.8179L15.5709 14.6101C16.143 14.4046 16.143 13.5954 15.5709 13.3899L12.2088 12.1821C12.0267 12.1167 11.8833 11.9733 11.8179 11.7912L10.6101 8.4291C10.4046 7.85697 9.59544 7.85697 9.3899 8.4291L8.18209 11.7912C8.11667 11.9733 7.97329 12.1167 7.79117 12.1821L4.4291 13.3899Z" fill="currentColor"/>
</svg>
