<svg viewBox="0 0 24 24" fill="none" xmlns="http://www.w3.org/2000/svg">
<path fill-rule="evenodd" clip-rule="evenodd" d="M16.5858 2.58579C16.9609 2.21071 17.4696 2 18 2H20C20.5272 2 21.0443 2.18011 21.4321 2.56789C21.8199 2.95567 22 3.47275 22 4V6C22 6.52725 21.8199 7.04433 21.4321 7.43211C21.0443 7.81989 20.5272 8 20 8H18C17.4728 8 16.9557 7.81989 16.5679 7.43211C16.1913 7.05548 16.0105 6.55689 16.0005 6.04548C13.4496 6.27814 11.0478 7.39586 9.22183 9.22183C7.39586 11.0478 6.27814 13.4496 6.04548 16.0005C6.55689 16.0105 7.05548 16.1913 7.43211 16.5679C7.81989 16.9557 8 17.4728 8 18V20C8 20.5272 7.81989 21.0443 7.43211 21.4321C7.04433 21.8199 6.52725 22 6 22H4C3.47275 22 2.95567 21.8199 2.56789 21.4321C2.18011 21.0443 2 20.5272 2 20V18C2 17.4696 2.21071 16.9609 2.58579 16.5858C2.96086 16.2107 3.46957 16 4 16H4.03849C4.27615 12.918 5.60644 10.0088 7.80761 7.80761C10.0088 5.60644 12.918 4.27615 16 4.03849V4C16 3.46957 16.2107 2.96086 16.5858 2.58579ZM18 6H20V4H18L18 6ZM4 18V20H6V18L4 18Z" fill="currentColor"/>
</svg>
