<svg viewBox="0 0 24 24" fill="none" xmlns="http://www.w3.org/2000/svg">
<path d="M12 2C6.4775 2 2 6.47688 2 12C2 17.5231 6.4775 22 12 22C17.5231 22 22 17.5231 22 12C22 6.47688 17.5231 2 12 2ZM16.8781 16.4156C16.8224 16.5154 16.7476 16.6031 16.6579 16.6739C16.5682 16.7446 16.4654 16.797 16.3555 16.828C16.2455 16.859 16.1305 16.868 16.0171 16.8545C15.9037 16.841 15.794 16.8053 15.6944 16.7494C14.4478 16.05 13.0699 15.6161 11.6475 15.475C10.2222 15.3284 8.78192 15.4776 7.41687 15.9131C7.30685 15.9529 7.18995 15.97 7.07315 15.9635C6.95635 15.9571 6.84206 15.9271 6.73711 15.8754C6.63216 15.8238 6.5387 15.7515 6.46233 15.6629C6.38596 15.5743 6.32824 15.4712 6.29263 15.3597C6.25702 15.2483 6.24424 15.1308 6.25506 15.0144C6.26588 14.8979 6.30008 14.7848 6.35562 14.6818C6.41115 14.5789 6.48687 14.4882 6.57826 14.4152C6.66965 14.3422 6.77483 14.2883 6.8875 14.2569C8.47973 13.7474 10.1602 13.5731 11.8231 13.745C13.4825 13.9104 15.0899 14.4168 16.5444 15.2325C16.9637 15.4663 17.1131 15.9963 16.8781 16.4156ZM18.0763 13.3781C17.9696 13.5826 17.7861 13.7364 17.5661 13.8056C17.3462 13.8749 17.1077 13.854 16.9031 13.7475C15.3682 12.9478 13.6947 12.4487 11.9725 12.2769C10.2394 12.0968 8.48779 12.2528 6.81375 12.7362C6.5944 12.793 6.36157 12.7619 6.16478 12.6496C5.968 12.5373 5.82278 12.3527 5.76001 12.135C5.69724 11.9173 5.72187 11.6837 5.82867 11.4839C5.93546 11.284 6.116 11.1338 6.33188 11.065C8.21964 10.5207 10.1945 10.3446 12.1488 10.5462C14.0902 10.7404 15.9767 11.3037 17.7069 12.2056C18.1325 12.4275 18.2981 12.9525 18.0763 13.3781ZM18.5087 10.8512C18.3787 10.8512 18.2463 10.8219 18.1213 10.76C16.2979 9.85128 14.3246 9.2816 12.2975 9.07875C10.2671 8.86845 8.21528 9.0307 6.24312 9.5575C6.02265 9.60985 5.79046 9.57411 5.59593 9.45788C5.40141 9.34166 5.2599 9.15413 5.20152 8.93518C5.14314 8.71623 5.17249 8.48314 5.28332 8.28549C5.39416 8.08785 5.57773 7.94125 5.795 7.87687C7.97069 7.29662 10.2339 7.11766 12.4737 7.34875C14.7097 7.57216 16.8864 8.20052 18.8975 9.20312C19.0733 9.29037 19.2144 9.43454 19.2979 9.61217C19.3813 9.7898 19.4022 9.99044 19.3572 10.1815C19.3121 10.3725 19.2038 10.5426 19.0497 10.6642C18.8957 10.7859 18.705 10.8518 18.5087 10.8512Z" fill="currentColor"/>
</svg>
