<svg viewBox="0 0 24 24" fill="none" xmlns="http://www.w3.org/2000/svg">
<path d="M2.41111 14.9171L6.18858 16.4867C6.37854 17.3416 6.96091 18.0914 7.8201 18.4521C9.22584 19.0436 10.8467 18.3695 11.4314 16.9533C11.5836 16.5831 11.6546 16.1948 11.6443 15.8074L15.1315 13.2978C15.1597 13.2987 15.1888 13.2996 15.217 13.2996C17.3038 13.2996 19 11.5863 19 9.48242C19 7.37834 17.3038 5.66667 15.217 5.66667C13.131 5.66667 11.434 7.37834 11.434 9.48242C11.434 9.4993 11.434 9.51617 11.4349 9.53201L8.99766 13.0972C8.60286 13.0792 8.20669 13.1489 7.83105 13.3047C7.66545 13.3727 7.51028 13.4562 7.36469 13.5527L2.013 11.3341C2.013 11.3341 2.01257 11.3414 2.01185 11.3555C2.00791 11.3489 2.00396 11.3423 2 11.3356C2.34286 6.12266 6.68391 2 11.9893 2C17.5179 2 22 6.47717 22 12C22 17.5227 17.5179 22 11.9893 22C7.47622 22 3.6607 19.0172 2.41111 14.9171Z" fill="currentColor"/>
<path d="M10.8492 16.7071C10.3966 17.8013 9.14794 18.3204 8.06254 17.865C7.56181 17.6549 7.18377 17.2701 6.96568 16.8112L8.19719 17.3252C8.99764 17.661 9.91599 17.2787 10.2487 16.4729C10.5825 15.6662 10.2038 14.7399 9.40381 14.4041L8.13076 13.8729C8.62199 13.6852 9.18042 13.6784 9.70218 13.897C10.2282 14.1174 10.6363 14.5324 10.8526 15.0627C11.0689 15.593 11.0681 16.1785 10.8492 16.7071Z" fill="currentColor"/>
<path fill-rule="evenodd" clip-rule="evenodd" d="M12.6968 9.48242C12.6968 10.8847 13.8278 12.0254 15.217 12.0254C16.6071 12.0254 17.7382 10.8847 17.7382 9.48242C17.7382 8.08128 16.6071 6.94022 15.217 6.94022C13.8278 6.94022 12.6968 8.08128 12.6968 9.48242ZM15.2213 11.3883C14.1766 11.3883 13.3285 10.5335 13.3285 9.47855C13.3285 8.42367 14.1766 7.56809 15.2213 7.56809C16.2669 7.56809 17.1149 8.42367 17.1149 9.47855C17.1149 10.5335 16.2669 11.3883 15.2213 11.3883Z" fill="currentColor"/>
</svg>
