<svg viewBox="0 0 24 24" fill="none" xmlns="http://www.w3.org/2000/svg">
<path fill-rule="evenodd" clip-rule="evenodd" d="M2.87868 2.87868C3.44129 2.31607 4.20435 2 5 2H15.5C15.7652 2 16.0196 2.10536 16.2071 2.29289L21.7071 7.79289C21.8946 7.98043 22 8.23478 22 8.5V19C22 19.7957 21.6839 20.5587 21.1213 21.1213C20.5587 21.6839 19.7957 22 19 22H5C3.34772 22 2 20.6523 2 19V5C2 4.20435 2.31607 3.44129 2.87868 2.87868ZM19.0858 8L16 4.91421V8H19.0858ZM14 4V9C14 9.55228 14.4477 10 15 10H20V19C20 19.2652 19.8946 19.5196 19.7071 19.7071C19.5196 19.8946 19.2652 20 19 20H5C4.45228 20 4 19.5477 4 19V5C4 4.73478 4.10536 4.48043 4.29289 4.29289C4.48043 4.10536 4.73478 4 5 4H14Z" fill="currentColor"/>
</svg>
