<svg viewBox="0 0 24 24" fill="none" xmlns="http://www.w3.org/2000/svg">
<path fill-rule="evenodd" clip-rule="evenodd" d="M2.87868 2.87868C3.44129 2.31607 4.20435 2 5 2H15.5C15.7652 2 16.0196 2.10536 16.2071 2.29289L21.7071 7.79289C21.8946 7.98043 22 8.23478 22 8.5V19C22 19.7957 21.6839 20.5587 21.1213 21.1213C20.5587 21.6839 19.7957 22 19 22H5C3.34772 22 2 20.6523 2 19V5C2 4.20435 2.31607 3.44129 2.87868 2.87868ZM19.0858 8L16 4.91421V8H19.0858ZM14 4V9C14 9.55228 14.4477 10 15 10H20V19C20 19.2652 19.8946 19.5196 19.7071 19.7071C19.5196 19.8946 19.2652 20 19 20H5C4.45228 20 4 19.5477 4 19V5C4 4.73478 4.10536 4.48043 4.29289 4.29289C4.48043 4.10536 4.73478 4 5 4H14ZM14.5735 13.1808C15.0259 13.4975 15.1359 14.121 14.8192 14.5735L14 14C14.8192 14.5735 14.8195 14.5731 14.8192 14.5735L14.8182 14.5749L14.8171 14.5764L14.8147 14.5798L14.8091 14.5877L14.7944 14.6078C14.783 14.6231 14.7686 14.6421 14.751 14.6642C14.7159 14.7085 14.668 14.7659 14.6075 14.832C14.4871 14.9633 14.3121 15.1336 14.0827 15.3036C13.6235 15.6438 12.9196 16 12 16C11.1189 16 10.4176 15.6343 9.96876 15.3137C9.74003 15.1504 9.56075 14.9875 9.43664 14.8634C9.37415 14.8009 9.3244 14.747 9.28813 14.706C9.26996 14.6855 9.25508 14.6681 9.24357 14.6544L9.22882 14.6367L9.22334 14.6299L9.22108 14.6271L9.22006 14.6259C9.21983 14.6256 9.21913 14.6247 10 14L9.21913 14.6247C8.87412 14.1934 8.94404 13.5641 9.37531 13.2191C9.80425 12.876 10.4291 12.9433 10.7753 13.3684L10.7853 13.3799C10.7975 13.3937 10.8196 13.4179 10.8509 13.4491C10.9143 13.5125 11.01 13.5996 11.1312 13.6863C11.3824 13.8657 11.6811 14 12 14C12.3804 14 12.6765 13.8562 12.8923 13.6964C13.0004 13.6164 13.0817 13.5367 13.1332 13.4805C13.1585 13.4528 13.1755 13.4321 13.1838 13.4217C13.1859 13.419 13.1874 13.4171 13.1883 13.4159C13.5073 12.9724 14.1246 12.8665 14.5735 13.1808Z" fill="currentColor"/>
</svg>
