<svg viewBox="0 0 24 24" fill="none" xmlns="http://www.w3.org/2000/svg">
<path d="M5.63694 4.22247C6.02752 4.61294 6.02762 5.2461 5.63715 5.63669C3.94991 7.32444 3.00208 9.61321 3.00208 11.9997C3.00208 14.3862 3.94991 16.6749 5.63715 18.3627C6.02762 18.7533 6.02752 19.3864 5.63694 19.7769C5.24636 20.1674 4.61319 20.1673 4.22273 19.7767C2.16054 17.7139 1.00208 14.9165 1.00208 11.9997C1.00208 9.08288 2.16054 6.28549 4.22273 4.22269C4.61319 3.8321 5.24636 3.83201 5.63694 4.22247Z" fill="currentColor"/>
<path fill-rule="evenodd" clip-rule="evenodd" d="M9 12C9 10.3431 10.3431 9 12 9C13.6569 9 15 10.3431 15 12C15 13.6569 13.6569 15 12 15C10.3431 15 9 13.6569 9 12ZM12 11C11.4477 11 11 11.4477 11 12C11 12.5523 11.4477 13 12 13C12.5523 13 13 12.5523 13 12C13 11.4477 12.5523 11 12 11Z" fill="currentColor"/>
<path d="M8.46775 8.45652C8.85795 8.06567 8.85742 7.4325 8.46657 7.04231C8.07572 6.65211 7.44256 6.65263 7.05236 7.04348C6.40242 7.6945 5.88718 8.46723 5.5361 9.3175C4.82641 11.0318 4.82635 12.9577 5.53589 14.672C5.88699 15.5225 6.4023 16.2954 7.05236 16.9465C7.44256 17.3374 8.07572 17.3379 8.46657 16.9477C8.85742 16.5575 8.85795 15.9243 8.46775 15.5335C8.00333 15.0683 7.6352 14.5161 7.38441 13.9085L7.38401 13.9075C6.87704 12.6829 6.87704 11.3071 7.38401 10.0825L7.38441 10.0815C7.6352 9.47391 8.00333 8.92171 8.46775 8.45652Z" fill="currentColor"/>
<path d="M15.5392 7.04639C15.9332 6.65936 16.5663 6.665 16.9534 7.05899C17.6081 7.72549 18.1228 8.51629 18.467 9.38477C19.1737 11.0973 19.1727 13.0203 18.4639 14.7323C18.1129 15.5825 17.5976 16.3553 16.9477 17.0063C16.5575 17.3971 15.9243 17.3977 15.5335 17.0075C15.1426 16.6173 15.1421 15.9841 15.5323 15.5932C15.9967 15.1281 16.3648 14.5759 16.6156 13.9682L16.616 13.9673C17.123 12.7427 17.123 11.3669 16.616 10.1423L16.6099 10.1272C16.364 9.50475 15.9956 8.938 15.5266 8.46055C15.1396 8.06656 15.1452 7.43342 15.5392 7.04639Z" fill="currentColor"/>
<path d="M19.7772 4.22269C19.3867 3.8321 18.7535 3.83201 18.3629 4.22247C17.9724 4.61294 17.9723 5.2461 18.3627 5.63669C20.05 7.32444 20.9978 9.61321 20.9978 11.9997C20.9978 14.3862 20.05 16.6749 18.3627 18.3627C17.9723 18.7533 17.9724 19.3864 18.3629 19.7769C18.7535 20.1674 19.3867 20.1673 19.7772 19.7767C21.8393 17.7139 22.9978 14.9165 22.9978 11.9997C22.9978 9.08288 21.8393 6.28549 19.7772 4.22269Z" fill="currentColor"/>
</svg>
