<svg viewBox="0 0 24 24" fill="none" xmlns="http://www.w3.org/2000/svg">
<path fill-rule="evenodd" clip-rule="evenodd" d="M10.9956 4C10.9956 3.44772 11.443 3 11.995 3H12.005C12.557 3 13.0044 3.44772 13.0044 4C13.0044 4.55228 12.557 5 12.005 5H11.995C11.443 5 10.9956 4.55228 10.9956 4ZM5.3417 6.343C5.3417 5.79072 5.78917 5.343 6.34114 5.343H6.35114C6.90312 5.343 7.35058 5.79072 7.35058 6.343C7.35058 6.89528 6.90312 7.343 6.35114 7.343H6.34114C5.78917 7.343 5.3417 6.89528 5.3417 6.343ZM16.6494 6.343C16.6494 5.79072 17.0969 5.343 17.6489 5.343H17.6589C18.2108 5.343 18.6583 5.79072 18.6583 6.343C18.6583 6.89528 18.2108 7.343 17.6589 7.343H17.6489C17.0969 7.343 16.6494 6.89528 16.6494 6.343ZM8.46143 8.46447C9.39859 7.52678 10.6697 7 11.995 7C13.3203 7 14.5914 7.52678 15.5286 8.46447C16.4657 9.40215 16.9922 10.6739 16.9922 12C16.9922 13.3261 16.4657 14.5979 15.5286 15.5355C14.5914 16.4732 13.3203 17 11.995 17C10.6697 17 9.39859 16.4732 8.46143 15.5355C7.52427 14.5979 6.99778 13.3261 6.99778 12C6.99778 10.6739 7.52427 9.40215 8.46143 8.46447ZM11.995 9C11.1998 9 10.4372 9.31607 9.87486 9.87868C9.31256 10.4413 8.99667 11.2044 8.99667 12C8.99667 12.7956 9.31256 13.5587 9.87486 14.1213C10.4372 14.6839 11.1998 15 11.995 15C12.7902 15 13.5528 14.6839 14.1151 14.1213C14.6774 13.5587 14.9933 12.7956 14.9933 12C14.9933 11.2044 14.6774 10.4413 14.1151 9.87868C13.5528 9.31607 12.7902 9 11.995 9ZM3 12C3 11.4477 3.44747 11 3.99944 11H4.00944C4.56142 11 5.00888 11.4477 5.00888 12C5.00888 12.5523 4.56142 13 4.00944 13H3.99944C3.44747 13 3 12.5523 3 12ZM18.9911 12C18.9911 11.4477 19.4386 11 19.9906 11H20.0006C20.5525 11 21 11.4477 21 12C21 12.5523 20.5525 13 20.0006 13H19.9906C19.4386 13 18.9911 12.5523 18.9911 12ZM5.3417 17.657C5.3417 17.1047 5.78917 16.657 6.34114 16.657H6.35114C6.90312 16.657 7.35058 17.1047 7.35058 17.657C7.35058 18.2093 6.90312 18.657 6.35114 18.657H6.34114C5.78917 18.657 5.3417 18.2093 5.3417 17.657ZM16.6494 17.657C16.6494 17.1047 17.0969 16.657 17.6489 16.657H17.6589C18.2108 16.657 18.6583 17.1047 18.6583 17.657C18.6583 18.2093 18.2108 18.657 17.6589 18.657H17.6489C17.0969 18.657 16.6494 18.2093 16.6494 17.657ZM10.9956 20C10.9956 19.4477 11.443 19 11.995 19H12.005C12.557 19 13.0044 19.4477 13.0044 20C13.0044 20.5523 12.557 21 12.005 21H11.995C11.443 21 10.9956 20.5523 10.9956 20Z" fill="currentColor"/>
</svg>
