<svg viewBox="0 0 24 24" fill="none" xmlns="http://www.w3.org/2000/svg">
<path fill-rule="evenodd" clip-rule="evenodd" d="M12 1C12.5523 1 13 1.44772 13 2V4C13 4.55228 12.5523 5 12 5C11.4477 5 11 4.55228 11 4V2C11 1.44772 11.4477 1 12 1ZM4.22289 4.22289C4.61342 3.83237 5.24658 3.83237 5.63711 4.22289L7.04711 5.63289C7.43763 6.02342 7.43763 6.65658 7.04711 7.04711C6.65658 7.43763 6.02342 7.43763 5.63289 7.04711L4.22289 5.63711C3.83237 5.24658 3.83237 4.61342 4.22289 4.22289ZM19.7771 4.22289C20.1676 4.61342 20.1676 5.24658 19.7771 5.63711L18.3671 7.04711C17.9766 7.43763 17.3434 7.43763 16.9529 7.04711C16.5624 6.65658 16.5624 6.02342 16.9529 5.63289L18.3629 4.22289C18.7534 3.83237 19.3866 3.83237 19.7771 4.22289ZM8.46447 8.46447C9.40215 7.52678 10.6739 7 12 7C13.3261 7 14.5979 7.52678 15.5355 8.46447C16.4732 9.40215 17 10.6739 17 12C17 13.3261 16.4732 14.5979 15.5355 15.5355C14.5979 16.4732 13.3261 17 12 17C10.6739 17 9.40215 16.4732 8.46447 15.5355C7.52678 14.5979 7 13.3261 7 12C7 10.6739 7.52678 9.40215 8.46447 8.46447ZM10.1919 9.60609C10.0819 9.68914 9.97723 9.78013 9.87868 9.87868C9.31607 10.4413 9 11.2044 9 12C9 12.7956 9.31607 13.5587 9.87868 14.1213C10.4413 14.6839 11.2044 15 12 15C12.7956 15 13.5587 14.6839 14.1213 14.1213C14.2199 14.0228 14.3109 13.9181 14.3939 13.8081C14.2636 13.8216 14.1322 13.8284 14 13.8284C12.9846 13.8284 12.0109 13.4251 11.2929 12.7071C10.5749 11.9891 10.1716 11.0154 10.1716 10C10.1716 9.86784 10.1784 9.73637 10.1919 9.60609ZM12.4478 9.0336C12.2687 9.32129 12.1716 9.65564 12.1716 10C12.1716 10.4849 12.3642 10.95 12.7071 11.2929C13.05 11.6358 13.5151 11.8284 14 11.8284C14.3444 11.8284 14.6787 11.7313 14.9664 11.5522C14.8713 10.9223 14.5773 10.3346 14.1213 9.87868C13.6654 9.42272 13.0777 9.12869 12.4478 9.0336ZM1 12C1 11.4477 1.44772 11 2 11H4C4.55228 11 5 11.4477 5 12C5 12.5523 4.55228 13 4 13H2C1.44772 13 1 12.5523 1 12ZM19 12C19 11.4477 19.4477 11 20 11H22C22.5523 11 23 11.4477 23 12C23 12.5523 22.5523 13 22 13H20C19.4477 13 19 12.5523 19 12ZM7.04711 16.9529C7.43763 17.3434 7.43763 17.9766 7.04711 18.3671L5.63711 19.7771C5.24658 20.1676 4.61342 20.1676 4.22289 19.7771C3.83237 19.3866 3.83237 18.7534 4.22289 18.3629L5.63289 16.9529C6.02342 16.5624 6.65658 16.5624 7.04711 16.9529ZM16.9529 16.9529C17.3434 16.5624 17.9766 16.5624 18.3671 16.9529L19.7771 18.3629C20.1676 18.7534 20.1676 19.3866 19.7771 19.7771C19.3866 20.1676 18.7534 20.1676 18.3629 19.7771L16.9529 18.3671C16.5624 17.9766 16.5624 17.3434 16.9529 16.9529ZM12 19C12.5523 19 13 19.4477 13 20V22C13 22.5523 12.5523 23 12 23C11.4477 23 11 22.5523 11 22V20C11 19.4477 11.4477 19 12 19Z" fill="currentColor"/>
</svg>
