<svg viewBox="0 0 24 24" fill="none" xmlns="http://www.w3.org/2000/svg">
<path fill-rule="evenodd" clip-rule="evenodd" d="M6 3C5.44772 3 5 3.44772 5 4V20C5 20.5523 5.44771 21 6 21H18C18.5523 21 19 20.5523 19 20V4C19 3.44772 18.5523 3 18 3H6ZM3 4C3 2.34315 4.34315 1 6 1H18C19.6569 1 21 2.34315 21 4V20C21 21.6569 19.6569 23 18 23H6C4.34315 23 3 21.6569 3 20V4ZM10 18C10 17.4477 10.4477 17 11 17H13.01C13.5623 17 14.01 17.4477 14.01 18C14.01 18.5523 13.5623 19 13.01 19H11C10.4477 19 10 18.5523 10 18Z" fill="currentColor"/>
</svg>
