<svg viewBox="0 0 24 24" fill="none" xmlns="http://www.w3.org/2000/svg">
<path fill-rule="evenodd" clip-rule="evenodd" d="M2 3C2 2.44772 2.44772 2 3 2H13C13.2652 2 13.5196 2.10536 13.7071 2.29289L21.9971 10.5829C23.3276 11.9134 23.3276 14.0866 21.9971 15.4171L15.4171 21.9971C14.0866 23.3276 11.9134 23.3276 10.5829 21.9971L2.29289 13.7071C2.10536 13.5196 2 13.2652 2 13V3ZM4 4V12.5858L11.9971 20.5829C12.5466 21.1324 13.4534 21.1324 14.0029 20.5829L20.5829 14.0029C21.1324 13.4534 21.1324 12.5466 20.5829 11.9971L12.5858 4H4ZM6 7C6 6.44772 6.44772 6 7 6H7.01C7.56228 6 8.01 6.44772 8.01 7C8.01 7.55228 7.56228 8 7.01 8H7C6.44772 8 6 7.55228 6 7Z" fill="currentColor"/>
</svg>
