<svg viewBox="0 0 24 24" fill="none" xmlns="http://www.w3.org/2000/svg">
<path fill-rule="evenodd" clip-rule="evenodd" d="M1 5C1 4.44772 1.44772 4 2 4H9C9.26522 4 9.51957 4.10536 9.70711 4.29289L15.9971 10.5829C17.3276 11.9134 17.3276 14.0866 15.9971 15.4171L12.4171 18.9971C11.0866 20.3276 8.91342 20.3276 7.58289 18.9971L1.29289 12.7071C1.10536 12.5196 1 12.2652 1 12V5ZM3 6V11.5858L8.99711 17.5829C9.54658 18.1324 10.4534 18.1324 11.0029 17.5829L14.5829 14.0029C15.1324 13.4534 15.1324 12.5466 14.5829 11.9971L8.58579 6H3ZM14.2929 4.29289C14.6834 3.90237 15.3166 3.90237 15.7071 4.29289L22.0059 10.5917C22.0062 10.592 22.0066 10.5924 22.007 10.5928C22.007 10.5928 22.0071 10.5929 22.0071 10.5929C22.3235 10.9085 22.5746 11.2834 22.746 11.6962C22.9176 12.1094 23.0059 12.5525 23.0059 13C23.0059 13.4475 22.9176 13.8906 22.746 14.3038C22.5746 14.7166 22.3235 15.0915 22.0071 15.4071M22.0059 15.4083L17.7071 19.7071C17.3166 20.0976 16.6834 20.0976 16.2929 19.7071C15.9024 19.3166 15.9024 18.6834 16.2929 18.2929L20.5929 13.9929L20.5941 13.9917C20.7246 13.8616 20.8282 13.7071 20.8989 13.5369C20.9695 13.3667 21.0059 13.1843 21.0059 13C21.0059 12.8157 20.9695 12.6333 20.8989 12.4631C20.8282 12.2929 20.7246 12.1384 20.5941 12.0083L20.5929 12.0071L14.2929 5.70711C13.9024 5.31658 13.9024 4.68342 14.2929 4.29289M6 8C6.55228 8 7 8.44772 7 9V9.01C7 9.56228 6.55228 10.01 6 10.01C5.44772 10.01 5 9.56228 5 9.01V9C5 8.44772 5.44772 8 6 8Z" fill="currentColor"/>
</svg>
