<svg viewBox="0 0 24 24" fill="none" xmlns="http://www.w3.org/2000/svg">
<path fill-rule="evenodd" clip-rule="evenodd" d="M14.1148 5.85199C12.3236 6.59704 8.74359 8.13909 3.3749 10.4781C2.5031 10.8248 2.04642 11.164 2.00485 11.4956C1.93458 12.0561 2.63643 12.2768 3.59217 12.5773C3.72218 12.6182 3.85688 12.6605 3.99498 12.7054C4.93528 13.0111 6.20015 13.3687 6.8577 13.3829C7.45416 13.3957 8.11988 13.1498 8.85486 12.6451C13.871 9.25911 16.4604 7.54764 16.6229 7.51074C16.7376 7.48471 16.8965 7.45198 17.0042 7.5477C17.1119 7.64341 17.1013 7.82466 17.0899 7.87329C17.0204 8.1697 14.2654 10.731 12.8396 12.0565C12.3952 12.4697 12.0799 12.7628 12.0154 12.8298C11.8711 12.9797 11.7239 13.1216 11.5825 13.2579C10.709 14.1 10.0539 14.7315 11.6188 15.7628C12.3708 16.2584 12.9726 16.6682 13.573 17.077C14.2286 17.5235 14.8826 17.9689 15.7287 18.5235C15.9442 18.6648 16.1501 18.8116 16.3506 18.9545C17.1137 19.4985 17.7992 19.9872 18.6461 19.9093C19.1382 19.864 19.6465 19.4012 19.9046 18.0212C20.5147 14.7596 21.714 7.69289 21.9911 4.78085C22.0154 4.52572 21.9848 4.1992 21.9603 4.05587C21.9358 3.91253 21.8845 3.70831 21.6982 3.55713C21.4776 3.37809 21.1369 3.34034 20.9846 3.34289C20.2919 3.35522 19.2292 3.72475 14.1148 5.85199Z" fill="currentColor"/>
</svg>
