<svg viewBox="0 0 24 24" fill="none" xmlns="http://www.w3.org/2000/svg">
<path fill-rule="evenodd" clip-rule="evenodd" d="M18 3C17.7348 3 17.4804 3.10536 17.2929 3.29289C17.1054 3.48043 17 3.73478 17 4V14.54C17 14.8973 16.8094 15.2274 16.5 15.406C15.9281 15.7362 15.4811 16.2459 15.2284 16.8561C14.9756 17.4662 14.9313 18.1427 15.1022 18.7806C15.2731 19.4185 15.6498 19.9821 16.1737 20.3842C16.6976 20.7862 17.3396 21.0041 18 21.0041C18.6604 21.0041 19.3024 20.7862 19.8263 20.3842C20.3502 19.9821 20.7269 19.4185 20.8978 18.7806C21.0687 18.1427 21.0244 17.4662 20.7716 16.8561C20.5189 16.2459 20.0719 15.7362 19.5 15.406C19.1906 15.2274 19 14.8973 19 14.54V4C19 3.73478 18.8946 3.48043 18.7071 3.29289C18.5196 3.10536 18.2652 3 18 3ZM15.8787 1.87868C16.4413 1.31607 17.2043 1 18 1C18.7957 1 19.5587 1.31607 20.1213 1.87868C20.6839 2.44129 21 3.20435 21 4V14.0041C21.7141 14.5397 22.275 15.2592 22.6194 16.0907C23.0406 17.1076 23.1145 18.235 22.8296 19.2982C22.5448 20.3614 21.917 21.3008 21.0438 21.9709C20.1706 22.6409 19.1007 23.0041 18 23.0041C16.8993 23.0041 15.8294 22.6409 14.9562 21.9709C14.083 21.3008 13.4552 20.3614 13.1704 19.2982C12.8855 18.235 12.9594 17.1076 13.3806 16.0907C13.725 15.2592 14.2859 14.5397 15 14.0041V4C15 3.20435 15.3161 2.44129 15.8787 1.87868ZM12 2C12.5523 2 13 2.44772 13 3V5C13 5.55228 12.5523 6 12 6C11.4477 6 11 5.55228 11 5V3C11 2.44772 11.4477 2 12 2ZM4.22289 5.22289C4.61342 4.83237 5.24658 4.83237 5.63711 5.22289L7.04711 6.63289C7.43763 7.02342 7.43763 7.65658 7.04711 8.04711C6.65658 8.43763 6.02342 8.43763 5.63289 8.04711L4.22289 6.63711C3.83237 6.24658 3.83237 5.61342 4.22289 5.22289ZM8.92141 9.01012C9.81143 8.33767 10.9008 7.98216 12.0161 8.00013C12.5683 8.00903 13.0088 8.4639 12.9999 9.01611C12.991 9.56833 12.5361 10.0088 11.9839 9.99987C11.3147 9.98909 10.6611 10.2024 10.1271 10.6059C9.59306 11.0093 9.2093 11.5798 9.03685 12.2265C8.8644 12.8732 8.91315 13.559 9.17536 14.1748C9.43757 14.7906 9.89817 15.301 10.4839 15.6249C10.9672 15.8921 11.1424 16.5006 10.8751 16.9839C10.6079 17.4672 9.99943 17.6424 9.51611 17.3751C8.53991 16.8354 7.77224 15.9846 7.33523 14.9583C6.89822 13.932 6.81696 12.789 7.10438 11.7112C7.3918 10.6333 8.03139 9.68258 8.92141 9.01012ZM1 13C1 12.4477 1.44772 12 2 12H4C4.55228 12 5 12.4477 5 13C5 13.5523 4.55228 14 4 14H2C1.44772 14 1 13.5523 1 13ZM7.30711 17.6929C7.69763 18.0834 7.69763 18.7166 7.30711 19.1071L5.90711 20.5071C5.51658 20.8976 4.88342 20.8976 4.49289 20.5071C4.10237 20.1166 4.10237 19.4834 4.49289 19.0929L5.89289 17.6929C6.28342 17.3024 6.91658 17.3024 7.30711 17.6929Z" fill="currentColor"/>
</svg>
