<svg viewBox="0 0 24 24" fill="none" xmlns="http://www.w3.org/2000/svg">
<path fill-rule="evenodd" clip-rule="evenodd" d="M6.50001 3C6.28364 3 6.0731 3.07018 5.90001 3.2C5.72701 3.32975 5.60074 3.51207 5.54012 3.71963L3.21012 11.7196C3.16665 11.8687 3.15837 12.0261 3.18614 12.1789C3.21391 12.3316 3.27686 12.4758 3.37001 12.6C3.46316 12.7242 3.58394 12.825 3.72279 12.8944C3.86165 12.9639 4.01476 13 4.17001 13H10C10.3067 13 10.5965 13.1408 10.7861 13.3819C10.9757 13.623 11.0441 13.9378 10.9718 14.2359L9.97179 18.3559L9.97086 18.3597C9.89393 18.6713 9.88841 18.9962 9.9547 19.3102C10.021 19.6242 10.1574 19.9192 10.3537 20.1731C10.55 20.427 10.8012 20.6333 11.0884 20.7765C11.1976 20.8309 11.311 20.8757 11.4272 20.9105L14.5545 14.665C14.5548 14.6644 14.555 14.6639 14.5553 14.6633C14.8037 14.1642 15.1863 13.7442 15.66 13.4504C15.7697 13.3824 15.8833 13.3218 16 13.2687V3H6.50001ZM6.50001 1C5.8509 1 5.2193 1.21053 4.70001 1.6C4.18072 1.98947 3.80176 2.53685 3.62001 3.16L1.29001 11.16C1.29004 11.1599 1.28997 11.1601 1.29001 11.16C1.1597 11.607 1.13511 12.0786 1.2184 12.5367C1.30171 12.9949 1.49057 13.4274 1.77001 13.8C2.04945 14.1726 2.4118 14.475 2.82837 14.6833C3.24493 14.8916 3.70427 15 4.17001 15H8.72826L8.02916 17.8803C8.02899 17.881 8.02882 17.8817 8.02865 17.8824C7.87998 18.4859 7.86944 19.1152 7.99784 19.7234C8.12638 20.3322 8.39086 20.9042 8.7715 21.3965C9.15214 21.8888 9.63911 22.2887 10.196 22.5663C10.7529 22.844 11.3654 22.9922 11.9876 22.9999C12.3706 23.0047 12.7227 22.7902 12.8942 22.4477L16.3442 15.5577L16.3455 15.555C16.4283 15.3884 16.556 15.2482 16.7141 15.1501C16.8722 15.0521 17.0545 15.0001 17.2405 15H20C20.7957 15 21.5587 14.6839 22.1213 14.1213C22.6839 13.5587 23 12.7957 23 12V4C23 3.20435 22.6839 2.44129 22.1213 1.87868C21.5587 1.31607 20.7957 1 20 1H6.50001ZM18 3V13H20C20.2652 13 20.5196 12.8946 20.7071 12.7071C20.8947 12.5196 21 12.2652 21 12V4C21 3.73478 20.8947 3.48043 20.7071 3.29289C20.5196 3.10536 20.2652 3 20 3H18Z" fill="currentColor"/>
</svg>
