<svg viewBox="0 0 24 24" fill="none" xmlns="http://www.w3.org/2000/svg">
<path fill-rule="evenodd" clip-rule="evenodd" d="M2.62521 7.03433C2.17381 7.48481 1.72223 7.93548 1.27339 8.38888C1.2443 8.41979 1.21232 8.44896 1.18021 8.47824C1.11175 8.54068 1.04273 8.60363 1 8.68505C1.61227 9.29448 2.22312 9.90533 2.83397 10.5162C3.44483 11.127 4.05569 11.7379 4.66797 12.3473C5.27945 11.7387 5.88952 11.1272 6.49959 10.5157C7.10556 9.90836 7.71153 9.30098 8.31885 8.69644V8.65088L5.80139 6.13342C5.668 5.99593 5.53167 5.86213 5.39557 5.72857C5.15395 5.49144 4.91307 5.25504 4.69075 5H4.64518C3.97883 5.68344 3.30222 6.35868 2.62521 7.03433ZM13.6513 6.54998C13.1819 6.07975 12.7128 5.6097 12.2409 5.14239C12.1953 5.09683 12.1613 5.05126 12.127 5H12.0814C11.5139 5.58632 10.9337 6.16374 10.3534 6.74127C9.70485 7.38678 9.05612 8.03242 8.42484 8.69075C9.11146 9.36154 9.78929 10.0411 10.4671 10.7207C11.0094 11.2644 11.5517 11.8081 12.0985 12.3473C12.691 11.7577 13.282 11.1667 13.8731 10.5756C14.4582 9.99054 15.0433 9.40544 15.6298 8.82175C15.6416 8.80996 15.6539 8.79848 15.6664 8.78695C15.6833 8.77131 15.7002 8.75558 15.7159 8.73891C15.7324 8.7571 15.7507 8.77407 15.7691 8.79118C15.7877 8.80835 15.8064 8.82566 15.8235 8.84453L19.3263 12.3473C19.9671 11.7271 20.5958 11.0947 21.2241 10.4627C21.8131 9.87028 22.402 9.27789 23 8.69644C22.9878 8.64329 22.9462 8.60481 22.9068 8.56837C22.8913 8.55404 22.8762 8.54004 22.8633 8.52558L20.1009 5.76321C20.0119 5.67001 19.9198 5.57982 19.8277 5.48963C19.6666 5.33181 19.5055 5.17397 19.3605 5H19.3149C18.9342 5.39905 18.544 5.78634 18.1535 6.17397C17.9365 6.38938 17.7194 6.6049 17.5037 6.82259C17.2577 7.06636 17.0135 7.31196 16.7692 7.55755C16.4207 7.90809 16.0721 8.25862 15.7182 8.60385C15.0228 7.92419 14.3368 7.23684 13.6513 6.54998ZM8.44193 16.0757C8.44763 16.0615 8.45332 16.0472 8.45902 16.0359C8.85943 15.6354 9.26046 15.235 9.66172 14.8344C10.4648 14.0326 11.2687 13.23 12.07 12.4248L12.1212 12.4476C13.3286 13.6608 14.5361 14.874 15.755 16.0757C15.729 16.1352 15.6836 16.1777 15.6378 16.2206C15.6134 16.2435 15.5888 16.2664 15.567 16.2922C15.1307 16.7257 14.6943 17.1621 14.2579 17.5985C13.8171 18.0392 13.3764 18.48 12.9356 18.9178C12.8216 19.0273 12.7094 19.1422 12.5972 19.2572C12.4292 19.4293 12.2612 19.6014 12.0871 19.7551C11.8447 19.5359 11.614 19.3013 11.3835 19.067C11.2186 18.8994 11.0539 18.7319 10.8852 18.5704C10.6832 18.3683 10.4815 18.1662 10.2798 17.9643C9.66314 17.3464 9.04723 16.7294 8.42484 16.1156C8.43054 16.1042 8.43624 16.09 8.44193 16.0757Z" fill="currentColor"/>
</svg>
