<svg viewBox="0 0 24 24" fill="none" xmlns="http://www.w3.org/2000/svg">
<path fill-rule="evenodd" clip-rule="evenodd" d="M15.9051 2C15.9051 2.29719 15.9329 2.58988 15.984 2.87314C16.23 4.18257 17.0049 5.30628 18.0813 6.0074C18.833 6.49965 19.7238 6.78293 20.6842 6.78293L20.684 7.54908V10.2191C18.9023 10.2191 17.2506 9.64801 15.905 8.68211V15.6707C15.905 19.1581 13.0656 22 9.58121 22C8.23569 22 6.98291 21.5727 5.95752 20.8529C4.32441 19.706 3.25732 17.8114 3.25732 15.6707C3.25732 12.1787 6.09218 9.34155 9.57656 9.34613C9.86888 9.34613 10.1519 9.36937 10.4303 9.40656V10.2191L10.4201 10.224L10.4303 10.2238V12.9171C10.1612 12.8335 9.8735 12.7824 9.57656 12.7824C7.98515 12.7824 6.69067 14.078 6.69067 15.6707C6.69067 16.7806 7.32166 17.7418 8.24031 18.2294C8.25393 18.248 8.26774 18.2664 8.28174 18.2847C8.27117 18.2643 8.25896 18.2443 8.245 18.2247C8.64864 18.4383 9.10331 18.5591 9.58587 18.5591C11.1401 18.5591 12.4115 17.3193 12.4671 15.7776L12.4717 2H15.9051Z" fill="currentColor"/>
</svg>
