<svg viewBox="0 0 24 24" fill="none" xmlns="http://www.w3.org/2000/svg">
<path fill-rule="evenodd" clip-rule="evenodd" d="M8.99998 2C8.99998 1.44772 9.4477 1 9.99998 1H14C14.5523 1 15 1.44772 15 2C15 2.55228 14.5523 3 14 3H9.99998C9.4477 3 8.99998 2.55228 8.99998 2ZM11.9921 6.99997C10.2777 6.98653 8.618 7.60273 7.32774 8.73172C6.03747 9.8607 5.2064 11.4239 4.99215 13.125C4.92313 13.6729 4.42297 14.0612 3.87502 13.9922C3.32706 13.9231 2.93881 13.423 3.00782 12.875C3.2833 10.688 4.35181 8.67811 6.01073 7.22656C7.66879 5.77576 9.80138 4.98357 12.0044 5C13.4591 5.0021 14.8915 5.35675 16.1792 6.03361C17.4678 6.71099 18.5728 7.69085 19.3995 8.88915C20.2262 10.0874 20.7499 11.4684 20.9257 12.9136C21.1014 14.3587 20.9239 15.8249 20.4085 17.1864C19.8931 18.548 19.0551 19.7641 17.9664 20.7306C16.8777 21.6971 15.5707 22.385 14.1577 22.7354C12.7447 23.0858 11.2678 23.0882 9.85368 22.7424C8.43955 22.3966 7.1304 21.7129 6.03855 20.75L6.03562 20.7474L4.99998 19.8268V22C4.99998 22.5523 4.55227 23 3.99998 23C3.4477 23 2.99998 22.5523 2.99998 22V17.6043C2.99997 17.6012 2.99997 17.5981 2.99998 17.595V17C2.99998 16.4477 3.4477 16 3.99998 16H8.99998C9.55227 16 9.99998 16.4477 9.99998 17C9.99998 17.5523 9.55227 18 8.99998 18H5.95518L7.36142 19.25C7.36194 19.2505 7.36246 19.2509 7.36297 19.2514C8.21188 19.9996 9.22953 20.5309 10.3287 20.7997C11.4286 21.0686 12.5773 21.0667 13.6764 20.7942C14.7754 20.5217 15.7918 19.9866 16.6386 19.2349C17.4854 18.4832 18.1372 17.5373 18.5381 16.4783C18.939 15.4194 19.077 14.279 18.9403 13.155C18.8036 12.031 18.3963 10.9569 17.7533 10.0249C17.1103 9.09289 16.2508 8.33077 15.2486 7.80392C14.2463 7.27706 13.1312 7.0012 11.9989 7L11.9921 6.99999L11.9921 6.99997ZM12 9C12.5523 9 13 9.44772 13 10V14C13 14.5523 12.5523 15 12 15C11.4477 15 11 14.5523 11 14V10C11 9.44772 11.4477 9 12 9Z" fill="currentColor"/>
</svg>
