<svg viewBox="0 0 24 24" fill="none" xmlns="http://www.w3.org/2000/svg">
<path fill-rule="evenodd" clip-rule="evenodd" d="M10 1H14C14.5523 1 15 1.44772 15 2C15 2.55228 14.5523 3 14 3H10C9.44771 3 9 2.55228 9 2C9 1.44772 9.44771 1 10 1ZM4.98409 10.077C5.49401 10.2891 5.73542 10.8744 5.52329 11.3844C4.99321 12.6586 4.8516 14.061 5.11626 15.4155C5.38059 16.7682 6.03838 18.0128 7.00711 18.9931C7.98748 19.9619 9.23204 20.6197 10.5848 20.884C11.9392 21.1487 13.3417 21.007 14.6159 20.477C15.1258 20.2648 15.7112 20.5062 15.9233 21.0162C16.1354 21.5261 15.894 22.1114 15.3841 22.3236C13.7458 23.0051 11.9427 23.1872 10.2012 22.8469C8.4598 22.5066 6.8578 21.6591 5.59659 20.4111L5.58916 20.4037L5.5892 20.4037C4.34111 19.1425 3.49366 17.5405 3.15338 15.799C2.8131 14.0576 2.99517 12.2544 3.6767 10.6162C3.88883 10.1062 4.47417 9.86484 4.98409 10.077ZM6.69912 8.11333L6.68809 8.1023L1.29289 2.70711C0.902369 2.31658 0.902369 1.68342 1.29289 1.29289C1.68342 0.902369 2.31658 0.902369 2.70711 1.29289L7.54462 6.1304C9.1447 5.2294 10.989 4.83604 12.8301 5.01479C14.9502 5.22063 16.9286 6.17177 18.4133 7.69895C19.8947 9.19096 20.807 11.1546 20.9918 13.249C21.152 15.0643 20.7569 16.8785 19.8693 18.4551L22.7071 21.2929C23.0976 21.6834 23.0976 22.3166 22.7071 22.7071C22.3166 23.0976 21.6834 23.0976 21.2929 22.7071L17.8975 19.3117L17.8865 19.3007L6.69912 8.11333ZM18.9995 13.4248C19.1074 14.6469 18.8917 15.8683 18.384 16.9698L13 11.5858V10C13 9.44771 12.5523 9 12 9C11.5712 9 11.2054 9.2699 11.0633 9.64909L9.02984 7.61562C10.1503 7.09913 11.3945 6.88482 12.6368 7.00543C14.2873 7.16568 15.8274 7.90667 16.9825 9.0964L16.9825 9.09645L16.9908 9.10483C18.1449 10.2657 18.8557 11.7943 18.9995 13.4248Z" fill="currentColor"/>
</svg>
