<svg viewBox="0 0 24 24" fill="none" xmlns="http://www.w3.org/2000/svg">
<path fill-rule="evenodd" clip-rule="evenodd" d="M5 4C4.73478 4 4.48043 4.10536 4.29289 4.29289C4.10536 4.48043 4 4.73478 4 5V19C4 19.2652 4.10536 19.5196 4.29289 19.7071C4.48043 19.8946 4.73478 20 5 20H9C9.55228 20 10 20.4477 10 21C10 21.5523 9.55228 22 9 22H5C4.20435 22 3.44129 21.6839 2.87868 21.1213C2.31607 20.5587 2 19.7957 2 19V5C2 4.20435 2.31607 3.44129 2.87868 2.87868C3.44129 2.31607 4.20435 2 5 2H9C9.55228 2 10 2.44772 10 3C10 3.55228 9.55228 4 9 4H5ZM14 3C14 2.44772 14.4477 2 15 2H19C19.7957 2 20.5587 2.31607 21.1213 2.87868C21.6839 3.44129 22 4.20435 22 5V19C22 19.7957 21.6839 20.5587 21.1213 21.1213C20.5587 21.6839 19.7957 22 19 22H15C14.4477 22 14 21.5523 14 21C14 20.4477 14.4477 20 15 20H19C19.2652 20 19.5196 19.8946 19.7071 19.7071C19.8946 19.5196 20 19.2652 20 19V5C20 4.73478 19.8946 4.48043 19.7071 4.29289C19.5196 4.10536 19.2652 4 19 4H15C14.4477 4 14 3.55228 14 3ZM11.2929 6.29289C11.6834 5.90237 12.3166 5.90237 12.7071 6.29289L17.7071 11.2929C18.0976 11.6834 18.0976 12.3166 17.7071 12.7071L12.7071 17.7071C12.3166 18.0976 11.6834 18.0976 11.2929 17.7071C10.9024 17.3166 10.9024 16.6834 11.2929 16.2929L14.5858 13H7C6.44772 13 6 12.5523 6 12C6 11.4477 6.44772 11 7 11H14.5858L11.2929 7.70711C10.9024 7.31658 10.9024 6.68342 11.2929 6.29289Z" fill="currentColor"/>
</svg>
