<svg viewBox="0 0 24 24" fill="none" xmlns="http://www.w3.org/2000/svg">
<path fill-rule="evenodd" clip-rule="evenodd" d="M19.6242 2H4.37576C3.74567 2 3.14139 2.25018 2.69584 2.69551C2.2503 3.14084 2 3.74483 2 4.37462V19.6254C2 20.2552 2.2503 20.8592 2.69584 21.3045C3.14139 21.7498 3.74567 22 4.37576 22H19.6242C20.2543 22 20.8586 21.7498 21.3041 21.3045C21.7497 20.8592 22 20.2552 22 19.6254V4.38103C22.0008 4.06865 21.94 3.75917 21.821 3.47033C21.702 3.18149 21.5271 2.91896 21.3064 2.69777C21.0857 2.47659 20.8235 2.3011 20.5349 2.18137C20.2462 2.06163 19.9368 2 19.6242 2ZM10.6149 16.4208C10.6149 16.6301 10.5319 16.831 10.3841 16.9793C10.2363 17.1277 10.0357 17.2115 9.82622 17.2123H6.4822C6.27243 17.2115 6.0715 17.1278 5.92316 16.9795C5.77483 16.8313 5.69113 16.6304 5.69028 16.4208V6.48646C5.69113 6.27679 5.77483 6.07595 5.92316 5.92769C6.0715 5.77943 6.27243 5.69576 6.4822 5.69492H9.82622C10.0357 5.69577 10.2363 5.77954 10.3841 5.92789C10.5319 6.07624 10.6149 6.27708 10.6149 6.48646V16.4208ZM18.3097 11.867C18.3089 12.0767 18.2252 12.2775 18.0768 12.4258C17.9285 12.574 17.7276 12.6577 17.5178 12.6585H14.1738C13.9643 12.6577 13.7637 12.5739 13.6159 12.4256C13.468 12.2772 13.3851 12.0764 13.3851 11.867V6.48646C13.3851 6.27708 13.468 6.07624 13.6159 5.92789C13.7637 5.77954 13.9643 5.69577 14.1738 5.69492H17.5178C17.7276 5.69576 17.9285 5.77943 18.0768 5.92769C18.2252 6.07595 18.3089 6.27679 18.3097 6.48646V11.867Z" fill="currentColor"/>
</svg>
