<svg viewBox="0 0 24 24" fill="none" xmlns="http://www.w3.org/2000/svg">
<path fill-rule="evenodd" clip-rule="evenodd" d="M10.4796 2.39428C10.9381 2.1271 11.4593 1.98633 11.99 1.98633C12.5207 1.98633 13.0419 2.1271 13.5004 2.39428C13.9583 2.66112 14.3374 3.04451 14.599 3.50542L14.6 3.50717L22.596 17.5002L22.597 17.5019C22.8595 17.9573 22.9978 18.4738 22.9979 18.9995C22.9981 19.5258 22.8597 20.0429 22.5968 20.4989C22.3338 20.9549 21.9556 21.3336 21.4999 21.5971C21.0443 21.8607 20.5274 21.9997 20.001 22.0002H4.00409C3.47689 22.0041 2.95793 21.869 2.49953 21.6084C2.03971 21.3471 1.65716 20.9688 1.39066 20.5119C1.12415 20.0551 0.983173 19.5359 0.982002 19.0069C0.980833 18.4789 1.11908 17.9598 1.38275 17.5023L1.38399 17.5002L9.37999 3.50717L9.38098 3.50542C9.6426 3.04451 10.0217 2.66112 10.4796 2.39428ZM11.99 3.98633C11.8131 3.98633 11.6394 4.03325 11.4865 4.12231C11.3337 4.21137 11.2072 4.33938 11.12 4.49328L11.1182 4.49636L3.116 18.5003C3.02784 18.653 2.98161 18.8262 2.982 19.0025C2.98239 19.1788 3.02938 19.3519 3.11822 19.5042C3.20705 19.6565 3.33456 19.7826 3.48784 19.8697C3.64111 19.9568 3.8147 20.0019 3.99099 20.0003L3.99999 20.0002L19.999 20.0002C20.1744 20 20.3467 19.9537 20.4986 19.8659C20.6505 19.778 20.7766 19.6518 20.8642 19.4998C20.9519 19.3478 20.998 19.1754 20.9979 19C20.9979 18.8245 20.9517 18.6522 20.864 18.5002L20.8617 18.4964L12.8617 4.49636L12.86 4.49328C12.7728 4.33938 12.6463 4.21137 12.4935 4.12231C12.3406 4.03325 12.1669 3.98633 11.99 3.98633Z" fill="currentColor"/>
</svg>
