<svg viewBox="0 0 24 24" fill="none" xmlns="http://www.w3.org/2000/svg">
<path fill-rule="evenodd" clip-rule="evenodd" d="M4 5C3.29754 5 3 5.45886 3 5.71429V14.2857C3 14.5411 3.29754 15 4 15H20C20.7025 15 21 14.5411 21 14.2857V5.71429C21 5.45886 20.7025 5 20 5H4ZM1 5.71429C1 4.07616 2.49332 3 4 3H20C21.5067 3 23 4.07616 23 5.71429V14.2857C23 15.9238 21.5067 17 20 17H4C2.49332 17 1 15.9238 1 14.2857V5.71429ZM6 21C6 20.4477 6.44772 20 7 20H17C17.5523 20 18 20.4477 18 21C18 21.5523 17.5523 22 17 22H7C6.44772 22 6 21.5523 6 21Z" fill="currentColor"/>
</svg>
