<svg viewBox="0 0 24 24" fill="none" xmlns="http://www.w3.org/2000/svg">
<path fill-rule="evenodd" clip-rule="evenodd" d="M14.3724 3.7746C13.5737 3.18627 12.5849 2.91569 11.598 3.01538C10.6111 3.11507 9.69637 3.57792 9.0315 4.31408C8.36663 5.05024 7.999 6.00719 8 6.99915L8 10H19C20.6569 10 22 11.3431 22 13V20C22 21.6569 20.6569 23 19 23H5C3.34315 23 2 21.6569 2 20V13C2 11.3431 3.34315 10 5 10H6L6 6.99858C5.99915 5.51156 6.55052 4.07716 7.54725 2.97356C8.54456 1.86932 9.9166 1.17504 11.397 1.02551C12.8774 0.875971 14.3606 1.28185 15.5586 2.16434C16.7566 3.04683 17.5839 4.34298 17.88 5.80116C17.9899 6.3424 17.6402 6.87025 17.099 6.98016C16.5578 7.09006 16.0299 6.74039 15.92 6.19915C15.7226 5.22703 15.171 4.36293 14.3724 3.7746ZM5 12C4.44772 12 4 12.4477 4 13V20C4 20.5523 4.44772 21 5 21H19C19.5523 21 20 20.5523 20 20V13C20 12.4477 19.5523 12 19 12H5Z" fill="currentColor"/>
</svg>
