<svg viewBox="0 0 24 24" fill="none" xmlns="http://www.w3.org/2000/svg">
<path d="M21.4443 11.9665C20.8501 11.3565 20.7177 10.4298 21.1168 9.67529C21.4018 9.13756 21.4218 8.49816 21.1701 7.94279C20.9193 7.38825 20.426 6.98327 19.836 6.84883C19.0103 6.65979 18.4011 5.95233 18.3336 5.10036C18.2845 4.49289 17.9578 3.94256 17.4487 3.6132C16.9412 3.283 16.3096 3.21158 15.7405 3.42079C14.9438 3.71234 14.0522 3.44768 13.5389 2.76879C13.1723 2.28483 12.6023 2 11.9974 2C11.3932 2 10.8233 2.28483 10.4566 2.76879C9.94582 3.44852 9.05421 3.71318 8.25759 3.42163C7.6893 3.21326 7.05767 3.28468 6.54937 3.61404C6.04107 3.9434 5.71359 4.49373 5.66526 5.1012C5.59693 5.95317 4.98863 6.66147 4.16285 6.84968C3.57289 6.98411 3.07958 7.38909 2.82877 7.94362C2.57795 8.49816 2.59795 9.1384 2.88293 9.67529C3.28207 10.429 3.14958 11.3565 2.55628 11.9665C2.13214 12.4009 1.93382 13.0101 2.01965 13.6133C2.10548 14.2166 2.46629 14.7451 2.99459 15.0417C3.73454 15.4576 4.12119 16.3104 3.94786 17.1464C3.82537 17.743 3.98453 18.363 4.38034 18.8235C4.77698 19.2847 5.36361 19.5326 5.96524 19.494C6.81185 19.441 7.59264 19.9477 7.89595 20.745C8.11177 21.3147 8.57924 21.7491 9.16004 21.9205C9.73917 22.0919 10.3658 21.981 10.8524 21.6205C11.5349 21.1139 12.4657 21.1139 13.1473 21.6205C13.6339 21.9818 14.2606 22.0927 14.8397 21.9205C15.4205 21.7491 15.888 21.3138 16.1046 20.745C16.4071 19.9477 17.1887 19.4402 18.0345 19.494C18.6378 19.5326 19.2236 19.2847 19.6194 18.8235C20.0152 18.363 20.1752 17.743 20.0519 17.1464C19.8794 16.3104 20.2652 15.4576 21.006 15.0417C21.5334 14.7443 21.8934 14.2166 21.9801 13.6133C22.0667 13.0101 21.8676 12.4009 21.4443 11.9665ZM10.9583 16.5289L8.00405 13.6401C7.56559 13.2114 7.56019 12.5076 7.99202 12.0722C8.41614 11.6445 9.10464 11.6354 9.53999 12.0516L10.9583 13.4075L14.8818 9.35246C15.3092 8.91073 16.0161 8.90637 16.449 9.34279C16.8702 9.76757 16.8735 10.4516 16.4562 10.8803L10.9583 16.5289Z" fill="currentColor"/>
</svg>
