<svg viewBox="0 0 24 24" fill="none" xmlns="http://www.w3.org/2000/svg">
<path fill-rule="evenodd" clip-rule="evenodd" d="M2.90076 8.97633L2 7.81823C2 7.81823 5.47431 3.70054 8.17651 3.18583C10.4211 2.6757 10.886 5.64409 11.303 8.30666C11.4119 9.00216 11.5176 9.67679 11.6508 10.2631C12.2942 12.8367 12.8089 14.3808 13.3236 14.3808C13.8384 14.3808 14.9965 12.8367 16.1545 10.6491C17.4413 8.33294 16.1545 6.40277 13.967 7.81823C14.8678 2.15641 23.7465 0.869631 22.5884 7.30351C21.4303 13.8661 14.9965 19.2705 13.0663 20.5573C11.1361 21.8441 9.33464 20.0426 8.69125 18.7558C8.42077 18.1067 7.8547 16.2751 7.25109 14.3221C6.41886 11.6294 5.51527 8.70586 5.21694 8.33294C4.57355 7.56087 2.90076 8.97633 2.90076 8.97633Z" fill="currentColor"/>
</svg>
