<svg viewBox="0 0 24 24" fill="none" xmlns="http://www.w3.org/2000/svg">
<path fill-rule="evenodd" clip-rule="evenodd" d="M18.363 4.22247C18.7536 3.83201 19.3867 3.8321 19.7772 4.22269C21.8394 6.28549 22.9979 9.08288 22.9979 11.9997C22.9979 14.9165 21.8394 17.7139 19.7772 19.7767C19.3867 20.1673 18.7536 20.1674 18.363 19.7769C17.9724 19.3864 17.9723 18.7533 18.3628 18.3627C20.05 16.6749 20.9979 14.3862 20.9979 11.9997C20.9979 9.61321 20.05 7.32444 18.3628 5.63669C17.9723 5.2461 17.9724 4.61294 18.363 4.22247ZM11.4332 4.09838C11.7797 4.2649 12 4.61528 12 4.99969V18.9997C12 19.3841 11.7797 19.7345 11.4332 19.901C11.0867 20.0675 10.6755 20.0207 10.3753 19.7806L5.64922 15.9997H2C1.44772 15.9997 1 15.552 1 14.9997V8.99969C1 8.4474 1.44772 7.99969 2 7.99969H5.64922L10.3753 4.21882C10.6755 3.97868 11.0867 3.93186 11.4332 4.09838ZM10 7.08031L6.62469 9.78056C6.44738 9.92241 6.22707 9.99969 6 9.99969H3V13.9997H6C6.22707 13.9997 6.44738 14.077 6.62469 14.2188L10 16.9191V7.08031ZM14.833 7.75247C15.2236 7.36201 15.8567 7.3621 16.2472 7.75269C17.372 8.87785 18.0039 10.4037 18.0039 11.9947C18.0039 13.5857 17.372 15.1115 16.2472 16.2367C15.8567 16.6273 15.2236 16.6274 14.833 16.2369C14.4424 15.8464 14.4423 15.2133 14.8328 14.8227C15.5827 14.0726 16.0039 13.0553 16.0039 11.9947C16.0039 10.934 15.5827 9.9168 14.8328 9.16669C14.4423 8.7761 14.4424 8.14294 14.833 7.75247Z" fill="currentColor"/>
</svg>
