<svg viewBox="0 0 24 24" fill="none" xmlns="http://www.w3.org/2000/svg">
<path fill-rule="evenodd" clip-rule="evenodd" d="M9.99998 1C10.5523 1 11 1.44772 11 2C11.5523 2 12 2.44772 12 3C12 3.55228 11.5523 4 11 4C11 4.55228 10.5523 5 9.99998 5C9.4477 5 8.99998 4.55228 8.99998 4C8.4477 4 7.99998 3.55228 7.99998 3C7.99998 2.44772 8.4477 2 8.99998 2C8.99998 1.44772 9.4477 1 9.99998 1ZM18.649 1.17159C18.9186 1.0591 19.2078 1.00118 19.5 1.00118C19.7921 1.00118 20.0814 1.0591 20.351 1.17159C20.6196 1.28367 20.8634 1.44771 21.0685 1.65429C21.0692 1.65504 21.07 1.65579 21.0707 1.65655L22.343 2.92881C22.551 3.13269 22.7165 3.37588 22.8298 3.64428C22.9442 3.91508 23.0031 4.20605 23.0031 4.5C23.0031 4.79395 22.9442 5.08492 22.8298 5.35572C22.7165 5.62412 22.551 5.86731 22.343 6.07119L6.07115 22.343C5.86727 22.5511 5.62409 22.7165 5.3557 22.8299C5.0849 22.9442 4.79393 23.0031 4.49998 23.0031C4.20604 23.0031 3.91507 22.9442 3.64427 22.8299C3.37587 22.7165 3.13268 22.551 2.92879 22.343L1.65653 21.0707C1.65578 21.07 1.65502 21.0692 1.65427 21.0685C1.4477 20.8635 1.28366 20.6196 1.17157 20.351C1.05908 20.0814 1.00116 19.7921 1.00116 19.5C1.00116 19.2079 1.05908 18.9186 1.17157 18.649C1.28369 18.3803 1.4478 18.1364 1.65447 17.9313C1.65516 17.9306 1.65585 17.9299 1.65653 17.9293L17.9292 1.65655C17.9299 1.65586 17.9306 1.65517 17.9313 1.65448C18.1364 1.44782 18.3803 1.28371 18.649 1.17159ZM14 8.41421L3.06709 19.3471L3.06343 19.3507C3.04371 19.3703 3.02804 19.3935 3.01735 19.4191C3.00666 19.4448 3.00116 19.4722 3.00116 19.5C3.00116 19.5278 3.00666 19.5552 3.01735 19.5809C3.02804 19.6065 3.04371 19.6297 3.06343 19.6493L3.0671 19.6529L4.35672 20.9425C4.37536 20.9617 4.39758 20.977 4.42219 20.9874C4.44681 20.9977 4.47326 21.0031 4.49998 21.0031C4.52671 21.0031 4.55316 20.9977 4.57778 20.9874C4.60239 20.977 4.62468 20.9617 4.64332 20.9426L4.65281 20.9328L15.5858 10L14 8.41421ZM17 8.58579L15.4142 7L19.3471 3.06711L19.3507 3.06345C19.3703 3.04372 19.3935 3.02806 19.4191 3.01737C19.4447 3.00668 19.4722 3.00118 19.5 3.00118C19.5277 3.00118 19.5552 3.00668 19.5808 3.01737C19.6065 3.02806 19.6297 3.04372 19.6492 3.06345L19.6529 3.06711L20.9329 4.34711L20.9426 4.35667C20.9617 4.37531 20.9769 4.39759 20.9873 4.42221C20.9977 4.44683 21.0031 4.47328 21.0031 4.5C21.0031 4.52672 20.9977 4.55317 20.9873 4.57779C20.9769 4.60241 20.9617 4.62469 20.9426 4.64333L17 8.58579ZM4.99998 5C5.55227 5 5.99998 5.44772 5.99998 6V7H6.99998C7.55227 7 7.99998 7.44772 7.99998 8C7.99998 8.55228 7.55227 9 6.99998 9H5.99998V10C5.99998 10.5523 5.55227 11 4.99998 11C4.4477 11 3.99998 10.5523 3.99998 10V9H2.99998C2.4477 9 1.99998 8.55228 1.99998 8C1.99998 7.44772 2.4477 7 2.99998 7H3.99998V6C3.99998 5.44772 4.4477 5 4.99998 5ZM19 13C19.5523 13 20 13.4477 20 14V15H21C21.5523 15 22 15.4477 22 16C22 16.5523 21.5523 17 21 17H20V18C20 18.5523 19.5523 19 19 19C18.4477 19 18 18.5523 18 18V17H17C16.4477 17 16 16.5523 16 16C16 15.4477 16.4477 15 17 15H18V14C18 13.4477 18.4477 13 19 13Z" fill="currentColor"/>
</svg>
