<svg viewBox="0 0 24 24" fill="none" xmlns="http://www.w3.org/2000/svg">
<path fill-rule="evenodd" clip-rule="evenodd" d="M19.7 4.1625C17.6375 2.1 14.8875 1 12 1C5.95 1 1 5.95 1 12C1 13.925 1.55001 15.85 2.51251 17.5L1 23L6.77502 21.4875C8.42501 22.3125 10.2125 22.8625 12 22.8625C18.05 22.8625 23 17.9125 23 11.8625C23 8.975 21.7625 6.225 19.7 4.1625ZM12 21.075C10.35 21.075 8.70002 20.6625 7.32502 19.8375L7.05 19.7L3.6125 20.6625L4.57502 17.3625L4.3 16.95C3.3375 15.4375 2.925 13.7875 2.925 12.1375C2.925 7.1875 7.05001 3.0625 12 3.0625C14.475 3.0625 16.675 4.025 18.4625 5.675C20.25 7.4625 21.075 9.6625 21.075 12.1375C21.075 16.95 17.0875 21.075 12 21.075ZM16.95 14.2C16.675 14.0625 15.3 13.375 15.025 13.375C14.75 13.2375 14.6125 13.2375 14.475 13.5125C14.4062 13.65 14.2344 13.8562 14.0625 14.0625C13.8906 14.2688 13.7188 14.475 13.65 14.6125C13.5125 14.75 13.375 14.75 13.1 14.75C13.0571 14.7285 13.0007 14.7037 12.932 14.6735L12.932 14.6734C12.5607 14.5099 11.8283 14.1872 10.9 13.375C10.075 12.6875 9.52501 11.725 9.38752 11.45C9.25003 11.175 9.38751 11.0375 9.52501 10.9L9.52503 10.9L9.93751 10.4875C10.0063 10.4188 10.0406 10.35 10.075 10.2812C10.1094 10.2125 10.1438 10.1437 10.2125 10.075C10.3042 9.98333 10.2736 9.89167 10.2431 9.8C10.2278 9.75417 10.2125 9.70834 10.2125 9.6625C10.2125 9.52499 9.66251 8.15 9.38752 7.6C9.25002 7.1875 8.97502 7.1875 8.83753 7.1875H8.28749C8.14999 7.1875 7.87499 7.1875 7.59999 7.4625L7.59999 7.4625C7.32499 7.73751 6.63752 8.42501 6.63752 9.8C6.63752 10.9409 7.30012 11.9871 7.60432 12.4674L7.60433 12.4674L7.60462 12.4678C7.66689 12.5662 7.71412 12.6408 7.7375 12.6875C7.75452 12.7045 7.79681 12.7637 7.86308 12.8563C8.33221 13.5124 10.0029 15.8486 12.4125 16.8125C14.3539 17.6119 14.9675 17.5577 15.4348 17.5163H15.4348C15.5301 17.5079 15.6193 17.5 15.7125 17.5C16.2625 17.5 17.3625 16.8125 17.5 16.2625C17.775 15.575 17.775 15.025 17.6375 15.025C17.5214 14.4445 17.3073 14.3542 17.078 14.2573L17.0779 14.2573C17.0356 14.2395 16.9928 14.2214 16.95 14.2Z" fill="currentColor"/>
</svg>
