<svg viewBox="0 0 24 24" fill="none" xmlns="http://www.w3.org/2000/svg">
<path d="M13.0514 18.0105C13.632 18.58 13.632 19.5033 13.0514 20.0729C12.4708 20.6424 11.5294 20.6424 10.9487 20.0729C10.3681 19.5033 10.3681 18.58 10.9487 18.0105C11.5294 17.4409 12.4708 17.4409 13.0514 18.0105Z" fill="currentColor"/>
<path fill-rule="evenodd" clip-rule="evenodd" d="M7.44436 16.6355C6.86373 16.066 6.86373 15.1426 7.44436 14.5731C9.96041 12.1052 14.0397 12.1052 16.5558 14.5731C17.1364 15.1426 17.1364 16.066 16.5558 16.6355C15.9752 17.205 15.0338 17.205 14.4532 16.6355C13.0984 15.3066 10.9018 15.3066 9.547 16.6355C8.96637 17.205 8.02499 17.205 7.44436 16.6355Z" fill="currentColor"/>
<path fill-rule="evenodd" clip-rule="evenodd" d="M3.93997 13.1982C3.35934 12.6287 3.35934 11.7053 3.93997 11.1358C8.39145 6.76951 15.6087 6.76951 20.0602 11.1358C20.6408 11.7053 20.6408 12.6287 20.0602 13.1982C19.4796 13.7677 18.5382 13.7677 17.9576 13.1982C14.6673 9.97094 9.33284 9.97094 6.04261 13.1982C5.46198 13.7677 4.5206 13.7677 3.93997 13.1982Z" fill="currentColor"/>
<path fill-rule="evenodd" clip-rule="evenodd" d="M0.435471 9.7609C-0.145157 9.19139 -0.145157 8.26802 0.435471 7.6985C6.82238 1.43383 17.1776 1.43383 23.5645 7.6985C24.1452 8.26802 24.1452 9.19139 23.5645 9.7609C22.9839 10.3304 22.0425 10.3304 21.4619 9.7609C16.2362 4.63526 7.76377 4.63526 2.53811 9.7609C1.95748 10.3304 1.0161 10.3304 0.435471 9.7609Z" fill="currentColor"/>
</svg>
