<svg viewBox="0 0 24 24" fill="none" xmlns="http://www.w3.org/2000/svg">
<path fill-rule="evenodd" clip-rule="evenodd" d="M1.2929 1.29289C1.68343 0.902369 2.31659 0.902369 2.70712 1.29289L6.86115 5.44693C6.87218 5.45746 6.88298 5.46826 6.89356 5.47933L10.9381 9.52383C10.9446 9.5302 10.9511 9.53666 10.9574 9.54322L22.7071 21.2929C23.0976 21.6834 23.0976 22.3166 22.7071 22.7071C22.3166 23.0976 21.6834 23.0976 21.2929 22.7071L15.9692 17.3834C15.5945 17.5825 15.1191 17.5269 14.8 17.2141C14.0523 16.4812 13.047 16.0707 12 16.0707C10.953 16.0707 9.94772 16.4812 9.20001 17.2141C8.8056 17.6007 8.17247 17.5944 7.78587 17.2C7.39927 16.8056 7.4056 16.1725 7.80001 15.7859C8.92158 14.6865 10.4295 14.0707 12 14.0707C12.2341 14.0707 12.4669 14.0844 12.6971 14.1113L9.91805 11.3323C8.3273 11.7242 6.8702 12.544 5.70713 13.7071C5.31662 14.0976 4.68345 14.0976 4.29292 13.7071C3.90239 13.3166 3.90237 12.6834 4.29289 12.2929C5.43591 11.1498 6.81129 10.2781 8.31712 9.73133L5.9516 7.36581C4.75967 7.93917 3.65395 8.67906 2.66804 9.56414C2.25706 9.93308 1.62481 9.899 1.25587 9.48803C0.886931 9.07705 0.921006 8.4448 1.33198 8.07586C2.28578 7.21962 3.33768 6.48227 4.46441 5.87862L1.2929 2.70711C0.902378 2.31658 0.902378 1.68342 1.2929 1.29289ZM21.3336 9.50561C18.3466 6.83599 14.4926 5.65995 10.7494 5.99599C10.1994 6.04538 9.7134 5.63949 9.66401 5.08942C9.61463 4.53934 10.0205 4.05339 10.5706 4.00401C14.8474 3.62005 19.2534 4.96402 22.6664 8.01439C23.0782 8.38243 23.1137 9.0146 22.7456 9.42639C22.3776 9.83817 21.7454 9.87364 21.3336 9.50561ZM15.9764 10.7634C16.2451 10.2809 16.8541 10.1076 17.3366 10.3764C18.2328 10.8755 19.0547 11.4975 19.7786 12.2244C20.1683 12.6157 20.167 13.2489 19.7757 13.6386C19.3843 14.0283 18.7512 14.027 18.3614 13.6356C17.7692 13.0409 17.0967 12.532 16.3634 12.1236C15.8809 11.8549 15.7076 11.2459 15.9764 10.7634ZM11 20C11 19.4477 11.4477 19 12 19H12.01C12.5623 19 13.01 19.4477 13.01 20C13.01 20.5523 12.5623 21 12.01 21H12C11.4477 21 11 20.5523 11 20Z" fill="currentColor"/>
</svg>
