<svg viewBox="0 0 24 24" fill="none" xmlns="http://www.w3.org/2000/svg">
<path fill-rule="evenodd" clip-rule="evenodd" d="M12 6C8.55632 6 5.23345 7.26923 2.66668 9.56502C2.25503 9.93321 1.62284 9.89797 1.25465 9.48633C0.886464 9.07468 0.921694 8.44249 1.33334 8.0743C4.2668 5.45054 8.06437 4 12 4C15.9356 4 19.7332 5.45054 22.6667 8.0743C23.0783 8.44249 23.1136 9.07468 22.7454 9.48633C22.3772 9.89797 21.745 9.93321 21.3333 9.56502C18.7666 7.26923 15.4437 6 12 6ZM12 11.1411C9.64424 11.1411 7.38237 12.0648 5.70001 13.7138C5.3056 14.1004 4.67247 14.0941 4.28587 13.6997C3.89927 13.3053 3.9056 12.6721 4.30001 12.2855C6.35623 10.27 9.12073 9.14109 12 9.14109C14.8793 9.14109 17.6438 10.27 19.7 12.2855C20.0944 12.6721 20.1008 13.3053 19.7142 13.6997C19.3276 14.0941 18.6944 14.1004 18.3 13.7138C16.6177 12.0648 14.3558 11.1411 12 11.1411ZM12 16.0704C10.953 16.0704 9.94773 16.4809 9.20001 17.2138C8.8056 17.6004 8.17247 17.5941 7.78587 17.1997C7.39927 16.8053 7.4056 16.1721 7.80001 15.7855C8.92158 14.6862 10.4295 14.0704 12 14.0704C13.5705 14.0704 15.0784 14.6862 16.2 15.7855C16.5944 16.1721 16.6008 16.8053 16.2142 17.1997C15.8276 17.5941 15.1944 17.6004 14.8 17.2138C14.0523 16.4809 13.047 16.0704 12 16.0704ZM11 19.9997C11 19.4474 11.4477 18.9997 12 18.9997H12.01C12.5623 18.9997 13.01 19.4474 13.01 19.9997C13.01 20.5519 12.5623 20.9997 12.01 20.9997H12C11.4477 20.9997 11 20.5519 11 19.9997Z" fill="currentColor"/>
</svg>
