<svg viewBox="0 0 24 24" fill="none" xmlns="http://www.w3.org/2000/svg">
<path fill-rule="evenodd" clip-rule="evenodd" d="M11.2194 5.01846C11.057 4.98681 10.8892 4.99596 10.7312 5.04508C10.5732 5.0942 10.4299 5.18175 10.314 5.2999C9.92739 5.69426 9.29426 5.7005 8.8999 5.31385C8.50555 4.9272 8.4993 4.29406 8.88595 3.8997C9.23347 3.54526 9.66351 3.28259 10.1375 3.13523C10.6115 2.98788 11.1147 2.96044 11.6019 3.05539C12.0891 3.15034 12.5452 3.3647 12.9292 3.67926C13.3132 3.99382 13.6131 4.39875 13.8021 4.85775C13.9911 5.31675 14.0633 5.81547 14.0121 6.30922C13.9609 6.80296 13.7881 7.27629 13.509 7.68678C13.2299 8.09728 12.8533 8.4321 12.4129 8.66124C11.9749 8.8892 11.4874 9.00547 10.9936 8.9998H2C1.44772 8.9998 1 8.55209 1 7.9998C1 7.44752 1.44772 6.9998 2 6.9998H11.014C11.1795 7.00213 11.3429 6.96346 11.4897 6.88708C11.6365 6.8107 11.762 6.69909 11.8551 6.56226C11.9481 6.42543 12.0057 6.26765 12.0228 6.10307C12.0398 5.93849 12.0158 5.77225 11.9528 5.61925C11.8898 5.46625 11.7898 5.33127 11.6618 5.22642C11.5338 5.12157 11.3818 5.05011 11.2194 5.01846ZM19.7378 8.03176C19.4991 7.98238 19.2519 7.99195 19.0177 8.05962C18.7834 8.1273 18.5692 8.25105 18.3936 8.42015C17.9958 8.80322 17.3627 8.79125 16.9797 8.39342C16.5966 7.99558 16.6086 7.36253 17.0064 6.97945C17.4162 6.58488 17.916 6.29613 18.4625 6.13822C19.009 5.98031 19.5858 5.95799 20.1429 6.0732C20.6999 6.18841 21.2205 6.43767 21.6596 6.7994C22.0986 7.16114 22.4429 7.62444 22.6626 8.14919C22.8822 8.67394 22.9707 9.24433 22.9203 9.81096C22.8698 10.3776 22.682 10.9234 22.3731 11.4011C22.0643 11.8788 21.6436 12.274 21.1475 12.5525C20.6515 12.831 20.0951 12.9844 19.5264 12.9995C19.5176 12.9997 19.5088 12.9998 19.5 12.9998H2C1.44772 12.9998 1 12.5521 1 11.9998C1 11.4475 1.44772 10.9998 2 10.9998H19.4851C19.7248 10.9916 19.9592 10.9261 20.1684 10.8086C20.381 10.6893 20.5613 10.5199 20.6937 10.3151C20.826 10.1104 20.9065 9.8765 20.9281 9.63365C20.9497 9.39081 20.9118 9.14636 20.8177 8.92147C20.7236 8.69657 20.576 8.49801 20.3878 8.34299C20.1997 8.18796 19.9766 8.08113 19.7378 8.03176ZM13.9936 14.9998C14.4874 14.9941 14.9749 15.1104 15.4129 15.3384C15.8533 15.5675 16.2299 15.9023 16.509 16.3128C16.7881 16.7233 16.961 17.1966 17.0121 17.6904C17.0633 18.1841 16.9911 18.6829 16.8021 19.1419C16.6131 19.6009 16.3132 20.0058 15.9292 20.3203C15.5452 20.6349 15.0891 20.8493 14.6019 20.9442C14.1147 21.0392 13.6115 21.0117 13.1375 20.8644C12.6635 20.717 12.2335 20.4543 11.886 20.0999C11.4993 19.7055 11.5055 19.0724 11.8999 18.6858C12.2943 18.2991 12.9274 18.3053 13.314 18.6997C13.4299 18.8179 13.5732 18.9054 13.7312 18.9545C13.8892 19.0036 14.057 19.0128 14.2194 18.9811C14.3818 18.9495 14.5338 18.878 14.6618 18.7732C14.7898 18.6683 14.8898 18.5334 14.9528 18.3804C15.0158 18.2274 15.0398 18.0611 15.0228 17.8965C15.0057 17.732 14.9481 17.5742 14.8551 17.4373C14.762 17.3005 14.6365 17.1889 14.4897 17.1125C14.3429 17.0361 14.1795 16.9974 14.014 16.9997L14 16.9999L2 16.9998C1.44772 16.9998 1 16.5521 1 15.9998C1 15.4475 1.44772 14.9998 2 14.9998H13.9936Z" fill="currentColor"/>
</svg>
