<svg viewBox="0 0 24 24" fill="none" xmlns="http://www.w3.org/2000/svg">
<path fill-rule="evenodd" clip-rule="evenodd" d="M12.0906 5.28833C11.8242 5.30149 11.5485 5.12716 10.914 4.74362C10.4016 4.43393 9.32541 3.99899 8.52242 3.77709C7.71942 3.55519 7.10969 3.29556 7.16746 3.20014C7.22522 3.10472 8.0156 2.78271 8.92385 2.48457C11.3011 1.7042 14.1148 1.87614 16.2112 2.92987C17.0271 3.33999 17.4746 3.62095 17.2056 3.55422C16.6065 3.40562 13.9963 4.21294 12.9512 4.87005C12.5322 5.13353 12.3147 5.27726 12.0906 5.28833ZM19.9605 17.3657L19.973 18.2908L20.652 17.2552C21.7008 15.6553 22.0794 14.0161 21.9864 11.4771C21.9171 9.58405 21.8026 9.06638 21.1587 7.73397C20.7476 6.88353 19.9826 5.76115 19.4587 5.23978L18.506 4.29184L17.6459 4.76207C17.1729 5.0207 16.2606 5.72443 15.6185 6.32592L14.4512 7.41953L15.7532 9.07273C18.4466 12.4925 19.9343 15.4249 19.9605 17.3657ZM4.13662 17.8102C4.33444 18.4465 4.19558 18.3527 3.58544 17.4379C2.03771 15.1172 1.54047 11.2959 2.46342 8.8151C3.03506 7.27859 4.38251 5.18624 5.11658 4.69521C5.64682 4.34052 5.74842 4.34425 6.47785 4.74529C6.91139 4.98364 7.81635 5.68179 8.48887 6.29673L9.71163 7.4148L8.40219 9.07036C5.77103 12.397 3.74456 16.5491 4.13662 17.8102ZM17.9741 20.1149C15.8053 21.7085 12.259 22.4134 9.7302 21.7535C7.35659 21.1341 4.70968 19.3986 4.70968 18.4617C4.70968 17.2075 7.39611 13.6969 10.3408 11.1031L11.9974 9.64388L12.7403 10.1722C13.9074 11.0021 17.6417 14.9508 18.4772 16.2384C19.8327 18.3277 19.7723 18.7935 17.9741 20.1149Z" fill="currentColor"/>
</svg>
