<svg viewBox="0 0 24 24" fill="none" xmlns="http://www.w3.org/2000/svg">
  <path
    d="M8.5841 11.6705L12.6283 19.6338C12.7006 19.7511 12.6572 19.8685 12.5417 19.8685H10.014C9.94956 19.8771 9.88414 19.8629 9.82885 19.8281C9.77356 19.7934 9.73182 19.7403 9.71071 19.6778C8.78631 17.742 7.84266 15.7328 6.87974 13.6503C6.01312 15.6155 5.07428 17.7566 4.13544 19.6925C4.11265 19.7424 4.0758 19.7844 4.02953 19.8131C3.98325 19.8419 3.92964 19.856 3.87546 19.8538H1.46336C1.31892 19.8538 1.30448 19.7365 1.3767 19.6485L5.34871 11.9198L1.52114 4.22043C1.49798 4.19645 1.48501 4.1642 1.48501 4.13061C1.48501 4.09702 1.49798 4.06477 1.52114 4.04078C1.53453 4.02656 1.55088 4.01556 1.569 4.00858C1.58712 4.0016 1.60654 3.99882 1.62585 4.00045H4.11017C4.2546 4.00045 4.32682 4.02978 4.37015 4.16177C5.28011 6.12694 6.17562 8.04812 7.05668 10.028H7.08196C7.91969 8.09211 8.84409 6.14161 9.72515 4.22043C9.79737 4.10311 9.8407 4.02978 9.98514 4.02978H12.3106C12.4261 4.02978 12.4695 4.11778 12.3972 4.24977L8.5841 11.6705ZM13.5094 14.0463C13.5094 10.6292 15.676 7.96012 19.2291 7.96012C19.4798 7.95525 19.7306 7.96504 19.9802 7.98945V4.17644C19.9802 4.13754 19.9954 4.10024 20.0225 4.07274C20.0496 4.04523 20.0863 4.02978 20.1246 4.02978H22.45C22.5656 4.02978 22.5945 4.07378 22.5945 4.14711V17.5513C22.586 18.0315 22.6101 18.5117 22.6667 18.9885C22.6667 19.0912 22.6667 19.1059 22.58 19.1499C21.4249 19.7084 20.1619 19.999 18.8825 20.0005C15.7482 20.0005 13.5094 18.0353 13.5094 14.0463ZM19.9802 10.2919C19.7148 10.1815 19.4289 10.1315 19.1424 10.1453C17.337 10.1453 16.1093 11.5678 16.1093 13.929C16.1093 16.6274 17.3514 17.7126 18.9691 17.7126C19.3084 17.7236 19.6466 17.6689 19.9657 17.5513V10.2919H19.9802Z"
    fill="currentColor" />
</svg>