<svg viewBox="0 0 24 24" fill="none" xmlns="http://www.w3.org/2000/svg">
<path fill-rule="evenodd" clip-rule="evenodd" d="M21.8292 5.41467C22.1705 5.7582 22.4156 6.18536 22.54 6.6534C23 8.3809 23 11.9834 23 11.9834C23 11.9834 23 15.5859 22.54 17.3134C22.4156 17.7814 22.1705 18.2086 21.8292 18.5521C21.4878 18.8957 21.0622 19.1435 20.595 19.2709C18.875 19.7334 12 19.7334 12 19.7334C12 19.7334 5.125 19.7334 3.405 19.2709C2.93777 19.1435 2.51219 18.8957 2.17085 18.5521C1.82951 18.2086 1.58438 17.7814 1.46 17.3134C1 15.5859 1 11.9834 1 11.9834C1 11.9834 1 8.3809 1.46 6.6534C1.58438 6.18536 1.82951 5.7582 2.17085 5.41467C2.51219 5.07113 2.93777 4.82327 3.405 4.6959C5.125 4.2334 12 4.2334 12 4.2334C12 4.2334 18.875 4.2334 20.595 4.6959C21.0622 4.82327 21.4878 5.07113 21.8292 5.41467ZM15.5001 11.9831L9.75008 8.71184V15.2543L15.5001 11.9831Z" fill="currentColor"/>
</svg>
